<svg xmlns="http://www.w3.org/2000/svg" xmlns:xlink="http://www.w3.org/1999/xlink" contentStyleType="text/css" data-diagram-type="CLASS" height="521px" preserveAspectRatio="none" style="width:1159px;height:521px;background:#FFFFFF;" version="1.1" viewBox="0 0 1159 521" width="1159px" zoomAndPan="magnify"><title>MERIter Claims Relationship Diagram</title><defs/><g><g class="title" data-source-line="12"><text fill="#000000" font-family="sans-serif" font-size="32" font-weight="bold" lengthAdjust="spacing" textLength="539.5938" x="302.9162" y="39.6875">MERIter Claims Relationship Diagram</text></g><!--cluster CoreClaims--><g class="cluster" data-entity="CoreClaims" data-source-line="40" data-uid="ent0002" id="cluster_CoreClaims"><path d="M8.5,236.2445 L108.0781,236.2445 A3.75,3.75 0 0 1 110.5781,238.7445 L117.5781,263.3383 L183.5,263.3383 A2.5,2.5 0 0 1 186,265.8383 L186,511.7445 A2.5,2.5 0 0 1 183.5,514.2445 L8.5,514.2445 A2.5,2.5 0 0 1 6,511.7445 L6,238.7445 A2.5,2.5 0 0 1 8.5,236.2445" fill="none" style="stroke:#666666;stroke-width:1.5;"/><line style="stroke:#666666;stroke-width:1.5;" x1="6" x2="117.5781" y1="263.3383" y2="263.3383"/><text fill="#000000" font-family="sans-serif" font-size="18" font-weight="bold" lengthAdjust="spacing" textLength="98.5781" x="10" y="254.9438">Core Claims</text></g><!--cluster MethodologyClaims--><g class="cluster" data-entity="MethodologyClaims" data-source-line="46" data-uid="ent0005" id="cluster_MethodologyClaims"><path d="M776.5,236.2445 L944.2549,236.2445 A3.75,3.75 0 0 1 946.7549,238.7445 L953.7549,263.3383 L1056.5,263.3383 A2.5,2.5 0 0 1 1059,265.8383 L1059,511.7445 A2.5,2.5 0 0 1 1056.5,514.2445 L776.5,514.2445 A2.5,2.5 0 0 1 774,511.7445 L774,238.7445 A2.5,2.5 0 0 1 776.5,236.2445" fill="none" style="stroke:#666666;stroke-width:1.5;"/><line style="stroke:#666666;stroke-width:1.5;" x1="774" x2="953.7549" y1="263.3383" y2="263.3383"/><text fill="#000000" font-family="sans-serif" font-size="18" font-weight="bold" lengthAdjust="spacing" textLength="166.7549" x="778" y="254.9438">Methodology Claims</text></g><!--cluster MetaClaims--><g class="cluster" data-entity="MetaClaims" data-source-line="56" data-uid="ent0010" id="cluster_MetaClaims"><path d="M372.5,65.3945 L475.04,65.3945 A3.75,3.75 0 0 1 477.54,67.8945 L484.54,92.4883 L731.5,92.4883 A2.5,2.5 0 0 1 734,94.9883 L734,353.7445 A2.5,2.5 0 0 1 731.5,356.2445 L372.5,356.2445 A2.5,2.5 0 0 1 370,353.7445 L370,67.8945 A2.5,2.5 0 0 1 372.5,65.3945" fill="none" style="stroke:#666666;stroke-width:1.5;"/><line style="stroke:#666666;stroke-width:1.5;" x1="370" x2="484.54" y1="92.4883" y2="92.4883"/><text fill="#000000" font-family="sans-serif" font-size="18" font-weight="bold" lengthAdjust="spacing" textLength="101.54" x="374" y="84.0938">Meta Claims</text></g><!--class ImpactClaim--><g class="entity" data-entity="ImpactClaim" data-source-line="41" data-uid="ent0003" id="entity_ImpactClaim"><a href="" target="_top" title="The ImpactClaim is the foundational claim about work performed and impact generated within specific scopes and timeframes." xlink:actuate="onRequest" xlink:href="" xlink:show="new" xlink:title="The ImpactClaim is the foundational claim about work performed and impact generated within specific scopes and timeframes." xlink:type="simple"><rect fill="#555555" fill-opacity="0.06667" height="48" rx="2.5" ry="2.5" style="stroke:#181818;stroke-width:0.5;" width="111.2832" x="31.36" y="284.2445"/><ellipse cx="46.36" cy="300.2445" fill="#7E57C2" rx="11" ry="11" style="stroke:#181818;stroke-width:1;"/><path d="M43.5475,306.2445 L46.7663,306.2445 C49.8444,306.2445 51.9538,304.4633 51.9538,300.6508 C51.9538,296.8383 49.8444,295.1664 46.61,295.1664 L43.5475,295.1664 L43.5475,306.2445 Z M46.0631,304.2289 L46.0631,297.182 L46.4694,297.182 C48.2038,297.182 49.3756,297.9945 49.3756,300.6508 C49.3756,303.307 48.2038,304.2289 46.4694,304.2289 L46.0631,304.2289 Z " fill="#000000"/><text fill="#000000" font-family="sans-serif" font-size="14" lengthAdjust="spacing" textLength="79.2832" x="60.36" y="305.0297">ImpactClaim</text><line style="stroke:#181818;stroke-width:0.5;" x1="32.36" x2="141.6432" y1="316.2445" y2="316.2445"/><line style="stroke:#181818;stroke-width:0.5;" x1="32.36" x2="141.6432" y1="324.2445" y2="324.2445"/></a></g><!--class EligibilityClaim--><g class="entity" data-entity="EligibilityClaim" data-source-line="43" data-uid="ent0004" id="entity_EligibilityClaim"><a href="" target="_top" title="The EligibilityClaim validates that a claimant is authorized to participate in a specific project or scope." xlink:actuate="onRequest" xlink:href="" xlink:show="new" xlink:title="The EligibilityClaim validates that a claimant is authorized to participate in a specific project or scope." xlink:type="simple"><rect fill="#555555" fill-opacity="0.06667" height="48" rx="2.5" ry="2.5" style="stroke:#181818;stroke-width:0.5;" width="123.123" x="30.44" y="442.2445"/><ellipse cx="45.44" cy="458.2445" fill="#7E57C2" rx="11" ry="11" style="stroke:#181818;stroke-width:1;"/><path d="M42.6275,464.2445 L45.8463,464.2445 C48.9244,464.2445 51.0338,462.4633 51.0338,458.6508 C51.0338,454.8383 48.9244,453.1664 45.69,453.1664 L42.6275,453.1664 L42.6275,464.2445 Z M45.1431,462.2289 L45.1431,455.182 L45.5494,455.182 C47.2838,455.182 48.4556,455.9945 48.4556,458.6508 C48.4556,461.307 47.2838,462.2289 45.5494,462.2289 L45.1431,462.2289 Z " fill="#000000"/><text fill="#000000" font-family="sans-serif" font-size="14" lengthAdjust="spacing" textLength="91.123" x="59.44" y="463.0297">EligibilityClaim</text><line style="stroke:#181818;stroke-width:0.5;" x1="31.44" x2="152.563" y1="474.2445" y2="474.2445"/><line style="stroke:#181818;stroke-width:0.5;" x1="31.44" x2="152.563" y1="482.2445" y2="482.2445"/></a></g><!--class MethodologyValidityClaim--><g class="entity" data-entity="MethodologyValidityClaim" data-source-line="47" data-uid="ent0006" id="entity_MethodologyValidityClaim"><a href="" target="_top" title="The MethodologyValidityClaim asserts the soundness and appropriateness of a theory of change or measurement methodology." xlink:actuate="onRequest" xlink:href="" xlink:show="new" xlink:title="The MethodologyValidityClaim asserts the soundness and appropriateness of a theory of change or measurement methodology." xlink:type="simple"><rect fill="#555555" fill-opacity="0.06667" height="48" rx="2.5" ry="2.5" style="stroke:#181818;stroke-width:0.5;" width="195.3311" x="803.33" y="442.2445"/><ellipse cx="818.33" cy="458.2445" fill="#7E57C2" rx="11" ry="11" style="stroke:#181818;stroke-width:1;"/><path d="M815.5175,464.2445 L818.7363,464.2445 C821.8144,464.2445 823.9238,462.4633 823.9238,458.6508 C823.9238,454.8383 821.8144,453.1664 818.58,453.1664 L815.5175,453.1664 L815.5175,464.2445 Z M818.0331,462.2289 L818.0331,455.182 L818.4394,455.182 C820.1738,455.182 821.3456,455.9945 821.3456,458.6508 C821.3456,461.307 820.1738,462.2289 818.4394,462.2289 L818.0331,462.2289 Z " fill="#000000"/><text fill="#000000" font-family="sans-serif" font-size="14" lengthAdjust="spacing" textLength="163.3311" x="832.33" y="463.0297">MethodologyValidityClaim</text><line style="stroke:#181818;stroke-width:0.5;" x1="804.33" x2="997.6611" y1="474.2445" y2="474.2445"/><line style="stroke:#181818;stroke-width:0.5;" x1="804.33" x2="997.6611" y1="482.2445" y2="482.2445"/></a></g><!--class MethodologyAuthorshipClaim--><g class="entity" data-entity="MethodologyAuthorshipClaim" data-source-line="49" data-uid="ent0007" id="entity_MethodologyAuthorshipClaim"><a href="" target="_top" title="The MethodologyAuthorshipClaim establishes who created or contributed to a methodology." xlink:actuate="onRequest" xlink:href="" xlink:show="new" xlink:title="The MethodologyAuthorshipClaim establishes who created or contributed to a methodology." xlink:type="simple"><rect fill="#555555" fill-opacity="0.06667" height="48" rx="2.5" ry="2.5" style="stroke:#181818;stroke-width:0.5;" width="217.5615" x="798.22" y="284.2445"/><ellipse cx="813.22" cy="300.2445" fill="#7E57C2" rx="11" ry="11" style="stroke:#181818;stroke-width:1;"/><path d="M810.4075,306.2445 L813.6263,306.2445 C816.7044,306.2445 818.8138,304.4633 818.8138,300.6508 C818.8138,296.8383 816.7044,295.1664 813.47,295.1664 L810.4075,295.1664 L810.4075,306.2445 Z M812.9231,304.2289 L812.9231,297.182 L813.3294,297.182 C815.0638,297.182 816.2356,297.9945 816.2356,300.6508 C816.2356,303.307 815.0638,304.2289 813.3294,304.2289 L812.9231,304.2289 Z " fill="#000000"/><text fill="#000000" font-family="sans-serif" font-size="14" lengthAdjust="spacing" textLength="185.5615" x="827.22" y="305.0297">MethodologyAuthorshipClaim</text><line style="stroke:#181818;stroke-width:0.5;" x1="799.22" x2="1014.7815" y1="316.2445" y2="316.2445"/><line style="stroke:#181818;stroke-width:0.5;" x1="799.22" x2="1014.7815" y1="324.2445" y2="324.2445"/></a></g><!--class ReviewClaim--><g class="entity" data-entity="ReviewClaim" data-source-line="57" data-uid="ent0011" id="entity_ReviewClaim"><a href="" target="_top" title="The ReviewClaim provides peer review and validation of methodology validity claims or other claims." xlink:actuate="onRequest" xlink:href="" xlink:show="new" xlink:title="The ReviewClaim provides peer review and validation of methodology validity claims or other claims." xlink:type="simple"><rect fill="#555555" fill-opacity="0.06667" height="48" rx="2.5" ry="2.5" style="stroke:#181818;stroke-width:0.5;" width="111.9941" x="427" y="284.2445"/><ellipse cx="442" cy="300.2445" fill="#7E57C2" rx="11" ry="11" style="stroke:#181818;stroke-width:1;"/><path d="M439.1875,306.2445 L442.4063,306.2445 C445.4844,306.2445 447.5938,304.4633 447.5938,300.6508 C447.5938,296.8383 445.4844,295.1664 442.25,295.1664 L439.1875,295.1664 L439.1875,306.2445 Z M441.7031,304.2289 L441.7031,297.182 L442.1094,297.182 C443.8438,297.182 445.0156,297.9945 445.0156,300.6508 C445.0156,303.307 443.8438,304.2289 442.1094,304.2289 L441.7031,304.2289 Z " fill="#000000"/><text fill="#000000" font-family="sans-serif" font-size="14" lengthAdjust="spacing" textLength="79.9941" x="456" y="305.0297">ReviewClaim</text><line style="stroke:#181818;stroke-width:0.5;" x1="428" x2="537.9941" y1="316.2445" y2="316.2445"/><line style="stroke:#181818;stroke-width:0.5;" x1="428" x2="537.9941" y1="324.2445" y2="324.2445"/></a></g><!--class EndorsementClaim--><g class="entity" data-entity="EndorsementClaim" data-source-line="59" data-uid="ent0012" id="entity_EndorsementClaim"><a href="" target="_top" title="The EndorsementClaim provides endorsements or support for reviews, evaluations, or other claims." xlink:actuate="onRequest" xlink:href="" xlink:show="new" xlink:title="The EndorsementClaim provides endorsements or support for reviews, evaluations, or other claims." xlink:type="simple"><rect fill="#555555" fill-opacity="0.06667" height="48" rx="2.5" ry="2.5" style="stroke:#181818;stroke-width:0.5;" width="150.7881" x="393.61" y="113.3945"/><ellipse cx="408.61" cy="129.3945" fill="#7E57C2" rx="11" ry="11" style="stroke:#181818;stroke-width:1;"/><path d="M405.7975,135.3945 L409.0163,135.3945 C412.0944,135.3945 414.2038,133.6133 414.2038,129.8008 C414.2038,125.9883 412.0944,124.3164 408.86,124.3164 L405.7975,124.3164 L405.7975,135.3945 Z M408.3131,133.3789 L408.3131,126.332 L408.7194,126.332 C410.4538,126.332 411.6256,127.1445 411.6256,129.8008 C411.6256,132.457 410.4538,133.3789 408.7194,133.3789 L408.3131,133.3789 Z " fill="#000000"/><text fill="#000000" font-family="sans-serif" font-size="14" lengthAdjust="spacing" textLength="118.7881" x="422.61" y="134.1797">EndorsementClaim</text><line style="stroke:#181818;stroke-width:0.5;" x1="394.61" x2="543.3981" y1="145.3945" y2="145.3945"/><line style="stroke:#181818;stroke-width:0.5;" x1="394.61" x2="543.3981" y1="153.3945" y2="153.3945"/></a></g><!--class MeasurementClaim--><g class="entity" data-entity="MeasurementClaim" data-source-line="52" data-uid="ent0008" id="entity_MeasurementClaim"><a href="" target="_top" title="The MeasurementClaim provides independent measurements and assessments of impact claims." xlink:actuate="onRequest" xlink:href="" xlink:show="new" xlink:title="The MeasurementClaim provides independent measurements and assessments of impact claims." xlink:type="simple"><rect fill="#555555" fill-opacity="0.06667" height="48" rx="2.5" ry="2.5" style="stroke:#181818;stroke-width:0.5;" width="154.1992" x="221.9" y="442.2445"/><ellipse cx="236.9" cy="458.2445" fill="#7E57C2" rx="11" ry="11" style="stroke:#181818;stroke-width:1;"/><path d="M234.0875,464.2445 L237.3063,464.2445 C240.3844,464.2445 242.4938,462.4633 242.4938,458.6508 C242.4938,454.8383 240.3844,453.1664 237.15,453.1664 L234.0875,453.1664 L234.0875,464.2445 Z M236.6031,462.2289 L236.6031,455.182 L237.0094,455.182 C238.7438,455.182 239.9156,455.9945 239.9156,458.6508 C239.9156,461.307 238.7438,462.2289 237.0094,462.2289 L236.6031,462.2289 Z " fill="#000000"/><text fill="#000000" font-family="sans-serif" font-size="14" lengthAdjust="spacing" textLength="122.1992" x="250.9" y="463.0297">MeasurementClaim</text><line style="stroke:#181818;stroke-width:0.5;" x1="222.9" x2="375.0992" y1="474.2445" y2="474.2445"/><line style="stroke:#181818;stroke-width:0.5;" x1="222.9" x2="375.0992" y1="482.2445" y2="482.2445"/></a></g><!--class EvaluationClaim--><g class="entity" data-entity="EvaluationClaim" data-source-line="54" data-uid="ent0009" id="entity_EvaluationClaim"><a href="" target="_top" title="The EvaluationClaim provides evaluations and assessments of measurements or other claims." xlink:actuate="onRequest" xlink:href="" xlink:show="new" xlink:title="The EvaluationClaim provides evaluations and assessments of measurements or other claims." xlink:type="simple"><rect fill="#555555" fill-opacity="0.06667" height="48" rx="2.5" ry="2.5" style="stroke:#181818;stroke-width:0.5;" width="132.6045" x="213.7" y="284.2445"/><ellipse cx="228.7" cy="300.2445" fill="#7E57C2" rx="11" ry="11" style="stroke:#181818;stroke-width:1;"/><path d="M225.8875,306.2445 L229.1063,306.2445 C232.1844,306.2445 234.2938,304.4633 234.2938,300.6508 C234.2938,296.8383 232.1844,295.1664 228.95,295.1664 L225.8875,295.1664 L225.8875,306.2445 Z M228.4031,304.2289 L228.4031,297.182 L228.8094,297.182 C230.5438,297.182 231.7156,297.9945 231.7156,300.6508 C231.7156,303.307 230.5438,304.2289 228.8094,304.2289 L228.4031,304.2289 Z " fill="#000000"/><text fill="#000000" font-family="sans-serif" font-size="14" lengthAdjust="spacing" textLength="100.6045" x="242.7" y="305.0297">EvaluationClaim</text><line style="stroke:#181818;stroke-width:0.5;" x1="214.7" x2="345.3045" y1="316.2445" y2="316.2445"/><line style="stroke:#181818;stroke-width:0.5;" x1="214.7" x2="345.3045" y1="324.2445" y2="324.2445"/></a></g><g class="entity" data-entity="GMN28" data-source-line="92" data-uid="ent0029" id="entity_GMN28"><path d="M10.75,109.5445 L10.75,165.2477 A0,0 0 0 0 10.75,165.2477 L83,165.2477 L87,283.9845 L91,165.2477 L163.248,165.2477 A0,0 0 0 0 163.248,165.2477 L163.248,119.5445 L153.248,109.5445 L10.75,109.5445 A0,0 0 0 0 10.75,109.5445" fill="#FEFFDD" style="stroke:#181818;stroke-width:0.5;"/><path d="M153.248,109.5445 L153.248,119.5445 L163.248,119.5445 L153.248,109.5445" fill="#FEFFDD" style="stroke:#181818;stroke-width:0.5;"/><text fill="#000000" font-family="sans-serif" font-size="13" lengthAdjust="spacing" textLength="118.8281" x="16.75" y="126.6051">Central claim that all</text><text fill="#000000" font-family="sans-serif" font-size="13" lengthAdjust="spacing" textLength="129.7715" x="16.75" y="141.8395">other claims reference</text><text fill="#000000" font-family="sans-serif" font-size="13" lengthAdjust="spacing" textLength="131.498" x="16.75" y="157.0738">and build credibility for</text></g><!--link ImpactClaim to EligibilityClaim--><g class="link" data-entity-1="ImpactClaim" data-entity-2="EligibilityClaim" data-source-line="64" data-uid="lnk13" id="link_ImpactClaim_EligibilityClaim"><path codeLine="64" d="M84.94,332.5945 C83.42,353.4945 81.95,384.9545 84,412.2445 C84.73,421.9845 85.2497,426.7319 86.7397,435.9219" fill="none" id="ImpactClaim-to-EligibilityClaim" style="stroke:#0055A9;stroke-width:1;"/><polygon fill="#0055A9" points="87.7,441.8445,90.2081,432.3204,86.8998,436.909,82.3112,433.6007,87.7,441.8445" style="stroke:#0055A9;stroke-width:1;"/><text fill="#0055A9" font-family="sans-serif" font-size="13" lengthAdjust="spacing" textLength="49.772" x="85" y="393.3051">contains</text><text fill="#0055A9" font-family="sans-serif" font-size="13" lengthAdjust="spacing" textLength="42.4023" x="88.6848" y="408.5395">implicit</text></g><!--link ImpactClaim to MethodologyValidityClaim--><g class="link" data-entity-1="ImpactClaim" data-entity-2="MethodologyValidityClaim" data-source-line="65" data-uid="lnk14" id="link_ImpactClaim_MethodologyValidityClaim"><path codeLine="65" d="M102.09,332.5445 C112.75,346.7945 128.41,363.8545 147,372.2445 C189.57,391.4545 313.34,363.6745 357,380.2445 C377.96,388.1945 375.31,403.5945 396,412.2445 C467.22,442.0045 671.3263,455.5793 796.9763,461.3493" fill="none" id="ImpactClaim-to-MethodologyValidityClaim" style="stroke:#0055A9;stroke-width:1;"/><polygon fill="#0055A9" points="802.97,461.6245,794.163,457.2159,797.9753,461.3952,793.796,465.2075,802.97,461.6245" style="stroke:#0055A9;stroke-width:1;"/><text fill="#0055A9" font-family="sans-serif" font-size="13" lengthAdjust="spacing" textLength="35.3057" x="397" y="393.3051">based</text><text fill="#0055A9" font-family="sans-serif" font-size="13" lengthAdjust="spacing" textLength="14.5933" x="407.3562" y="408.5395">on</text></g><!--link MeasurementClaim to ImpactClaim--><g class="link" data-entity-1="MeasurementClaim" data-entity-2="ImpactClaim" data-source-line="68" data-uid="lnk15" id="link_MeasurementClaim_ImpactClaim"><path codeLine="68" d="M251.56,441.7545 C234.94,433.0345 216.34,422.6945 200,412.2445 C175.14,396.3445 169.03,391.8845 147,372.2445 C133.13,359.8845 122.7852,349.2858 111.5752,337.0058" fill="none" id="MeasurementClaim-to-ImpactClaim" style="stroke:#0055A9;stroke-width:1;"/><polygon fill="#0055A9" points="107.53,332.5745,110.6436,341.9183,110.901,336.2673,116.552,336.5247,107.53,332.5745" style="stroke:#0055A9;stroke-width:1;"/><text fill="#0055A9" font-family="sans-serif" font-size="13" lengthAdjust="spacing" textLength="57.2495" x="211.918" y="393.3051">measures</text><text fill="#0055A9" font-family="sans-serif" font-size="13" lengthAdjust="spacing" textLength="79.0854" x="201" y="408.5395">and relates to</text></g><!--link EvaluationClaim to MeasurementClaim--><g class="link" data-entity-1="EvaluationClaim" data-entity-2="MeasurementClaim" data-source-line="69" data-uid="lnk16" id="link_EvaluationClaim_MeasurementClaim"><path codeLine="69" d="M282.84,332.5945 C286.44,362.0945 291.854,406.5786 295.444,436.0286" fill="none" id="EvaluationClaim-to-MeasurementClaim" style="stroke:#0055A9;stroke-width:1;"/><polygon fill="#0055A9" points="296.17,441.9845,299.0516,432.5666,295.565,437.0213,291.1103,433.5347,296.17,441.9845" style="stroke:#0055A9;stroke-width:1;"/><text fill="#0055A9" font-family="sans-serif" font-size="13" lengthAdjust="spacing" textLength="55.5166" x="293.31" y="400.8051">evaluates</text></g><!--link MethodologyAuthorshipClaim to MethodologyValidityClaim--><g class="link" data-entity-1="MethodologyAuthorshipClaim" data-entity-2="MethodologyValidityClaim" data-source-line="73" data-uid="lnk17" id="link_MethodologyAuthorshipClaim_MethodologyValidityClaim"><path codeLine="73" d="M906.1,332.5945 C904.97,362.0945 903.2621,406.539 902.1221,435.989" fill="none" id="MethodologyAuthorshipClaim-to-MethodologyValidityClaim" style="stroke:#0055A9;stroke-width:1;"/><polygon fill="#0055A9" points="901.89,441.9845,906.2351,433.146,902.0834,436.9883,898.2411,432.8365,901.89,441.9845" style="stroke:#0055A9;stroke-width:1;"/><text fill="#0055A9" font-family="sans-serif" font-size="13" lengthAdjust="spacing" textLength="66.022" x="907.4683" y="393.3051">establishes</text><text fill="#0055A9" font-family="sans-serif" font-size="13" lengthAdjust="spacing" textLength="70.5986" x="905.18" y="408.5395">authority for</text></g><!--link ReviewClaim to MethodologyValidityClaim--><g class="link" data-entity-1="ReviewClaim" data-entity-2="MethodologyValidityClaim" data-source-line="74" data-uid="lnk18" id="link_ReviewClaim_MethodologyValidityClaim"><path codeLine="74" d="M539.37,330.2845 C617.26,359.3545 751.6987,409.5268 832.7587,439.7768" fill="none" id="ReviewClaim-to-MethodologyValidityClaim" style="stroke:#0055A9;stroke-width:1;"/><polygon fill="#0055A9" points="838.38,441.8745,831.3465,434.9803,833.6956,440.1264,828.5495,442.4754,838.38,441.8745" style="stroke:#0055A9;stroke-width:1;"/><text fill="#0055A9" font-family="sans-serif" font-size="13" lengthAdjust="spacing" textLength="44.1289" x="760.6681" y="393.3051">reviews</text><text fill="#0055A9" font-family="sans-serif" font-size="13" lengthAdjust="spacing" textLength="55.7451" x="754.86" y="408.5395">validity of</text></g><!--link ReviewClaim to EvaluationClaim--><g class="link" data-entity-1="ReviewClaim" data-entity-2="EvaluationClaim" data-source-line="77" data-uid="lnk19" id="link_ReviewClaim_EvaluationClaim"><path codeLine="77" d="M426.74,308.2445 C401.95,308.2445 378.64,308.2445 352.75,308.2445" fill="none" id="ReviewClaim-to-EvaluationClaim" style="stroke:#0055A9;stroke-width:1;"/><polygon fill="#0055A9" points="346.75,308.2445,355.75,312.2445,351.75,308.2445,355.75,304.2445,346.75,308.2445" style="stroke:#0055A9;stroke-width:1;"/><text fill="#0055A9" font-family="sans-serif" font-size="13" lengthAdjust="spacing" textLength="44.1289" x="364.65" y="301.3051">reviews</text></g><!--link ReviewClaim to MeasurementClaim--><g class="link" data-entity-1="ReviewClaim" data-entity-2="MeasurementClaim" data-source-line="78" data-uid="lnk20" id="link_ReviewClaim_MeasurementClaim"><path codeLine="78" d="M479.16,332.3245 C474.17,355.4345 463.31,390.5945 441,412.2445 C423.25,429.4745 405.0647,439.2456 381.9747,447.1756" fill="none" id="ReviewClaim-to-MeasurementClaim" style="stroke:#0055A9;stroke-width:1;"/><polygon fill="#0055A9" points="376.3,449.1245,386.1113,449.9843,381.0289,447.5004,383.5127,442.4181,376.3,449.1245" style="stroke:#0055A9;stroke-width:1;"/><text fill="#0055A9" font-family="sans-serif" font-size="13" lengthAdjust="spacing" textLength="44.1289" x="464.19" y="400.8051">reviews</text></g><!--link EndorsementClaim to ReviewClaim--><g class="link" data-entity-1="EndorsementClaim" data-entity-2="ReviewClaim" data-source-line="79" data-uid="lnk21" id="link_EndorsementClaim_ReviewClaim"><path codeLine="79" d="M470.95,161.8745 C473.62,194.1345 477.9034,245.8351 480.5734,277.9851" fill="none" id="EndorsementClaim-to-ReviewClaim" style="stroke:#0055A9;stroke-width:1;"/><polygon fill="#0055A9" points="481.07,283.9645,484.3114,274.6644,480.6562,278.9817,476.3389,275.3265,481.07,283.9645" style="stroke:#0055A9;stroke-width:1;"/><text fill="#0055A9" font-family="sans-serif" font-size="13" lengthAdjust="spacing" textLength="53.5361" x="475.75" y="208.3051">endorses</text></g><!--link EndorsementClaim to EvaluationClaim--><g class="link" data-entity-1="EndorsementClaim" data-entity-2="EvaluationClaim" data-source-line="80" data-uid="lnk22" id="link_EndorsementClaim_EvaluationClaim"><path codeLine="80" d="M442.72,161.8745 C406.61,194.1345 346.5246,247.8173 310.5346,279.9673" fill="none" id="EndorsementClaim-to-EvaluationClaim" style="stroke:#0055A9;stroke-width:1;"/><polygon fill="#0055A9" points="306.06,283.9645,315.4368,280.9518,309.7889,280.6335,310.1071,274.9856,306.06,283.9645" style="stroke:#0055A9;stroke-width:1;"/><text fill="#0055A9" font-family="sans-serif" font-size="13" lengthAdjust="spacing" textLength="53.5361" x="403.47" y="208.3051">endorses</text></g><!--link EndorsementClaim to MethodologyValidityClaim--><g class="link" data-entity-1="EndorsementClaim" data-entity-2="MethodologyValidityClaim" data-source-line="81" data-uid="lnk23" id="link_EndorsementClaim_MethodologyValidityClaim"><path codeLine="81" d="M534.21,161.8045 C538.84,163.0845 543.47,164.2445 548,165.2445 C661.27,190.1745 989.43,134.0245 1067,220.2445 C1112.18,270.4645 1101.16,313.9545 1067,372.2445 C1047.63,405.3045 1017.2427,425.136 983.7727,439.516" fill="none" id="EndorsementClaim-to-MethodologyValidityClaim" style="stroke:#0055A9;stroke-width:1;"/><polygon fill="#0055A9" points="978.26,441.8845,988.1081,442.007,982.8539,439.9108,984.9501,434.6566,978.26,441.8845" style="stroke:#0055A9;stroke-width:1;"/><text fill="#0055A9" font-family="sans-serif" font-size="13" lengthAdjust="spacing" textLength="53.5361" x="1097.89" y="312.8051">endorses</text></g><!--link ReviewClaim to ReviewClaim--><g class="link" data-entity-1="ReviewClaim" data-entity-2="ReviewClaim" data-source-line="84" data-uid="lnk24" id="link_ReviewClaim_ReviewClaim"><path codeLine="84" d="M539.43,291.7445 C558.59,291.6545 574,297.1545 574,308.2445 C574,319.3345 564.5899,324.8627 545.4299,324.7727" fill="none" id="ReviewClaim-to-ReviewClaim" style="stroke:#0055A9;stroke-width:1;"/><polygon fill="#0055A9" points="539.43,324.7445,548.4111,328.7868,544.4299,324.768,548.4487,320.7869,539.43,324.7445" style="stroke:#0055A9;stroke-width:1;"/><text fill="#0055A9" font-family="sans-serif" font-size="13" lengthAdjust="spacing" textLength="44.1289" x="596.6753" y="305.3051">reviews</text><text fill="#0055A9" font-family="sans-serif" font-size="13" lengthAdjust="spacing" textLength="77.4795" x="580" y="320.5395">other reviews</text></g><!--link EndorsementClaim to EndorsementClaim--><g class="link" data-entity-1="EndorsementClaim" data-entity-2="EndorsementClaim" data-source-line="85" data-uid="lnk25" id="link_EndorsementClaim_EndorsementClaim"><path codeLine="85" d="M544.85,125.0845 C564.54,125.8345 579.39,129.9445 579.39,137.3945 C579.39,144.8445 570.5355,148.7131 550.8455,149.4731" fill="none" id="EndorsementClaim-to-EndorsementClaim" style="stroke:#0055A9;stroke-width:1;"/><polygon fill="#0055A9" points="544.85,149.7045,553.9976,153.3544,549.8463,149.5117,553.689,145.3604,544.85,149.7045" style="stroke:#0055A9;stroke-width:1;"/><text fill="#0055A9" font-family="sans-serif" font-size="13" lengthAdjust="spacing" textLength="53.5361" x="616.9283" y="134.4551">endorses</text><text fill="#0055A9" font-family="sans-serif" font-size="13" lengthAdjust="spacing" textLength="116.6128" x="585.39" y="149.6895">other endorsements</text></g><!--link CoreClaims to MethodologyClaims--><!--link MethodologyClaims to MetaClaims--><!--SRC=[XLPjRzis4FwkNq5x0VgXzTPioB0PNG7FTOSCpbQute0X2G9QEjbSQL8WgHXUaV- -uuiaKh8J1GYi8-_kkUSUdZXYfIYW99zMV_w-cAyV_fZTBB8HMfY0n4Xk5gjh0oeRWIXOcOqkFbpFVblDRXxM_tnQa5_8UCufssko0auDaqBlM4K-CBfLT3_EHY7Fnx-MouVrzNg9MIww5_HFahqcO_nxJP8aJMeRpCQwY8Env9sC4D0uCynmIFS5z27IEssE7DvdXSphFGX3lcO47-_dVzldenJcC_iFo0_VfpRhJJQI5yxyb3rb5Ss_q2sy5EZof-1X_o-HxBdaKf5lVdGFniavrJhG5m8uKnJiLqorLR8MHN2-Si_bPHIQAYKFaK-KwktRgwlPpmcquOejwTrtWQMskF5SAY2-uMD2DR7leVy-Lq4DzNYlz-Xbt2AvlVswta5YOfeOD9Ms3ASRocsXk48tiZRa8DKNKe4gfTf3GQWe27FkP0i253LeF32pOuBe2d9MifpeN5QWtLx3zb0YXQ2_VRg_pthO5fnjsOPnPeu9m87zaNA6Rc31KaEeXqXHC8YVrcOd5NOLqqbIKMLOpYhSJH0KxM1LIluB21mfTWWTegU8rHl0G0NsO7kCoOtCPpYETlnjaVRhERkEpg2CRu6sBH2WFN6qGhYLObY6iyaIIy5jKXtjxtn71KB6KlP0TQt0dPvzb-SKtH6CcUFCpeXpGFixG1kwuKpli0c7dIIv0jTyX92ZT1NRrCPtW0vm8CanYXPmBtVFZWGyiWBJCHnT5KuCNsAxAn2556hjtv6O84wdZw2vI6-eezgfF9LRpzmcXdRXPAu42_8WiJygIHrBY_OqHS-8QGMF30u9mDZKWgi0aoctui25Cu9WFRPEouz1Sm7QQQYzaoaARFwmIGDxnrMtuZBekggaCZXP6fJwJKpecvCmK2dPApVEmXHIqUTCP_7acapU3mV5r8cHCg7l14g1uoGm0w-pnt5ADbH3SIUai30YHJg6E_GzM0FfsYnnrccZ5OHb8pbtEyrarXUV1zYBDsroWyvUdV98atMRNHMT4lgmpvxs5sYAXW4MvESlwWjxdSLQVI5AaCMTQ0Kgou2OJawqdqm8vLmUcDZQ0OXD7cJhSzCcEO5hm76pTI1okp_sdpPgFxDtYEBv_SyntJWYBv-1bnC59IZqPlYXJjcn9yspTeQSj8IMVNy8dor-OEo0DVxn-NU7U4cFzWA1DmCqH1UKYRhTiGA7-NrQkL_EXb_RlaCOd5c6cG6FK6NdNNe0veX2jJSPVsVWl84Qnc1WCWT_9ZSruuNzh1LXeZWv_my0]--></g></svg>