<svg xmlns="http://www.w3.org/2000/svg" xmlns:xlink="http://www.w3.org/1999/xlink" contentStyleType="text/css" data-diagram-type="CLASS" height="888px" preserveAspectRatio="none" style="width:1220px;height:888px;background:#FFFFFF;" version="1.1" viewBox="0 0 1220 888" width="1220px" zoomAndPan="magnify"><defs/><g><!--cluster ImpactClaims--><g class="cluster" data-entity="ImpactClaims" data-source-line="37" data-uid="ent0002" id="cluster_ImpactClaims"><path d="M837.5,6.8945 L954.9111,6.8945 A3.75,3.75 0 0 1 957.4111,9.3945 L964.4111,33.9883 L1034.5,33.9883 A2.5,2.5 0 0 1 1037,36.4883 L1037,602.2445 A2.5,2.5 0 0 1 1034.5,604.7445 L837.5,604.7445 A2.5,2.5 0 0 1 835,602.2445 L835,9.3945 A2.5,2.5 0 0 1 837.5,6.8945" fill="none" style="stroke:#666666;stroke-width:1.5;"/><line style="stroke:#666666;stroke-width:1.5;" x1="835" x2="964.4111" y1="33.9883" y2="33.9883"/><text fill="#000000" font-family="sans-serif" font-size="18" font-weight="bold" lengthAdjust="spacing" textLength="116.4111" x="839" y="25.5938">Impact Claims</text></g><!--cluster MethodologyClaims--><g class="cluster" data-entity="MethodologyClaims" data-source-line="47" data-uid="ent0007" id="cluster_MethodologyClaims"><path d="M512.5,484.7445 L680.2549,484.7445 A3.75,3.75 0 0 1 682.7549,487.2445 L689.7549,511.8383 L792.5,511.8383 A2.5,2.5 0 0 1 795,514.3383 L795,760.2445 A2.5,2.5 0 0 1 792.5,762.7445 L512.5,762.7445 A2.5,2.5 0 0 1 510,760.2445 L510,487.2445 A2.5,2.5 0 0 1 512.5,484.7445" fill="none" style="stroke:#666666;stroke-width:1.5;"/><line style="stroke:#666666;stroke-width:1.5;" x1="510" x2="689.7549" y1="511.8383" y2="511.8383"/><text fill="#000000" font-family="sans-serif" font-size="18" font-weight="bold" lengthAdjust="spacing" textLength="166.7549" x="514" y="503.4438">Methodology Claims</text></g><!--cluster MetaClaims--><g class="cluster" data-entity="MetaClaims" data-source-line="57" data-uid="ent0012" id="cluster_MetaClaims"><path d="M8.5,313.8945 L111.04,313.8945 A3.75,3.75 0 0 1 113.54,316.3945 L120.54,340.9883 L367.5,340.9883 A2.5,2.5 0 0 1 370,343.4883 L370,602.2445 A2.5,2.5 0 0 1 367.5,604.7445 L8.5,604.7445 A2.5,2.5 0 0 1 6,602.2445 L6,316.3945 A2.5,2.5 0 0 1 8.5,313.8945" fill="none" style="stroke:#666666;stroke-width:1.5;"/><line style="stroke:#666666;stroke-width:1.5;" x1="6" x2="120.54" y1="340.9883" y2="340.9883"/><text fill="#000000" font-family="sans-serif" font-size="18" font-weight="bold" lengthAdjust="spacing" textLength="101.54" x="10" y="332.5938">Meta Claims</text></g><!--class ImpactClaim--><g class="entity" data-entity="ImpactClaim" data-source-line="38" data-uid="ent0003" id="entity_ImpactClaim"><a href="" target="_top" title="The ImpactClaim is the foundational claim about work performed and impact generated within specific scopes and timeframes." xlink:actuate="onRequest" xlink:href="" xlink:show="new" xlink:title="The ImpactClaim is the foundational claim about work performed and impact generated within specific scopes and timeframes." xlink:type="simple"><rect fill="#555555" fill-opacity="0.06667" height="48" rx="2.5" ry="2.5" style="stroke:#181818;stroke-width:0.5;" width="111.2832" x="875.36" y="532.7445"/><ellipse cx="890.36" cy="548.7445" fill="#7E57C2" rx="11" ry="11" style="stroke:#181818;stroke-width:1;"/><path d="M887.5475,554.7445 L890.7663,554.7445 C893.8444,554.7445 895.9538,552.9633 895.9538,549.1508 C895.9538,545.3383 893.8444,543.6664 890.61,543.6664 L887.5475,543.6664 L887.5475,554.7445 Z M890.0631,552.7289 L890.0631,545.682 L890.4694,545.682 C892.2038,545.682 893.3756,546.4945 893.3756,549.1508 C893.3756,551.807 892.2038,552.7289 890.4694,552.7289 L890.0631,552.7289 Z " fill="#000000"/><text fill="#000000" font-family="sans-serif" font-size="14" lengthAdjust="spacing" textLength="79.2832" x="904.36" y="553.5297">ImpactClaim</text><line style="stroke:#181818;stroke-width:0.5;" x1="876.36" x2="985.6432" y1="564.7445" y2="564.7445"/><line style="stroke:#181818;stroke-width:0.5;" x1="876.36" x2="985.6432" y1="572.7445" y2="572.7445"/></a></g><!--class MembershipClaim--><g class="entity" data-entity="MembershipClaim" data-source-line="40" data-uid="ent0004" id="entity_MembershipClaim"><a href="" target="_top" title="The MembershipClaim validates that a claimant is authorized to participate in a specific project or scope." xlink:actuate="onRequest" xlink:href="" xlink:show="new" xlink:title="The MembershipClaim validates that a claimant is authorized to participate in a specific project or scope." xlink:type="simple"><rect fill="#555555" fill-opacity="0.06667" height="48" rx="2.5" ry="2.5" style="stroke:#181818;stroke-width:0.5;" width="145.9688" x="867.02" y="179.8945"/><ellipse cx="882.02" cy="195.8945" fill="#7E57C2" rx="11" ry="11" style="stroke:#181818;stroke-width:1;"/><path d="M879.2075,201.8945 L882.4263,201.8945 C885.5044,201.8945 887.6138,200.1133 887.6138,196.3008 C887.6138,192.4883 885.5044,190.8164 882.27,190.8164 L879.2075,190.8164 L879.2075,201.8945 Z M881.7231,199.8789 L881.7231,192.832 L882.1294,192.832 C883.8638,192.832 885.0356,193.6445 885.0356,196.3008 C885.0356,198.957 883.8638,199.8789 882.1294,199.8789 L881.7231,199.8789 Z " fill="#000000"/><text fill="#000000" font-family="sans-serif" font-size="14" lengthAdjust="spacing" textLength="113.9688" x="896.02" y="200.6797">MembershipClaim</text><line style="stroke:#181818;stroke-width:0.5;" x1="868.02" x2="1011.9888" y1="211.8945" y2="211.8945"/><line style="stroke:#181818;stroke-width:0.5;" x1="868.02" x2="1011.9888" y1="219.8945" y2="219.8945"/></a></g><!--class ImpactContributor--><g class="entity" data-entity="ImpactContributor" data-source-line="42" data-uid="ent0005" id="entity_ImpactContributor"><a href="" target="_top" title="The ImpactContributor represents an individual or entity that contributes to impact generation." xlink:actuate="onRequest" xlink:href="" xlink:show="new" xlink:title="The ImpactContributor represents an individual or entity that contributes to impact generation." xlink:type="simple"><rect fill="#555555" fill-opacity="0.06667" height="48" rx="2.5" ry="2.5" style="stroke:#181818;stroke-width:0.5;" width="145.9141" x="867.04" y="361.8945"/><ellipse cx="882.04" cy="377.8945" fill="#7E57C2" rx="11" ry="11" style="stroke:#181818;stroke-width:1;"/><path d="M879.2275,383.8945 L882.4463,383.8945 C885.5244,383.8945 887.6338,382.1133 887.6338,378.3008 C887.6338,374.4883 885.5244,372.8164 882.29,372.8164 L879.2275,372.8164 L879.2275,383.8945 Z M881.7431,381.8789 L881.7431,374.832 L882.1494,374.832 C883.8838,374.832 885.0556,375.6445 885.0556,378.3008 C885.0556,380.957 883.8838,381.8789 882.1494,381.8789 L881.7431,381.8789 Z " fill="#000000"/><text fill="#000000" font-family="sans-serif" font-size="14" lengthAdjust="spacing" textLength="113.9141" x="896.04" y="382.6797">ImpactContributor</text><line style="stroke:#181818;stroke-width:0.5;" x1="868.04" x2="1011.9541" y1="393.8945" y2="393.8945"/><line style="stroke:#181818;stroke-width:0.5;" x1="868.04" x2="1011.9541" y1="401.8945" y2="401.8945"/></a></g><!--class ImpactProject--><g class="entity" data-entity="ImpactProject" data-source-line="44" data-uid="ent0006" id="entity_ImpactProject"><a href="" target="_top" title="The ImpactProject represents a structured initiative or program aimed at generating specific impact outcomes." xlink:actuate="onRequest" xlink:href="" xlink:show="new" xlink:title="The ImpactProject represents a structured initiative or program aimed at generating specific impact outcomes." xlink:type="simple"><rect fill="#555555" fill-opacity="0.06667" height="48" rx="2.5" ry="2.5" style="stroke:#181818;stroke-width:0.5;" width="119.7119" x="880.14" y="54.8945"/><ellipse cx="895.14" cy="70.8945" fill="#7E57C2" rx="11" ry="11" style="stroke:#181818;stroke-width:1;"/><path d="M892.3275,76.8945 L895.5463,76.8945 C898.6244,76.8945 900.7338,75.1133 900.7338,71.3008 C900.7338,67.4883 898.6244,65.8164 895.39,65.8164 L892.3275,65.8164 L892.3275,76.8945 Z M894.8431,74.8789 L894.8431,67.832 L895.2494,67.832 C896.9838,67.832 898.1556,68.6445 898.1556,71.3008 C898.1556,73.957 896.9838,74.8789 895.2494,74.8789 L894.8431,74.8789 Z " fill="#000000"/><text fill="#000000" font-family="sans-serif" font-size="14" lengthAdjust="spacing" textLength="87.7119" x="909.14" y="75.6797">ImpactProject</text><line style="stroke:#181818;stroke-width:0.5;" x1="881.14" x2="998.8519" y1="86.8945" y2="86.8945"/><line style="stroke:#181818;stroke-width:0.5;" x1="881.14" x2="998.8519" y1="94.8945" y2="94.8945"/></a></g><!--class MethodologyValidityClaim--><g class="entity" data-entity="MethodologyValidityClaim" data-source-line="48" data-uid="ent0008" id="entity_MethodologyValidityClaim"><a href="" target="_top" title="The MethodologyValidityClaim asserts the soundness and appropriateness of a theory of change or measurement methodology." xlink:actuate="onRequest" xlink:href="" xlink:show="new" xlink:title="The MethodologyValidityClaim asserts the soundness and appropriateness of a theory of change or measurement methodology." xlink:type="simple"><rect fill="#555555" fill-opacity="0.06667" height="48" rx="2.5" ry="2.5" style="stroke:#181818;stroke-width:0.5;" width="195.3311" x="539.33" y="690.7445"/><ellipse cx="554.33" cy="706.7445" fill="#7E57C2" rx="11" ry="11" style="stroke:#181818;stroke-width:1;"/><path d="M551.5175,712.7445 L554.7363,712.7445 C557.8144,712.7445 559.9238,710.9633 559.9238,707.1508 C559.9238,703.3383 557.8144,701.6664 554.58,701.6664 L551.5175,701.6664 L551.5175,712.7445 Z M554.0331,710.7289 L554.0331,703.682 L554.4394,703.682 C556.1738,703.682 557.3456,704.4945 557.3456,707.1508 C557.3456,709.807 556.1738,710.7289 554.4394,710.7289 L554.0331,710.7289 Z " fill="#000000"/><text fill="#000000" font-family="sans-serif" font-size="14" lengthAdjust="spacing" textLength="163.3311" x="568.33" y="711.5297">MethodologyValidityClaim</text><line style="stroke:#181818;stroke-width:0.5;" x1="540.33" x2="733.6611" y1="722.7445" y2="722.7445"/><line style="stroke:#181818;stroke-width:0.5;" x1="540.33" x2="733.6611" y1="730.7445" y2="730.7445"/></a></g><!--class MethodologyAuthorshipClaim--><g class="entity" data-entity="MethodologyAuthorshipClaim" data-source-line="50" data-uid="ent0009" id="entity_MethodologyAuthorshipClaim"><a href="" target="_top" title="The MethodologyAuthorshipClaim establishes who created or contributed to a methodology." xlink:actuate="onRequest" xlink:href="" xlink:show="new" xlink:title="The MethodologyAuthorshipClaim establishes who created or contributed to a methodology." xlink:type="simple"><rect fill="#555555" fill-opacity="0.06667" height="48" rx="2.5" ry="2.5" style="stroke:#181818;stroke-width:0.5;" width="217.5615" x="534.22" y="532.7445"/><ellipse cx="549.22" cy="548.7445" fill="#7E57C2" rx="11" ry="11" style="stroke:#181818;stroke-width:1;"/><path d="M546.4075,554.7445 L549.6263,554.7445 C552.7044,554.7445 554.8138,552.9633 554.8138,549.1508 C554.8138,545.3383 552.7044,543.6664 549.47,543.6664 L546.4075,543.6664 L546.4075,554.7445 Z M548.9231,552.7289 L548.9231,545.682 L549.3294,545.682 C551.0638,545.682 552.2356,546.4945 552.2356,549.1508 C552.2356,551.807 551.0638,552.7289 549.3294,552.7289 L548.9231,552.7289 Z " fill="#000000"/><text fill="#000000" font-family="sans-serif" font-size="14" lengthAdjust="spacing" textLength="185.5615" x="563.22" y="553.5297">MethodologyAuthorshipClaim</text><line style="stroke:#181818;stroke-width:0.5;" x1="535.22" x2="750.7815" y1="564.7445" y2="564.7445"/><line style="stroke:#181818;stroke-width:0.5;" x1="535.22" x2="750.7815" y1="572.7445" y2="572.7445"/></a></g><!--class ReviewClaim--><g class="entity" data-entity="ReviewClaim" data-source-line="58" data-uid="ent0013" id="entity_ReviewClaim"><a href="" target="_top" title="The ReviewClaim provides peer review and validation of methodology validity claims or other claims." xlink:actuate="onRequest" xlink:href="" xlink:show="new" xlink:title="The ReviewClaim provides peer review and validation of methodology validity claims or other claims." xlink:type="simple"><rect fill="#555555" fill-opacity="0.06667" height="48" rx="2.5" ry="2.5" style="stroke:#181818;stroke-width:0.5;" width="111.9941" x="30" y="532.7445"/><ellipse cx="45" cy="548.7445" fill="#7E57C2" rx="11" ry="11" style="stroke:#181818;stroke-width:1;"/><path d="M42.1875,554.7445 L45.4063,554.7445 C48.4844,554.7445 50.5938,552.9633 50.5938,549.1508 C50.5938,545.3383 48.4844,543.6664 45.25,543.6664 L42.1875,543.6664 L42.1875,554.7445 Z M44.7031,552.7289 L44.7031,545.682 L45.1094,545.682 C46.8438,545.682 48.0156,546.4945 48.0156,549.1508 C48.0156,551.807 46.8438,552.7289 45.1094,552.7289 L44.7031,552.7289 Z " fill="#000000"/><text fill="#000000" font-family="sans-serif" font-size="14" lengthAdjust="spacing" textLength="79.9941" x="59" y="553.5297">ReviewClaim</text><line style="stroke:#181818;stroke-width:0.5;" x1="31" x2="140.9941" y1="564.7445" y2="564.7445"/><line style="stroke:#181818;stroke-width:0.5;" x1="31" x2="140.9941" y1="572.7445" y2="572.7445"/></a></g><!--class EndorsementClaim--><g class="entity" data-entity="EndorsementClaim" data-source-line="60" data-uid="ent0014" id="entity_EndorsementClaim"><a href="" target="_top" title="The EndorsementClaim provides endorsements or support for reviews, evaluations, or other claims." xlink:actuate="onRequest" xlink:href="" xlink:show="new" xlink:title="The EndorsementClaim provides endorsements or support for reviews, evaluations, or other claims." xlink:type="simple"><rect fill="#555555" fill-opacity="0.06667" height="48" rx="2.5" ry="2.5" style="stroke:#181818;stroke-width:0.5;" width="150.7881" x="29.61" y="361.8945"/><ellipse cx="44.61" cy="377.8945" fill="#7E57C2" rx="11" ry="11" style="stroke:#181818;stroke-width:1;"/><path d="M41.7975,383.8945 L45.0163,383.8945 C48.0944,383.8945 50.2038,382.1133 50.2038,378.3008 C50.2038,374.4883 48.0944,372.8164 44.86,372.8164 L41.7975,372.8164 L41.7975,383.8945 Z M44.3131,381.8789 L44.3131,374.832 L44.7194,374.832 C46.4538,374.832 47.6256,375.6445 47.6256,378.3008 C47.6256,380.957 46.4538,381.8789 44.7194,381.8789 L44.3131,381.8789 Z " fill="#000000"/><text fill="#000000" font-family="sans-serif" font-size="14" lengthAdjust="spacing" textLength="118.7881" x="58.61" y="382.6797">EndorsementClaim</text><line style="stroke:#181818;stroke-width:0.5;" x1="30.61" x2="179.3981" y1="393.8945" y2="393.8945"/><line style="stroke:#181818;stroke-width:0.5;" x1="30.61" x2="179.3981" y1="401.8945" y2="401.8945"/></a></g><!--class MeasurementClaim--><g class="entity" data-entity="MeasurementClaim" data-source-line="53" data-uid="ent0010" id="entity_MeasurementClaim"><a href="" target="_top" title="The MeasurementClaim provides independent measurements and assessments of impact claims." xlink:actuate="onRequest" xlink:href="" xlink:show="new" xlink:title="The MeasurementClaim provides independent measurements and assessments of impact claims." xlink:type="simple"><rect fill="#555555" fill-opacity="0.06667" height="48" rx="2.5" ry="2.5" style="stroke:#181818;stroke-width:0.5;" width="154.1992" x="199.9" y="833.7445"/><ellipse cx="214.9" cy="849.7445" fill="#7E57C2" rx="11" ry="11" style="stroke:#181818;stroke-width:1;"/><path d="M212.0875,855.7445 L215.3063,855.7445 C218.3844,855.7445 220.4938,853.9633 220.4938,850.1508 C220.4938,846.3383 218.3844,844.6664 215.15,844.6664 L212.0875,844.6664 L212.0875,855.7445 Z M214.6031,853.7289 L214.6031,846.682 L215.0094,846.682 C216.7438,846.682 217.9156,847.4945 217.9156,850.1508 C217.9156,852.807 216.7438,853.7289 215.0094,853.7289 L214.6031,853.7289 Z " fill="#000000"/><text fill="#000000" font-family="sans-serif" font-size="14" lengthAdjust="spacing" textLength="122.1992" x="228.9" y="854.5297">MeasurementClaim</text><line style="stroke:#181818;stroke-width:0.5;" x1="200.9" x2="353.0992" y1="865.7445" y2="865.7445"/><line style="stroke:#181818;stroke-width:0.5;" x1="200.9" x2="353.0992" y1="873.7445" y2="873.7445"/></a></g><!--class EvaluationClaim--><g class="entity" data-entity="EvaluationClaim" data-source-line="55" data-uid="ent0011" id="entity_EvaluationClaim"><a href="" target="_top" title="The EvaluationClaim provides evaluations and assessments of measurements or other claims." xlink:actuate="onRequest" xlink:href="" xlink:show="new" xlink:title="The EvaluationClaim provides evaluations and assessments of measurements or other claims." xlink:type="simple"><rect fill="#555555" fill-opacity="0.06667" height="48" rx="2.5" ry="2.5" style="stroke:#181818;stroke-width:0.5;" width="132.6045" x="210.7" y="690.7445"/><ellipse cx="225.7" cy="706.7445" fill="#7E57C2" rx="11" ry="11" style="stroke:#181818;stroke-width:1;"/><path d="M222.8875,712.7445 L226.1063,712.7445 C229.1844,712.7445 231.2938,710.9633 231.2938,707.1508 C231.2938,703.3383 229.1844,701.6664 225.95,701.6664 L222.8875,701.6664 L222.8875,712.7445 Z M225.4031,710.7289 L225.4031,703.682 L225.8094,703.682 C227.5438,703.682 228.7156,704.4945 228.7156,707.1508 C228.7156,709.807 227.5438,710.7289 225.8094,710.7289 L225.4031,710.7289 Z " fill="#000000"/><text fill="#000000" font-family="sans-serif" font-size="14" lengthAdjust="spacing" textLength="100.6045" x="239.7" y="711.5297">EvaluationClaim</text><line style="stroke:#181818;stroke-width:0.5;" x1="211.7" x2="342.3045" y1="722.7445" y2="722.7445"/><line style="stroke:#181818;stroke-width:0.5;" x1="211.7" x2="342.3045" y1="730.7445" y2="730.7445"/></a></g><g class="entity" data-entity="GMN33" data-source-line="97" data-uid="ent0034" id="entity_GMN33"><path d="M1060.75,358.0445 L1060.75,413.7477 A0,0 0 0 0 1060.75,413.7477 L1099.9,413.7477 L959.37,532.4845 L1107.9,413.7477 L1213.248,413.7477 A0,0 0 0 0 1213.248,413.7477 L1213.248,368.0445 L1203.248,358.0445 L1060.75,358.0445 A0,0 0 0 0 1060.75,358.0445" fill="#FEFFDD" style="stroke:#181818;stroke-width:0.5;"/><path d="M1203.248,358.0445 L1203.248,368.0445 L1213.248,368.0445 L1203.248,358.0445" fill="#FEFFDD" style="stroke:#181818;stroke-width:0.5;"/><text fill="#000000" font-family="sans-serif" font-size="13" lengthAdjust="spacing" textLength="118.8281" x="1066.75" y="375.1051">Central claim that all</text><text fill="#000000" font-family="sans-serif" font-size="13" lengthAdjust="spacing" textLength="129.7715" x="1066.75" y="390.3395">other claims reference</text><text fill="#000000" font-family="sans-serif" font-size="13" lengthAdjust="spacing" textLength="131.498" x="1066.75" y="405.5738">and build credibility for</text></g><!--link ImpactClaim to MethodologyValidityClaim--><g class="link" data-entity-1="ImpactClaim" data-entity-2="MethodologyValidityClaim" data-source-line="64" data-uid="lnk15" id="link_ImpactClaim_MethodologyValidityClaim"><path codeLine="64" d="M886.99,581.0945 C831.4,610.5945 741.6301,658.2222 686.1301,687.6722" fill="none" id="ImpactClaim-to-MethodologyValidityClaim" style="stroke:#0055A9;stroke-width:1;"/><polygon fill="#0055A9" points="680.83,690.4845,690.655,689.7993,685.2467,688.1409,686.9052,682.7326,680.83,690.4845" style="stroke:#0055A9;stroke-width:1;"/><text fill="#0055A9" font-family="sans-serif" font-size="13" lengthAdjust="spacing" textLength="35.3057" x="793.82" y="641.8051">based</text><text fill="#0055A9" font-family="sans-serif" font-size="13" lengthAdjust="spacing" textLength="14.5933" x="804.1762" y="657.0395">on</text></g><!--link ImpactContributor to ImpactClaim--><g class="link" data-entity-1="ImpactContributor" data-entity-2="ImpactClaim" data-source-line="67" data-uid="lnk16" id="link_ImpactContributor_ImpactClaim"><path codeLine="67" d="M938.75,410.3745 C937.03,442.6345 934.2687,494.323 932.5587,526.473" fill="none" id="ImpactContributor-to-ImpactClaim" style="stroke:#0055A9;stroke-width:1;"/><polygon fill="#0055A9" points="932.24,532.4645,936.7124,523.6897,932.5056,527.4716,928.7237,523.2648,932.24,532.4645" style="stroke:#0055A9;stroke-width:1;"/><text fill="#0055A9" font-family="sans-serif" font-size="13" lengthAdjust="spacing" textLength="38.6636" x="937.83" y="456.8051">makes</text></g><!--link ImpactProject to MembershipClaim--><g class="link" data-entity-1="ImpactProject" data-entity-2="MembershipClaim" data-source-line="68" data-uid="lnk17" id="link_ImpactProject_MembershipClaim"><path codeLine="68" d="M940,103.3145 C940,125.2045 940,151.6945 940,173.5545" fill="none" id="ImpactProject-to-MembershipClaim" style="stroke:#0055A9;stroke-width:1;"/><polygon fill="#0055A9" points="940,179.5545,944,170.5545,940,174.5545,936,170.5545,940,179.5545" style="stroke:#0055A9;stroke-width:1;"/><text fill="#0055A9" font-family="sans-serif" font-size="13" lengthAdjust="spacing" textLength="37.3496" x="941" y="145.9551">issues</text></g><!--link MembershipClaim to ImpactContributor--><g class="link" data-entity-1="MembershipClaim" data-entity-2="ImpactContributor" data-source-line="69" data-uid="lnk18" id="link_MembershipClaim_ImpactContributor"><path codeLine="69" d="M940,228.0545 C940,262.5245 940,320.9545 940,355.5345" fill="none" id="MembershipClaim-to-ImpactContributor" style="stroke:#0055A9;stroke-width:1;"/><polygon fill="#0055A9" points="940,361.5345,944,352.5345,940,356.5345,936,352.5345,940,361.5345" style="stroke:#0055A9;stroke-width:1;"/><text fill="#0055A9" font-family="sans-serif" font-size="13" lengthAdjust="spacing" textLength="60.6836" x="955.095" y="270.9551">authorizes</text><text fill="#0055A9" font-family="sans-serif" font-size="13" lengthAdjust="spacing" textLength="88.8735" x="941" y="286.1895">participationfor</text></g><!--reverse link ImpactClaim to MeasurementClaim--><g class="link" data-entity-1="ImpactClaim" data-entity-2="MeasurementClaim" data-source-line="72" data-uid="lnk19" id="link_ImpactClaim_MeasurementClaim"><path codeLine="72" d="M918.7266,586.66 C897.9766,632.97 847.43,730.4345 768,778.7445 C699.97,820.1145 474.97,842.3745 354.59,851.5745" fill="none" id="ImpactClaim-backto-MeasurementClaim" style="stroke:#0055A9;stroke-width:1;"/><polygon fill="#0055A9" points="921.18,581.1845,913.8496,587.7622,919.1355,585.7474,921.1502,591.0333,921.18,581.1845" style="stroke:#0055A9;stroke-width:1;"/><text fill="#0055A9" font-family="sans-serif" font-size="13" lengthAdjust="spacing" textLength="57.2495" x="868.518" y="711.8051">measures</text><text fill="#0055A9" font-family="sans-serif" font-size="13" lengthAdjust="spacing" textLength="79.0854" x="857.6" y="727.0395">and relates to</text></g><!--link EvaluationClaim to MeasurementClaim--><g class="link" data-entity-1="EvaluationClaim" data-entity-2="MeasurementClaim" data-source-line="73" data-uid="lnk20" id="link_EvaluationClaim_MeasurementClaim"><path codeLine="73" d="M277,739.0245 C277,765.1545 277,801.2845 277,827.4245" fill="none" id="EvaluationClaim-to-MeasurementClaim" style="stroke:#0055A9;stroke-width:1;"/><polygon fill="#0055A9" points="277,833.4245,281,824.4245,277,828.4245,273,824.4245,277,833.4245" style="stroke:#0055A9;stroke-width:1;"/><text fill="#0055A9" font-family="sans-serif" font-size="13" lengthAdjust="spacing" textLength="55.5166" x="278" y="799.8051">evaluates</text></g><!--link MethodologyAuthorshipClaim to MethodologyValidityClaim--><g class="link" data-entity-1="MethodologyAuthorshipClaim" data-entity-2="MethodologyValidityClaim" data-source-line="77" data-uid="lnk21" id="link_MethodologyAuthorshipClaim_MethodologyValidityClaim"><path codeLine="77" d="M642.1,581.0945 C640.97,610.5945 639.2621,655.039 638.1221,684.489" fill="none" id="MethodologyAuthorshipClaim-to-MethodologyValidityClaim" style="stroke:#0055A9;stroke-width:1;"/><polygon fill="#0055A9" points="637.89,690.4845,642.2351,681.646,638.0834,685.4883,634.2411,681.3365,637.89,690.4845" style="stroke:#0055A9;stroke-width:1;"/><text fill="#0055A9" font-family="sans-serif" font-size="13" lengthAdjust="spacing" textLength="66.022" x="643.4683" y="641.8051">establishes</text><text fill="#0055A9" font-family="sans-serif" font-size="13" lengthAdjust="spacing" textLength="70.5986" x="641.18" y="657.0395">authority for</text></g><!--link ReviewClaim to MethodologyValidityClaim--><g class="link" data-entity-1="ReviewClaim" data-entity-2="MethodologyValidityClaim" data-source-line="78" data-uid="lnk22" id="link_ReviewClaim_MethodologyValidityClaim"><path codeLine="78" d="M140.4,581.2345 C195.23,604.1745 282.72,638.7345 361,660.7445 C419.24,677.1145 479.9042,689.0632 533.0742,698.0632" fill="none" id="ReviewClaim-to-MethodologyValidityClaim" style="stroke:#0055A9;stroke-width:1;"/><polygon fill="#0055A9" points="538.99,699.0645,530.7838,693.6186,534.0601,698.2301,529.4486,701.5064,538.99,699.0645" style="stroke:#0055A9;stroke-width:1;"/><text fill="#0055A9" font-family="sans-serif" font-size="13" lengthAdjust="spacing" textLength="44.1289" x="367.8081" y="641.8051">reviews</text><text fill="#0055A9" font-family="sans-serif" font-size="13" lengthAdjust="spacing" textLength="55.7451" x="362" y="657.0395">validity of</text></g><!--link ReviewClaim to EvaluationClaim--><g class="link" data-entity-1="ReviewClaim" data-entity-2="EvaluationClaim" data-source-line="81" data-uid="lnk23" id="link_ReviewClaim_EvaluationClaim"><path codeLine="81" d="M95.18,581.1445 C105.27,604.1645 123.5,638.9545 149,660.7445 C166.64,675.8245 183.5695,684.9119 204.7995,693.0719" fill="none" id="ReviewClaim-to-EvaluationClaim" style="stroke:#0055A9;stroke-width:1;"/><polygon fill="#0055A9" points="210.4,695.2245,203.4343,688.2619,205.7329,693.4307,200.5641,695.7293,210.4,695.2245" style="stroke:#0055A9;stroke-width:1;"/><text fill="#0055A9" font-family="sans-serif" font-size="13" lengthAdjust="spacing" textLength="44.1289" x="150" y="649.3051">reviews</text></g><!--link ReviewClaim to MeasurementClaim--><g class="link" data-entity-1="ReviewClaim" data-entity-2="MeasurementClaim" data-source-line="82" data-uid="lnk24" id="link_ReviewClaim_MeasurementClaim"><path codeLine="82" d="M86.88,581.2045 C89.63,624.4945 100.88,718.0545 147,778.7445 C165.08,802.5245 187.3254,817.8474 212.4454,830.5474" fill="none" id="ReviewClaim-to-MeasurementClaim" style="stroke:#0055A9;stroke-width:1;"/><polygon fill="#0055A9" points="217.8,833.2545,211.5729,825.6241,213.3379,830.9986,207.9634,832.7636,217.8,833.2545" style="stroke:#0055A9;stroke-width:1;"/><text fill="#0055A9" font-family="sans-serif" font-size="13" lengthAdjust="spacing" textLength="44.1289" x="148" y="719.3051">reviews</text></g><!--link EndorsementClaim to ReviewClaim--><g class="link" data-entity-1="EndorsementClaim" data-entity-2="ReviewClaim" data-source-line="83" data-uid="lnk25" id="link_EndorsementClaim_ReviewClaim"><path codeLine="83" d="M102.36,410.3745 C98.73,442.6345 92.9113,494.3522 89.2913,526.5022" fill="none" id="EndorsementClaim-to-ReviewClaim" style="stroke:#0055A9;stroke-width:1;"/><polygon fill="#0055A9" points="88.62,532.4645,93.6019,523.9686,89.1795,527.4959,85.6521,523.0735,88.62,532.4645" style="stroke:#0055A9;stroke-width:1;"/><text fill="#0055A9" font-family="sans-serif" font-size="13" lengthAdjust="spacing" textLength="53.5361" x="99.31" y="456.8051">endorses</text></g><!--link EndorsementClaim to EvaluationClaim--><g class="link" data-entity-1="EndorsementClaim" data-entity-2="EvaluationClaim" data-source-line="84" data-uid="lnk26" id="link_EndorsementClaim_EvaluationClaim"><path codeLine="84" d="M163.95,410.3745 C204.19,427.5645 252.55,450.9045 266,468.7445 C318.03,537.7745 312.51,575.7045 297,660.7445 C295.18,670.7145 293.8407,675.6726 290.1907,684.6926" fill="none" id="EndorsementClaim-to-EvaluationClaim" style="stroke:#0055A9;stroke-width:1;"/><polygon fill="#0055A9" points="287.94,690.2545,295.0239,683.4121,289.8155,685.6196,287.6081,680.4113,287.94,690.2545" style="stroke:#0055A9;stroke-width:1;"/><text fill="#0055A9" font-family="sans-serif" font-size="13" lengthAdjust="spacing" textLength="53.5361" x="308.77" y="561.3051">endorses</text></g><!--link EndorsementClaim to MethodologyAuthorshipClaim--><g class="link" data-entity-1="EndorsementClaim" data-entity-2="MethodologyAuthorshipClaim" data-source-line="85" data-uid="lnk27" id="link_EndorsementClaim_MethodologyAuthorshipClaim"><path codeLine="85" d="M170.21,410.3045 C174.84,411.5845 179.47,412.7545 184,413.7445 C308.84,441.1445 349.49,401.1745 470,443.7445 C526.85,463.8245 579.17,502.1906 611.47,528.6706" fill="none" id="EndorsementClaim-to-MethodologyAuthorshipClaim" style="stroke:#0055A9;stroke-width:1;"/><polygon fill="#0055A9" points="616.11,532.4745,611.6859,523.6752,612.2433,529.3046,606.614,529.8619,616.11,532.4745" style="stroke:#0055A9;stroke-width:1;"/><text fill="#0055A9" font-family="sans-serif" font-size="13" lengthAdjust="spacing" textLength="53.5361" x="507.05" y="456.8051">endorses</text></g><!--link EndorsementClaim to MethodologyValidityClaim--><g class="link" data-entity-1="EndorsementClaim" data-entity-2="MethodologyValidityClaim" data-source-line="86" data-uid="lnk28" id="link_EndorsementClaim_MethodologyValidityClaim"><path codeLine="86" d="M173.45,410.3545 C177.02,411.5145 180.55,412.6545 184,413.7445 C266.58,439.9145 302.49,415.7145 371,468.7445 C433.26,516.9345 404.92,566.5045 462,620.7445 C494.17,651.3145 532.8605,672.2954 568.7805,687.9654" fill="none" id="EndorsementClaim-to-MethodologyValidityClaim" style="stroke:#0055A9;stroke-width:1;"/><polygon fill="#0055A9" points="574.28,690.3645,567.6302,683.0995,569.6971,688.3653,564.4314,690.4322,574.28,690.3645" style="stroke:#0055A9;stroke-width:1;"/><text fill="#0055A9" font-family="sans-serif" font-size="13" lengthAdjust="spacing" textLength="53.5361" x="463" y="561.3051">endorses</text></g><!--link ReviewClaim to ReviewClaim--><g class="link" data-entity-1="ReviewClaim" data-entity-2="ReviewClaim" data-source-line="89" data-uid="lnk29" id="link_ReviewClaim_ReviewClaim"><path codeLine="89" d="M142.43,540.2445 C161.59,540.1545 177,545.6545 177,556.7445 C177,567.8345 167.5899,573.3627 148.4299,573.2727" fill="none" id="ReviewClaim-to-ReviewClaim" style="stroke:#0055A9;stroke-width:1;"/><polygon fill="#0055A9" points="142.43,573.2445,151.4111,577.2868,147.4299,573.268,151.4487,569.2869,142.43,573.2445" style="stroke:#0055A9;stroke-width:1;"/><text fill="#0055A9" font-family="sans-serif" font-size="13" lengthAdjust="spacing" textLength="44.1289" x="199.6753" y="553.8051">reviews</text><text fill="#0055A9" font-family="sans-serif" font-size="13" lengthAdjust="spacing" textLength="77.4795" x="183" y="569.0395">other reviews</text></g><!--link EndorsementClaim to EndorsementClaim--><g class="link" data-entity-1="EndorsementClaim" data-entity-2="EndorsementClaim" data-source-line="90" data-uid="lnk30" id="link_EndorsementClaim_EndorsementClaim"><path codeLine="90" d="M180.85,373.5845 C200.54,374.3345 215.39,378.4445 215.39,385.8945 C215.39,393.3445 206.5355,397.2131 186.8455,397.9731" fill="none" id="EndorsementClaim-to-EndorsementClaim" style="stroke:#0055A9;stroke-width:1;"/><polygon fill="#0055A9" points="180.85,398.2045,189.9976,401.8544,185.8463,398.0117,189.689,393.8604,180.85,398.2045" style="stroke:#0055A9;stroke-width:1;"/><text fill="#0055A9" font-family="sans-serif" font-size="13" lengthAdjust="spacing" textLength="53.5361" x="252.9283" y="382.9551">endorses</text><text fill="#0055A9" font-family="sans-serif" font-size="13" lengthAdjust="spacing" textLength="116.6128" x="221.39" y="398.1895">other endorsements</text></g><!--link ImpactClaims to MethodologyClaims--><!--link MethodologyClaims to MetaClaims--><!--SRC=[bLPjRziu3FxkNw7a2lJBibjtwB05lG6zhZiKI86YwmOCRJ4eDfrejIL3aXFaXlxterviIxQJOlaG91GfFdpuaFRawDFL-R-tvzS_xhxVN9A_oVIYeAnKv1OAgfdWQiqgyedHbQJbD9cmd6UGayzV5uiVTrTtYyjaSjJzmVZelcG2F6DvOk9Cs54OnwB_P8AvfycnPhg0sD7TqLnrflIkW8z99jAw1Ax9huJWnyMvt-RpMN3zXVq7vA-tiSr4awKeCcj-JfwJYgPFT0KlNNJotaUOxmNZS24A8SaVx-m7xqaBgfIdobzWJS5b_s2gbHGrptpmgVsSd0HNKod5DeW9KhrvStfw_Y62DZmn9PtzwLbgYvjUbVXJ4zVUAQ6AE8lljykNKKqTvk2GtD__kbj3P6AAQ3JbfXIh4rgOOl64BaMjoLR89rA1p8Ki8IEKPuGv02lW8Ab6uvRfDUD4LP2odAL4fQ82PNqrAo576a6zVdvyJ7hOhg5SWZJAZF3rpHjQC0m20vLgGXr0Yf91zBJMQo6nhvXCa8fApL9MeJT1IBG3LKdn4n0sacpnZU7nn60t95lM6brZne832PK4XR8rTMAgZ6rOLYDvU8PMfdSERDh46FIYnntIlH_6ZGSSGMYCONgYjAnJNKkaW76c6Lwy0GC4QxOQHhPCxxgyVDKHuo5XirFHzEavqDir8C4PgdEr2qKNcFSeB_3uPZg8dFJQlESSWq5g9qnbXCb1EJdH2akg95O8rYPoB1_TXDoPt-cQyfMjl0Iga12xLyekpxW8s-DpgwKHFUxr0ANfic1gZUtThWL99TYHG0XTvwqowG07aXoYQ07tSlViI00g3TEXvg32NUfARBqyKKYXKku_4kDxREV6JsAN-XBdgxPYZ3BtpMrYQ0z6SqLOa0U1_P5Hwb1QjASfkaTCjx1Xi8q0XgOMN0LWXjESM71-To1OXwtJyiPhpaCRXng3kEGPDd_Of86zuwexiHbKNLL2Qjot3KhrAYJqrIWCLCenkH0I_6gMmJDT9U4wdyq-xf-hELbI1Ta35znTsAqpGrNLxfQHsmDVaoFCEISbVOB6izbG3acyoEUui5MDhls3uCeWqRnRxkg1TwiTiI5_feHWEcm97PC7E3gRpOPZDMzqYvdCJJRSxkoaFmYkia6yputL7Oz5n8nrphQAJfKnx0ERvuLE1ui92t8qejODR-7Sl72Bb-W3RuT5v1undOreaSm8BGgnDGyONCQCgq6sFZTjaX5S0uuRry706VymVjvCtXxV8Oh3_WSQyHkXWoOrWKZf5oZocOGSf7bzm1U9c5YpC1pXUtYDgsyRvtR9GTu6nWvO4n-kiSIWNT2TUJl4rpuT3HSgGDwlMOPFfSUuTdUS35yR-W7-2P0ac1jm_YgpkEFfkK0SidrHTI-5HT60zVlSSvc26-XbpOhCF9ypjcH5Cml_0m00]--></g></svg>