<svg xmlns="http://www.w3.org/2000/svg" xmlns:xlink="http://www.w3.org/1999/xlink" contentStyleType="text/css" data-diagram-type="CLASS" height="285px" preserveAspectRatio="none" style="width:1005px;height:285px;background:#FFFFFF;" version="1.1" viewBox="0 0 1005 285" width="1005px" zoomAndPan="magnify"><title>MERIter Entity Relationship Diagram (ERD)</title><defs/><g><g class="title" data-source-line="19"><text fill="#000000" font-family="sans-serif" font-size="32" font-weight="bold" lengthAdjust="spacing" textLength="612.1719" x="189.8095" y="39.6875">MERIter Entity Relationship Diagram (ERD)</text></g><!--cluster Governance--><g class="cluster" data-entity="Governance" data-source-line="62" data-uid="ent0002" id="cluster_Governance"><path d="M8.5,65.3945 L164.4775,65.3945 A3.75,3.75 0 0 1 166.9775,67.8945 L173.9775,92.4883 L854.5,92.4883 A2.5,2.5 0 0 1 857,94.9883 L857,275.8945 A2.5,2.5 0 0 1 854.5,278.3945 L8.5,278.3945 A2.5,2.5 0 0 1 6,275.8945 L6,67.8945 A2.5,2.5 0 0 1 8.5,65.3945" fill="none" style="stroke:#000000;stroke-width:1.5;"/><line style="stroke:#000000;stroke-width:1.5;" x1="6" x2="173.9775" y1="92.4883" y2="92.4883"/><text fill="#000000" font-family="sans-serif" font-size="18" font-weight="bold" lengthAdjust="spacing" textLength="154.9775" x="10" y="84.0938">Governance (meta)</text></g><!--class ObjectivesDesigner--><g class="entity" data-entity="ObjectivesDesigner" data-source-line="63" data-uid="ent0003" id="entity_ObjectivesDesigner"><rect fill="#555555" fill-opacity="0.06667" height="40" rx="2.5" ry="2.5" style="stroke:#181818;stroke-width:0.5;" width="152.0117" x="284.99" y="105.3945"/><ellipse cx="299.99" cy="121.3945" fill="#ADD1B2" rx="11" ry="11" style="stroke:#181818;stroke-width:1;"/><path d="M296.0525,127.3945 L303.5681,127.3945 L303.5681,125.2852 L298.5681,125.2852 L298.5681,122.7383 L302.6619,122.7383 L302.6619,120.6445 L298.5681,120.6445 L298.5681,118.4258 L303.3963,118.4258 L303.3963,116.3164 L296.0525,116.3164 L296.0525,127.3945 Z " fill="#000000"/><text fill="#000000" font-family="sans-serif" font-size="14" lengthAdjust="spacing" textLength="120.0117" x="313.99" y="126.1797">ObjectivesDesigner</text><line style="stroke:#181818;stroke-width:0.5;" x1="285.99" x2="436.0017" y1="137.3945" y2="137.3945"/></g><!--class ScopesDesigner--><g class="entity" data-entity="ScopesDesigner" data-source-line="64" data-uid="ent0004" id="entity_ScopesDesigner"><rect fill="#555555" fill-opacity="0.06667" height="40" rx="2.5" ry="2.5" style="stroke:#181818;stroke-width:0.5;" width="133.1377" x="22.43" y="222.3945"/><ellipse cx="37.43" cy="238.3945" fill="#ADD1B2" rx="11" ry="11" style="stroke:#181818;stroke-width:1;"/><path d="M33.4925,244.3945 L41.0081,244.3945 L41.0081,242.2852 L36.0081,242.2852 L36.0081,239.7383 L40.1019,239.7383 L40.1019,237.6445 L36.0081,237.6445 L36.0081,235.4258 L40.8363,235.4258 L40.8363,233.3164 L33.4925,233.3164 L33.4925,244.3945 Z " fill="#000000"/><text fill="#000000" font-family="sans-serif" font-size="14" lengthAdjust="spacing" textLength="101.1377" x="51.43" y="243.1797">ScopesDesigner</text><line style="stroke:#181818;stroke-width:0.5;" x1="23.43" x2="154.5677" y1="254.3945" y2="254.3945"/></g><!--class MeasurementDesigner--><g class="entity" data-entity="MeasurementDesigner" data-source-line="65" data-uid="ent0005" id="entity_MeasurementDesigner"><rect fill="#555555" fill-opacity="0.06667" height="40" rx="2.5" ry="2.5" style="stroke:#181818;stroke-width:0.5;" width="173.3877" x="190.31" y="222.3945"/><ellipse cx="205.31" cy="238.3945" fill="#ADD1B2" rx="11" ry="11" style="stroke:#181818;stroke-width:1;"/><path d="M201.3725,244.3945 L208.8881,244.3945 L208.8881,242.2852 L203.8881,242.2852 L203.8881,239.7383 L207.9819,239.7383 L207.9819,237.6445 L203.8881,237.6445 L203.8881,235.4258 L208.7163,235.4258 L208.7163,233.3164 L201.3725,233.3164 L201.3725,244.3945 Z " fill="#000000"/><text fill="#000000" font-family="sans-serif" font-size="14" lengthAdjust="spacing" textLength="141.3877" x="219.31" y="243.1797">MeasurementDesigner</text><line style="stroke:#181818;stroke-width:0.5;" x1="191.31" x2="362.6977" y1="254.3945" y2="254.3945"/></g><!--class EvaluationDesigner--><g class="entity" data-entity="EvaluationDesigner" data-source-line="66" data-uid="ent0006" id="entity_EvaluationDesigner"><rect fill="#555555" fill-opacity="0.06667" height="40" rx="2.5" ry="2.5" style="stroke:#181818;stroke-width:0.5;" width="151.793" x="399.1" y="222.3945"/><ellipse cx="414.1" cy="238.3945" fill="#ADD1B2" rx="11" ry="11" style="stroke:#181818;stroke-width:1;"/><path d="M410.1625,244.3945 L417.6781,244.3945 L417.6781,242.2852 L412.6781,242.2852 L412.6781,239.7383 L416.7719,239.7383 L416.7719,237.6445 L412.6781,237.6445 L412.6781,235.4258 L417.5063,235.4258 L417.5063,233.3164 L410.1625,233.3164 L410.1625,244.3945 Z " fill="#000000"/><text fill="#000000" font-family="sans-serif" font-size="14" lengthAdjust="spacing" textLength="119.793" x="428.1" y="243.1797">EvaluationDesigner</text><line style="stroke:#181818;stroke-width:0.5;" x1="400.1" x2="549.893" y1="254.3945" y2="254.3945"/></g><!--class RewardDesigner--><g class="entity" data-entity="RewardDesigner" data-source-line="67" data-uid="ent0007" id="entity_RewardDesigner"><rect fill="#555555" fill-opacity="0.06667" height="40" rx="2.5" ry="2.5" style="stroke:#181818;stroke-width:0.5;" width="133.8281" x="586.09" y="222.3945"/><ellipse cx="601.09" cy="238.3945" fill="#ADD1B2" rx="11" ry="11" style="stroke:#181818;stroke-width:1;"/><path d="M597.1525,244.3945 L604.6681,244.3945 L604.6681,242.2852 L599.6681,242.2852 L599.6681,239.7383 L603.7619,239.7383 L603.7619,237.6445 L599.6681,237.6445 L599.6681,235.4258 L604.4963,235.4258 L604.4963,233.3164 L597.1525,233.3164 L597.1525,244.3945 Z " fill="#000000"/><text fill="#000000" font-family="sans-serif" font-size="14" lengthAdjust="spacing" textLength="101.8281" x="615.09" y="243.1797">RewardDesigner</text><line style="stroke:#181818;stroke-width:0.5;" x1="587.09" x2="718.9181" y1="254.3945" y2="254.3945"/></g><!--class Treasury--><g class="entity" data-entity="Treasury" data-source-line="68" data-uid="ent0008" id="entity_Treasury"><rect fill="#555555" fill-opacity="0.06667" height="40" rx="2.5" ry="2.5" style="stroke:#181818;stroke-width:0.5;" width="86.4482" x="754.78" y="222.3945"/><ellipse cx="769.78" cy="238.3945" fill="#ADD1B2" rx="11" ry="11" style="stroke:#181818;stroke-width:1;"/><path d="M765.8425,244.3945 L773.3581,244.3945 L773.3581,242.2852 L768.3581,242.2852 L768.3581,239.7383 L772.4519,239.7383 L772.4519,237.6445 L768.3581,237.6445 L768.3581,235.4258 L773.1863,235.4258 L773.1863,233.3164 L765.8425,233.3164 L765.8425,244.3945 Z " fill="#000000"/><text fill="#000000" font-family="sans-serif" font-size="14" lengthAdjust="spacing" textLength="54.4482" x="783.78" y="243.1797">Treasury</text><line style="stroke:#181818;stroke-width:0.5;" x1="755.78" x2="840.2282" y1="254.3945" y2="254.3945"/></g><!--class FundingSource--><g class="entity" data-entity="FundingSource" data-source-line="245" data-uid="ent0017" id="entity_FundingSource"><rect fill="#555555" fill-opacity="0.06667" height="40" rx="2.5" ry="2.5" style="stroke:#181818;stroke-width:0.5;" width="125.5908" x="873.2" y="105.3945"/><ellipse cx="888.2" cy="121.3945" fill="#ADD1B2" rx="11" ry="11" style="stroke:#181818;stroke-width:1;"/><path d="M884.2625,127.3945 L891.7781,127.3945 L891.7781,125.2852 L886.7781,125.2852 L886.7781,122.7383 L890.8719,122.7383 L890.8719,120.6445 L886.7781,120.6445 L886.7781,118.4258 L891.6063,118.4258 L891.6063,116.3164 L884.2625,116.3164 L884.2625,127.3945 Z " fill="#000000"/><text fill="#000000" font-family="sans-serif" font-size="14" lengthAdjust="spacing" textLength="93.5908" x="902.2" y="126.1797">FundingSource</text><line style="stroke:#181818;stroke-width:0.5;" x1="874.2" x2="997.7908" y1="137.3945" y2="137.3945"/></g><!--link RewardDesigner to Treasury--><!--link ScopesDesigner to MeasurementDesigner--><!--link MeasurementDesigner to EvaluationDesigner--><!--link EvaluationDesigner to RewardDesigner--><!--link ObjectivesDesigner to ScopesDesigner--><g class="link" data-entity-1="ObjectivesDesigner" data-entity-2="ScopesDesigner" data-source-line="75" data-uid="lnk13" id="link_ObjectivesDesigner_ScopesDesigner"><path codeLine="75" d="M315.17,145.7745 C265.05,166.9645 190.7364,198.378 140.5464,219.598" fill="none" id="ObjectivesDesigner-to-ScopesDesigner" style="stroke:#181818;stroke-width:1;"/><polygon fill="#181818" points="135.02,221.9345,144.8672,222.114,139.6253,219.9874,141.7519,214.7455,135.02,221.9345" style="stroke:#181818;stroke-width:1;"/><text fill="#000000" font-family="sans-serif" font-size="13" lengthAdjust="spacing" textLength="40.0156" x="242.29" y="188.4551">orients</text><text fill="#000000" font-family="sans-serif" font-size="13" lengthAdjust="spacing" textLength="7.3062" x="294.9548" y="165.3593">1</text><text fill="#000000" font-family="sans-serif" font-size="13" lengthAdjust="spacing" textLength="7.3062" x="140.0221" y="211.1643">1</text></g><!--link ObjectivesDesigner to MeasurementDesigner--><g class="link" data-entity-1="ObjectivesDesigner" data-entity-2="MeasurementDesigner" data-source-line="76" data-uid="lnk14" id="link_ObjectivesDesigner_MeasurementDesigner"><path codeLine="76" d="M346.94,145.6445 C331.43,166.8745 310.1688,195.9892 294.6488,217.2392" fill="none" id="ObjectivesDesigner-to-MeasurementDesigner" style="stroke:#181818;stroke-width:1;"/><polygon fill="#181818" points="291.11,222.0845,299.6484,217.1758,294.059,218.0468,293.188,212.4574,291.11,222.0845" style="stroke:#181818;stroke-width:1;"/><text fill="#000000" font-family="sans-serif" font-size="13" lengthAdjust="spacing" textLength="40.0156" x="325.03" y="188.4551">orients</text><text fill="#000000" font-family="sans-serif" font-size="13" lengthAdjust="spacing" textLength="7.3062" x="335.0455" y="165.5427">1</text><text fill="#000000" font-family="sans-serif" font-size="13" lengthAdjust="spacing" textLength="7.3062" x="287.136" y="211.3565">1</text></g><!--link ObjectivesDesigner to EvaluationDesigner--><g class="link" data-entity-1="ObjectivesDesigner" data-entity-2="EvaluationDesigner" data-source-line="77" data-uid="lnk15" id="link_ObjectivesDesigner_EvaluationDesigner"><path codeLine="77" d="M380.08,145.6445 C401.12,166.8745 430.5654,196.5739 451.6354,217.8239" fill="none" id="ObjectivesDesigner-to-EvaluationDesigner" style="stroke:#181818;stroke-width:1;"/><polygon fill="#181818" points="455.86,222.0845,452.3636,212.8772,452.3395,218.534,446.6827,218.5099,455.86,222.0845" style="stroke:#181818;stroke-width:1;"/><text fill="#000000" font-family="sans-serif" font-size="13" lengthAdjust="spacing" textLength="40.0156" x="425.83" y="188.4551">orients</text><text fill="#000000" font-family="sans-serif" font-size="13" lengthAdjust="spacing" textLength="7.3062" x="377.5061" y="165.5427">1</text><text fill="#000000" font-family="sans-serif" font-size="13" lengthAdjust="spacing" textLength="7.3062" x="442.5365" y="211.3565">1</text></g><!--link ObjectivesDesigner to RewardDesigner--><g class="link" data-entity-1="ObjectivesDesigner" data-entity-2="RewardDesigner" data-source-line="78" data-uid="lnk16" id="link_ObjectivesDesigner_RewardDesigner"><path codeLine="78" d="M410.2,145.7745 C464,166.9645 544.1375,198.5155 598.0075,219.7355" fill="none" id="ObjectivesDesigner-to-RewardDesigner" style="stroke:#181818;stroke-width:1;"/><polygon fill="#181818" points="603.59,221.9345,596.6823,214.9143,598.9379,220.102,593.7502,222.3577,603.59,221.9345" style="stroke:#181818;stroke-width:1;"/><text fill="#000000" font-family="sans-serif" font-size="13" lengthAdjust="spacing" textLength="40.0156" x="525.48" y="188.4551">orients</text><text fill="#000000" font-family="sans-serif" font-size="13" lengthAdjust="spacing" textLength="7.3062" x="415.5241" y="165.3593">1</text><text fill="#000000" font-family="sans-serif" font-size="13" lengthAdjust="spacing" textLength="7.3062" x="581.751" y="211.1643">1</text></g><!--link FundingSource to Treasury--><g class="link" data-entity-1="FundingSource" data-entity-2="Treasury" data-source-line="246" data-uid="lnk18" id="link_FundingSource_Treasury"><path codeLine="246" d="M912.9,145.6445 C887.43,166.8745 851.2901,196.9943 825.7801,218.2443" fill="none" id="FundingSource-to-Treasury" style="stroke:#181818;stroke-width:1;"/><polygon fill="#181818" points="821.17,222.0845,830.6452,219.3976,825.0117,218.8843,825.525,213.2508,821.17,222.0845" style="stroke:#181818;stroke-width:1;"/><text fill="#000000" font-family="sans-serif" font-size="13" lengthAdjust="spacing" textLength="32.9063" x="876.26" y="188.4551">funds</text><text fill="#000000" font-family="sans-serif" font-size="13" lengthAdjust="spacing" textLength="5.5986" x="900.7855" y="165.5427">*</text><text fill="#000000" font-family="sans-serif" font-size="13" lengthAdjust="spacing" textLength="7.3062" x="819.7441" y="211.3565">1</text></g><!--SRC=[vLXjJniv4Fw-lyBasXBQH1LtEkaKKIHAGfiU54HegnD5oEnw4n-xzihsGjEA_txZzRxOMISigdHV6ZwmE-CPpyipu_5kewrCu7cAKOANF5T8faHXXeDWwzdP-Uc7oU75zSU3ambwWteda_Ef8g87hF7quDtvmSdrnJzd1Ml255LBT4uIh2XdSa4pDAPuBd2A-fFpyOuMElfqV7nzCRqurYAkzbUe1t-laACu2BRH8MSndUUYK8lkiA3u9Y4IjCtUdtwvFffEZiSpKFSyneaa_PsACJcO-PWqPX69qUVfRFhsU79zTd3uzy6xoIpO0YfbfCL0lNVyZWY6MKW6qpJ3eHgS42npGGQJEvpaM971ERd78W8F2OjehAr-JvAC21JdB2piLXo52nBU8XeZq76BvmHHYUwefE1Di5KlV4RbcU5_Dhp-itBzHvoIdG2XBK5KBXXwBfN8kEolMZn0ZWJQUeE6kuLfrIP10BbA2BBo4UZ8eFvpnbNV3kpEJh2W4K4apI2xCIL996itzwHQ9cG_Y7YOfuGfz0FCGyWeDy_wTyIPcj7l1FtnkqlJqkY69r51VWWUWYeqZoZQ_QkM21CiPGKqixGWMM9lGUbSy9n5XppX0ltsP_7RtIsLr383X8NWzmD42Z0F44J3tdyR7GD4Z9Bx1LN4ugnkqk9p4H7Xvsc_LZdQDvdnAgRwSL9QfP_7ME735J__R_FsNfVv3xRbBMKPrYb8m0Irp0ZYGYru2QisgAsgwW76wiHRTDJNZMYdXx145jNuQpA4Jc_-9G3fEoB7HD8v8yBcpaAU-Jbb1MlG-jXbOKEf-BYcsdsS2r7eNGO5qLs7Xk8IIYaYx6gutwpK2rqxtONhBFNGNS4rFhJ9hjYASuLCEygejzj3GrYk_w-OFuBKKp1BTf7rkV4a1Hv_dYI_agH6zg5kS-iWR4u33TyAlORYGlHYGRXOdiQ72ypc9B1PPlcfc6D6lvlphQbciwlTYciMjoJ6qt4ZOWnkkfgppvdWEX9FtwAZ_YzSt1RK27gJwS66KU2ZsxQPiV6JvHJ9UBW0U-0qICcKmVW16VVfQWxyHjzmM3_cDAgV9Pp5AQvV1Odj7VL6gCzZ54AHwW0q-iYtZ9f9v08MMGhkUEWZXpJJQAefM2aYLLcAZQGU0Jn1ziPyDRfm2j0KNLx- -4mMD8JpCePObInet8BUv0eeHQeeaSKamjCqPnGiXZQTAtWrzB8OXNoukkgMBwbJwmIkbI7oJGbSMFsB9grTANPUEeNv7afh37P9CFQC9pHSRjZARJXe646dSpk0so0zNQXea5gkzxBNaernI1Eg03osVCNtY9hw7w68ti4eARyooXItH0tV8sYWFGAyCeKfixUpGwW5XhbVKl_VAEU8wHO6Kll5ZiKoiaPuD6hdnBYG-3NEL-9bBDnWWY2P878bIsstCrVSIQDMSqCIpkQwl3kSQ6K3i8-qabJYj6a-ri7T3SEqSNlQ53K5Ww08kNYaYHJbymjtVNTkBUUowgqPQ5uw4nK0GE5RqcMMgQwoTkehMYltpSnrJcIUT0I03h1KECqUzRBKpqitwrUtHxIi6A5UY9CmJtIfQS7UoiHRhdFwHQEy49SXZaZq5HfKhqFKodk_5JD3SIT0GpiiJRDw_jfWYKB2wVGRvW2Z_o19IZHsImTEuJQeDg3MNx3hSbREqLHM_Sc-0rc-EobiMGuTkywW9M-jA98dtE6zsHGKu1pkdO9-Ts2_ZShKeUAUIzaS3KsX4zth9MZGzPAGM0qL7mewNwZoUrY7yRz3Eorl1hwhNM0V2Bu5edAZI_7wDghuZ-bfuEpJOhYrZkv7IHUpgsFc9-tsgdcQuOrLwCKBj76tka7wjckr7TyrsogNn-noFvYKLNUKWn2RptWkGX8uRwPIeh9IgkyDUdw3LRBBhROrI5hshtnQMLtg_VvWpPsUzPk_13YJ8ZYs1tEM_-D3L3pAnp1ZuTEtizEcwdEsitORsfv0-Cun_WJr3GHNFb-qlsnOhRTHNwF1yoN4QQO6AnqhfqBEchffTSFs26m5kYVpcvJ2u1Jfc-dhhx0rN3QX181mizG4IP9u25Co5wgWzLorknL8t9beD7BEDTWfDSmAOwiZjbz9MNyZVOX4L3q148z7nvxW7Anx9XvIwfKjgQ5lm87ke2TH671ql7xMvbOdj6QipK046uYGQByhqDSOqFIgTRdBXyEruDuhvonFvltNEvEBIyO5PhTNZcR7kpsuriH9Jg1NooVCaDNq-qtfHf_0JJ21OyH-Cs7DrqzFEWtDdly1]--></g></svg>