<svg xmlns="http://www.w3.org/2000/svg" xmlns:xlink="http://www.w3.org/1999/xlink" contentStyleType="text/css" data-diagram-type="CLASS" height="285px" preserveAspectRatio="none" style="width:1005px;height:285px;background:#FFFFFF;" version="1.1" viewBox="0 0 1005 285" width="1005px" zoomAndPan="magnify"><title>MERIter Entity Relationship Diagram (ERD)</title><defs/><g><g class="title" data-source-line="19"><text fill="#000000" font-family="sans-serif" font-size="32" font-weight="bold" lengthAdjust="spacing" textLength="612.1719" x="189.8095" y="39.6875">MERIter Entity Relationship Diagram (ERD)</text></g><!--cluster Governance--><g class="cluster" data-entity="Governance" data-source-line="62" data-uid="ent0002" id="cluster_Governance"><path d="M8.5,65.3945 L164.4775,65.3945 A3.75,3.75 0 0 1 166.9775,67.8945 L173.9775,92.4883 L854.5,92.4883 A2.5,2.5 0 0 1 857,94.9883 L857,275.8945 A2.5,2.5 0 0 1 854.5,278.3945 L8.5,278.3945 A2.5,2.5 0 0 1 6,275.8945 L6,67.8945 A2.5,2.5 0 0 1 8.5,65.3945" fill="none" style="stroke:#000000;stroke-width:1.5;"/><line style="stroke:#000000;stroke-width:1.5;" x1="6" x2="173.9775" y1="92.4883" y2="92.4883"/><text fill="#000000" font-family="sans-serif" font-size="18" font-weight="bold" lengthAdjust="spacing" textLength="154.9775" x="10" y="84.0938">Governance (meta)</text></g><!--class TheoryOfChange--><g class="entity" data-entity="TheoryOfChange" data-source-line="63" data-uid="ent0003" id="entity_TheoryOfChange"><rect fill="#555555" fill-opacity="0.06667" height="40" rx="2.5" ry="2.5" style="stroke:#181818;stroke-width:0.5;" width="136.7949" x="78.6" y="105.3945"/><ellipse cx="93.6" cy="121.3945" fill="#ADD1B2" rx="11" ry="11" style="stroke:#181818;stroke-width:1;"/><path d="M89.6625,127.3945 L97.1781,127.3945 L97.1781,125.2852 L92.1781,125.2852 L92.1781,122.7383 L96.2719,122.7383 L96.2719,120.6445 L92.1781,120.6445 L92.1781,118.4258 L97.0063,118.4258 L97.0063,116.3164 L89.6625,116.3164 L89.6625,127.3945 Z " fill="#000000"/><text fill="#000000" font-family="sans-serif" font-size="14" lengthAdjust="spacing" textLength="104.7949" x="107.6" y="126.1797">TheoryOfChange</text><line style="stroke:#181818;stroke-width:0.5;" x1="79.6" x2="214.3949" y1="137.3945" y2="137.3945"/></g><!--class ObjectivesDesigner--><g class="entity" data-entity="ObjectivesDesigner" data-source-line="64" data-uid="ent0004" id="entity_ObjectivesDesigner"><rect fill="#555555" fill-opacity="0.06667" height="40" rx="2.5" ry="2.5" style="stroke:#181818;stroke-width:0.5;" width="152.0117" x="357.99" y="105.3945"/><ellipse cx="372.99" cy="121.3945" fill="#ADD1B2" rx="11" ry="11" style="stroke:#181818;stroke-width:1;"/><path d="M369.0525,127.3945 L376.5681,127.3945 L376.5681,125.2852 L371.5681,125.2852 L371.5681,122.7383 L375.6619,122.7383 L375.6619,120.6445 L371.5681,120.6445 L371.5681,118.4258 L376.3963,118.4258 L376.3963,116.3164 L369.0525,116.3164 L369.0525,127.3945 Z " fill="#000000"/><text fill="#000000" font-family="sans-serif" font-size="14" lengthAdjust="spacing" textLength="120.0117" x="386.99" y="126.1797">ObjectivesDesigner</text><line style="stroke:#181818;stroke-width:0.5;" x1="358.99" x2="509.0017" y1="137.3945" y2="137.3945"/></g><!--class ScopesDesigner--><g class="entity" data-entity="ScopesDesigner" data-source-line="65" data-uid="ent0005" id="entity_ScopesDesigner"><rect fill="#555555" fill-opacity="0.06667" height="40" rx="2.5" ry="2.5" style="stroke:#181818;stroke-width:0.5;" width="133.1377" x="22.43" y="222.3945"/><ellipse cx="37.43" cy="238.3945" fill="#ADD1B2" rx="11" ry="11" style="stroke:#181818;stroke-width:1;"/><path d="M33.4925,244.3945 L41.0081,244.3945 L41.0081,242.2852 L36.0081,242.2852 L36.0081,239.7383 L40.1019,239.7383 L40.1019,237.6445 L36.0081,237.6445 L36.0081,235.4258 L40.8363,235.4258 L40.8363,233.3164 L33.4925,233.3164 L33.4925,244.3945 Z " fill="#000000"/><text fill="#000000" font-family="sans-serif" font-size="14" lengthAdjust="spacing" textLength="101.1377" x="51.43" y="243.1797">ScopesDesigner</text><line style="stroke:#181818;stroke-width:0.5;" x1="23.43" x2="154.5677" y1="254.3945" y2="254.3945"/></g><!--class MeasurementDesigner--><g class="entity" data-entity="MeasurementDesigner" data-source-line="66" data-uid="ent0006" id="entity_MeasurementDesigner"><rect fill="#555555" fill-opacity="0.06667" height="40" rx="2.5" ry="2.5" style="stroke:#181818;stroke-width:0.5;" width="173.3877" x="190.31" y="222.3945"/><ellipse cx="205.31" cy="238.3945" fill="#ADD1B2" rx="11" ry="11" style="stroke:#181818;stroke-width:1;"/><path d="M201.3725,244.3945 L208.8881,244.3945 L208.8881,242.2852 L203.8881,242.2852 L203.8881,239.7383 L207.9819,239.7383 L207.9819,237.6445 L203.8881,237.6445 L203.8881,235.4258 L208.7163,235.4258 L208.7163,233.3164 L201.3725,233.3164 L201.3725,244.3945 Z " fill="#000000"/><text fill="#000000" font-family="sans-serif" font-size="14" lengthAdjust="spacing" textLength="141.3877" x="219.31" y="243.1797">MeasurementDesigner</text><line style="stroke:#181818;stroke-width:0.5;" x1="191.31" x2="362.6977" y1="254.3945" y2="254.3945"/></g><!--class EvaluationDesigner--><g class="entity" data-entity="EvaluationDesigner" data-source-line="67" data-uid="ent0007" id="entity_EvaluationDesigner"><rect fill="#555555" fill-opacity="0.06667" height="40" rx="2.5" ry="2.5" style="stroke:#181818;stroke-width:0.5;" width="151.793" x="399.1" y="222.3945"/><ellipse cx="414.1" cy="238.3945" fill="#ADD1B2" rx="11" ry="11" style="stroke:#181818;stroke-width:1;"/><path d="M410.1625,244.3945 L417.6781,244.3945 L417.6781,242.2852 L412.6781,242.2852 L412.6781,239.7383 L416.7719,239.7383 L416.7719,237.6445 L412.6781,237.6445 L412.6781,235.4258 L417.5063,235.4258 L417.5063,233.3164 L410.1625,233.3164 L410.1625,244.3945 Z " fill="#000000"/><text fill="#000000" font-family="sans-serif" font-size="14" lengthAdjust="spacing" textLength="119.793" x="428.1" y="243.1797">EvaluationDesigner</text><line style="stroke:#181818;stroke-width:0.5;" x1="400.1" x2="549.893" y1="254.3945" y2="254.3945"/></g><!--class RewardDesigner--><g class="entity" data-entity="RewardDesigner" data-source-line="68" data-uid="ent0008" id="entity_RewardDesigner"><rect fill="#555555" fill-opacity="0.06667" height="40" rx="2.5" ry="2.5" style="stroke:#181818;stroke-width:0.5;" width="133.8281" x="586.09" y="222.3945"/><ellipse cx="601.09" cy="238.3945" fill="#ADD1B2" rx="11" ry="11" style="stroke:#181818;stroke-width:1;"/><path d="M597.1525,244.3945 L604.6681,244.3945 L604.6681,242.2852 L599.6681,242.2852 L599.6681,239.7383 L603.7619,239.7383 L603.7619,237.6445 L599.6681,237.6445 L599.6681,235.4258 L604.4963,235.4258 L604.4963,233.3164 L597.1525,233.3164 L597.1525,244.3945 Z " fill="#000000"/><text fill="#000000" font-family="sans-serif" font-size="14" lengthAdjust="spacing" textLength="101.8281" x="615.09" y="243.1797">RewardDesigner</text><line style="stroke:#181818;stroke-width:0.5;" x1="587.09" x2="718.9181" y1="254.3945" y2="254.3945"/></g><!--class Treasury--><g class="entity" data-entity="Treasury" data-source-line="69" data-uid="ent0009" id="entity_Treasury"><rect fill="#555555" fill-opacity="0.06667" height="40" rx="2.5" ry="2.5" style="stroke:#181818;stroke-width:0.5;" width="86.4482" x="754.78" y="222.3945"/><ellipse cx="769.78" cy="238.3945" fill="#ADD1B2" rx="11" ry="11" style="stroke:#181818;stroke-width:1;"/><path d="M765.8425,244.3945 L773.3581,244.3945 L773.3581,242.2852 L768.3581,242.2852 L768.3581,239.7383 L772.4519,239.7383 L772.4519,237.6445 L768.3581,237.6445 L768.3581,235.4258 L773.1863,235.4258 L773.1863,233.3164 L765.8425,233.3164 L765.8425,244.3945 Z " fill="#000000"/><text fill="#000000" font-family="sans-serif" font-size="14" lengthAdjust="spacing" textLength="54.4482" x="783.78" y="243.1797">Treasury</text><line style="stroke:#181818;stroke-width:0.5;" x1="755.78" x2="840.2282" y1="254.3945" y2="254.3945"/></g><!--class FundingSource--><g class="entity" data-entity="FundingSource" data-source-line="246" data-uid="ent0021" id="entity_FundingSource"><rect fill="#555555" fill-opacity="0.06667" height="40" rx="2.5" ry="2.5" style="stroke:#181818;stroke-width:0.5;" width="125.5908" x="873.2" y="105.3945"/><ellipse cx="888.2" cy="121.3945" fill="#ADD1B2" rx="11" ry="11" style="stroke:#181818;stroke-width:1;"/><path d="M884.2625,127.3945 L891.7781,127.3945 L891.7781,125.2852 L886.7781,125.2852 L886.7781,122.7383 L890.8719,122.7383 L890.8719,120.6445 L886.7781,120.6445 L886.7781,118.4258 L891.6063,118.4258 L891.6063,116.3164 L884.2625,116.3164 L884.2625,127.3945 Z " fill="#000000"/><text fill="#000000" font-family="sans-serif" font-size="14" lengthAdjust="spacing" textLength="93.5908" x="902.2" y="126.1797">FundingSource</text><line style="stroke:#181818;stroke-width:0.5;" x1="874.2" x2="997.7908" y1="137.3945" y2="137.3945"/></g><!--link RewardDesigner to Treasury--><!--link ScopesDesigner to MeasurementDesigner--><!--link MeasurementDesigner to EvaluationDesigner--><!--link EvaluationDesigner to RewardDesigner--><!--link TheoryOfChange to ScopesDesigner--><!--link TheoryOfChange to EvaluationDesigner--><g class="link" data-entity-1="TheoryOfChange" data-entity-2="EvaluationDesigner" data-source-line="76" data-uid="lnk15" id="link_TheoryOfChange_EvaluationDesigner"><path codeLine="76" d="M200.48,145.8145 C222.83,154.3245 248.92,164.7845 272,175.3945 C286.63,182.1245 289.07,186.3645 304,192.3945 C334.35,204.6445 363.0973,213.5912 393.1473,221.7012" fill="none" id="TheoryOfChange-to-EvaluationDesigner" style="stroke:#181818;stroke-width:1;"/><polygon fill="#181818" points="398.94,223.2645,391.2931,217.0577,394.1127,221.9617,389.2086,224.7813,398.94,223.2645" style="stroke:#181818;stroke-width:1;"/><text fill="#000000" font-family="sans-serif" font-size="13" lengthAdjust="spacing" textLength="40.0156" x="305" y="188.4551">orients</text></g><!--link TheoryOfChange to MeasurementDesigner--><g class="link" data-entity-1="TheoryOfChange" data-entity-2="MeasurementDesigner" data-source-line="77" data-uid="lnk16" id="link_TheoryOfChange_MeasurementDesigner"><path codeLine="77" d="M140.28,145.7545 C136.65,159.9245 134.62,178.9445 144,192.3945 C155.12,208.3445 166.4728,216.8772 184.5628,224.1472" fill="none" id="TheoryOfChange-to-MeasurementDesigner" style="stroke:#181818;stroke-width:1;"/><polygon fill="#181818" points="190.13,226.3845,183.2707,219.317,185.4906,224.5201,180.2876,226.74,190.13,226.3845" style="stroke:#181818;stroke-width:1;"/><text fill="#000000" font-family="sans-serif" font-size="13" lengthAdjust="spacing" textLength="40.0156" x="145" y="188.4551">orients</text></g><!--link ObjectivesDesigner to ScopesDesigner--><g class="link" data-entity-1="ObjectivesDesigner" data-entity-2="ScopesDesigner" data-source-line="79" data-uid="lnk17" id="link_ObjectivesDesigner_ScopesDesigner"><path codeLine="79" d="M357.53,139.0545 C316.57,147.0845 265.7,159.0545 222,175.3945 C206.91,181.0345 204.36,185.1045 190,192.3945 C170.37,202.3645 153.7976,210.4849 135.3676,219.3449" fill="none" id="ObjectivesDesigner-to-ScopesDesigner" style="stroke:#181818;stroke-width:1;"/><polygon fill="#181818" points="129.96,221.9445,139.8045,221.6501,134.4663,219.7782,136.3383,214.44,129.96,221.9445" style="stroke:#181818;stroke-width:1;"/><text fill="#000000" font-family="sans-serif" font-size="13" lengthAdjust="spacing" textLength="40.0156" x="223" y="188.4551">orients</text><text fill="#000000" font-family="sans-serif" font-size="13" lengthAdjust="spacing" textLength="7.3062" x="342.6734" y="136.733">1</text><text fill="#000000" font-family="sans-serif" font-size="13" lengthAdjust="spacing" textLength="7.3062" x="133.539" y="211.1771">1</text></g><!--link ObjectivesDesigner to MeasurementDesigner--><g class="link" data-entity-1="ObjectivesDesigner" data-entity-2="MeasurementDesigner" data-source-line="80" data-uid="lnk18" id="link_ObjectivesDesigner_MeasurementDesigner"><path codeLine="80" d="M412.17,145.6445 C396.41,159.2245 374.39,177.5745 354,192.3945 C339.77,202.7345 328.4964,210.148 314.5264,218.828" fill="none" id="ObjectivesDesigner-to-MeasurementDesigner" style="stroke:#181818;stroke-width:1;"/><polygon fill="#181818" points="309.43,221.9945,319.1856,220.6423,313.677,219.3557,314.9635,213.8471,309.43,221.9945" style="stroke:#181818;stroke-width:1;"/><text fill="#000000" font-family="sans-serif" font-size="13" lengthAdjust="spacing" textLength="40.0156" x="375.38" y="188.4551">orients</text><text fill="#000000" font-family="sans-serif" font-size="13" lengthAdjust="spacing" textLength="7.3062" x="398.0902" y="165.5427">1</text><text fill="#000000" font-family="sans-serif" font-size="13" lengthAdjust="spacing" textLength="7.3062" x="310.6085" y="211.2412">1</text></g><!--link ObjectivesDesigner to EvaluationDesigner--><g class="link" data-entity-1="ObjectivesDesigner" data-entity-2="EvaluationDesigner" data-source-line="81" data-uid="lnk19" id="link_ObjectivesDesigner_EvaluationDesigner"><path codeLine="81" d="M440.86,145.6445 C448.43,166.8745 458.5242,195.1833 466.1042,216.4333" fill="none" id="ObjectivesDesigner-to-EvaluationDesigner" style="stroke:#181818;stroke-width:1;"/><polygon fill="#181818" points="468.12,222.0845,468.8637,212.2638,466.4401,217.3752,461.3288,214.9516,468.12,222.0845" style="stroke:#181818;stroke-width:1;"/><text fill="#000000" font-family="sans-serif" font-size="13" lengthAdjust="spacing" textLength="40.0156" x="457.95" y="188.4551">orients</text><text fill="#000000" font-family="sans-serif" font-size="13" lengthAdjust="spacing" textLength="7.3062" x="434.8492" y="165.5427">1</text><text fill="#000000" font-family="sans-serif" font-size="13" lengthAdjust="spacing" textLength="7.3062" x="458.2447" y="211.3565">1</text></g><!--link ObjectivesDesigner to RewardDesigner--><g class="link" data-entity-1="ObjectivesDesigner" data-entity-2="RewardDesigner" data-source-line="82" data-uid="lnk20" id="link_ObjectivesDesigner_RewardDesigner"><path codeLine="82" d="M470.66,145.6445 C511.08,166.8745 570.4378,198.0452 610.9078,219.2952" fill="none" id="ObjectivesDesigner-to-RewardDesigner" style="stroke:#181818;stroke-width:1;"/><polygon fill="#181818" points="616.22,222.0845,610.1112,214.359,611.7932,219.7601,606.3921,221.442,616.22,222.0845" style="stroke:#181818;stroke-width:1;"/><text fill="#000000" font-family="sans-serif" font-size="13" lengthAdjust="spacing" textLength="40.0156" x="557.61" y="188.4551">orients</text><text fill="#000000" font-family="sans-serif" font-size="13" lengthAdjust="spacing" textLength="7.3062" x="473.0305" y="165.5427">1</text><text fill="#000000" font-family="sans-serif" font-size="13" lengthAdjust="spacing" textLength="7.3062" x="597.9332" y="211.3565">1</text></g><!--link FundingSource to Treasury--><g class="link" data-entity-1="FundingSource" data-entity-2="Treasury" data-source-line="247" data-uid="lnk22" id="link_FundingSource_Treasury"><path codeLine="247" d="M912.9,145.6445 C887.43,166.8745 851.2901,196.9943 825.7801,218.2443" fill="none" id="FundingSource-to-Treasury" style="stroke:#181818;stroke-width:1;"/><polygon fill="#181818" points="821.17,222.0845,830.6452,219.3976,825.0117,218.8843,825.525,213.2508,821.17,222.0845" style="stroke:#181818;stroke-width:1;"/><text fill="#000000" font-family="sans-serif" font-size="13" lengthAdjust="spacing" textLength="32.9063" x="876.26" y="188.4551">funds</text><text fill="#000000" font-family="sans-serif" font-size="13" lengthAdjust="spacing" textLength="5.5986" x="900.7855" y="165.5427">*</text><text fill="#000000" font-family="sans-serif" font-size="13" lengthAdjust="spacing" textLength="7.3062" x="819.7441" y="211.3565">1</text></g><!--SRC=[vHXjJziu-7j-XUbje-nQJTpff5F5a1Zjjjx1G9HjEZ64JEAqFX8xiXrOD_7Vxt6S5xjnsw19zsNb0ydp-7b_TNRHJYRmFCKemKkUAoHJeZ33GR3pxFpYxA_9yUNDXwFJ2NgDUgUJYwaYeWUeyVJetSNHwStbF-S5Qi8KLKjqGHAiA6ToGJCqfdWkS8hwaulndYPw-_7avEPoUdcYILpklw8U_FsA7CP1i8kEEOlfF1S5MtIF1SMt2P70RVR-xFFDs-daP3m3TizZd4ZItwiGawEP3qbZ5f4OVPhEfczE9ZVdHyT_7xsRp88TW596MWZKUyVlYM2OXMGmJJCSgi4fmJ8NP32vnqcE5HbSa0Si8h2Gi8Z6Mklt9Cc8G77Ema9lnL6u8E4TeZ427dTuJX2Lw9vA2jO4E_N1PrIU6_mdW-i_Ayz_m2dP2n3Q4KJbWg7dKecCo_wgnWFaKA2TrsYuNwXM2Ga2Y5L2a1MFG7i6zPyphlgsO_VsWWMD229f1j6DAKaYMPjv8DKo8OT1nCCy9KoXxw0UGeQvUTQ_jvof6Vr6qE-_kJ1DZMvv4XNWn-0ng5opXT7-dpL5c60fgqGpHmkGHVO6cCu5prbqp1Ckq2z_5B_z_P99JJD0M0Z-C42aIEO10c_OydVH2QI8OVAme8fOc5KXBJmN4H5-dBPh5QDjanclVAeV9wLM-dcC5JvUiVF_Lk_WLHd_O5VUKPPX7O84L53BZ20kr8ANQTLEQgkgUf1ZTU0jEEhhHhJNGrWY2shiDH52bml2nV8iFbvWDYSsvkpsNmB9Va_ac4WwPqJOs5d8Cp-ch6sTpZvqMV9GH3wiwGC-pAKe-2w30kYUGqDn1KKM4NOzF6nEweEkdkx1TPfwu2xX6XlQO9VCOvphVZIChECU5wyUz-g2Hf0w59INwsXy1ZP41LKx-gYttokezVyLjxeIjz1kbjw1mLQJjz2l94z3-rWtvdL5P-QNBhYgtWp4BIe3EnDppEWtCtQR9cDOsnEYHd6BOZmTDoH6gwRPEdBE1TVcFbr4H_wVkRWhe16qJ3CQ3A98WcvYCwFZHyieal5m0Vh0a4h9bC5M167ryMhsa8RVS5W_vZIgdoMi22ckNmM9RObQ4Ehp68NG8RG36dxaQqRDWdG9Xom6zppqWKEQwPIf8LWf8bLPfGsbtamyJlRwVDMxC9neYgwkldyY2nh268_1LoKAvecWjxa2I14gIcIn8F4qpHa5ZM5wv0fU3RoiE24Vhw-xnKlgq3gEQqM8V5K25rh_f45hLueTbqvkVe3I6eDU4fGzvmaDbnj4URfAqTKYtTPUzbQwmGZ5EAG9LP0CqgAly1vIKyyZ5D5xs5Zb5qQPuXQfmNi8JQgE8F-OmfJPucoNQ89XxgVK_pVIEMIw9G7LOI6nE4RM48z6RHyR4n8_n_cAluo66rGG91D4rhDddTcPI-w4KREv9GbdSrsk7SPGMT3s72f1PTurpSIQjjroaZPcJviYfQ0G51KNMvf2KGu_SHTtbs0Hs0kbjOMyTDOWI025xqYN1QIwCTkXhs2js3UBqWMHUT8n0RI3fS9fjjNAaZylpQnVtHxHqcA4UY5EmZpHfQO9UolhStdEwHSDyu9SXZWYqHTeKBqENYi_BrW-Cn1tRJEmur8rguUlTPOeA9pElM6k6_v7IL9cOxTmu1GkdMf3rleBTbtCokMNoge_sHSgotOdX2tDeMFN4RJehHD5y8IxSJT2WG7EuNehw3SdxNTH6JfKNASfcwEXANIYUxq43hfU4XAheU93GUSBLNvswx2pTsYdvJhlkoS6za3m7H2L6LsAroUemc_ZqwIpZul1rZowZv8kQbTZvWVrzh9vckADLkZ52xHHMjqWVU9QRSTtPxVAPPjUxdUPikhUva34vZEUYv04pfkfbAYibEhZXTxVu9JiSXLrjZDWTW2xZV-M7XMFSbkSh9pmNTQTrb3FjixSxNJoNELziuC_WNqJzfLxVliJWDNk6lPr13oV39m6PkBJCLkhQAt9rLO7Qg-TbgDxChzDAImhaRxTlVe2ek721ca7WDkb1aYIn4FOJBbG1QpdijslaiJTGqOZPvQ0fDGWPU1VQ_rCofmVwSOTKVM4XDZk7NjhSdBTisMGagziKGrzImLKfDx-OAdG_lfHdLlTnzfhDYSYw01NTNJODT7NAB3Q7zgnouV3jSbzKEusdiZxhrGc5bUC2ypkhXtEZdK7S9M8avn0VvHFsDkgZVEhqiqrWTjN0gtRVZDkpTTlB3eCZSp_0000]--></g></svg>