<svg xmlns="http://www.w3.org/2000/svg" xmlns:xlink="http://www.w3.org/1999/xlink" contentStyleType="text/css" data-diagram-type="CLASS" height="242px" preserveAspectRatio="none" style="width:1005px;height:242px;background:#FFFFFF;" version="1.1" viewBox="0 0 1005 242" width="1005px" zoomAndPan="magnify"><defs/><g><!--cluster Governance--><g class="cluster" data-entity="Governance" data-source-line="79" data-uid="ent0002" id="cluster_Governance"><path d="M8.5,6.8945 L164.4775,6.8945 A3.75,3.75 0 0 1 166.9775,9.3945 L173.9775,33.9883 L854.5,33.9883 A2.5,2.5 0 0 1 857,36.4883 L857,233.3945 A2.5,2.5 0 0 1 854.5,235.8945 L8.5,235.8945 A2.5,2.5 0 0 1 6,233.3945 L6,9.3945 A2.5,2.5 0 0 1 8.5,6.8945" fill="none" style="stroke:#666666;stroke-width:1.5;"/><line style="stroke:#666666;stroke-width:1.5;" x1="6" x2="173.9775" y1="33.9883" y2="33.9883"/><text fill="#000000" font-family="sans-serif" font-size="18" font-weight="bold" lengthAdjust="spacing" textLength="154.9775" x="10" y="25.5938">Governance (meta)</text></g><!--class ObjectivesDesigner--><g class="entity" data-entity="ObjectivesDesigner" data-source-line="80" data-uid="ent0003" id="entity_ObjectivesDesigner"><a href="" target="_top" title="The ObjectivesDesigner is responsible for defining high-level goals and objectives that orient the entire impact evaluation system." xlink:actuate="onRequest" xlink:href="" xlink:show="new" xlink:title="The ObjectivesDesigner is responsible for defining high-level goals and objectives that orient the entire impact evaluation system." xlink:type="simple"><rect fill="#555555" fill-opacity="0.06667" height="48" rx="2.5" ry="2.5" style="stroke:#181818;stroke-width:0.5;" width="152.0117" x="284.99" y="46.8945"/><ellipse cx="299.99" cy="62.8945" fill="#ADD1B2" rx="11" ry="11" style="stroke:#181818;stroke-width:1;"/><path d="M296.0525,68.8945 L303.5681,68.8945 L303.5681,66.7852 L298.5681,66.7852 L298.5681,64.2383 L302.6619,64.2383 L302.6619,62.1445 L298.5681,62.1445 L298.5681,59.9258 L303.3963,59.9258 L303.3963,57.8164 L296.0525,57.8164 L296.0525,68.8945 Z " fill="#000000"/><text fill="#000000" font-family="sans-serif" font-size="14" lengthAdjust="spacing" textLength="120.0117" x="313.99" y="67.6797">ObjectivesDesigner</text><line style="stroke:#181818;stroke-width:0.5;" x1="285.99" x2="436.0017" y1="78.8945" y2="78.8945"/><line style="stroke:#181818;stroke-width:0.5;" x1="285.99" x2="436.0017" y1="86.8945" y2="86.8945"/></a></g><!--class ScopesDesigner--><g class="entity" data-entity="ScopesDesigner" data-source-line="81" data-uid="ent0004" id="entity_ScopesDesigner"><a href="" target="_top" title="The ScopesDesigner is responsible for defining and structuring impact scopes that divide projects into measurable units." xlink:actuate="onRequest" xlink:href="" xlink:show="new" xlink:title="The ScopesDesigner is responsible for defining and structuring impact scopes that divide projects into measurable units." xlink:type="simple"><rect fill="#555555" fill-opacity="0.06667" height="48" rx="2.5" ry="2.5" style="stroke:#181818;stroke-width:0.5;" width="133.1377" x="22.43" y="171.8945"/><ellipse cx="37.43" cy="187.8945" fill="#ADD1B2" rx="11" ry="11" style="stroke:#181818;stroke-width:1;"/><path d="M33.4925,193.8945 L41.0081,193.8945 L41.0081,191.7852 L36.0081,191.7852 L36.0081,189.2383 L40.1019,189.2383 L40.1019,187.1445 L36.0081,187.1445 L36.0081,184.9258 L40.8363,184.9258 L40.8363,182.8164 L33.4925,182.8164 L33.4925,193.8945 Z " fill="#000000"/><text fill="#000000" font-family="sans-serif" font-size="14" lengthAdjust="spacing" textLength="101.1377" x="51.43" y="192.6797">ScopesDesigner</text><line style="stroke:#181818;stroke-width:0.5;" x1="23.43" x2="154.5677" y1="203.8945" y2="203.8945"/><line style="stroke:#181818;stroke-width:0.5;" x1="23.43" x2="154.5677" y1="211.8945" y2="211.8945"/></a></g><!--class MeasurementDesigner--><g class="entity" data-entity="MeasurementDesigner" data-source-line="82" data-uid="ent0005" id="entity_MeasurementDesigner"><a href="" target="_top" title="The MeasurementDesigner is responsible for designing measurement methodologies and configuring how measurements should be taken." xlink:actuate="onRequest" xlink:href="" xlink:show="new" xlink:title="The MeasurementDesigner is responsible for designing measurement methodologies and configuring how measurements should be taken." xlink:type="simple"><rect fill="#555555" fill-opacity="0.06667" height="48" rx="2.5" ry="2.5" style="stroke:#181818;stroke-width:0.5;" width="173.3877" x="190.31" y="171.8945"/><ellipse cx="205.31" cy="187.8945" fill="#ADD1B2" rx="11" ry="11" style="stroke:#181818;stroke-width:1;"/><path d="M201.3725,193.8945 L208.8881,193.8945 L208.8881,191.7852 L203.8881,191.7852 L203.8881,189.2383 L207.9819,189.2383 L207.9819,187.1445 L203.8881,187.1445 L203.8881,184.9258 L208.7163,184.9258 L208.7163,182.8164 L201.3725,182.8164 L201.3725,193.8945 Z " fill="#000000"/><text fill="#000000" font-family="sans-serif" font-size="14" lengthAdjust="spacing" textLength="141.3877" x="219.31" y="192.6797">MeasurementDesigner</text><line style="stroke:#181818;stroke-width:0.5;" x1="191.31" x2="362.6977" y1="203.8945" y2="203.8945"/><line style="stroke:#181818;stroke-width:0.5;" x1="191.31" x2="362.6977" y1="211.8945" y2="211.8945"/></a></g><!--class EvaluationDesigner--><g class="entity" data-entity="EvaluationDesigner" data-source-line="83" data-uid="ent0006" id="entity_EvaluationDesigner"><a href="" target="_top" title="The EvaluationDesigner is responsible for designing evaluation criteria and methodologies for assessing measurements." xlink:actuate="onRequest" xlink:href="" xlink:show="new" xlink:title="The EvaluationDesigner is responsible for designing evaluation criteria and methodologies for assessing measurements." xlink:type="simple"><rect fill="#555555" fill-opacity="0.06667" height="48" rx="2.5" ry="2.5" style="stroke:#181818;stroke-width:0.5;" width="151.793" x="399.1" y="171.8945"/><ellipse cx="414.1" cy="187.8945" fill="#ADD1B2" rx="11" ry="11" style="stroke:#181818;stroke-width:1;"/><path d="M410.1625,193.8945 L417.6781,193.8945 L417.6781,191.7852 L412.6781,191.7852 L412.6781,189.2383 L416.7719,189.2383 L416.7719,187.1445 L412.6781,187.1445 L412.6781,184.9258 L417.5063,184.9258 L417.5063,182.8164 L410.1625,182.8164 L410.1625,193.8945 Z " fill="#000000"/><text fill="#000000" font-family="sans-serif" font-size="14" lengthAdjust="spacing" textLength="119.793" x="428.1" y="192.6797">EvaluationDesigner</text><line style="stroke:#181818;stroke-width:0.5;" x1="400.1" x2="549.893" y1="203.8945" y2="203.8945"/><line style="stroke:#181818;stroke-width:0.5;" x1="400.1" x2="549.893" y1="211.8945" y2="211.8945"/></a></g><!--class RewardDesigner--><g class="entity" data-entity="RewardDesigner" data-source-line="84" data-uid="ent0007" id="entity_RewardDesigner"><a href="" target="_top" title="The RewardDesigner is responsible for designing reward policies and distribution mechanisms for impact contributors." xlink:actuate="onRequest" xlink:href="" xlink:show="new" xlink:title="The RewardDesigner is responsible for designing reward policies and distribution mechanisms for impact contributors." xlink:type="simple"><rect fill="#555555" fill-opacity="0.06667" height="48" rx="2.5" ry="2.5" style="stroke:#181818;stroke-width:0.5;" width="133.8281" x="586.09" y="171.8945"/><ellipse cx="601.09" cy="187.8945" fill="#ADD1B2" rx="11" ry="11" style="stroke:#181818;stroke-width:1;"/><path d="M597.1525,193.8945 L604.6681,193.8945 L604.6681,191.7852 L599.6681,191.7852 L599.6681,189.2383 L603.7619,189.2383 L603.7619,187.1445 L599.6681,187.1445 L599.6681,184.9258 L604.4963,184.9258 L604.4963,182.8164 L597.1525,182.8164 L597.1525,193.8945 Z " fill="#000000"/><text fill="#000000" font-family="sans-serif" font-size="14" lengthAdjust="spacing" textLength="101.8281" x="615.09" y="192.6797">RewardDesigner</text><line style="stroke:#181818;stroke-width:0.5;" x1="587.09" x2="718.9181" y1="203.8945" y2="203.8945"/><line style="stroke:#181818;stroke-width:0.5;" x1="587.09" x2="718.9181" y1="211.8945" y2="211.8945"/></a></g><!--class Treasury--><g class="entity" data-entity="Treasury" data-source-line="85" data-uid="ent0008" id="entity_Treasury"><a href="" target="_top" title="The Treasury is a pool of funds available for rewarding impact contributions and funding operations." xlink:actuate="onRequest" xlink:href="" xlink:show="new" xlink:title="The Treasury is a pool of funds available for rewarding impact contributions and funding operations." xlink:type="simple"><rect fill="#555555" fill-opacity="0.06667" height="48" rx="2.5" ry="2.5" style="stroke:#181818;stroke-width:0.5;" width="86.4482" x="754.78" y="171.8945"/><ellipse cx="769.78" cy="187.8945" fill="#ADD1B2" rx="11" ry="11" style="stroke:#181818;stroke-width:1;"/><path d="M765.8425,193.8945 L773.3581,193.8945 L773.3581,191.7852 L768.3581,191.7852 L768.3581,189.2383 L772.4519,189.2383 L772.4519,187.1445 L768.3581,187.1445 L768.3581,184.9258 L773.1863,184.9258 L773.1863,182.8164 L765.8425,182.8164 L765.8425,193.8945 Z " fill="#000000"/><text fill="#000000" font-family="sans-serif" font-size="14" lengthAdjust="spacing" textLength="54.4482" x="783.78" y="192.6797">Treasury</text><line style="stroke:#181818;stroke-width:0.5;" x1="755.78" x2="840.2282" y1="203.8945" y2="203.8945"/><line style="stroke:#181818;stroke-width:0.5;" x1="755.78" x2="840.2282" y1="211.8945" y2="211.8945"/></a></g><!--class FundingSource--><g class="entity" data-entity="FundingSource" data-source-line="262" data-uid="ent0017" id="entity_FundingSource"><a href="" target="_top" title="The FundingSource is an external entity that provides funds to the treasury for rewarding impact." xlink:actuate="onRequest" xlink:href="" xlink:show="new" xlink:title="The FundingSource is an external entity that provides funds to the treasury for rewarding impact." xlink:type="simple"><rect fill="#555555" fill-opacity="0.06667" height="48" rx="2.5" ry="2.5" style="stroke:#181818;stroke-width:0.5;" width="125.5908" x="873.2" y="46.8945"/><ellipse cx="888.2" cy="62.8945" fill="#ADD1B2" rx="11" ry="11" style="stroke:#181818;stroke-width:1;"/><path d="M884.2625,68.8945 L891.7781,68.8945 L891.7781,66.7852 L886.7781,66.7852 L886.7781,64.2383 L890.8719,64.2383 L890.8719,62.1445 L886.7781,62.1445 L886.7781,59.9258 L891.6063,59.9258 L891.6063,57.8164 L884.2625,57.8164 L884.2625,68.8945 Z " fill="#000000"/><text fill="#000000" font-family="sans-serif" font-size="14" lengthAdjust="spacing" textLength="93.5908" x="902.2" y="67.6797">FundingSource</text><line style="stroke:#181818;stroke-width:0.5;" x1="874.2" x2="997.7908" y1="78.8945" y2="78.8945"/><line style="stroke:#181818;stroke-width:0.5;" x1="874.2" x2="997.7908" y1="86.8945" y2="86.8945"/></a></g><!--link RewardDesigner to Treasury--><!--link ScopesDesigner to MeasurementDesigner--><!--link MeasurementDesigner to EvaluationDesigner--><!--link EvaluationDesigner to RewardDesigner--><!--link ObjectivesDesigner to ScopesDesigner--><g class="link" data-entity-1="ObjectivesDesigner" data-entity-2="ScopesDesigner" data-source-line="92" data-uid="lnk13" id="link_ObjectivesDesigner_ScopesDesigner"><path codeLine="92" d="M309.2,95.3145 C260.8,117.2045 194.417,147.2223 146.077,169.0823" fill="none" id="ObjectivesDesigner-to-ScopesDesigner" style="stroke:#0055A9;stroke-width:1;"/><polygon fill="#0055A9" points="140.61,171.5545,150.4587,171.4908,145.1658,169.4943,147.1623,164.2015,140.61,171.5545" style="stroke:#0055A9;stroke-width:1;"/><text fill="#0055A9" font-family="sans-serif" font-size="13" lengthAdjust="spacing" textLength="35.8643" x="242.29" y="137.9551">steers</text><text fill="#0055A9" font-family="sans-serif" font-size="13" lengthAdjust="spacing" textLength="7.3062" x="289.4482" y="114.7837">1</text><text fill="#0055A9" font-family="sans-serif" font-size="13" lengthAdjust="spacing" textLength="7.3062" x="145.3744" y="160.8826">1</text></g><!--link ObjectivesDesigner to MeasurementDesigner--><g class="link" data-entity-1="ObjectivesDesigner" data-entity-2="MeasurementDesigner" data-source-line="93" data-uid="lnk14" id="link_ObjectivesDesigner_MeasurementDesigner"><path codeLine="93" d="M345,95.3145 C330.06,117.2045 311.254,144.7399 296.324,166.5999" fill="none" id="ObjectivesDesigner-to-MeasurementDesigner" style="stroke:#0055A9;stroke-width:1;"/><polygon fill="#0055A9" points="292.94,171.5545,301.3191,166.3785,295.76,167.4256,294.7128,161.8665,292.94,171.5545" style="stroke:#0055A9;stroke-width:1;"/><text fill="#0055A9" font-family="sans-serif" font-size="13" lengthAdjust="spacing" textLength="35.8643" x="325.03" y="137.9551">steers</text><text fill="#0055A9" font-family="sans-serif" font-size="13" lengthAdjust="spacing" textLength="7.3062" x="333.527" y="114.7837">1</text><text fill="#0055A9" font-family="sans-serif" font-size="13" lengthAdjust="spacing" textLength="7.3062" x="289.0086" y="160.8826">1</text></g><!--link ObjectivesDesigner to EvaluationDesigner--><g class="link" data-entity-1="ObjectivesDesigner" data-entity-2="EvaluationDesigner" data-source-line="94" data-uid="lnk15" id="link_ObjectivesDesigner_EvaluationDesigner"><path codeLine="94" d="M382.71,95.3145 C403,117.2045 429.0315,145.2939 449.2915,167.1539" fill="none" id="ObjectivesDesigner-to-EvaluationDesigner" style="stroke:#0055A9;stroke-width:1;"/><polygon fill="#0055A9" points="453.37,171.5545,450.186,162.2346,449.9712,167.8873,444.3184,167.6726,453.37,171.5545" style="stroke:#0055A9;stroke-width:1;"/><text fill="#0055A9" font-family="sans-serif" font-size="13" lengthAdjust="spacing" textLength="35.8643" x="425.83" y="137.9551">steers</text><text fill="#0055A9" font-family="sans-serif" font-size="13" lengthAdjust="spacing" textLength="7.3062" x="379.9574" y="114.7837">1</text><text fill="#0055A9" font-family="sans-serif" font-size="13" lengthAdjust="spacing" textLength="7.3062" x="440.2827" y="160.8826">1</text></g><!--link ObjectivesDesigner to RewardDesigner--><g class="link" data-entity-1="ObjectivesDesigner" data-entity-2="RewardDesigner" data-source-line="95" data-uid="lnk16" id="link_ObjectivesDesigner_RewardDesigner"><path codeLine="95" d="M416.61,95.3145 C468.57,117.2045 540.1806,147.3651 592.0706,169.2251" fill="none" id="ObjectivesDesigner-to-RewardDesigner" style="stroke:#0055A9;stroke-width:1;"/><polygon fill="#0055A9" points="597.6,171.5545,590.8589,164.3742,592.9922,169.6134,587.753,171.7467,597.6,171.5545" style="stroke:#0055A9;stroke-width:1;"/><text fill="#0055A9" font-family="sans-serif" font-size="13" lengthAdjust="spacing" textLength="35.8643" x="525.48" y="137.9551">steers</text><text fill="#0055A9" font-family="sans-serif" font-size="13" lengthAdjust="spacing" textLength="7.3062" x="421.6968" y="114.7837">1</text><text fill="#0055A9" font-family="sans-serif" font-size="13" lengthAdjust="spacing" textLength="7.3062" x="576.2794" y="160.8826">1</text></g><!--link FundingSource to Treasury--><g class="link" data-entity-1="FundingSource" data-entity-2="Treasury" data-source-line="263" data-uid="lnk18" id="link_FundingSource_Treasury"><path codeLine="263" d="M909.72,95.3145 C885.16,117.2045 853.1894,145.7027 828.6594,167.5627" fill="none" id="FundingSource-to-Treasury" style="stroke:#0055A9;stroke-width:1;"/><polygon fill="#0055A9" points="824.18,171.5545,833.5604,168.553,827.9128,168.228,828.2379,162.5805,824.18,171.5545" style="stroke:#0055A9;stroke-width:1;"/><text fill="#0055A9" font-family="sans-serif" font-size="13" lengthAdjust="spacing" textLength="32.9063" x="876.26" y="137.9551">funds</text><text fill="#0055A9" font-family="sans-serif" font-size="13" lengthAdjust="spacing" textLength="5.5986" x="898.1349" y="114.7837">*</text><text fill="#0055A9" font-family="sans-serif" font-size="13" lengthAdjust="spacing" textLength="7.3062" x="822.7446" y="160.8826">1</text></g><!--SRC=[xHhzRzoszVVxA-YRLzkjRwatPDWEIG3NlgJUdDgmtGP34WGyYNVYB8a2ITcv5FxVznv9IQH4tvqJOBziBj2UIBx7z_t5xf6TIj9bGKbELwBMH1LCqvAEHZjyKQPiGIwlBlunExdvzClnszbe1rPuoO95ydPsTQQP7EsmCkMBqSxkwTdncwlZjvzk_dKv8o_9U5PghbVaYkLKSr6gZ5VabDEbf0NPdrsT7epRsrx_Udx-wURivXpkskq-04jmvGza3F_yG8Ah6W96U-H4b0k-hAMvZznHoUayPwgzvlhdYtUVNf_Dpa-lMvwyDJ9Uq5onSSkI3pOxlew2TkkFWVzsTdtsq_diq-NnoJ-Ftymw-Fu66RyHTqoMj4pOuLbHqKGVlcLKrP8TpkveNbFD3g_OFPNfsEFwPvPNJ995NIQ6Ror8ah7abl050HotTCa8L-IEAmxI6Esq1tUvkhJxlzcz_Lrt_XTQi8CH8JkIwLgMv8zAoqge_Jx5XoI083iloUJ8aDPSOYmAfR3hwvW7tmWs7e_0Md8MddE2TAmYsBwlhvSl6vaVZ3AUCiAA2YnkmLcUgXRiXTAhdBqQfIAf2rPgyZjmHeYzplx6lzUYrDVy2oD_-NEuXj1aBlBKB3-C7aQDL3SWElgRWy1_duF6JqGk9Fd3NyqVu4bogbJZ4XQ1MVAG_GHNBQMeozG1FpT_HqSUQYgbkFTWlAj-_F7vy-E_1wGDTnwwcmy9CrvxI4gXVQRsFApt6TVCs-dJEDWNCcKoljTHrEsWY5Kb6aNXpvcZ2d-VKarFUcBwRvFtufapgj6UkkLbHL63EP2WLnKZGkfCE7iTEfddvUE3Wr5hJTuwsSTuV30cL15lrV9hDKGkvlzcu69tJ9qonPSbX83txt-_oLXi1_nVCX1UQKWW2s38125UBad6bzaaPtSi9qi1taHecHBHuY0wenfOukWw6j3Z_H92YWbGXDd0XF54hPHcnPyUFdxqwRnEH3MaiRUwZZua1-9FdK0emcztiJ8OB7KflqFthwH0gXNX9GJ1meHEp02aBhbMVS9SQCMGqASkjXKb4VUGfg83WD-W_HICPicP5MRYyfAHDhYgTreHbOawJycS4KrlMTcdSjRAjqzaP6SjZPwc4Wd63DdHK1VIYp3WMqof7by3-TbCrAUgjxgM8cdEaahaF6babNBGDP_NXiw29HajkIeiNKxp84vxHCW1KJVIKBngo6c_WH0ADucSY0NcoXI-xoZFQKEM9SOpiFOQB5uCRGY61y3mR8rXhpVtz_YUoFUGaL9MVfoyQeam1tkM7noCs9s1YTbZ03Yq1GCNCP40B2JQCXA97kEZCPd0SVnlZ_mfk2PZKcq36kFYAV0HRfu2tjDG2_eG5XYHW6rhCGpMJQosAs501dCJSdMnE06JXIED0OQhnWmNa2tOlP2tBden1Guv1mV0u826Tf-jZ9j81i73008On5pskG8EOH72MqQhYfKGwj2kgTGygNCgZTMopxepJ4UTfVX2Bi6VljWeu2YCx22LPGDfQ5pGXETSGmNgyWCa9SNWmpbB6tfn4x84bmCtzT9rj9A348-5N7D6U0ITdfrsi5PPNU4IC7XfwGXvQnQDy1M8a2zu0fBZcbEq5q9v0K85DXFmLDq5FXCSeF3bvfHZzPxh3AHkY_ZKvQ5lP71BxjwXpGIicHMkJ6A6pvhcn1WMH2W8QiZLV1LemgfpoKeCOPt-75EqKMGRLrEejcnHQYyq_X_IO9TiWEKCwXI8i4t21W8GGvVDvrY8GMVcx4Y3v8qxs0XlnUu5uHXTJvIpW_pLio5MYIG31PZhpy1X98IM25AlkOiWdapQdpLFszyAkg-2jf-IBVohyKQo3nAofYRA3XzuDxTvvGOEUGZkH19RJdY5HLcxGZKeLBlGtq5YqnSnhwYrzRKDTJOlGctR9UjAdP9RnHjjAn2eATtmr1tBUEAIh4FHsQErRxG626bOfLTWhKK11Hkm30Xh3PzsrwKFgPvk0iP70nKCb0unKr93_V-w7Gp3Zg-lq1Qy3MCHMLr0uW37VeQ57bz2niY3FEBYah9HoXJ7Q4_zEDIaawzmTqHy2Z9H8AXBh2nNQzZiPUT92hL2c3EchlMn9KOaLveI0-76tuy7i5xQzE2R_GYeZQLJrz6e3oMsCXwetOy0MhUScbXFUUbVvsi90IPr7D8eOXrS06OopvIywh8BUmHuEXtgnBAGnp4kU_Ao5AuXGR8AkeoUbePiLo5ue4P4CsUvA9SORBOe2bquygj2j-GCjekbNk4RwJ0tPCw4LgxnzIgN5CCZPdFNm4cUOAELKrSSDYsCKUbNE17lv7xMHRJstWsXrFZx_zDfVzBG7ozi4JFxlREcj_ss76qcKBUjprtYxFg0zjAs9_e-QCd00t00iKq_r0oZVTjlrWR6ttLjLqpLkHwEBzpwfWBID4d8FTQwm5zLQpm8idEei8clIpSpyiOTNs7_Q5PAqwBQgDlkxf0lyHNQRKZkQnWLkYygv8Nc-Ug02121z3XKXutIGIYwD-oHHhoU9NGK1dbae90f6ISqnxOI6mNu6_U62kvSa5Cwv0PS9JHbwGT8OkCj3CizRdXcPLV2HjkkdJZIH6_qvAr7XayDGzxu2KJg0e8YSwh0u4GPaP-HS6zY5LZMPhkoq45HigO2j-mSjzI5R7hhwnt7PerLupYqW0PCEsPSo4CmIrjypjPCkfxeHFQgDH4sdcKUypGtlsdcWtsz-niHnRFFBAbr8uLWokXnxwNE_f3Hc_9v9XPuq40pKz8va0VldJ2-8yC9bSV8bD1QPr21VWa2ynvndaFCsmLoDR4Pa27X2Z2WMdEsq1Cj9f8lC-sUUhSOScrHyRZvLsnuEV9hjjW1wJsGRamliOkQ_KrukcWIms9tes-CwtdVXkoc4ln6kgDedaPuHnNvxZkozhOsXSUk6qJzs22vizoDT8MFOCx5Nzi1-xMePT8EcS95Dvhyh16wrrjAOPecDzu7NqPNryqBG6p8RpmxlC1uPEeyidq-c5gasyo81psb9wTmUWv-V7DnqZIODZ2PBLDfGxpKER8cHRtCp6vOv-r354jgXHaBssQIfbGSZFRwzqUV1xo-DWOG7zKt444h2k9w0OrS_770igCsMRpdNR6RWo3Rrh5RO_STCoA9M14ade2-Sw3U2yFmyS5B71twriOYZnL1Ah0MkANVD_RuYDSFOlcmn_O4FLRrlE3QDPVFFfHeUUZ0Phuy3b4SDGOHzXVJQP3k0QkhSHjxwlVhSIJEuQUOxbAkdw3ypPBmkw70hYEbiIiGWVe-r2HM2NDymz5O2QEylfNcGSpsYl7rHcVVlCYhROtw4GAwQFUOxkh9v553Vj7KMwCjPqLM5-zB8Mbv-p70773t0WBd8gyPP1NrX6QZQULSKdadP9wsxLoms0sQkXIai6tEH9uoDu-n_n-4Usb1_J2pF6SbMt1D5b8KVZH7XaqU2gyoYgmVhomDufRB_m00]--></g></svg>