<svg xmlns="http://www.w3.org/2000/svg" xmlns:xlink="http://www.w3.org/1999/xlink" contentStyleType="text/css" data-diagram-type="CLASS" height="975px" preserveAspectRatio="none" style="width:993px;height:975px;background:#FFFFFF;" version="1.1" viewBox="0 0 993 975" width="993px" zoomAndPan="magnify"><title>MERIter Entity Relationship Diagram (ERD)</title><defs/><g><g class="title" data-source-line="25"><text fill="#000000" font-family="sans-serif" font-size="32" font-weight="bold" lengthAdjust="spacing" textLength="612.1719" x="183.429" y="39.6875">MERIter Entity Relationship Diagram (ERD)</text></g><!--cluster Impact--><g class="cluster" data-entity="Impact" data-source-line="94" data-uid="ent0002" id="cluster_Impact"><path d="M8.5,65.3945 L65.6006,65.3945 A3.75,3.75 0 0 1 68.1006,67.8945 L75.1006,92.4883 L443.5,92.4883 A2.5,2.5 0 0 1 446,94.9883 L446,941.6245 A2.5,2.5 0 0 1 443.5,944.1245 L8.5,944.1245 A2.5,2.5 0 0 1 6,941.6245 L6,67.8945 A2.5,2.5 0 0 1 8.5,65.3945" fill="none" style="stroke:#666666;stroke-width:1.5;"/><line style="stroke:#666666;stroke-width:1.5;" x1="6" x2="75.1006" y1="92.4883" y2="92.4883"/><text fill="#000000" font-family="sans-serif" font-size="18" font-weight="bold" lengthAdjust="spacing" textLength="56.1006" x="10" y="84.0938">Impact</text></g><!--cluster Measure--><g class="cluster" data-entity="Measure" data-source-line="165" data-uid="ent0022" id="cluster_Measure"><path d="M488.5,587.0145 L560.2959,587.0145 A3.75,3.75 0 0 1 562.7959,589.5145 L569.7959,614.1083 L673.5,614.1083 A2.5,2.5 0 0 1 676,616.6083 L676,966.1245 A2.5,2.5 0 0 1 673.5,968.6245 L488.5,968.6245 A2.5,2.5 0 0 1 486,966.1245 L486,589.5145 A2.5,2.5 0 0 1 488.5,587.0145" fill="none" style="stroke:#666666;stroke-width:1.5;"/><line style="stroke:#666666;stroke-width:1.5;" x1="486" x2="569.7959" y1="614.1083" y2="614.1083"/><text fill="#000000" font-family="sans-serif" font-size="18" font-weight="bold" lengthAdjust="spacing" textLength="70.7959" x="490" y="605.7138">Measure</text></g><!--cluster Evaluate--><g class="cluster" data-entity="Evaluate" data-source-line="193" data-uid="ent0026" id="cluster_Evaluate"><path d="M718.5,587.0145 L788.6963,587.0145 A3.75,3.75 0 0 1 791.1963,589.5145 L798.1963,614.1083 L975.5,614.1083 A2.5,2.5 0 0 1 978,616.6083 L978,937.8245 A2.5,2.5 0 0 1 975.5,940.3245 L718.5,940.3245 A2.5,2.5 0 0 1 716,937.8245 L716,589.5145 A2.5,2.5 0 0 1 718.5,587.0145" fill="none" style="stroke:#666666;stroke-width:1.5;"/><line style="stroke:#666666;stroke-width:1.5;" x1="716" x2="798.1963" y1="614.1083" y2="614.1083"/><text fill="#000000" font-family="sans-serif" font-size="18" font-weight="bold" lengthAdjust="spacing" textLength="69.1963" x="720" y="605.7138">Evaluate</text></g><!--class TheoryOfChange--><g class="entity" data-entity="TheoryOfChange" data-source-line="95" data-uid="ent0003" id="entity_TheoryOfChange"><a href="" target="_top" title="The TheoryOfChange is a framework that describes how and why desired changes are expected to happen in a particular context." xlink:actuate="onRequest" xlink:href="" xlink:show="new" xlink:title="The TheoryOfChange is a framework that describes how and why desired changes are expected to happen in a particular context." xlink:type="simple"><rect fill="#555555" fill-opacity="0.06667" height="48" rx="2.5" ry="2.5" style="stroke:#181818;stroke-width:0.5;" width="136.7949" x="243.6" y="145.5945"/><ellipse cx="258.6" cy="161.5945" fill="#ADD1B2" rx="11" ry="11" style="stroke:#181818;stroke-width:1;"/><path d="M254.6625,167.5945 L262.1781,167.5945 L262.1781,165.4852 L257.1781,165.4852 L257.1781,162.9383 L261.2719,162.9383 L261.2719,160.8445 L257.1781,160.8445 L257.1781,158.6258 L262.0063,158.6258 L262.0063,156.5164 L254.6625,156.5164 L254.6625,167.5945 Z " fill="#000000"/><text fill="#000000" font-family="sans-serif" font-size="14" lengthAdjust="spacing" textLength="104.7949" x="272.6" y="166.3797">TheoryOfChange</text><line style="stroke:#181818;stroke-width:0.5;" x1="244.6" x2="379.3949" y1="177.5945" y2="177.5945"/><line style="stroke:#181818;stroke-width:0.5;" x1="244.6" x2="379.3949" y1="185.5945" y2="185.5945"/></a></g><!--class ImpactOrganization--><g class="entity" data-entity="ImpactOrganization" data-source-line="97" data-uid="ent0004" id="entity_ImpactOrganization"><a href="" target="_top" title="The ImpactOrganization is an entity that facilitates and oversees impact projects and their contributors." xlink:actuate="onRequest" xlink:href="" xlink:show="new" xlink:title="The ImpactOrganization is an entity that facilitates and oversees impact projects and their contributors." xlink:type="simple"><rect fill="#555555" fill-opacity="0.06667" height="64.4063" rx="2.5" ry="2.5" style="stroke:#181818;stroke-width:0.5;" width="154.7188" x="42.64" y="137.3945"/><ellipse cx="57.64" cy="153.3945" fill="#ADD1B2" rx="11" ry="11" style="stroke:#181818;stroke-width:1;"/><path d="M53.7025,159.3945 L61.2181,159.3945 L61.2181,157.2852 L56.2181,157.2852 L56.2181,154.7383 L60.3119,154.7383 L60.3119,152.6445 L56.2181,152.6445 L56.2181,150.4258 L61.0463,150.4258 L61.0463,148.3164 L53.7025,148.3164 L53.7025,159.3945 Z " fill="#000000"/><text fill="#000000" font-family="sans-serif" font-size="14" lengthAdjust="spacing" textLength="122.7188" x="71.64" y="158.1797">ImpactOrganization</text><line style="stroke:#181818;stroke-width:0.5;" x1="43.64" x2="196.3588" y1="169.3945" y2="169.3945"/><text fill="#000000" font-family="sans-serif" font-size="14" lengthAdjust="spacing" textLength="99.7842" x="48.64" y="186.3828">organizationDID</text><line style="stroke:#181818;stroke-width:0.5;" x1="43.64" x2="196.3588" y1="193.8008" y2="193.8008"/></a></g><!--class ImpactProject--><g class="entity" data-entity="ImpactProject" data-source-line="102" data-uid="ent0005" id="entity_ImpactProject"><a href="" target="_top" title="The ImpactProject is a specific initiative aimed at creating measurable positive impact within defined scopes." xlink:actuate="onRequest" xlink:href="" xlink:show="new" xlink:title="The ImpactProject is a specific initiative aimed at creating measurable positive impact within defined scopes." xlink:type="simple"><rect fill="#555555" fill-opacity="0.06667" height="64.4063" rx="2.5" ry="2.5" style="stroke:#181818;stroke-width:0.5;" width="119.7119" x="252.14" y="278.7945"/><ellipse cx="267.14" cy="294.7945" fill="#ADD1B2" rx="11" ry="11" style="stroke:#181818;stroke-width:1;"/><path d="M263.2025,300.7945 L270.7181,300.7945 L270.7181,298.6852 L265.7181,298.6852 L265.7181,296.1383 L269.8119,296.1383 L269.8119,294.0445 L265.7181,294.0445 L265.7181,291.8258 L270.5463,291.8258 L270.5463,289.7164 L263.2025,289.7164 L263.2025,300.7945 Z " fill="#000000"/><text fill="#000000" font-family="sans-serif" font-size="14" lengthAdjust="spacing" textLength="87.7119" x="281.14" y="299.5797">ImpactProject</text><line style="stroke:#181818;stroke-width:0.5;" x1="253.14" x2="370.8519" y1="310.7945" y2="310.7945"/><text fill="#000000" font-family="sans-serif" font-size="14" lengthAdjust="spacing" textLength="77.6016" x="258.14" y="327.7828">organization</text><line style="stroke:#181818;stroke-width:0.5;" x1="253.14" x2="370.8519" y1="335.2008" y2="335.2008"/></a></g><!--class ImpactWork--><g class="entity" data-entity="ImpactWork" data-source-line="107" data-uid="ent0006" id="entity_ImpactWork"><a href="" target="_top" title="The ImpactWork is the actual work performed by contributors that generates impact within a project." xlink:actuate="onRequest" xlink:href="" xlink:show="new" xlink:title="The ImpactWork is the actual work performed by contributors that generates impact within a project." xlink:type="simple"><rect fill="#555555" fill-opacity="0.06667" height="48" rx="2.5" ry="2.5" style="stroke:#181818;stroke-width:0.5;" width="107.7148" x="306.14" y="860.1245"/><ellipse cx="321.14" cy="876.1245" fill="#ADD1B2" rx="11" ry="11" style="stroke:#181818;stroke-width:1;"/><path d="M317.2025,882.1245 L324.7181,882.1245 L324.7181,880.0152 L319.7181,880.0152 L319.7181,877.4683 L323.8119,877.4683 L323.8119,875.3745 L319.7181,875.3745 L319.7181,873.1558 L324.5463,873.1558 L324.5463,871.0464 L317.2025,871.0464 L317.2025,882.1245 Z " fill="#000000"/><text fill="#000000" font-family="sans-serif" font-size="14" lengthAdjust="spacing" textLength="75.7148" x="335.14" y="880.9097">ImpactWork</text><line style="stroke:#181818;stroke-width:0.5;" x1="307.14" x2="412.8548" y1="892.1245" y2="892.1245"/><line style="stroke:#181818;stroke-width:0.5;" x1="307.14" x2="412.8548" y1="900.1245" y2="900.1245"/></a></g><!--class ImpactScope--><g class="entity" data-entity="ImpactScope" data-source-line="108" data-uid="ent0007" id="entity_ImpactScope"><a href="" target="_top" title="The ImpactScope is a piece of structured data defining boundaries and timeframes for measuring impact within a project." xlink:actuate="onRequest" xlink:href="" xlink:show="new" xlink:title="The ImpactScope is a piece of structured data defining boundaries and timeframes for measuring impact within a project." xlink:type="simple"><rect fill="#555555" fill-opacity="0.06667" height="80.8125" rx="2.5" ry="2.5" style="stroke:#181818;stroke-width:0.5;" width="143.7559" x="245.12" y="435.2045"/><ellipse cx="273.3392" cy="451.2045" fill="#7E57C2" rx="11" ry="11" style="stroke:#181818;stroke-width:1;"/><path d="M270.5267,457.2045 L273.7454,457.2045 C276.8236,457.2045 278.9329,455.4233 278.9329,451.6108 C278.9329,447.7983 276.8236,446.1264 273.5892,446.1264 L270.5267,446.1264 L270.5267,457.2045 Z M273.0423,455.1889 L273.0423,448.142 L273.4486,448.142 C275.1829,448.142 276.3548,448.9545 276.3548,451.6108 C276.3548,454.267 275.1829,455.1889 273.4486,455.1889 L273.0423,455.1889 Z " fill="#000000"/><text fill="#000000" font-family="sans-serif" font-size="14" lengthAdjust="spacing" textLength="82.3799" x="290.2768" y="455.9897">ImpactScope</text><line style="stroke:#181818;stroke-width:0.5;" x1="246.12" x2="387.8759" y1="467.2045" y2="467.2045"/><text fill="#000000" font-family="sans-serif" font-size="14" lengthAdjust="spacing" textLength="65.3447" x="251.12" y="484.1928">projectUID</text><text fill="#000000" font-family="sans-serif" font-size="14" lengthAdjust="spacing" textLength="131.7559" x="251.12" y="500.5991">epoch or timeInterval</text><line style="stroke:#181818;stroke-width:0.5;" x1="246.12" x2="387.8759" y1="508.017" y2="508.017"/></a></g><!--class ImpactClaim--><g class="entity" data-entity="ImpactClaim" data-source-line="126" data-uid="ent0008" id="entity_ImpactClaim"><a href="" target="_top" title="The ImpactClaim is a structured piece of data serving as a vehicle for ImpactContributor entities to group communicate outcomes to Measurers" xlink:actuate="onRequest" xlink:href="" xlink:show="new" xlink:title="The ImpactClaim is a structured piece of data serving as a vehicle for ImpactContributor entities to group communicate outcomes to Measurers" xlink:type="simple"><rect fill="#555555" fill-opacity="0.06667" height="97.2188" rx="2.5" ry="2.5" style="stroke:#181818;stroke-width:0.5;" width="111.2832" x="268.36" y="634.4045"/><ellipse cx="283.36" cy="650.4045" fill="#7E57C2" rx="11" ry="11" style="stroke:#181818;stroke-width:1;"/><path d="M280.5475,656.4045 L283.7663,656.4045 C286.8444,656.4045 288.9538,654.6233 288.9538,650.8108 C288.9538,646.9983 286.8444,645.3264 283.61,645.3264 L280.5475,645.3264 L280.5475,656.4045 Z M283.0631,654.3889 L283.0631,647.342 L283.4694,647.342 C285.2038,647.342 286.3756,648.1545 286.3756,650.8108 C286.3756,653.467 285.2038,654.3889 283.4694,654.3889 L283.0631,654.3889 Z " fill="#000000"/><text fill="#000000" font-family="sans-serif" font-size="14" lengthAdjust="spacing" textLength="79.2832" x="297.36" y="655.1897">ImpactClaim</text><line style="stroke:#181818;stroke-width:0.5;" x1="269.36" x2="378.6432" y1="666.4045" y2="666.4045"/><text fill="#000000" font-family="sans-serif" font-size="14" lengthAdjust="spacing" textLength="37.8232" x="274.36" y="683.3928">scope</text><text fill="#000000" font-family="sans-serif" font-size="14" lengthAdjust="spacing" textLength="73.7734" x="274.36" y="699.7991">timeInterval</text><text fill="#000000" font-family="sans-serif" font-size="14" lengthAdjust="spacing" textLength="62.4873" x="274.36" y="716.2053">extra data</text><line style="stroke:#181818;stroke-width:0.5;" x1="269.36" x2="378.6432" y1="723.6233" y2="723.6233"/></a></g><!--class ImpactContributor--><g class="entity" data-entity="ImpactContributor" data-source-line="146" data-uid="ent0009" id="entity_ImpactContributor"><a href="" target="_top" title="The ImpactContributor is a human and/or digital entity that performs work and claims impact within projects." xlink:actuate="onRequest" xlink:href="" xlink:show="new" xlink:title="The ImpactContributor is a human and/or digital entity that performs work and claims impact within projects." xlink:type="simple"><rect fill="#555555" fill-opacity="0.06667" height="64.4063" rx="2.5" ry="2.5" style="stroke:#181818;stroke-width:0.5;" width="145.9141" x="38.5" y="852.1245"/><ellipse cx="53.5" cy="868.1245" fill="#ADD1B2" rx="11" ry="11" style="stroke:#181818;stroke-width:1;"/><path d="M49.5625,874.1245 L57.0781,874.1245 L57.0781,872.0152 L52.0781,872.0152 L52.0781,869.4683 L56.1719,869.4683 L56.1719,867.3745 L52.0781,867.3745 L52.0781,865.1558 L56.9063,865.1558 L56.9063,863.0464 L49.5625,863.0464 L49.5625,874.1245 Z " fill="#000000"/><text fill="#000000" font-family="sans-serif" font-size="14" lengthAdjust="spacing" textLength="113.9141" x="67.5" y="872.9097">ImpactContributor</text><line style="stroke:#181818;stroke-width:0.5;" x1="39.5" x2="183.4141" y1="884.1245" y2="884.1245"/><text fill="#000000" font-family="sans-serif" font-size="14" lengthAdjust="spacing" textLength="121.6113" x="44.5" y="901.1128">workDecisionPolicy</text><line style="stroke:#181818;stroke-width:0.5;" x1="39.5" x2="183.4141" y1="908.5308" y2="908.5308"/></a></g><!--class Measurement--><g class="entity" data-entity="Measurement" data-source-line="166" data-uid="ent0023" id="entity_Measurement"><a href="" target="_top" title="The Measurement is a piece of structured data capturing specific indicators and metrics related to impact claims." xlink:actuate="onRequest" xlink:href="" xlink:show="new" xlink:title="The Measurement is a piece of structured data capturing specific indicators and metrics related to impact claims." xlink:type="simple"><rect fill="#555555" fill-opacity="0.06667" height="113.625" rx="2.5" ry="2.5" style="stroke:#181818;stroke-width:0.5;" width="118.3857" x="518" y="827.6245"/><ellipse cx="533" cy="843.6245" fill="#7E57C2" rx="11" ry="11" style="stroke:#181818;stroke-width:1;"/><path d="M530.1875,849.6245 L533.4063,849.6245 C536.4844,849.6245 538.5938,847.8433 538.5938,844.0308 C538.5938,840.2183 536.4844,838.5464 533.25,838.5464 L530.1875,838.5464 L530.1875,849.6245 Z M532.7031,847.6089 L532.7031,840.562 L533.1094,840.562 C534.8438,840.562 536.0156,841.3745 536.0156,844.0308 C536.0156,846.687 534.8438,847.6089 533.1094,847.6089 L532.7031,847.6089 Z " fill="#000000"/><text fill="#000000" font-family="sans-serif" font-size="14" lengthAdjust="spacing" textLength="86.3857" x="547" y="848.4097">Measurement</text><line style="stroke:#181818;stroke-width:0.5;" x1="519" x2="635.3857" y1="859.6245" y2="859.6245"/><text fill="#000000" font-family="sans-serif" font-size="14" lengthAdjust="spacing" textLength="90.583" x="524" y="876.6128">impactClaimId</text><text fill="#000000" font-family="sans-serif" font-size="14" lengthAdjust="spacing" textLength="54.6875" x="524" y="893.0191">indicator</text><text fill="#000000" font-family="sans-serif" font-size="14" lengthAdjust="spacing" textLength="73.7734" x="524" y="909.4253">timeInterval</text><text fill="#000000" font-family="sans-serif" font-size="14" lengthAdjust="spacing" textLength="34.3438" x="524" y="925.8316">entity</text><line style="stroke:#181818;stroke-width:0.5;" x1="519" x2="635.3857" y1="933.2495" y2="933.2495"/></a></g><!--class Measurer--><g class="entity" data-entity="Measurer" data-source-line="186" data-uid="ent0024" id="entity_Measurer"><a href="" target="_top" title="The Measurer is a human and/or digital entity responsible for taking measurements of impact claims and outcomes." xlink:actuate="onRequest" xlink:href="" xlink:show="new" xlink:title="The Measurer is a human and/or digital entity responsible for taking measurements of impact claims and outcomes." xlink:type="simple"><rect fill="#555555" fill-opacity="0.06667" height="48" rx="2.5" ry="2.5" style="stroke:#181818;stroke-width:0.5;" width="91.1172" x="510.44" y="659.0145"/><ellipse cx="525.44" cy="675.0145" fill="#ADD1B2" rx="11" ry="11" style="stroke:#181818;stroke-width:1;"/><path d="M521.5025,681.0145 L529.0181,681.0145 L529.0181,678.9052 L524.0181,678.9052 L524.0181,676.3583 L528.1119,676.3583 L528.1119,674.2645 L524.0181,674.2645 L524.0181,672.0458 L528.8463,672.0458 L528.8463,669.9364 L521.5025,669.9364 L521.5025,681.0145 Z " fill="#000000"/><text fill="#000000" font-family="sans-serif" font-size="14" lengthAdjust="spacing" textLength="59.1172" x="539.44" y="679.7997">Measurer</text><line style="stroke:#181818;stroke-width:0.5;" x1="511.44" x2="600.5572" y1="691.0145" y2="691.0145"/><line style="stroke:#181818;stroke-width:0.5;" x1="511.44" x2="600.5572" y1="699.0145" y2="699.0145"/></a></g><!--class EvaluationResult--><g class="entity" data-entity="EvaluationResult" data-source-line="194" data-uid="ent0027" id="entity_EvaluationResult"><a href="" target="_top" title="The EvaluationResult is a piece of structured data describing the output of an Evaluator running an evaluation." xlink:actuate="onRequest" xlink:href="" xlink:show="new" xlink:title="The EvaluationResult is a piece of structured data describing the output of an Evaluator running an evaluation." xlink:type="simple"><rect fill="#555555" fill-opacity="0.06667" height="64.4063" rx="2.5" ry="2.5" style="stroke:#181818;stroke-width:0.5;" width="135.7695" x="740.12" y="851.9245"/><ellipse cx="755.12" cy="867.9245" fill="#7E57C2" rx="11" ry="11" style="stroke:#181818;stroke-width:1;"/><path d="M752.3075,873.9245 L755.5263,873.9245 C758.6044,873.9245 760.7138,872.1433 760.7138,868.3308 C760.7138,864.5183 758.6044,862.8464 755.37,862.8464 L752.3075,862.8464 L752.3075,873.9245 Z M754.8231,871.9089 L754.8231,864.862 L755.2294,864.862 C756.9638,864.862 758.1356,865.6745 758.1356,868.3308 C758.1356,870.987 756.9638,871.9089 755.2294,871.9089 L754.8231,871.9089 Z " fill="#000000"/><text fill="#000000" font-family="sans-serif" font-size="14" lengthAdjust="spacing" textLength="103.7695" x="769.12" y="872.7097">EvaluationResult</text><line style="stroke:#181818;stroke-width:0.5;" x1="741.12" x2="874.8895" y1="883.9245" y2="883.9245"/><text fill="#000000" font-family="sans-serif" font-size="14" lengthAdjust="spacing" textLength="67.2451" x="746.12" y="900.9128">timestamp</text><line style="stroke:#181818;stroke-width:0.5;" x1="741.12" x2="874.8895" y1="908.3308" y2="908.3308"/></a></g><!--class Evaluator--><g class="entity" data-entity="Evaluator" data-source-line="199" data-uid="ent0028" id="entity_Evaluator"><a href="" target="_top" title="The Evaluator is a human and/or digital entity responsible for evaluating measurements and (optionally) other evaluations, and outputting evaluation results." xlink:actuate="onRequest" xlink:href="" xlink:show="new" xlink:title="The Evaluator is a human and/or digital entity responsible for evaluating measurements and (optionally) other evaluations, and outputting evaluation results." xlink:type="simple"><rect fill="#555555" fill-opacity="0.06667" height="48" rx="2.5" ry="2.5" style="stroke:#181818;stroke-width:0.5;" width="90.3994" x="739.8" y="659.0145"/><ellipse cx="754.8" cy="675.0145" fill="#ADD1B2" rx="11" ry="11" style="stroke:#181818;stroke-width:1;"/><path d="M750.8625,681.0145 L758.3781,681.0145 L758.3781,678.9052 L753.3781,678.9052 L753.3781,676.3583 L757.4719,676.3583 L757.4719,674.2645 L753.3781,674.2645 L753.3781,672.0458 L758.2063,672.0458 L758.2063,669.9364 L750.8625,669.9364 L750.8625,681.0145 Z " fill="#000000"/><text fill="#000000" font-family="sans-serif" font-size="14" lengthAdjust="spacing" textLength="58.3994" x="768.8" y="679.7997">Evaluator</text><line style="stroke:#181818;stroke-width:0.5;" x1="740.8" x2="829.1994" y1="691.0145" y2="691.0145"/><line style="stroke:#181818;stroke-width:0.5;" x1="740.8" x2="829.1994" y1="699.0145" y2="699.0145"/></a></g><!--link TheoryOfChange to ImpactProject--><g class="link" data-entity-1="TheoryOfChange" data-entity-2="ImpactProject" data-source-line="152" data-uid="lnk10" id="link_TheoryOfChange_ImpactProject"><path codeLine="152" d="M312,193.9245 C312,217.1045 312,246.7945 312,272.4845" fill="none" id="TheoryOfChange-to-ImpactProject" style="stroke:#0055A9;stroke-width:1;"/><polygon fill="#0055A9" points="312,278.4845,316,269.4845,312,273.4845,308,269.4845,312,278.4845" style="stroke:#0055A9;stroke-width:1;"/><text fill="#0055A9" font-family="sans-serif" font-size="13" lengthAdjust="spacing" textLength="40.0156" x="313" y="244.8551">orients</text></g><!--link ImpactOrganization to ImpactProject--><g class="link" data-entity-1="ImpactOrganization" data-entity-2="ImpactProject" data-source-line="153" data-uid="lnk11" id="link_ImpactOrganization_ImpactProject"><path codeLine="153" d="M163.57,202.2245 C194.99,225.0445 232.3652,252.1787 263.7452,274.9687" fill="none" id="ImpactOrganization-to-ImpactProject" style="stroke:#0055A9;stroke-width:1;"/><polygon fill="#0055A9" points="268.6,278.4945,263.6684,269.9693,264.5544,275.5564,258.9673,276.4423,268.6,278.4945" style="stroke:#0055A9;stroke-width:1;"/><text fill="#0055A9" font-family="sans-serif" font-size="13" lengthAdjust="spacing" textLength="57.0591" x="228.5" y="244.8551">facilitates</text><text fill="#0055A9" font-family="sans-serif" font-size="13" lengthAdjust="spacing" textLength="7.3062" x="164.2376" y="221.9566">1</text><text fill="#0055A9" font-family="sans-serif" font-size="13" lengthAdjust="spacing" textLength="5.5986" x="254.6232" y="267.7025">*</text></g><!--link ImpactProject to ImpactScope--><g class="link" data-entity-1="ImpactProject" data-entity-2="ImpactScope" data-source-line="154" data-uid="lnk12" id="link_ImpactProject_ImpactScope"><path codeLine="154" d="M312.96,343.3545 C313.77,369.4745 314.737,400.8173 315.597,428.9973" fill="none" id="ImpactProject-to-ImpactScope" style="stroke:#0055A9;stroke-width:1;"/><polygon fill="#0055A9" points="315.78,434.9945,319.5036,425.8767,315.6275,429.9969,311.5073,426.1207,315.78,434.9945" style="stroke:#0055A9;stroke-width:1;"/><text fill="#0055A9" font-family="sans-serif" font-size="13" lengthAdjust="spacing" textLength="40.8853" x="315.8" y="386.2651">divides</text><text fill="#0055A9" font-family="sans-serif" font-size="13" lengthAdjust="spacing" textLength="22.0073" x="325.239" y="401.4995">into</text><text fill="#0055A9" font-family="sans-serif" font-size="13" lengthAdjust="spacing" textLength="7.3062" x="305.4909" y="363.285">1</text><text fill="#0055A9" font-family="sans-serif" font-size="13" lengthAdjust="spacing" textLength="5.5986" x="310.2138" y="424.1052">*</text></g><!--link ImpactScope to ImpactClaim--><g class="link" data-entity-1="ImpactScope" data-entity-2="ImpactClaim" data-source-line="155" data-uid="lnk13" id="link_ImpactScope_ImpactClaim"><path codeLine="155" d="M318.35,516.2145 C319.5,549.9045 320.9459,592.388 322.1659,628.228" fill="none" id="ImpactScope-to-ImpactClaim" style="stroke:#0055A9;stroke-width:1;"/><polygon fill="#0055A9" points="322.37,634.2245,326.0615,625.0937,322.1999,629.2274,318.0661,625.3658,322.37,634.2245" style="stroke:#0055A9;stroke-width:1;"/><text fill="#0055A9" font-family="sans-serif" font-size="13" lengthAdjust="spacing" textLength="49.772" x="320.87" y="559.0751">contains</text><text fill="#0055A9" font-family="sans-serif" font-size="13" lengthAdjust="spacing" textLength="7.3062" x="311.0321" y="535.9603">1</text><text fill="#0055A9" font-family="sans-serif" font-size="13" lengthAdjust="spacing" textLength="5.5986" x="316.8311" y="623.3859">*</text></g><!--reverse link ImpactClaim to ImpactContributor--><g class="link" data-entity-1="ImpactClaim" data-entity-2="ImpactContributor" data-source-line="156" data-uid="lnk15" id="link_ImpactClaim_ImpactContributor"><path codeLine="156" d="M268.3266,736.0615 C229.9166,771.9615 182.66,816.1445 148.17,848.3845" fill="none" id="ImpactClaim-backto-ImpactContributor" style="stroke:#0055A9;stroke-width:1;"/><polygon fill="#0055A9" points="272.71,731.9645,263.4035,735.1877,269.0571,735.3787,268.8662,741.0323,272.71,731.9645" style="stroke:#0055A9;stroke-width:1;"/><text fill="#0055A9" font-family="sans-serif" font-size="13" lengthAdjust="spacing" textLength="38.3081" x="237.58" y="782.1851">claims</text><text fill="#0055A9" font-family="sans-serif" font-size="13" lengthAdjust="spacing" textLength="5.5986" x="260.522" y="751.6264">*</text><text fill="#0055A9" font-family="sans-serif" font-size="13" lengthAdjust="spacing" textLength="5.5986" x="146.7291" y="840.9771">*</text></g><!--link ImpactContributor to ImpactWork--><g class="link" data-entity-1="ImpactContributor" data-entity-2="ImpactWork" data-source-line="157" data-uid="lnk16" id="link_ImpactContributor_ImpactWork"><path codeLine="157" d="M191.17,884.1245 C228.71,884.1245 266.54,884.1245 299.99,884.1245" fill="none" id="ImpactContributor-to-ImpactWork" style="stroke:#0055A9;stroke-width:1;"/><polygon fill="#0055A9" points="305.99,884.1245,296.99,880.1245,300.99,884.1245,296.99,888.1245,305.99,884.1245" style="stroke:#0055A9;stroke-width:1;"/><polygon fill="#0055A9" points="218.82,875.7417,209.7749,872.8028,209.7749,878.6806,218.82,875.7417" style="stroke:#0055A9;stroke-width:1;"/><text fill="#0055A9" font-family="sans-serif" font-size="13" lengthAdjust="spacing" textLength="65.5396" x="222.82" y="880.1851">contributes</text><text fill="#0055A9" font-family="sans-serif" font-size="13" lengthAdjust="spacing" textLength="5.5986" x="192.3303" y="881.0784">*</text><text fill="#0055A9" font-family="sans-serif" font-size="13" lengthAdjust="spacing" textLength="5.5986" x="292.3831" y="880.0546">*</text></g><!--reverse link ImpactWork to ImpactContributor--><g class="link" data-entity-1="ImpactWork" data-entity-2="ImpactContributor" data-source-line="158" data-uid="lnk18" id="link_ImpactWork_ImpactContributor"><path codeLine="158" d="M300.0993,906.8075 C294.4093,908.4275 294.43,908.1545 288.82,909.1245 C253.78,915.1745 243.31,917.7645 208.82,909.1245 C196.93,906.1445 196.76,896.1245 184.5,896.1245" fill="none" id="ImpactWork-backto-ImpactContributor" style="stroke:#0055A9;stroke-width:1;"/><polygon fill="#0055A9" points="305.87,905.1645,296.1187,903.7819,301.0611,906.5337,298.3093,911.4761,305.87,905.1645" style="stroke:#0055A9;stroke-width:1;"/><polygon fill="#0055A9" points="235.2988,901.2018,226.5625,897.443,226.0216,903.2959,235.2988,901.2018" style="stroke:#0055A9;stroke-width:1;"/><text fill="#0055A9" font-family="sans-serif" font-size="13" lengthAdjust="spacing" textLength="32.2271" x="239.32" y="905.1851">gates</text><text fill="#0055A9" font-family="sans-serif" font-size="13" lengthAdjust="spacing" textLength="5.5986" x="292.5968" y="904.231">*</text><text fill="#0055A9" font-family="sans-serif" font-size="13" lengthAdjust="spacing" textLength="7.3062" x="192.746" y="894.1507">1</text></g><!--link ImpactClaim to ImpactWork--><g class="link" data-entity-1="ImpactClaim" data-entity-2="ImpactWork" data-source-line="159" data-uid="lnk19" id="link_ImpactClaim_ImpactWork"><path codeLine="159" d="M316.48,731.9445 C314.82,751.2945 314.66,773.7145 319,793.6245 C324.17,817.3345 333.3102,837.0373 343.0202,854.5473" fill="none" id="ImpactClaim-to-ImpactWork" style="stroke:#0055A9;stroke-width:1;"/><polygon fill="#0055A9" points="345.93,859.7945,345.0635,849.9839,343.5052,855.4219,338.0672,853.8636,345.93,859.7945" style="stroke:#0055A9;stroke-width:1;"/><polygon fill="#0055A9" points="325.0579,782.6285,326.0166,773.1664,320.2718,774.41,325.0579,782.6285" style="stroke:#0055A9;stroke-width:1;"/><text fill="#0055A9" font-family="sans-serif" font-size="13" lengthAdjust="spacing" textLength="61.6421" x="333" y="782.1851">represents</text><text fill="#0055A9" font-family="sans-serif" font-size="13" lengthAdjust="spacing" textLength="5.5986" x="310.1736" y="751.6037">*</text><text fill="#0055A9" font-family="sans-serif" font-size="13" lengthAdjust="spacing" textLength="5.5986" x="336.9646" y="849.1251">*</text></g><!--reverse link ImpactOrganization to ImpactContributor--><g class="link" data-entity-1="ImpactOrganization" data-entity-2="ImpactContributor" data-source-line="160" data-uid="lnk21" id="link_ImpactOrganization_ImpactContributor"><path codeLine="160" d="M117.5033,208.1233 C115.7733,236.3733 114,272.9345 114,310.0045 C114,310.0045 114,310.0045 114,684.0145 C114,741.5745 112.73,808.4845 111.84,848.2345" fill="none" id="ImpactOrganization-backto-ImpactContributor" style="stroke:#0055A9;stroke-width:1;"/><polygon fill="#0055A9" points="117.87,202.1345,113.3274,210.8732,117.5644,207.1252,121.3124,211.3622,117.87,202.1345" style="stroke:#0055A9;stroke-width:1;"/><polygon fill="#0055A9" points="119.0442,470.7219,116.0254,479.7406,121.903,479.7926,119.0442,470.7219" style="stroke:#0055A9;stroke-width:1;"/><text fill="#0055A9" font-family="sans-serif" font-size="13" lengthAdjust="spacing" textLength="60.8486" x="128" y="480.1651">belongs to</text><text fill="#0055A9" font-family="sans-serif" font-size="13" lengthAdjust="spacing" textLength="5.5986" x="112.0446" y="221.8494">*</text><text fill="#0055A9" font-family="sans-serif" font-size="13" lengthAdjust="spacing" textLength="5.5986" x="106.6611" y="841.0154">*</text></g><!--link Measurer to Measurement--><g class="link" data-entity-1="Measurer" data-entity-2="Measurement" data-source-line="188" data-uid="lnk25" id="link_Measurer_Measurement"><path codeLine="188" d="M558.45,707.2445 C561.45,735.6645 566.0004,778.8377 570.1304,817.9777" fill="none" id="Measurer-to-Measurement" style="stroke:#0055A9;stroke-width:1;"/><polygon fill="#0055A9" points="570.76,823.9445,573.7935,814.5745,570.2353,818.9721,565.8377,815.414,570.76,823.9445" style="stroke:#0055A9;stroke-width:1;"/><text fill="#0055A9" font-family="sans-serif" font-size="13" lengthAdjust="spacing" textLength="31.5161" x="568.13" y="782.1851">takes</text><text fill="#0055A9" font-family="sans-serif" font-size="13" lengthAdjust="spacing" textLength="7.3062" x="551.2317" y="727.0678">1</text><text fill="#0055A9" font-family="sans-serif" font-size="13" lengthAdjust="spacing" textLength="5.5986" x="565.1799" y="816.4447">*</text></g><!--link Evaluator to EvaluationResult--><g class="link" data-entity-1="Evaluator" data-entity-2="EvaluationResult" data-source-line="201" data-uid="lnk29" id="link_Evaluator_EvaluationResult"><path codeLine="201" d="M778.11,707.2645 C772.47,729.5545 766.28,764.0845 772,793.6245 C775.88,813.6845 781.7378,829.5012 789.4278,846.2612" fill="none" id="Evaluator-to-EvaluationResult" style="stroke:#0055A9;stroke-width:1;"/><polygon fill="#0055A9" points="791.93,851.7145,791.8123,841.8664,789.8449,847.1701,784.5412,845.2026,791.93,851.7145" style="stroke:#0055A9;stroke-width:1;"/><text fill="#0055A9" font-family="sans-serif" font-size="13" lengthAdjust="spacing" textLength="59.0967" x="773" y="782.1851">calculates</text><text fill="#0055A9" font-family="sans-serif" font-size="13" lengthAdjust="spacing" textLength="7.3062" x="768.6148" y="727.0927">1</text><text fill="#0055A9" font-family="sans-serif" font-size="13" lengthAdjust="spacing" textLength="5.5986" x="783.1607" y="840.5672">*</text></g><!--reverse link Evaluator to EvaluationResult--><g class="link" data-entity-1="Evaluator" data-entity-2="EvaluationResult" data-source-line="202" data-uid="lnk31" id="link_Evaluator_EvaluationResult"><path codeLine="202" d="M815.8906,711.6292 C829.9206,725.7392 841.5,740.7545 849,761.6245 C859.91,792.0045 845.31,826.9445 830.59,851.5445" fill="none" id="Evaluator-backto-EvaluationResult" style="stroke:#0055A9;stroke-width:1;"/><polygon fill="#0055A9" points="811.66,707.3745,815.1694,716.5769,815.1855,710.9201,820.8423,710.9362,811.66,707.3745" style="stroke:#0055A9;stroke-width:1;"/><text fill="#0055A9" font-family="sans-serif" font-size="13" lengthAdjust="spacing" textLength="56.0181" x="853.8" y="774.6851">cascaded</text><text fill="#0055A9" font-family="sans-serif" font-size="13" lengthAdjust="spacing" textLength="11.667" x="875.9755" y="789.9195">to</text><text fill="#0055A9" font-family="sans-serif" font-size="13" lengthAdjust="spacing" textLength="5.5986" x="812.622" y="727.2295">*</text><text fill="#0055A9" font-family="sans-serif" font-size="13" lengthAdjust="spacing" textLength="5.5986" x="829.6032" y="840.7368">*</text></g><!--link Impact to Measure--><!--link ImpactClaim to Measurer--><!--link ImpactClaim to Measurer--><g class="link" data-entity-1="ImpactClaim" data-entity-2="Measurer" data-source-line="278" data-uid="lnk36" id="link_ImpactClaim_Measurer"><path codeLine="278" d="M379.87,683.0145 C419.69,683.0145 466.58,683.0145 503.97,683.0145" fill="none" id="ImpactClaim-to-Measurer-1" style="stroke:#0055A9;stroke-width:1;"/><polygon fill="#0055A9" points="509.97,683.0145,500.97,679.0145,504.97,683.0145,500.97,687.0145,509.97,683.0145" style="stroke:#0055A9;stroke-width:1;"/><text fill="#0055A9" font-family="sans-serif" font-size="13" lengthAdjust="spacing" textLength="81.9482" x="404.2898" y="699.0751">submitted to /</text><text fill="#0055A9" font-family="sans-serif" font-size="13" lengthAdjust="spacing" textLength="88.5054" x="401.0112" y="714.3095">discovered by /</text><text fill="#0055A9" font-family="sans-serif" font-size="13" lengthAdjust="spacing" textLength="90.4478" x="400.04" y="729.5438">self-reported by</text><text fill="#0055A9" font-family="sans-serif" font-size="13" lengthAdjust="spacing" textLength="5.5986" x="387.7535" y="679.0831">*</text><text fill="#0055A9" font-family="sans-serif" font-size="13" lengthAdjust="spacing" textLength="5.5986" x="521.099" y="727.1051">*</text></g><!--link Impact to Evaluate--><!--link Measure to Evaluate--><!--link Measurement to ImpactClaim--><g class="link" data-entity-1="Measurement" data-entity-2="ImpactClaim" data-source-line="279" data-uid="lnk38" id="link_Measurement_ImpactClaim"><path codeLine="279" d="M517,871.6245 C458.57,871.6245 486.51,802.7445 445,761.6245 C426.03,742.8345 406.9333,729.2576 385.1333,716.2576" fill="none" id="Measurement-to-ImpactClaim" style="stroke:#0055A9;stroke-width:1;"/><polygon fill="#0055A9" points="379.98,713.1845,385.6612,721.2296,384.2744,715.7454,389.7586,714.3586,379.98,713.1845" style="stroke:#0055A9;stroke-width:1;"/><text fill="#0055A9" font-family="sans-serif" font-size="13" lengthAdjust="spacing" textLength="57.2495" x="464.97" y="782.1851">measures</text><text fill="#0055A9" font-family="sans-serif" font-size="13" lengthAdjust="spacing" textLength="5.5986" x="504.3958" y="866.2238">*</text><text fill="#0055A9" font-family="sans-serif" font-size="13" lengthAdjust="spacing" textLength="7.3062" x="387.6203" y="713.1648">1</text></g><!--link Measurement to ImpactContributor--><g class="link" data-entity-1="Measurement" data-entity-2="ImpactContributor" data-source-line="280" data-uid="lnk40" id="link_Measurement_ImpactContributor"><path codeLine="280" d="M517,920.6245 C446.56,920.6245 503.76,816.6845 443.5,780.2045 C399.39,753.5145 271.973,805.9073 188.153,845.5873" fill="none" id="Measurement-to-ImpactContributor" style="stroke:#0055A9;stroke-width:1;"/><polygon fill="#0055A9" points="182.73,848.1545,192.576,847.919,187.2492,846.0152,189.1531,840.6883,182.73,848.1545" style="stroke:#0055A9;stroke-width:1;"/><text fill="#0055A9" font-family="sans-serif" font-size="13" lengthAdjust="spacing" textLength="39.5586" x="403.5" y="782.1851">credits</text><text fill="#0055A9" font-family="sans-serif" font-size="13" lengthAdjust="spacing" textLength="5.5986" x="504.3958" y="921.1956">*</text><text fill="#0055A9" font-family="sans-serif" font-size="13" lengthAdjust="spacing" textLength="5.5986" x="184.5293" y="840.9275">*</text></g><!--link EvaluationResult to Measurement--><g class="link" data-entity-1="EvaluationResult" data-entity-2="Measurement" data-source-line="283" data-uid="lnk42" id="link_EvaluationResult_Measurement"><path codeLine="283" d="M739.73,884.1245 C709.45,884.1245 679.93,884.1245 649.81,884.1245" fill="none" id="EvaluationResult-to-Measurement" style="stroke:#0055A9;stroke-width:1;"/><polygon fill="#0055A9" points="643.81,884.1245,652.81,888.1245,648.81,884.1245,652.81,880.1245,643.81,884.1245" style="stroke:#0055A9;stroke-width:1;"/><text fill="#0055A9" font-family="sans-serif" font-size="13" lengthAdjust="spacing" textLength="55.5166" x="664.56" y="877.1851">evaluates</text><text fill="#0055A9" font-family="sans-serif" font-size="13" lengthAdjust="spacing" textLength="7.3062" x="724.8964" y="880.3772">1</text><text fill="#0055A9" font-family="sans-serif" font-size="13" lengthAdjust="spacing" textLength="5.5986" x="644.3523" y="881.125">*</text></g><!--link Measurement to Evaluator--><g class="link" data-entity-1="Measurement" data-entity-2="Evaluator" data-source-line="284" data-uid="lnk43" id="link_Measurement_Evaluator"><path codeLine="284" d="M638.83,823.9445 C679.71,784.8045 726.7164,739.8142 756.3964,711.3942" fill="none" id="Measurement-to-Evaluator" style="stroke:#0055A9;stroke-width:1;"/><polygon fill="#0055A9" points="760.73,707.2445,751.4631,710.5799,757.1186,710.7026,756.996,716.3581,760.73,707.2445" style="stroke:#0055A9;stroke-width:1;"/><text fill="#0055A9" font-family="sans-serif" font-size="13" lengthAdjust="spacing" textLength="49.7212" x="700.63" y="774.6851">ingested</text><text fill="#0055A9" font-family="sans-serif" font-size="13" lengthAdjust="spacing" textLength="13.4507" x="718.7653" y="789.9195">by</text><text fill="#0055A9" font-family="sans-serif" font-size="13" lengthAdjust="spacing" textLength="5.5986" x="637.8234" y="816.4447">*</text><text fill="#0055A9" font-family="sans-serif" font-size="13" lengthAdjust="spacing" textLength="5.5986" x="749.2778" y="727.0678">*</text></g><!--SRC=[xHhzRzkuzNV_5OpNNPAxUBriwB0PQO5SulQyfPSWoLqnj4L1IxJDHH85adBg7lA_xpsIaaY9iPqMs2-R2xGIoVVulh_KVR9NIhh8ASdeMbIQg9nfMj31OE_PrVNbFoPdjvz-ENqx8I_9yEtaUggP7CBM-VJqpVNfsq-t_xeoMvD2SxqcrooZcej2BNb9pZbTI9gJWydr-I40yNcHiZbv_Ul5nQVRwUt51F2qBu0blF07CeG_Fv3Whi4UAr8-7mpsoPaevdnHINCXML79wInZghddvkVBTvzUJoSNvpU3FLZW1VFNo71ECyM6DSO0R79w4mLjrny3_srwC_tfOlBfwlJidwTl9YryTuCCtuWLamKj4dOqpKkQwAEtZAfAigF9YcOLrUpecjrJcGuzhdzcMSaacLT5OlZMWYHBbjmHFYU0uuuk6E6AhBZY88t1NdFm6LTNTlytktVmp9t_XURiS438dcIwaWNvezAo5EgWI_4H2I38taioEZQarPSC1c056IEUMWSe6NBW2_xborfuXuCbJnbXUGcsC-SiIrN3wedIwuoz6gGYgN9MQF8xa4Y8lS0-u- -rAFGD_yB8N_uShY4qcOaiDSiFWuT1BPujY8x_vY3mxmjGtPd8X2H_-Alv0PuaeqhLncqHc2KFsKzmrKAAgaWTy0lpEpxsK5CfnRq7urtruuylNfp-FI2jl_FGtdn4cF6_8r88xJErxs6zNtBDl9qkZRrz8LCcutijHUqEYbYLebOKFauSLVXyJZKzwuZflqtUoNDdL8DzTSUBag86Co11hqj6XDHBuUorxosUkmuF3mUDDNdhv01Zv-6GK4MyLSklrH2vdFsRWQ-ic3fdYYyAyENtxt-_NRBO3ZYoP22ymf10vi2GYIQyM90bNon76LknZ2m4U1EXHKf4WuFe9TN04aVNqO0UxvSG6qoa8Sn660mCQgqqo__qyF6ZJ-TD8ie-ZPtLJVGXEH18gWHY2hwxYvN1OAbB-GhTlvG2gLQ45n3DSXC3CPIJgk1QTGbpCH93GfUws5QKHDn3cl8M09v1-oaOpO8pAyp49HWZRN1LxxGYQYcgB2KpHZIzOqMNoaaZtowHaPsDD7gQIYGOCwGvGrr8ByA0Rp6bEdprv6TJIfUgpkf6YgGvIqgHyQIMLSf1rtnM6JfpbYnfmLLkwNAQ1t7Q8qBsYBgLXk9rJKxp3eHGk4baHCmnwQNmlg8yepLPbXZFm9fhi0mnj24O7W33iyM2lTxSt-5x9Dz3HafPyN7qgY727EnOVd0mOdS69cQF0M3V5WnSn4G2i91eoqWaUWoFXsG4n_7V3lbZ5ndKBh0nDfw48CBFa-0xIcfX7vfguR6WRGih3DXrlBOhOL06anDoVJa_0xE58xKHXgl65EUGCTYza7SkWZ45JZa39y00WSPslrmRLv4C0eW11328k-np2Ip28eIu9IrBLa2uGzkcKlEaogWqbii-wzOu7NMMuakv09_wOYE1ep2oWrGMDQIXSKuJdd4DvQJB4P2O58CNvp1D-CLDo1HSzbpLIzdHQWx2F1PpzHdX4NG-FMzXhRBQuYLWyChI4V9MBnhXAn0Xd_C49CSrfsWmXF8SX0fi9k2jkWr-9a105SlDASVgFTTBaBgjo5ENYxwHmHsvUuSs4x1cLhWooHbUAveHOrWGfI2m8LUpTQ09gyu5Ap2CjVfpJD5QaKriJQ7YieMflT34W906ksI3B6TGgq2KhPCs480Osem-ms8CsYndHneaRzp1HdahTYyGn-XwefmTvA-U3R5I94jGWBb-2WuZ8RX4a7gTMWJnQDGyLZnjdXMqKZbjNYMR-rVZZUG096HDJHGjFl1kRdFBBHpo4An44bjEU8aHh5cX6XIgNVXl8R63YvXNrDgwsePQc-UXjksITQLMoOtYZROL2DIKRtXgnPOySOdMeMZjqTetMWE4DApKIx3MF8UY3LW6X9M6LxlhCeXKJpS1uwE12dfAXvWfgQ7-VzqE-c77rrTe2zw6iOXbbKFY0CT-ZiKUNq36o88yukAIib7A5CXeJzquLAUJht1tH7mECb4Wg2kiBjSRsEnavr4AnKAOCy8Q8v8hJOs1SCFlXprOBsrwyFL-1DJ6qh7hQjI70jiP3zJkHm2jMuvDhAUyyA_pjOG0eoeEQHIn2Iu0CvbdJ5wrsOKz0ZmUztLYMSZY61STULaADv0WMGcTHaTBVRRB43nG8wAPiKmK2mmsEnI5BXpvLQ5RSWRRnbAlzerqcLioPq9Br_nwbKkAuH6pkMlY94-msSgeAmxhDiQez2kSYBTodxOHhRbtIoWr_lx_TDgTDdH733l4p6x_hEbTjpL7cmdKRUjpbpZRFg2vj6cAlW-wCl0074BiqW_LasNVzkkrdl6tVTirKrMc-oCCjxwjW3HD4dAFjIxmLrOQ3uBi72fivAl2pOsyaSTNs3-QbT8qBxVgjhqxv4jyXNPhahiQHeKUY19veLcsFYG2H20z3jLHhNGGYkuCVAGHhsS9BOL17kafP4o62SsmhSH60Nx3pc31dGjoIelSWAk4fYpz04bik8DXkIyLdbdPbR3HjcjdZZJH6Jzvwv41LCsGDu82aRg0eCYCAZ0uKKJaPoJScLe5bhNThYnqK9HigC0jEwSDTI6Rtlfcnx5POrqx3isX0TEE6HVo4CpI5f-rrTEk9pgHlMf3X8rdcSSypGrmwXbXL-_-HaJnx3DBAbrB8PWqUjnxgRCxQFGcVPw91HxKqyoOj0xamNidZE_8S4JbCJ8cjD9Bg42_185vdpZF8URx1N8riXcG8U4ACA1QCpRN8or6aY-MsdsQtM78jKF5u-PViG7cmA_POWUazxLpQtg9NLJlRyFJHfCO5hlRuDYzsjk5xBeI_4QwesYUHdXB5VdkExBnjYQ5nwxhHVtOCBcrtArqXH_2d8k_jaFs6r79f1aoXOjkDFbP8tIdjvJ2D4rkn0- -ZAwkwwy0iK6_yUpm0kEHgVF8vXF2s2BTPKRSwoazEOKJzDxHw3JVQq4ZvpVFrOEc4HWxWPOhFigtNsRKDjlq_21sSn0EcufpP-o-2qK44IjNn1FGjwRU-HZG_qxWXVWMVMCDaUyAGT2sjhAZXzQMyuX_zg9klnls13rKrIpdshM1pp_0rIf1LxEJO5XGB9kFe64MKfkrOOZsk3QIi3iOZuDa3JUv2hMsiMwt7KVYt7MCoIhb-Wa6iLqwVYyJs7gai7Nb7L3VXHh5wbYENs0qrh4ehs-bkHTnlL9wio423GoQ_bUx6leZ1BInwZ7TLQFHeyPzKbTBWnqdFLONxmiXQN7tCS0SS7T2U37FAWOvGJsXLQWRCPSItWcPfKqp5YosOw8sWIXiUfSYIvcRfjZ_oU2-aw1-c5cUiOBDkIPpANAJL-g19J1iiaXubL5azNXTQ10tNFu7]--></g></svg>