<svg xmlns="http://www.w3.org/2000/svg" xmlns:xlink="http://www.w3.org/1999/xlink" contentStyleType="text/css" data-diagram-type="CLASS" height="780px" preserveAspectRatio="none" style="width:992px;height:780px;background:#FFFFFF;" version="1.1" viewBox="0 0 992 780" width="992px" zoomAndPan="magnify"><title>MERIter Entity Relationship Diagram (ERD)</title><defs/><g><g class="title" data-source-line="19"><text fill="#000000" font-family="sans-serif" font-size="32" font-weight="bold" lengthAdjust="spacing" textLength="612.1719" x="183.2903" y="39.6875">MERIter Entity Relationship Diagram (ERD)</text></g><!--cluster Impact--><g class="cluster" data-entity="Impact" data-source-line="87" data-uid="ent0002" id="cluster_Impact"><path d="M8.5,65.3945 L65.6006,65.3945 A3.75,3.75 0 0 1 68.1006,67.8945 L75.1006,92.4883 L443.5,92.4883 A2.5,2.5 0 0 1 446,94.9883 L446,770.8945 A2.5,2.5 0 0 1 443.5,773.3945 L8.5,773.3945 A2.5,2.5 0 0 1 6,770.8945 L6,67.8945 A2.5,2.5 0 0 1 8.5,65.3945" fill="none" style="stroke:#000000;stroke-width:1.5;"/><line style="stroke:#000000;stroke-width:1.5;" x1="6" x2="75.1006" y1="92.4883" y2="92.4883"/><text fill="#000000" font-family="sans-serif" font-size="18" font-weight="bold" lengthAdjust="spacing" textLength="56.1006" x="10" y="84.0938">Impact</text></g><!--cluster Measure--><g class="cluster" data-entity="Measure" data-source-line="155" data-uid="ent0020" id="cluster_Measure"><path d="M488.5,497.3945 L560.2959,497.3945 A3.75,3.75 0 0 1 562.7959,499.8945 L569.7959,524.4883 L673.5,524.4883 A2.5,2.5 0 0 1 676,526.9883 L676,770.8945 A2.5,2.5 0 0 1 673.5,773.3945 L488.5,773.3945 A2.5,2.5 0 0 1 486,770.8945 L486,499.8945 A2.5,2.5 0 0 1 488.5,497.3945" fill="none" style="stroke:#000000;stroke-width:1.5;"/><line style="stroke:#000000;stroke-width:1.5;" x1="486" x2="569.7959" y1="524.4883" y2="524.4883"/><text fill="#000000" font-family="sans-serif" font-size="18" font-weight="bold" lengthAdjust="spacing" textLength="70.7959" x="490" y="516.0938">Measure</text></g><!--cluster Evaluate--><g class="cluster" data-entity="Evaluate" data-source-line="183" data-uid="ent0024" id="cluster_Evaluate"><path d="M718.5,497.3945 L788.6963,497.3945 A3.75,3.75 0 0 1 791.1963,499.8945 L798.1963,524.4883 L975.5,524.4883 A2.5,2.5 0 0 1 978,526.9883 L978,766.8945 A2.5,2.5 0 0 1 975.5,769.3945 L718.5,769.3945 A2.5,2.5 0 0 1 716,766.8945 L716,499.8945 A2.5,2.5 0 0 1 718.5,497.3945" fill="none" style="stroke:#000000;stroke-width:1.5;"/><line style="stroke:#000000;stroke-width:1.5;" x1="716" x2="798.1963" y1="524.4883" y2="524.4883"/><text fill="#000000" font-family="sans-serif" font-size="18" font-weight="bold" lengthAdjust="spacing" textLength="69.1963" x="720" y="516.0938">Evaluate</text></g><!--class ImpactOrganization--><g class="entity" data-entity="ImpactOrganization" data-source-line="88" data-uid="ent0003" id="entity_ImpactOrganization"><rect fill="#555555" fill-opacity="0.06667" height="40" rx="2.5" ry="2.5" style="stroke:#181818;stroke-width:0.5;" width="154.7188" x="74.64" y="137.3945"/><ellipse cx="89.64" cy="153.3945" fill="#ADD1B2" rx="11" ry="11" style="stroke:#181818;stroke-width:1;"/><path d="M85.7025,159.3945 L93.2181,159.3945 L93.2181,157.2852 L88.2181,157.2852 L88.2181,154.7383 L92.3119,154.7383 L92.3119,152.6445 L88.2181,152.6445 L88.2181,150.4258 L93.0463,150.4258 L93.0463,148.3164 L85.7025,148.3164 L85.7025,159.3945 Z " fill="#000000"/><text fill="#000000" font-family="sans-serif" font-size="14" lengthAdjust="spacing" textLength="122.7188" x="103.64" y="158.1797">ImpactOrganization</text><line style="stroke:#181818;stroke-width:0.5;" x1="75.64" x2="228.3588" y1="169.3945" y2="169.3945"/></g><!--class ImpactProject--><g class="entity" data-entity="ImpactProject" data-source-line="93" data-uid="ent0004" id="entity_ImpactProject"><rect fill="#555555" fill-opacity="0.06667" height="40" rx="2.5" ry="2.5" style="stroke:#181818;stroke-width:0.5;" width="119.7119" x="208.14" y="254.3945"/><ellipse cx="223.14" cy="270.3945" fill="#ADD1B2" rx="11" ry="11" style="stroke:#181818;stroke-width:1;"/><path d="M219.2025,276.3945 L226.7181,276.3945 L226.7181,274.2852 L221.7181,274.2852 L221.7181,271.7383 L225.8119,271.7383 L225.8119,269.6445 L221.7181,269.6445 L221.7181,267.4258 L226.5463,267.4258 L226.5463,265.3164 L219.2025,265.3164 L219.2025,276.3945 Z " fill="#000000"/><text fill="#000000" font-family="sans-serif" font-size="14" lengthAdjust="spacing" textLength="87.7119" x="237.14" y="275.1797">ImpactProject</text><line style="stroke:#181818;stroke-width:0.5;" x1="209.14" x2="326.8519" y1="286.3945" y2="286.3945"/></g><!--class ImpactWork--><g class="entity" data-entity="ImpactWork" data-source-line="98" data-uid="ent0005" id="entity_ImpactWork"><rect fill="#555555" fill-opacity="0.06667" height="40" rx="2.5" ry="2.5" style="stroke:#181818;stroke-width:0.5;" width="107.7148" x="306.14" y="705.3945"/><ellipse cx="321.14" cy="721.3945" fill="#ADD1B2" rx="11" ry="11" style="stroke:#181818;stroke-width:1;"/><path d="M317.2025,727.3945 L324.7181,727.3945 L324.7181,725.2852 L319.7181,725.2852 L319.7181,722.7383 L323.8119,722.7383 L323.8119,720.6445 L319.7181,720.6445 L319.7181,718.4258 L324.5463,718.4258 L324.5463,716.3164 L317.2025,716.3164 L317.2025,727.3945 Z " fill="#000000"/><text fill="#000000" font-family="sans-serif" font-size="14" lengthAdjust="spacing" textLength="75.7148" x="335.14" y="726.1797">ImpactWork</text><line style="stroke:#181818;stroke-width:0.5;" x1="307.14" x2="412.8548" y1="737.3945" y2="737.3945"/></g><!--class ImpactScope--><g class="entity" data-entity="ImpactScope" data-source-line="99" data-uid="ent0006" id="entity_ImpactScope"><rect fill="#555555" fill-opacity="0.06667" height="40" rx="2.5" ry="2.5" style="stroke:#181818;stroke-width:0.5;" width="114.3799" x="234.81" y="386.3945"/><ellipse cx="249.81" cy="402.3945" fill="#7E57C2" rx="11" ry="11" style="stroke:#181818;stroke-width:1;"/><path d="M246.9975,408.3945 L250.2163,408.3945 C253.2944,408.3945 255.4038,406.6133 255.4038,402.8008 C255.4038,398.9883 253.2944,397.3164 250.06,397.3164 L246.9975,397.3164 L246.9975,408.3945 Z M249.5131,406.3789 L249.5131,399.332 L249.9194,399.332 C251.6538,399.332 252.8256,400.1445 252.8256,402.8008 C252.8256,405.457 251.6538,406.3789 249.9194,406.3789 L249.5131,406.3789 Z " fill="#000000"/><text fill="#000000" font-family="sans-serif" font-size="14" lengthAdjust="spacing" textLength="82.3799" x="263.81" y="407.1797">ImpactScope</text><line style="stroke:#181818;stroke-width:0.5;" x1="235.81" x2="348.1899" y1="418.3945" y2="418.3945"/></g><!--class ImpactClaim--><g class="entity" data-entity="ImpactClaim" data-source-line="117" data-uid="ent0007" id="entity_ImpactClaim"><a href="" target="_top" title="Vehicle for ImpactContributor entities to communicate outcomes to Measurers" xlink:actuate="onRequest" xlink:href="" xlink:show="new" xlink:title="Vehicle for ImpactContributor entities to communicate outcomes to Measurers" xlink:type="simple"><rect fill="#555555" fill-opacity="0.06667" height="40" rx="2.5" ry="2.5" style="stroke:#181818;stroke-width:0.5;" width="111.2832" x="268.36" y="569.3945"/><ellipse cx="283.36" cy="585.3945" fill="#7E57C2" rx="11" ry="11" style="stroke:#181818;stroke-width:1;"/><path d="M280.5475,591.3945 L283.7663,591.3945 C286.8444,591.3945 288.9538,589.6133 288.9538,585.8008 C288.9538,581.9883 286.8444,580.3164 283.61,580.3164 L280.5475,580.3164 L280.5475,591.3945 Z M283.0631,589.3789 L283.0631,582.332 L283.4694,582.332 C285.2038,582.332 286.3756,583.1445 286.3756,585.8008 C286.3756,588.457 285.2038,589.3789 283.4694,589.3789 L283.0631,589.3789 Z " fill="#000000"/><text fill="#000000" font-family="sans-serif" font-size="14" lengthAdjust="spacing" textLength="79.2832" x="297.36" y="590.1797">ImpactClaim</text><line style="stroke:#181818;stroke-width:0.5;" x1="269.36" x2="378.6432" y1="601.3945" y2="601.3945"/></a></g><!--class ImpactContributor--><g class="entity" data-entity="ImpactContributor" data-source-line="137" data-uid="ent0008" id="entity_ImpactContributor"><rect fill="#555555" fill-opacity="0.06667" height="40" rx="2.5" ry="2.5" style="stroke:#181818;stroke-width:0.5;" width="145.9141" x="38.5" y="705.3945"/><ellipse cx="53.5" cy="721.3945" fill="#ADD1B2" rx="11" ry="11" style="stroke:#181818;stroke-width:1;"/><path d="M49.5625,727.3945 L57.0781,727.3945 L57.0781,725.2852 L52.0781,725.2852 L52.0781,722.7383 L56.1719,722.7383 L56.1719,720.6445 L52.0781,720.6445 L52.0781,718.4258 L56.9063,718.4258 L56.9063,716.3164 L49.5625,716.3164 L49.5625,727.3945 Z " fill="#000000"/><text fill="#000000" font-family="sans-serif" font-size="14" lengthAdjust="spacing" textLength="113.9141" x="67.5" y="726.1797">ImpactContributor</text><line style="stroke:#181818;stroke-width:0.5;" x1="39.5" x2="183.4141" y1="737.3945" y2="737.3945"/></g><!--class Measurement--><g class="entity" data-entity="Measurement" data-source-line="156" data-uid="ent0021" id="entity_Measurement"><rect fill="#555555" fill-opacity="0.06667" height="40" rx="2.5" ry="2.5" style="stroke:#181818;stroke-width:0.5;" width="118.3857" x="518" y="705.3945"/><ellipse cx="533" cy="721.3945" fill="#7E57C2" rx="11" ry="11" style="stroke:#181818;stroke-width:1;"/><path d="M530.1875,727.3945 L533.4063,727.3945 C536.4844,727.3945 538.5938,725.6133 538.5938,721.8008 C538.5938,717.9883 536.4844,716.3164 533.25,716.3164 L530.1875,716.3164 L530.1875,727.3945 Z M532.7031,725.3789 L532.7031,718.332 L533.1094,718.332 C534.8438,718.332 536.0156,719.1445 536.0156,721.8008 C536.0156,724.457 534.8438,725.3789 533.1094,725.3789 L532.7031,725.3789 Z " fill="#000000"/><text fill="#000000" font-family="sans-serif" font-size="14" lengthAdjust="spacing" textLength="86.3857" x="547" y="726.1797">Measurement</text><line style="stroke:#181818;stroke-width:0.5;" x1="519" x2="635.3857" y1="737.3945" y2="737.3945"/></g><!--class Measurer--><g class="entity" data-entity="Measurer" data-source-line="176" data-uid="ent0022" id="entity_Measurer"><rect fill="#555555" fill-opacity="0.06667" height="40" rx="2.5" ry="2.5" style="stroke:#181818;stroke-width:0.5;" width="91.1172" x="510.44" y="569.3945"/><ellipse cx="525.44" cy="585.3945" fill="#ADD1B2" rx="11" ry="11" style="stroke:#181818;stroke-width:1;"/><path d="M521.5025,591.3945 L529.0181,591.3945 L529.0181,589.2852 L524.0181,589.2852 L524.0181,586.7383 L528.1119,586.7383 L528.1119,584.6445 L524.0181,584.6445 L524.0181,582.4258 L528.8463,582.4258 L528.8463,580.3164 L521.5025,580.3164 L521.5025,591.3945 Z " fill="#000000"/><text fill="#000000" font-family="sans-serif" font-size="14" lengthAdjust="spacing" textLength="59.1172" x="539.44" y="590.1797">Measurer</text><line style="stroke:#181818;stroke-width:0.5;" x1="511.44" x2="600.5572" y1="601.3945" y2="601.3945"/></g><!--class EvaluationResult--><g class="entity" data-entity="EvaluationResult" data-source-line="184" data-uid="ent0025" id="entity_EvaluationResult"><rect fill="#555555" fill-opacity="0.06667" height="40" rx="2.5" ry="2.5" style="stroke:#181818;stroke-width:0.5;" width="135.7695" x="740.12" y="705.3945"/><ellipse cx="755.12" cy="721.3945" fill="#7E57C2" rx="11" ry="11" style="stroke:#181818;stroke-width:1;"/><path d="M752.3075,727.3945 L755.5263,727.3945 C758.6044,727.3945 760.7138,725.6133 760.7138,721.8008 C760.7138,717.9883 758.6044,716.3164 755.37,716.3164 L752.3075,716.3164 L752.3075,727.3945 Z M754.8231,725.3789 L754.8231,718.332 L755.2294,718.332 C756.9638,718.332 758.1356,719.1445 758.1356,721.8008 C758.1356,724.457 756.9638,725.3789 755.2294,725.3789 L754.8231,725.3789 Z " fill="#000000"/><text fill="#000000" font-family="sans-serif" font-size="14" lengthAdjust="spacing" textLength="103.7695" x="769.12" y="726.1797">EvaluationResult</text><line style="stroke:#181818;stroke-width:0.5;" x1="741.12" x2="874.8895" y1="737.3945" y2="737.3945"/></g><!--class Evaluator--><g class="entity" data-entity="Evaluator" data-source-line="189" data-uid="ent0026" id="entity_Evaluator"><rect fill="#555555" fill-opacity="0.06667" height="40" rx="2.5" ry="2.5" style="stroke:#181818;stroke-width:0.5;" width="90.3994" x="739.8" y="569.3945"/><ellipse cx="754.8" cy="585.3945" fill="#ADD1B2" rx="11" ry="11" style="stroke:#181818;stroke-width:1;"/><path d="M750.8625,591.3945 L758.3781,591.3945 L758.3781,589.2852 L753.3781,589.2852 L753.3781,586.7383 L757.4719,586.7383 L757.4719,584.6445 L753.3781,584.6445 L753.3781,582.4258 L758.2063,582.4258 L758.2063,580.3164 L750.8625,580.3164 L750.8625,591.3945 Z " fill="#000000"/><text fill="#000000" font-family="sans-serif" font-size="14" lengthAdjust="spacing" textLength="58.3994" x="768.8" y="590.1797">Evaluator</text><line style="stroke:#181818;stroke-width:0.5;" x1="740.8" x2="829.1994" y1="601.3945" y2="601.3945"/></g><!--link ImpactOrganization to ImpactProject--><g class="link" data-entity-1="ImpactOrganization" data-entity-2="ImpactProject" data-source-line="143" data-uid="lnk9" id="link_ImpactOrganization_ImpactProject"><path codeLine="143" d="M171.42,177.6445 C192.83,198.8745 222.8185,228.6108 244.2585,249.8608" fill="none" id="ImpactOrganization-to-ImpactProject" style="stroke:#181818;stroke-width:1;"/><polygon fill="#181818" points="248.52,254.0845,244.9436,244.908,244.9688,250.5648,239.312,250.5899,248.52,254.0845" style="stroke:#181818;stroke-width:1;"/><text fill="#000000" font-family="sans-serif" font-size="13" lengthAdjust="spacing" textLength="57.0591" x="217.95" y="220.4551">facilitates</text><text fill="#000000" font-family="sans-serif" font-size="13" lengthAdjust="spacing" textLength="7.3062" x="168.9407" y="197.5427">1</text><text fill="#000000" font-family="sans-serif" font-size="13" lengthAdjust="spacing" textLength="5.5986" x="237.4234" y="243.3565">*</text></g><!--link ImpactProject to ImpactScope--><g class="link" data-entity-1="ImpactProject" data-entity-2="ImpactScope" data-source-line="144" data-uid="lnk10" id="link_ImpactProject_ImpactScope"><path codeLine="144" d="M271.59,294.8545 C276.14,319.5045 282.8519,355.814 287.3719,380.324" fill="none" id="ImpactProject-to-ImpactScope" style="stroke:#181818;stroke-width:1;"/><polygon fill="#181818" points="288.46,386.2245,290.7615,376.6483,287.5532,381.3074,282.8941,378.0992,288.46,386.2245" style="stroke:#181818;stroke-width:1;"/><text fill="#000000" font-family="sans-serif" font-size="13" lengthAdjust="spacing" textLength="40.8853" x="283.86" y="337.4551">divides</text><text fill="#000000" font-family="sans-serif" font-size="13" lengthAdjust="spacing" textLength="22.0073" x="293.299" y="352.6895">into</text><text fill="#000000" font-family="sans-serif" font-size="13" lengthAdjust="spacing" textLength="7.3062" x="264.6564" y="314.4608">1</text><text fill="#000000" font-family="sans-serif" font-size="13" lengthAdjust="spacing" textLength="5.5986" x="281.7737" y="375.1914">*</text></g><!--link ImpactScope to ImpactClaim--><g class="link" data-entity-1="ImpactScope" data-entity-2="ImpactClaim" data-source-line="145" data-uid="lnk11" id="link_ImpactScope_ImpactClaim"><path codeLine="145" d="M295.42,426.7645 C301.58,461.6045 313.4157,528.5161 319.5557,563.2561" fill="none" id="ImpactScope-to-ImpactClaim" style="stroke:#181818;stroke-width:1;"/><polygon fill="#181818" points="320.6,569.1645,322.9726,559.6057,319.7298,564.2408,315.0947,560.9981,320.6,569.1645" style="stroke:#181818;stroke-width:1;"/><text fill="#000000" font-family="sans-serif" font-size="13" lengthAdjust="spacing" textLength="49.772" x="304.26" y="469.4551">contains</text><text fill="#000000" font-family="sans-serif" font-size="13" lengthAdjust="spacing" textLength="7.3062" x="288.4397" y="446.3466">1</text><text fill="#000000" font-family="sans-serif" font-size="13" lengthAdjust="spacing" textLength="5.5986" x="313.9543" y="558.1138">*</text></g><!--reverse link ImpactClaim to ImpactContributor--><g class="link" data-entity-1="ImpactClaim" data-entity-2="ImpactContributor" data-source-line="146" data-uid="lnk13" id="link_ImpactClaim_ImpactContributor"><path codeLine="146" d="M287.9517,613.07 C249.3017,637.39 188.38,675.7145 147.36,701.5145" fill="none" id="ImpactClaim-backto-ImpactContributor" style="stroke:#181818;stroke-width:1;"/><polygon fill="#181818" points="293.03,609.8745,283.2823,611.2822,288.7981,612.5374,287.5429,618.0532,293.03,609.8745" style="stroke:#181818;stroke-width:1;"/><text fill="#000000" font-family="sans-serif" font-size="13" lengthAdjust="spacing" textLength="38.3081" x="243.84" y="659.9551">claims</text><text fill="#000000" font-family="sans-serif" font-size="13" lengthAdjust="spacing" textLength="5.5986" x="279.1149" y="629.4862">*</text><text fill="#000000" font-family="sans-serif" font-size="13" lengthAdjust="spacing" textLength="5.5986" x="147.0994" y="694.1787">*</text></g><!--link ImpactContributor to ImpactWork--><g class="link" data-entity-1="ImpactContributor" data-entity-2="ImpactWork" data-source-line="147" data-uid="lnk14" id="link_ImpactContributor_ImpactWork"><path codeLine="147" d="M191.5,725.3945 C228.87,725.3945 266.31,725.3945 299.72,725.3945" fill="none" id="ImpactContributor-to-ImpactWork" style="stroke:#181818;stroke-width:1;"/><polygon fill="#181818" points="305.72,725.3945,296.72,721.3945,300.72,725.3945,296.72,729.3945,305.72,725.3945" style="stroke:#181818;stroke-width:1;"/><polygon fill="#000000" points="218.82,714.0117,209.7749,711.0728,209.7749,716.9506,218.82,714.0117" style="stroke:#000000;stroke-width:1;"/><text fill="#000000" font-family="sans-serif" font-size="13" lengthAdjust="spacing" textLength="65.5396" x="222.82" y="718.4551">contributes</text><text fill="#000000" font-family="sans-serif" font-size="13" lengthAdjust="spacing" textLength="5.5986" x="192.4061" y="722.3743">*</text><text fill="#000000" font-family="sans-serif" font-size="13" lengthAdjust="spacing" textLength="5.5986" x="292.4248" y="721.3707">*</text></g><!--reverse link ImpactWork to ImpactContributor--><g class="link" data-entity-1="ImpactWork" data-entity-2="ImpactContributor" data-source-line="148" data-uid="lnk16" id="link_ImpactWork_ImpactContributor"><path codeLine="148" d="M300.2038,740.9446 C289.1238,743.3246 283.34,744.1545 272.32,745.3945 C245.96,748.3645 217.21,746.4545 191.37,742.8545" fill="none" id="ImpactWork-backto-ImpactContributor" style="stroke:#181818;stroke-width:1;"/><polygon fill="#181818" points="306.07,739.6845,296.4307,737.6638,301.1815,740.7346,298.1108,745.4854,306.07,739.6845" style="stroke:#181818;stroke-width:1;"/><polygon fill="#000000" points="235.3192,736.924,226.224,734.1442,226.3271,740.0212,235.3192,736.924" style="stroke:#000000;stroke-width:1;"/><text fill="#000000" font-family="sans-serif" font-size="13" lengthAdjust="spacing" textLength="32.2271" x="239.32" y="741.4551">gates</text><text fill="#000000" font-family="sans-serif" font-size="13" lengthAdjust="spacing" textLength="5.5986" x="292.4754" y="755.0996">*</text><text fill="#000000" font-family="sans-serif" font-size="13" lengthAdjust="spacing" textLength="7.3062" x="192.284" y="740.0253">1</text></g><!--link ImpactClaim to ImpactWork--><g class="link" data-entity-1="ImpactClaim" data-entity-2="ImpactWork" data-source-line="149" data-uid="lnk17" id="link_ImpactClaim_ImpactWork"><path codeLine="149" d="M318.77,609.6045 C315.14,626.3745 312.08,651.1245 319,671.3945 C323.29,683.9445 327.9212,691.3247 336.1412,700.6447" fill="none" id="ImpactClaim-to-ImpactWork" style="stroke:#181818;stroke-width:1;"/><polygon fill="#181818" points="340.11,705.1445,337.1568,695.7489,336.8027,701.3946,331.1569,701.0406,340.11,705.1445" style="stroke:#181818;stroke-width:1;"/><polygon fill="#000000" points="324.9371,660.4231,326.1287,650.9875,320.355,652.0892,324.9371,660.4231" style="stroke:#000000;stroke-width:1;"/><text fill="#000000" font-family="sans-serif" font-size="13" lengthAdjust="spacing" textLength="61.6421" x="333" y="659.9551">represents</text><text fill="#000000" font-family="sans-serif" font-size="13" lengthAdjust="spacing" textLength="5.5986" x="311.6797" y="629.4915">*</text><text fill="#000000" font-family="sans-serif" font-size="13" lengthAdjust="spacing" textLength="5.5986" x="328.6216" y="694.0879">*</text></g><!--reverse link ImpactOrganization to ImpactContributor--><g class="link" data-entity-1="ImpactOrganization" data-entity-2="ImpactContributor" data-source-line="150" data-uid="lnk19" id="link_ImpactOrganization_ImpactContributor"><path codeLine="150" d="M140.0773,183.3003 C130.0173,205.7603 118,238.6245 118,273.3945 C118,273.3945 118,273.3945 118,590.3945 C118,629.5345 114.99,675.0145 112.91,701.6545" fill="none" id="ImpactOrganization-backto-ImpactContributor" style="stroke:#181818;stroke-width:1;"/><polygon fill="#181818" points="142.53,177.8245,135.2005,184.4031,140.4861,182.3877,142.5016,187.6733,142.53,177.8245" style="stroke:#181818;stroke-width:1;"/><polygon fill="#000000" points="123.2617,401.5186,119.8534,410.3974,125.7232,410.7051,123.2617,401.5186" style="stroke:#000000;stroke-width:1;"/><text fill="#000000" font-family="sans-serif" font-size="13" lengthAdjust="spacing" textLength="60.8486" x="132" y="410.9551">belongs to</text><text fill="#000000" font-family="sans-serif" font-size="13" lengthAdjust="spacing" textLength="5.5986" x="134.3937" y="197.4228">*</text><text fill="#000000" font-family="sans-serif" font-size="13" lengthAdjust="spacing" textLength="5.5986" x="107.8002" y="694.1439">*</text></g><!--link Measurer to Measurement--><g class="link" data-entity-1="Measurer" data-entity-2="Measurement" data-source-line="178" data-uid="lnk23" id="link_Measurer_Measurement"><path codeLine="178" d="M559.05,609.8745 C562.88,634.2645 568.4811,670.0369 572.5211,695.8169" fill="none" id="Measurer-to-Measurement" style="stroke:#181818;stroke-width:1;"/><polygon fill="#181818" points="573.45,701.7445,576.0084,692.2338,572.6759,696.8048,568.1048,693.4723,573.45,701.7445" style="stroke:#181818;stroke-width:1;"/><text fill="#000000" font-family="sans-serif" font-size="13" lengthAdjust="spacing" textLength="31.5161" x="569.38" y="659.9551">takes</text><text fill="#000000" font-family="sans-serif" font-size="13" lengthAdjust="spacing" textLength="7.3062" x="551.9706" y="629.4862">1</text><text fill="#000000" font-family="sans-serif" font-size="13" lengthAdjust="spacing" textLength="5.5986" x="567.577" y="694.2471">*</text></g><!--link Evaluator to EvaluationResult--><g class="link" data-entity-1="Evaluator" data-entity-2="EvaluationResult" data-source-line="191" data-uid="lnk27" id="link_Evaluator_EvaluationResult"><path codeLine="191" d="M777.04,609.7245 C771.34,626.3545 765.68,650.8345 772,671.3945 C775.79,683.7245 779.8668,691.0203 787.2068,700.5003" fill="none" id="Evaluator-to-EvaluationResult" style="stroke:#181818;stroke-width:1;"/><polygon fill="#181818" points="790.88,705.2445,788.5329,695.6794,787.819,701.291,782.2073,700.5771,790.88,705.2445" style="stroke:#181818;stroke-width:1;"/><text fill="#000000" font-family="sans-serif" font-size="13" lengthAdjust="spacing" textLength="59.0967" x="773" y="659.9551">calculates</text><text fill="#000000" font-family="sans-serif" font-size="13" lengthAdjust="spacing" textLength="7.3062" x="767.0013" y="629.2959">1</text><text fill="#000000" font-family="sans-serif" font-size="13" lengthAdjust="spacing" textLength="5.5986" x="780.2031" y="694.2173">*</text></g><!--reverse link Evaluator to EvaluationResult--><g class="link" data-entity-1="Evaluator" data-entity-2="EvaluationResult" data-source-line="192" data-uid="lnk29" id="link_Evaluator_EvaluationResult"><path codeLine="192" d="M826.6688,613.2529 C837.4488,620.9229 843.05,627.3445 849,639.3945 C860.1,661.8745 843.29,687.8445 827.96,705.1045" fill="none" id="Evaluator-backto-EvaluationResult" style="stroke:#181818;stroke-width:1;"/><polygon fill="#181818" points="821.78,609.7745,826.7943,618.2514,825.854,612.6732,831.4322,611.7329,821.78,609.7745" style="stroke:#181818;stroke-width:1;"/><text fill="#000000" font-family="sans-serif" font-size="13" lengthAdjust="spacing" textLength="56.0181" x="853.58" y="652.4551">cascaded</text><text fill="#000000" font-family="sans-serif" font-size="13" lengthAdjust="spacing" textLength="11.667" x="875.7555" y="667.6895">to</text><text fill="#000000" font-family="sans-serif" font-size="13" lengthAdjust="spacing" textLength="5.5986" x="826.0733" y="629.3593">*</text><text fill="#000000" font-family="sans-serif" font-size="13" lengthAdjust="spacing" textLength="5.5986" x="827.9535" y="694.3821">*</text></g><!--link Impact to Measure--><!--link ImpactClaim to Measurer--><!--link ImpactClaim to Measurer--><g class="link" data-entity-1="ImpactClaim" data-entity-2="Measurer" data-source-line="265" data-uid="lnk34" id="link_ImpactClaim_Measurer"><path codeLine="265" d="M379.87,589.3945 C419.69,589.3945 466.58,589.3945 503.97,589.3945" fill="none" id="ImpactClaim-to-Measurer-1" style="stroke:#181818;stroke-width:1;"/><polygon fill="#181818" points="509.97,589.3945,500.97,585.3945,504.97,589.3945,500.97,593.3945,509.97,589.3945" style="stroke:#181818;stroke-width:1;"/><text fill="#000000" font-family="sans-serif" font-size="13" lengthAdjust="spacing" textLength="81.9482" x="404.2898" y="605.4551">submitted to /</text><text fill="#000000" font-family="sans-serif" font-size="13" lengthAdjust="spacing" textLength="88.5054" x="401.0112" y="620.6895">discovered by /</text><text fill="#000000" font-family="sans-serif" font-size="13" lengthAdjust="spacing" textLength="90.4478" x="400.04" y="635.9238">self-reported by</text><text fill="#000000" font-family="sans-serif" font-size="13" lengthAdjust="spacing" textLength="5.5986" x="387.7535" y="585.463">*</text><text fill="#000000" font-family="sans-serif" font-size="13" lengthAdjust="spacing" textLength="5.5986" x="525.9601" y="629.3086">*</text></g><!--link Impact to Evaluate--><!--link Measure to Evaluate--><!--link Measurement to ImpactClaim--><g class="link" data-entity-1="Measurement" data-entity-2="ImpactClaim" data-source-line="266" data-uid="lnk36" id="link_Measurement_ImpactClaim"><path codeLine="266" d="M542.28,701.5545 C506.62,678.1845 454.95,644.5545 445,639.3945 C423.77,628.3845 405.0819,620.2996 383.8719,612.0496" fill="none" id="Measurement-to-ImpactClaim" style="stroke:#181818;stroke-width:1;"/><polygon fill="#181818" points="378.28,609.8745,385.2178,616.865,382.9399,611.6871,388.1179,609.4092,378.28,609.8745" style="stroke:#181818;stroke-width:1;"/><text fill="#000000" font-family="sans-serif" font-size="13" lengthAdjust="spacing" textLength="57.2495" x="495.48" y="659.9551">measures</text><text fill="#000000" font-family="sans-serif" font-size="13" lengthAdjust="spacing" textLength="5.5986" x="537.764" y="694.2244">*</text><text fill="#000000" font-family="sans-serif" font-size="13" lengthAdjust="spacing" textLength="7.3062" x="384.9678" y="629.4862">1</text></g><!--link Measurement to ImpactContributor--><g class="link" data-entity-1="Measurement" data-entity-2="ImpactContributor" data-source-line="267" data-uid="lnk38" id="link_Measurement_ImpactContributor"><path codeLine="267" d="M544.69,701.4945 C518.81,683.9145 480.78,661.4845 443.5,651.8945 C395.05,639.4345 271.053,673.7725 188.703,699.7025" fill="none" id="Measurement-to-ImpactContributor" style="stroke:#181818;stroke-width:1;"/><polygon fill="#181818" points="182.98,701.5045,192.7658,702.6168,187.7492,700.0028,190.3631,694.9862,182.98,701.5045" style="stroke:#181818;stroke-width:1;"/><text fill="#000000" font-family="sans-serif" font-size="13" lengthAdjust="spacing" textLength="39.5586" x="403.5" y="659.9551">credits</text><text fill="#000000" font-family="sans-serif" font-size="13" lengthAdjust="spacing" textLength="5.5986" x="534.8098" y="694.1559">*</text><text fill="#000000" font-family="sans-serif" font-size="13" lengthAdjust="spacing" textLength="5.5986" x="187.7284" y="694.1673">*</text></g><!--link EvaluationResult to Measurement--><g class="link" data-entity-1="EvaluationResult" data-entity-2="Measurement" data-source-line="270" data-uid="lnk40" id="link_EvaluationResult_Measurement"><path codeLine="270" d="M739.73,725.3945 C709.45,725.3945 679.93,725.3945 649.81,725.3945" fill="none" id="EvaluationResult-to-Measurement" style="stroke:#181818;stroke-width:1;"/><polygon fill="#181818" points="643.81,725.3945,652.81,729.3945,648.81,725.3945,652.81,721.3945,643.81,725.3945" style="stroke:#181818;stroke-width:1;"/><text fill="#000000" font-family="sans-serif" font-size="13" lengthAdjust="spacing" textLength="55.5166" x="664.56" y="718.4551">evaluates</text><text fill="#000000" font-family="sans-serif" font-size="13" lengthAdjust="spacing" textLength="7.3062" x="724.8964" y="721.6476">1</text><text fill="#000000" font-family="sans-serif" font-size="13" lengthAdjust="spacing" textLength="5.5986" x="644.3523" y="722.3974">*</text></g><!--link Measurement to Evaluator--><g class="link" data-entity-1="Measurement" data-entity-2="Evaluator" data-source-line="271" data-uid="lnk41" id="link_Measurement_Evaluator"><path codeLine="271" d="M612.51,701.5145 C652.56,675.7145 711.9661,637.444 749.7161,613.124" fill="none" id="Measurement-to-Evaluator" style="stroke:#181818;stroke-width:1;"/><polygon fill="#181818" points="754.76,609.8745,745.0278,611.3861,750.5568,612.5824,749.3605,618.1113,754.76,609.8745" style="stroke:#181818;stroke-width:1;"/><text fill="#000000" font-family="sans-serif" font-size="13" lengthAdjust="spacing" textLength="49.7212" x="706.75" y="652.4551">ingested</text><text fill="#000000" font-family="sans-serif" font-size="13" lengthAdjust="spacing" textLength="13.4507" x="724.8853" y="667.6895">by</text><text fill="#000000" font-family="sans-serif" font-size="13" lengthAdjust="spacing" textLength="5.5986" x="612.167" y="694.1787">*</text><text fill="#000000" font-family="sans-serif" font-size="13" lengthAdjust="spacing" textLength="5.5986" x="741.0416" y="629.4862">*</text></g><!--SRC=[vHXjJziu-7j-XUbje-nQJTpff5F5a1Zjjjx1G9HjEZ64JEAqFX8xiXrOD_7Vxt6S5xjnsw19zsNb0ydp-7b_TNRHJYRmFCKemKkUAoHJeZ33GR3pxFpYxA_9yUNDXwFJ2NgDUgUJYwaYeWUeyVJetSNHwStbF-S5Qi8KLKjqGHAiA6ToGJCqfdWkS8hwaulndYPw-_7avEPoUdcYILpklw8U_FsA7CP1i8kEEOlfF1S5MtIF1SMt2P70RVR-xFFDs-daP3m3TizZd4ZItwiGawEP3qbZ5f4OVPhEfczE9ZVdHyT_7xsRp88TW596MWZKUyVlYM2OXMGmJJCSgi4fmJ8NP32vnqcE5HbSa0Si8h2Gi8Z6Mklt9Cc8G77Ema9lnL6u8E4TeZ427dTuJX2Lw9vA2jO4E_N1PrIU6_mdW-i_Ayz_m2dP2n3Q4KJbWg7dKecCo_wgnWFaKA2TrsYuNwXM2Ga2Y5L2a1MFG7i6zPyphlgsO_VsWWMD229f1j6DAKaYMPjv8DKo8OT1nCCy9KoXxw0UGeQvUTQ_jvof6Vr6qE-_kJ1DZMvv4XNWn-0ng5opXT7-dpL5c60fgqGpHmkGHVO6cCu5prbqp1Ckq2z_5B_z_P99JJD0M0Z-C42aIEO10c_OydVH2QI8OVAme8fOc5KXBJmN4H5-dBPh5QDjanclVAeV9wLM-dcC5JvUiVF_Lk_WLHd_O5VUKPPX7O84L53BZ20kr8ANQTLEQgkgUf1ZTU0jEEhhHhJNGrWY2shiDH52bml2nV8iFbvWDYSsvkpsNmB9Va_ac4WwPqJOs5d8Cp-ch6sTpZvqMV9GH3wiwGC-pAKe-2w30kYUGqDn1KKM4NOzF6nEweEkdkx1TPfwu2xX6XlQO9VCOvphVZIChECU5wyUz-g2Hf0w59INwsXy1ZP41LKx-gYttokezVyLjxeIjz1kbjw1mLQJjz2l94z3-rWtvdL5P-QNBhYgtWp4BIe3EnDppEWtCtQR9cDOsnEYHd6BOZmTDoH6gwRPEdBE1TVcFbr4H_wVkRWhe16qJ3CQ3A98WcvYCwFZHyieal5m0Vh0a4h9bC5M167ryMhsa8RVS5W_vZIgdoMi22ckNmM9RObQ4Ehp68NG8RG36dxaQqRDWdG9Xom6zppqWKEQwPIf8LWf8bLPfGsbtamyJlRwVDMxC9neYgwkldyY2nh268_1LoKAvecWjxa2I14gIcIn8F4qpHa5ZM5wv0fU3RoiE24Vhw-xnKlgq3gEQqM8V5K25rh_f45hLueTbqvkVe3I6eDU4fGzvmaDbnj4URfAqTKYtTPUzbQwmGZ5EAG9LP0CqgAly1vIKyyZ5D5xs5Zb5qQPuXQfmNi8JQgE8F-OmfJPucoNQ89XxgVK_pVIEMIw9G7LOI6nE4RM48z6RHyR4n8_n_cAluo66rGG91D4rhDddTcPI-w4KREv9GbdSrsk7SPGMT3s72f1PTurpSIQjjroaZPcJviYfQ0G51KNMvf2KGu_SHTtbs0Hs0kbjOMyTDOWI025xqYN1QIwCTkXhs2js3UBqWMHUT8n0RI3fS9fjjNAaZylpQnVtHxHqcA4UY5EmZpHfQO9UolhStdEwHSDyu9SXZWYqHTeKBqENYi_BrW-Cn1tRJEmur8rguUlTPOeA9pElM6k6_v7IL9cOxTmu1GkdMf3rleBTbtCokMNoge_sHSgotOdX2tDeMFN4RJehHD5y8IxSJT2WG7EuNehw3SdxNTH6JfKNASfcwEXANIYUxq43hfU4XAheU93GUSBLNvswx2pTsYdvJhlkoS6za3m7H2L6LsAroUemc_ZqwIpZul1rZowZv8kQbTZvWVrzh9vckADLkZ52xHHMjqWVU9QRSTtPxVAPPjUxdUPikhUva34vZEUYv04pfkfbAYibEhZXTxVu9JiSXLrjZDWTW2xZV-M7XMFSbkSh9pmNTQTrb3FjixSxNJoNELziuC_WNqJzfLxVliJWDNk6lPr13oV39m6PkBJCLkhQAt9rLO7Qg-TbgDxChzDAImhaRxTlVe2ek721ca7WDkb1aYIn4FOJBbG1QpdijslaiJTGqOZPvQ0fDGWPU1VQ_rCofmVwSOTKVM4XDZk7NjhSdBTisMGagziKGrzImLKfDx-OAdG_lfHdLlTnzfhDYSYw01NTNJODT7NAB3Q7zgnouV3jSbzKEusdiZxhrGc5bUC2ypkhXtEZdK7S9M8avn0VvHFsDkgZVEhqiqrWTjN0gtRVZDkpTTlB3eCZSp_0000]--></g></svg>