<svg xmlns="http://www.w3.org/2000/svg" xmlns:xlink="http://www.w3.org/1999/xlink" contentStyleType="text/css" data-diagram-type="CLASS" height="659px" preserveAspectRatio="none" style="width:640px;height:659px;background:#FFFFFF;" version="1.1" viewBox="0 0 640 659" width="640px" zoomAndPan="magnify"><title>MERIter Entity Relationship Diagram (ERD)</title><defs/><g><g class="title" data-source-line="19"><text fill="#000000" font-family="sans-serif" font-size="32" font-weight="bold" lengthAdjust="spacing" textLength="612.1719" x="10" y="39.6875">MERIter Entity Relationship Diagram (ERD)</text></g><!--cluster Impact--><g class="cluster" data-entity="Impact" data-source-line="87" data-uid="ent0002" id="cluster_Impact"><path d="M117.0859,65.3945 L174.1865,65.3945 A3.75,3.75 0 0 1 176.6865,67.8945 L183.6865,92.4883 L528.0859,92.4883 A2.5,2.5 0 0 1 530.5859,94.9883 L530.5859,649.8945 A2.5,2.5 0 0 1 528.0859,652.3945 L117.0859,652.3945 A2.5,2.5 0 0 1 114.5859,649.8945 L114.5859,67.8945 A2.5,2.5 0 0 1 117.0859,65.3945" fill="none" style="stroke:#000000;stroke-width:1.5;"/><line style="stroke:#000000;stroke-width:1.5;" x1="114.5859" x2="183.6865" y1="92.4883" y2="92.4883"/><text fill="#000000" font-family="sans-serif" font-size="18" font-weight="bold" lengthAdjust="spacing" textLength="56.1006" x="118.5859" y="84.0938">Impact</text></g><!--class ImpactOrganization--><g class="entity" data-entity="ImpactOrganization" data-source-line="88" data-uid="ent0003" id="entity_ImpactOrganization"><rect fill="#555555" fill-opacity="0.06667" height="40" rx="2.5" ry="2.5" style="stroke:#181818;stroke-width:0.5;" width="154.7188" x="168.2259" y="105.3945"/><ellipse cx="183.2259" cy="121.3945" fill="#ADD1B2" rx="11" ry="11" style="stroke:#181818;stroke-width:1;"/><path d="M179.2884,127.3945 L186.8041,127.3945 L186.8041,125.2852 L181.8041,125.2852 L181.8041,122.7383 L185.8978,122.7383 L185.8978,120.6445 L181.8041,120.6445 L181.8041,118.4258 L186.6322,118.4258 L186.6322,116.3164 L179.2884,116.3164 L179.2884,127.3945 Z " fill="#000000"/><text fill="#000000" font-family="sans-serif" font-size="14" lengthAdjust="spacing" textLength="122.7188" x="197.2259" y="126.1797">ImpactOrganization</text><line style="stroke:#181818;stroke-width:0.5;" x1="169.2259" x2="321.9447" y1="137.3945" y2="137.3945"/></g><!--class ImpactProject--><g class="entity" data-entity="ImpactProject" data-source-line="93" data-uid="ent0004" id="entity_ImpactProject"><rect fill="#555555" fill-opacity="0.06667" height="40" rx="2.5" ry="2.5" style="stroke:#181818;stroke-width:0.5;" width="119.7119" x="282.7259" y="222.3945"/><ellipse cx="297.7259" cy="238.3945" fill="#ADD1B2" rx="11" ry="11" style="stroke:#181818;stroke-width:1;"/><path d="M293.7884,244.3945 L301.3041,244.3945 L301.3041,242.2852 L296.3041,242.2852 L296.3041,239.7383 L300.3978,239.7383 L300.3978,237.6445 L296.3041,237.6445 L296.3041,235.4258 L301.1322,235.4258 L301.1322,233.3164 L293.7884,233.3164 L293.7884,244.3945 Z " fill="#000000"/><text fill="#000000" font-family="sans-serif" font-size="14" lengthAdjust="spacing" textLength="87.7119" x="311.7259" y="243.1797">ImpactProject</text><line style="stroke:#181818;stroke-width:0.5;" x1="283.7259" x2="401.4379" y1="254.3945" y2="254.3945"/></g><!--class ImpactWork--><g class="entity" data-entity="ImpactWork" data-source-line="98" data-uid="ent0005" id="entity_ImpactWork"><rect fill="#555555" fill-opacity="0.06667" height="40" rx="2.5" ry="2.5" style="stroke:#181818;stroke-width:0.5;" width="107.7148" x="406.7259" y="592.3945"/><ellipse cx="421.7259" cy="608.3945" fill="#ADD1B2" rx="11" ry="11" style="stroke:#181818;stroke-width:1;"/><path d="M417.7884,614.3945 L425.3041,614.3945 L425.3041,612.2852 L420.3041,612.2852 L420.3041,609.7383 L424.3978,609.7383 L424.3978,607.6445 L420.3041,607.6445 L420.3041,605.4258 L425.1322,605.4258 L425.1322,603.3164 L417.7884,603.3164 L417.7884,614.3945 Z " fill="#000000"/><text fill="#000000" font-family="sans-serif" font-size="14" lengthAdjust="spacing" textLength="75.7148" x="435.7259" y="613.1797">ImpactWork</text><line style="stroke:#181818;stroke-width:0.5;" x1="407.7259" x2="513.4408" y1="624.3945" y2="624.3945"/></g><!--class ImpactScope--><g class="entity" data-entity="ImpactScope" data-source-line="99" data-uid="ent0006" id="entity_ImpactScope"><rect fill="#555555" fill-opacity="0.06667" height="40" rx="2.5" ry="2.5" style="stroke:#181818;stroke-width:0.5;" width="114.3799" x="321.3959" y="354.3945"/><ellipse cx="336.3959" cy="370.3945" fill="#7E57C2" rx="11" ry="11" style="stroke:#181818;stroke-width:1;"/><path d="M333.5834,376.3945 L336.8022,376.3945 C339.8803,376.3945 341.9897,374.6133 341.9897,370.8008 C341.9897,366.9883 339.8803,365.3164 336.6459,365.3164 L333.5834,365.3164 L333.5834,376.3945 Z M336.0991,374.3789 L336.0991,367.332 L336.5053,367.332 C338.2397,367.332 339.4116,368.1445 339.4116,370.8008 C339.4116,373.457 338.2397,374.3789 336.5053,374.3789 L336.0991,374.3789 Z " fill="#000000"/><text fill="#000000" font-family="sans-serif" font-size="14" lengthAdjust="spacing" textLength="82.3799" x="350.3959" y="375.1797">ImpactScope</text><line style="stroke:#181818;stroke-width:0.5;" x1="322.3959" x2="434.7758" y1="386.3945" y2="386.3945"/></g><!--class ImpactClaim--><g class="entity" data-entity="ImpactClaim" data-source-line="117" data-uid="ent0007" id="entity_ImpactClaim"><a href="" target="_top" title="Vehicle for ImpactContributor entities to communicate outcomes to Measurers" xlink:actuate="onRequest" xlink:href="" xlink:show="new" xlink:title="Vehicle for ImpactContributor entities to communicate outcomes to Measurers" xlink:type="simple"><rect fill="#555555" fill-opacity="0.06667" height="40" rx="2.5" ry="2.5" style="stroke:#181818;stroke-width:0.5;" width="111.2832" x="322.9459" y="471.3945"/><ellipse cx="337.9459" cy="487.3945" fill="#7E57C2" rx="11" ry="11" style="stroke:#181818;stroke-width:1;"/><path d="M335.1334,493.3945 L338.3522,493.3945 C341.4303,493.3945 343.5397,491.6133 343.5397,487.8008 C343.5397,483.9883 341.4303,482.3164 338.1959,482.3164 L335.1334,482.3164 L335.1334,493.3945 Z M337.6491,491.3789 L337.6491,484.332 L338.0553,484.332 C339.7897,484.332 340.9616,485.1445 340.9616,487.8008 C340.9616,490.457 339.7897,491.3789 338.0553,491.3789 L337.6491,491.3789 Z " fill="#000000"/><text fill="#000000" font-family="sans-serif" font-size="14" lengthAdjust="spacing" textLength="79.2832" x="351.9459" y="492.1797">ImpactClaim</text><line style="stroke:#181818;stroke-width:0.5;" x1="323.9459" x2="433.2291" y1="503.3945" y2="503.3945"/></a></g><!--class ImpactContributor--><g class="entity" data-entity="ImpactContributor" data-source-line="137" data-uid="ent0008" id="entity_ImpactContributor"><rect fill="#555555" fill-opacity="0.06667" height="40" rx="2.5" ry="2.5" style="stroke:#181818;stroke-width:0.5;" width="145.9141" x="139.0859" y="592.3945"/><ellipse cx="154.0859" cy="608.3945" fill="#ADD1B2" rx="11" ry="11" style="stroke:#181818;stroke-width:1;"/><path d="M150.1484,614.3945 L157.6641,614.3945 L157.6641,612.2852 L152.6641,612.2852 L152.6641,609.7383 L156.7578,609.7383 L156.7578,607.6445 L152.6641,607.6445 L152.6641,605.4258 L157.4922,605.4258 L157.4922,603.3164 L150.1484,603.3164 L150.1484,614.3945 Z " fill="#000000"/><text fill="#000000" font-family="sans-serif" font-size="14" lengthAdjust="spacing" textLength="113.9141" x="168.0859" y="613.1797">ImpactContributor</text><line style="stroke:#181818;stroke-width:0.5;" x1="140.0859" x2="284" y1="624.3945" y2="624.3945"/></g><!--link ImpactOrganization to ImpactProject--><g class="link" data-entity-1="ImpactOrganization" data-entity-2="ImpactProject" data-source-line="143" data-uid="lnk9" id="link_ImpactOrganization_ImpactProject"><path codeLine="143" d="M261.8259,145.6445 C279.7259,166.8745 304.4967,196.2488 322.4267,217.4988" fill="none" id="ImpactOrganization-to-ImpactProject" style="stroke:#181818;stroke-width:1;"/><polygon fill="#181818" points="326.2959,222.0845,323.5492,212.6264,323.0715,218.2631,317.4349,217.7855,326.2959,222.0845" style="stroke:#181818;stroke-width:1;"/><text fill="#000000" font-family="sans-serif" font-size="13" lengthAdjust="spacing" textLength="57.0591" x="300.8959" y="188.4551">facilitates</text><text fill="#000000" font-family="sans-serif" font-size="13" lengthAdjust="spacing" textLength="7.3062" x="258.4523" y="165.5427">1</text><text fill="#000000" font-family="sans-serif" font-size="13" lengthAdjust="spacing" textLength="5.5986" x="316.0966" y="211.3565">*</text></g><!--link ImpactProject to ImpactScope--><g class="link" data-entity-1="ImpactProject" data-entity-2="ImpactScope" data-source-line="144" data-uid="lnk10" id="link_ImpactProject_ImpactScope"><path codeLine="144" d="M347.9759,262.8545 C354.8059,287.5045 364.8841,323.9323 371.6741,348.4423" fill="none" id="ImpactProject-to-ImpactScope" style="stroke:#181818;stroke-width:1;"/><polygon fill="#181818" points="373.2759,354.2245,374.728,344.4833,371.9411,349.406,367.0184,346.6191,373.2759,354.2245" style="stroke:#181818;stroke-width:1;"/><text fill="#000000" font-family="sans-serif" font-size="13" lengthAdjust="spacing" textLength="40.8853" x="365.8659" y="305.4551">divides</text><text fill="#000000" font-family="sans-serif" font-size="13" lengthAdjust="spacing" textLength="22.0073" x="375.3049" y="320.6895">into</text><text fill="#000000" font-family="sans-serif" font-size="13" lengthAdjust="spacing" textLength="7.3062" x="341.5261" y="282.4608">1</text><text fill="#000000" font-family="sans-serif" font-size="13" lengthAdjust="spacing" textLength="5.5986" x="366.0697" y="343.1914">*</text></g><!--link ImpactScope to ImpactClaim--><g class="link" data-entity-1="ImpactScope" data-entity-2="ImpactClaim" data-source-line="145" data-uid="lnk11" id="link_ImpactScope_ImpactClaim"><path codeLine="145" d="M378.5859,394.6445 C378.5859,415.8745 378.5859,443.8345 378.5859,465.0845" fill="none" id="ImpactScope-to-ImpactClaim" style="stroke:#181818;stroke-width:1;"/><polygon fill="#181818" points="378.5859,471.0845,382.5859,462.0845,378.5859,466.0845,374.5859,462.0845,378.5859,471.0845" style="stroke:#181818;stroke-width:1;"/><text fill="#000000" font-family="sans-serif" font-size="13" lengthAdjust="spacing" textLength="49.772" x="379.5859" y="437.4551">contains</text><text fill="#000000" font-family="sans-serif" font-size="13" lengthAdjust="spacing" textLength="7.3062" x="370.6446" y="414.5427">1</text><text fill="#000000" font-family="sans-serif" font-size="13" lengthAdjust="spacing" textLength="5.5986" x="372.9665" y="460.3565">*</text></g><!--reverse link ImpactClaim to ImpactContributor--><g class="link" data-entity-1="ImpactClaim" data-entity-2="ImpactContributor" data-source-line="146" data-uid="lnk13" id="link_ImpactClaim_ImpactContributor"><path codeLine="146" d="M346.4993,515.256 C317.0093,536.266 274.8859,566.2845 243.6359,588.5545" fill="none" id="ImpactClaim-backto-ImpactContributor" style="stroke:#181818;stroke-width:1;"/><polygon fill="#181818" points="351.3859,511.7745,341.735,513.739,347.3137,514.6758,346.3769,520.2545,351.3859,511.7745" style="stroke:#181818;stroke-width:1;"/><text fill="#000000" font-family="sans-serif" font-size="13" lengthAdjust="spacing" textLength="38.3081" x="306.0859" y="554.4551">claims</text><text fill="#000000" font-family="sans-serif" font-size="13" lengthAdjust="spacing" textLength="5.5986" x="338.4841" y="531.3593">*</text><text fill="#000000" font-family="sans-serif" font-size="13" lengthAdjust="spacing" textLength="5.5986" x="242.7692" y="581.2244">*</text></g><!--link ImpactContributor to ImpactWork--><g class="link" data-entity-1="ImpactContributor" data-entity-2="ImpactWork" data-source-line="147" data-uid="lnk14" id="link_ImpactContributor_ImpactWork"><path codeLine="147" d="M292.0859,612.3945 C329.4559,612.3945 366.8959,612.3945 400.3059,612.3945" fill="none" id="ImpactContributor-to-ImpactWork" style="stroke:#181818;stroke-width:1;"/><polygon fill="#181818" points="406.3059,612.3945,397.3059,608.3945,401.3059,612.3945,397.3059,616.3945,406.3059,612.3945" style="stroke:#181818;stroke-width:1;"/><polygon fill="#000000" points="319.4059,601.0117,310.3609,598.0728,310.3609,603.9506,319.4059,601.0117" style="stroke:#000000;stroke-width:1;"/><text fill="#000000" font-family="sans-serif" font-size="13" lengthAdjust="spacing" textLength="65.5396" x="323.4059" y="605.4551">contributes</text><text fill="#000000" font-family="sans-serif" font-size="13" lengthAdjust="spacing" textLength="5.5986" x="292.992" y="609.3743">*</text><text fill="#000000" font-family="sans-serif" font-size="13" lengthAdjust="spacing" textLength="5.5986" x="393.0107" y="608.3707">*</text></g><!--reverse link ImpactWork to ImpactContributor--><g class="link" data-entity-1="ImpactWork" data-entity-2="ImpactContributor" data-source-line="148" data-uid="lnk16" id="link_ImpactWork_ImpactContributor"><path codeLine="148" d="M400.7897,627.9446 C389.7097,630.3246 383.9259,631.1545 372.9059,632.3945 C346.5459,635.3645 317.7959,633.4545 291.9559,629.8545" fill="none" id="ImpactWork-backto-ImpactContributor" style="stroke:#181818;stroke-width:1;"/><polygon fill="#181818" points="406.6559,626.6845,397.0166,624.6638,401.7674,627.7346,398.6967,632.4854,406.6559,626.6845" style="stroke:#181818;stroke-width:1;"/><polygon fill="#000000" points="335.9052,623.924,326.8099,621.1442,326.913,627.0212,335.9052,623.924" style="stroke:#000000;stroke-width:1;"/><text fill="#000000" font-family="sans-serif" font-size="13" lengthAdjust="spacing" textLength="32.2271" x="339.9059" y="628.4551">gates</text><text fill="#000000" font-family="sans-serif" font-size="13" lengthAdjust="spacing" textLength="5.5986" x="393.0613" y="642.0996">*</text><text fill="#000000" font-family="sans-serif" font-size="13" lengthAdjust="spacing" textLength="7.3062" x="292.8699" y="627.0253">1</text></g><!--link ImpactClaim to ImpactWork--><g class="link" data-entity-1="ImpactClaim" data-entity-2="ImpactWork" data-source-line="149" data-uid="lnk17" id="link_ImpactClaim_ImpactWork"><path codeLine="149" d="M391.9459,511.7745 C407.1959,533.9045 428.5803,564.9547 443.8303,587.0747" fill="none" id="ImpactClaim-to-ImpactWork" style="stroke:#181818;stroke-width:1;"/><polygon fill="#181818" points="447.2359,592.0145,445.4207,582.3344,444.3979,587.898,438.8343,586.8752,447.2359,592.0145" style="stroke:#181818;stroke-width:1;"/><polygon fill="#000000" points="429.8829,554.129,427.1709,545.0133,422.3307,548.3483,429.8829,554.129" style="stroke:#000000;stroke-width:1;"/><text fill="#000000" font-family="sans-serif" font-size="13" lengthAdjust="spacing" textLength="61.6421" x="436.0459" y="554.4551">represents</text><text fill="#000000" font-family="sans-serif" font-size="13" lengthAdjust="spacing" textLength="5.5986" x="389.9446" y="531.3593">*</text><text fill="#000000" font-family="sans-serif" font-size="13" lengthAdjust="spacing" textLength="5.5986" x="437.863" y="581.2668">*</text></g><!--reverse link ImpactOrganization to ImpactContributor--><g class="link" data-entity-1="ImpactOrganization" data-entity-2="ImpactContributor" data-source-line="150" data-uid="lnk19" id="link_ImpactOrganization_ImpactContributor"><path codeLine="150" d="M233.6633,151.3003 C223.6033,173.7603 211.5859,206.6245 211.5859,241.3945 C211.5859,241.3945 211.5859,241.3945 211.5859,492.3945 C211.5859,525.8645 211.5859,564.6245 211.5859,588.5845" fill="none" id="ImpactOrganization-backto-ImpactContributor" style="stroke:#181818;stroke-width:1;"/><polygon fill="#181818" points="236.1159,145.8245,228.7864,152.4031,234.0721,150.3877,236.0875,155.6733,236.1159,145.8245" style="stroke:#181818;stroke-width:1;"/><polygon fill="#000000" points="216.8381,369.5181,213.4468,378.4035,219.3172,378.6998,216.8381,369.5181" style="stroke:#000000;stroke-width:1;"/><text fill="#000000" font-family="sans-serif" font-size="13" lengthAdjust="spacing" textLength="60.8486" x="225.5859" y="378.9551">belongs to</text><text fill="#000000" font-family="sans-serif" font-size="13" lengthAdjust="spacing" textLength="5.5986" x="227.9796" y="165.4228">*</text><text fill="#000000" font-family="sans-serif" font-size="13" lengthAdjust="spacing" textLength="5.5986" x="206.2122" y="581.2586">*</text></g><!--SRC=[vHXjJziu-7j-XUbje-nQJTpff5F5a1Zjjjx1G9HjEZ64JEAqFX8xiXrOD_7Vxt6S5xjnsw19zsNb0ydp-7b_TNRHJYRmFCKemKkUAoHJeZ33GR3pxFpYxA_9yUNDXwFJ2NgDUgUJYwaYeWUeyVJetSNHwStbF-S5Qi8KLKjqGHAiA6ToGJCqfdWkS8hwaulndYPw-_7avEPoUdcYILpklw8U_FsA7CP1i8kEEOlfF1S5MtIF1SMt2P70RVR-xFFDs-daP3m3TizZd4ZItwiGawEP3qbZ5f4OVPhEfczE9ZVdHyT_7xsRp88TW596MWZKUyVlYM2OXMGmJJCSgi4fmJ8NP32vnqcE5HbSa0Si8h2Gi8Z6Mklt9Cc8G77Ema9lnL6u8E4TeZ427dTuJX2Lw9vA2jO4E_N1PrIU6_mdW-i_Ayz_m2dP2n3Q4KJbWg7dKecCo_wgnWFaKA2TrsYuNwXM2Ga2Y5L2a1MFG7i6zPyphlgsO_VsWWMD229f1j6DAKaYMPjv8DKo8OT1nCCy9KoXxw0UGeQvUTQ_jvof6Vr6qE-_kJ1DZMvv4XNWn-0ng5opXT7-dpL5c60fgqGpHmkGHVO6cCu5prbqp1Ckq2z_5B_z_P99JJD0M0Z-C42aIEO10c_OydVH2QI8OVAme8fOc5KXBJmN4H5-dBPh5QDjanclVAeV9wLM-dcC5JvUiVF_Lk_WLHd_O5VUKPPX7O84L53BZ20kr8ANQTLEQgkgUf1ZTU0jEEhhHhJNGrWY2shiDH52bml2nV8iFbvWDYSsvkpsNmB9Va_ac4WwPqJOs5d8Cp-ch6sTpZvqMV9GH3wiwGC-pAKe-2w30kYUGqDn1KKM4NOzF6nEweEkdkx1TPfwu2xX6XlQO9VCOvphVZIChECU5wyUz-g2Hf0w59INwsXy1ZP41LKx-gYttokezVyLjxeIjz1kbjw1mLQJjz2l94z3-rWtvdL5P-QNBhYgtWp4BIe3EnDppEWtCtQR9cDOsnEYHd6BOZmTDoH6gwRPEdBE1TVcFbr4H_wVkRWhe16qJ3CQ3A98WcvYCwFZHyieal5m0Vh0a4h9bC5M167ryMhsa8RVS5W_vZIgdoMi22ckNmM9RObQ4Ehp68NG8RG36dxaQqRDWdG9Xom6zppqWKEQwPIf8LWf8bLPfGsbtamyJlRwVDMxC9neYgwkldyY2nh268_1LoKAvecWjxa2I14gIcIn8F4qpHa5ZM5wv0fU3RoiE24Vhw-xnKlgq3gEQqM8V5K25rh_f45hLueTbqvkVe3I6eDU4fGzvmaDbnj4URfAqTKYtTPUzbQwmGZ5EAG9LP0CqgAly1vIKyyZ5D5xs5Zb5qQPuXQfmNi8JQgE8F-OmfJPucoNQ89XxgVK_pVIEMIw9G7LOI6nE4RM48z6RHyR4n8_n_cAluo66rGG91D4rhDddTcPI-w4KREv9GbdSrsk7SPGMT3s72f1PTurpSIQjjroaZPcJviYfQ0G51KNMvf2KGu_SHTtbs0Hs0kbjOMyTDOWI025xqYN1QIwCTkXhs2js3UBqWMHUT8n0RI3fS9fjjNAaZylpQnVtHxHqcA4UY5EmZpHfQO9UolhStdEwHSDyu9SXZWYqHTeKBqENYi_BrW-Cn1tRJEmur8rguUlTPOeA9pElM6k6_v7IL9cOxTmu1GkdMf3rleBTbtCokMNoge_sHSgotOdX2tDeMFN4RJehHD5y8IxSJT2WG7EuNehw3SdxNTH6JfKNASfcwEXANIYUxq43hfU4XAheU93GUSBLNvswx2pTsYdvJhlkoS6za3m7H2L6LsAroUemc_ZqwIpZul1rZowZv8kQbTZvWVrzh9vckADLkZ52xHHMjqWVU9QRSTtPxVAPPjUxdUPikhUva34vZEUYv04pfkfbAYibEhZXTxVu9JiSXLrjZDWTW2xZV-M7XMFSbkSh9pmNTQTrb3FjixSxNJoNELziuC_WNqJzfLxVliJWDNk6lPr13oV39m6PkBJCLkhQAt9rLO7Qg-TbgDxChzDAImhaRxTlVe2ek721ca7WDkb1aYIn4FOJBbG1QpdijslaiJTGqOZPvQ0fDGWPU1VQ_rCofmVwSOTKVM4XDZk7NjhSdBTisMGagziKGrzImLKfDx-OAdG_lfHdLlTnzfhDYSYw01NTNJODT7NAB3Q7zgnouV3jSbzKEusdiZxhrGc5bUC2ypkhXtEZdK7S9M8avn0VvHFsDkgZVEhqiqrWTjN0gtRVZDkpTTlB3eCZSp_0000]--></g></svg>