<svg xmlns="http://www.w3.org/2000/svg" xmlns:xlink="http://www.w3.org/1999/xlink" contentStyleType="text/css" data-diagram-type="CLASS" height="285px" preserveAspectRatio="none" style="width:1005px;height:285px;background:#FFFFFF;" version="1.1" viewBox="0 0 1005 285" width="1005px" zoomAndPan="magnify"><title>MERIter Entity Relationship Diagram (ERD)</title><defs/><g><g class="title" data-source-line="19"><text fill="#000000" font-family="sans-serif" font-size="32" font-weight="bold" lengthAdjust="spacing" textLength="612.1719" x="189.8095" y="39.6875">MERIter Entity Relationship Diagram (ERD)</text></g><!--cluster Governance--><g class="cluster" data-entity="Governance" data-source-line="67" data-uid="ent0002" id="cluster_Governance"><path d="M8.5,65.3945 L164.4775,65.3945 A3.75,3.75 0 0 1 166.9775,67.8945 L173.9775,92.4883 L854.5,92.4883 A2.5,2.5 0 0 1 857,94.9883 L857,275.8945 A2.5,2.5 0 0 1 854.5,278.3945 L8.5,278.3945 A2.5,2.5 0 0 1 6,275.8945 L6,67.8945 A2.5,2.5 0 0 1 8.5,65.3945" fill="none" style="stroke:#666666;stroke-width:1.5;"/><line style="stroke:#666666;stroke-width:1.5;" x1="6" x2="173.9775" y1="92.4883" y2="92.4883"/><text fill="#000000" font-family="sans-serif" font-size="18" font-weight="bold" lengthAdjust="spacing" textLength="154.9775" x="10" y="84.0938">Governance (meta)</text></g><!--class ObjectivesDesigner--><g class="entity" data-entity="ObjectivesDesigner" data-source-line="68" data-uid="ent0003" id="entity_ObjectivesDesigner"><a href="" target="_top" title="The ObjectivesDesigner is responsible for defining high-level goals and objectives that orient the entire impact evaluation system." xlink:actuate="onRequest" xlink:href="" xlink:show="new" xlink:title="The ObjectivesDesigner is responsible for defining high-level goals and objectives that orient the entire impact evaluation system." xlink:type="simple"><rect fill="#555555" fill-opacity="0.06667" height="40" rx="2.5" ry="2.5" style="stroke:#181818;stroke-width:0.5;" width="152.0117" x="284.99" y="105.3945"/><ellipse cx="299.99" cy="121.3945" fill="#ADD1B2" rx="11" ry="11" style="stroke:#181818;stroke-width:1;"/><path d="M296.0525,127.3945 L303.5681,127.3945 L303.5681,125.2852 L298.5681,125.2852 L298.5681,122.7383 L302.6619,122.7383 L302.6619,120.6445 L298.5681,120.6445 L298.5681,118.4258 L303.3963,118.4258 L303.3963,116.3164 L296.0525,116.3164 L296.0525,127.3945 Z " fill="#000000"/><text fill="#000000" font-family="sans-serif" font-size="14" lengthAdjust="spacing" textLength="120.0117" x="313.99" y="126.1797">ObjectivesDesigner</text><line style="stroke:#181818;stroke-width:0.5;" x1="285.99" x2="436.0017" y1="137.3945" y2="137.3945"/></a></g><!--class ScopesDesigner--><g class="entity" data-entity="ScopesDesigner" data-source-line="69" data-uid="ent0004" id="entity_ScopesDesigner"><a href="" target="_top" title="The ScopesDesigner is responsible for defining and structuring impact scopes that divide projects into measurable units." xlink:actuate="onRequest" xlink:href="" xlink:show="new" xlink:title="The ScopesDesigner is responsible for defining and structuring impact scopes that divide projects into measurable units." xlink:type="simple"><rect fill="#555555" fill-opacity="0.06667" height="40" rx="2.5" ry="2.5" style="stroke:#181818;stroke-width:0.5;" width="133.1377" x="22.43" y="222.3945"/><ellipse cx="37.43" cy="238.3945" fill="#ADD1B2" rx="11" ry="11" style="stroke:#181818;stroke-width:1;"/><path d="M33.4925,244.3945 L41.0081,244.3945 L41.0081,242.2852 L36.0081,242.2852 L36.0081,239.7383 L40.1019,239.7383 L40.1019,237.6445 L36.0081,237.6445 L36.0081,235.4258 L40.8363,235.4258 L40.8363,233.3164 L33.4925,233.3164 L33.4925,244.3945 Z " fill="#000000"/><text fill="#000000" font-family="sans-serif" font-size="14" lengthAdjust="spacing" textLength="101.1377" x="51.43" y="243.1797">ScopesDesigner</text><line style="stroke:#181818;stroke-width:0.5;" x1="23.43" x2="154.5677" y1="254.3945" y2="254.3945"/></a></g><!--class MeasurementDesigner--><g class="entity" data-entity="MeasurementDesigner" data-source-line="70" data-uid="ent0005" id="entity_MeasurementDesigner"><a href="" target="_top" title="The MeasurementDesigner is responsible for designing measurement methodologies and configuring how measurements should be taken." xlink:actuate="onRequest" xlink:href="" xlink:show="new" xlink:title="The MeasurementDesigner is responsible for designing measurement methodologies and configuring how measurements should be taken." xlink:type="simple"><rect fill="#555555" fill-opacity="0.06667" height="40" rx="2.5" ry="2.5" style="stroke:#181818;stroke-width:0.5;" width="173.3877" x="190.31" y="222.3945"/><ellipse cx="205.31" cy="238.3945" fill="#ADD1B2" rx="11" ry="11" style="stroke:#181818;stroke-width:1;"/><path d="M201.3725,244.3945 L208.8881,244.3945 L208.8881,242.2852 L203.8881,242.2852 L203.8881,239.7383 L207.9819,239.7383 L207.9819,237.6445 L203.8881,237.6445 L203.8881,235.4258 L208.7163,235.4258 L208.7163,233.3164 L201.3725,233.3164 L201.3725,244.3945 Z " fill="#000000"/><text fill="#000000" font-family="sans-serif" font-size="14" lengthAdjust="spacing" textLength="141.3877" x="219.31" y="243.1797">MeasurementDesigner</text><line style="stroke:#181818;stroke-width:0.5;" x1="191.31" x2="362.6977" y1="254.3945" y2="254.3945"/></a></g><!--class EvaluationDesigner--><g class="entity" data-entity="EvaluationDesigner" data-source-line="71" data-uid="ent0006" id="entity_EvaluationDesigner"><a href="" target="_top" title="The EvaluationDesigner is responsible for designing evaluation criteria and methodologies for assessing measurements." xlink:actuate="onRequest" xlink:href="" xlink:show="new" xlink:title="The EvaluationDesigner is responsible for designing evaluation criteria and methodologies for assessing measurements." xlink:type="simple"><rect fill="#555555" fill-opacity="0.06667" height="40" rx="2.5" ry="2.5" style="stroke:#181818;stroke-width:0.5;" width="151.793" x="399.1" y="222.3945"/><ellipse cx="414.1" cy="238.3945" fill="#ADD1B2" rx="11" ry="11" style="stroke:#181818;stroke-width:1;"/><path d="M410.1625,244.3945 L417.6781,244.3945 L417.6781,242.2852 L412.6781,242.2852 L412.6781,239.7383 L416.7719,239.7383 L416.7719,237.6445 L412.6781,237.6445 L412.6781,235.4258 L417.5063,235.4258 L417.5063,233.3164 L410.1625,233.3164 L410.1625,244.3945 Z " fill="#000000"/><text fill="#000000" font-family="sans-serif" font-size="14" lengthAdjust="spacing" textLength="119.793" x="428.1" y="243.1797">EvaluationDesigner</text><line style="stroke:#181818;stroke-width:0.5;" x1="400.1" x2="549.893" y1="254.3945" y2="254.3945"/></a></g><!--class RewardDesigner--><g class="entity" data-entity="RewardDesigner" data-source-line="72" data-uid="ent0007" id="entity_RewardDesigner"><a href="" target="_top" title="The RewardDesigner is responsible for designing reward policies and distribution mechanisms for impact contributors." xlink:actuate="onRequest" xlink:href="" xlink:show="new" xlink:title="The RewardDesigner is responsible for designing reward policies and distribution mechanisms for impact contributors." xlink:type="simple"><rect fill="#555555" fill-opacity="0.06667" height="40" rx="2.5" ry="2.5" style="stroke:#181818;stroke-width:0.5;" width="133.8281" x="586.09" y="222.3945"/><ellipse cx="601.09" cy="238.3945" fill="#ADD1B2" rx="11" ry="11" style="stroke:#181818;stroke-width:1;"/><path d="M597.1525,244.3945 L604.6681,244.3945 L604.6681,242.2852 L599.6681,242.2852 L599.6681,239.7383 L603.7619,239.7383 L603.7619,237.6445 L599.6681,237.6445 L599.6681,235.4258 L604.4963,235.4258 L604.4963,233.3164 L597.1525,233.3164 L597.1525,244.3945 Z " fill="#000000"/><text fill="#000000" font-family="sans-serif" font-size="14" lengthAdjust="spacing" textLength="101.8281" x="615.09" y="243.1797">RewardDesigner</text><line style="stroke:#181818;stroke-width:0.5;" x1="587.09" x2="718.9181" y1="254.3945" y2="254.3945"/></a></g><!--class Treasury--><g class="entity" data-entity="Treasury" data-source-line="73" data-uid="ent0008" id="entity_Treasury"><a href="" target="_top" title="The Treasury is a pool of funds available for rewarding impact contributions and funding operations." xlink:actuate="onRequest" xlink:href="" xlink:show="new" xlink:title="The Treasury is a pool of funds available for rewarding impact contributions and funding operations." xlink:type="simple"><rect fill="#555555" fill-opacity="0.06667" height="40" rx="2.5" ry="2.5" style="stroke:#181818;stroke-width:0.5;" width="86.4482" x="754.78" y="222.3945"/><ellipse cx="769.78" cy="238.3945" fill="#ADD1B2" rx="11" ry="11" style="stroke:#181818;stroke-width:1;"/><path d="M765.8425,244.3945 L773.3581,244.3945 L773.3581,242.2852 L768.3581,242.2852 L768.3581,239.7383 L772.4519,239.7383 L772.4519,237.6445 L768.3581,237.6445 L768.3581,235.4258 L773.1863,235.4258 L773.1863,233.3164 L765.8425,233.3164 L765.8425,244.3945 Z " fill="#000000"/><text fill="#000000" font-family="sans-serif" font-size="14" lengthAdjust="spacing" textLength="54.4482" x="783.78" y="243.1797">Treasury</text><line style="stroke:#181818;stroke-width:0.5;" x1="755.78" x2="840.2282" y1="254.3945" y2="254.3945"/></a></g><!--class FundingSource--><g class="entity" data-entity="FundingSource" data-source-line="250" data-uid="ent0017" id="entity_FundingSource"><a href="" target="_top" title="The FundingSource is an external entity that provides funds to the treasury for rewarding impact." xlink:actuate="onRequest" xlink:href="" xlink:show="new" xlink:title="The FundingSource is an external entity that provides funds to the treasury for rewarding impact." xlink:type="simple"><rect fill="#555555" fill-opacity="0.06667" height="40" rx="2.5" ry="2.5" style="stroke:#181818;stroke-width:0.5;" width="125.5908" x="873.2" y="105.3945"/><ellipse cx="888.2" cy="121.3945" fill="#ADD1B2" rx="11" ry="11" style="stroke:#181818;stroke-width:1;"/><path d="M884.2625,127.3945 L891.7781,127.3945 L891.7781,125.2852 L886.7781,125.2852 L886.7781,122.7383 L890.8719,122.7383 L890.8719,120.6445 L886.7781,120.6445 L886.7781,118.4258 L891.6063,118.4258 L891.6063,116.3164 L884.2625,116.3164 L884.2625,127.3945 Z " fill="#000000"/><text fill="#000000" font-family="sans-serif" font-size="14" lengthAdjust="spacing" textLength="93.5908" x="902.2" y="126.1797">FundingSource</text><line style="stroke:#181818;stroke-width:0.5;" x1="874.2" x2="997.7908" y1="137.3945" y2="137.3945"/></a></g><!--link RewardDesigner to Treasury--><!--link ScopesDesigner to MeasurementDesigner--><!--link MeasurementDesigner to EvaluationDesigner--><!--link EvaluationDesigner to RewardDesigner--><!--link ObjectivesDesigner to ScopesDesigner--><g class="link" data-entity-1="ObjectivesDesigner" data-entity-2="ScopesDesigner" data-source-line="80" data-uid="lnk13" id="link_ObjectivesDesigner_ScopesDesigner"><path codeLine="80" d="M315.17,145.7745 C265.05,166.9645 190.7364,198.378 140.5464,219.598" fill="none" id="ObjectivesDesigner-to-ScopesDesigner" style="stroke:#0055A9;stroke-width:1;"/><polygon fill="#0055A9" points="135.02,221.9345,144.8672,222.114,139.6253,219.9874,141.7519,214.7455,135.02,221.9345" style="stroke:#0055A9;stroke-width:1;"/><text fill="#0055A9" font-family="sans-serif" font-size="13" lengthAdjust="spacing" textLength="40.0156" x="242.29" y="188.4551">orients</text><text fill="#0055A9" font-family="sans-serif" font-size="13" lengthAdjust="spacing" textLength="7.3062" x="294.9548" y="165.3593">1</text><text fill="#0055A9" font-family="sans-serif" font-size="13" lengthAdjust="spacing" textLength="7.3062" x="140.0221" y="211.1643">1</text></g><!--link ObjectivesDesigner to MeasurementDesigner--><g class="link" data-entity-1="ObjectivesDesigner" data-entity-2="MeasurementDesigner" data-source-line="81" data-uid="lnk14" id="link_ObjectivesDesigner_MeasurementDesigner"><path codeLine="81" d="M346.94,145.6445 C331.43,166.8745 310.1688,195.9892 294.6488,217.2392" fill="none" id="ObjectivesDesigner-to-MeasurementDesigner" style="stroke:#0055A9;stroke-width:1;"/><polygon fill="#0055A9" points="291.11,222.0845,299.6484,217.1758,294.059,218.0468,293.188,212.4574,291.11,222.0845" style="stroke:#0055A9;stroke-width:1;"/><text fill="#0055A9" font-family="sans-serif" font-size="13" lengthAdjust="spacing" textLength="40.0156" x="325.03" y="188.4551">orients</text><text fill="#0055A9" font-family="sans-serif" font-size="13" lengthAdjust="spacing" textLength="7.3062" x="335.0455" y="165.5427">1</text><text fill="#0055A9" font-family="sans-serif" font-size="13" lengthAdjust="spacing" textLength="7.3062" x="287.136" y="211.3565">1</text></g><!--link ObjectivesDesigner to EvaluationDesigner--><g class="link" data-entity-1="ObjectivesDesigner" data-entity-2="EvaluationDesigner" data-source-line="82" data-uid="lnk15" id="link_ObjectivesDesigner_EvaluationDesigner"><path codeLine="82" d="M380.08,145.6445 C401.12,166.8745 430.5654,196.5739 451.6354,217.8239" fill="none" id="ObjectivesDesigner-to-EvaluationDesigner" style="stroke:#0055A9;stroke-width:1;"/><polygon fill="#0055A9" points="455.86,222.0845,452.3636,212.8772,452.3395,218.534,446.6827,218.5099,455.86,222.0845" style="stroke:#0055A9;stroke-width:1;"/><text fill="#0055A9" font-family="sans-serif" font-size="13" lengthAdjust="spacing" textLength="40.0156" x="425.83" y="188.4551">orients</text><text fill="#0055A9" font-family="sans-serif" font-size="13" lengthAdjust="spacing" textLength="7.3062" x="377.5061" y="165.5427">1</text><text fill="#0055A9" font-family="sans-serif" font-size="13" lengthAdjust="spacing" textLength="7.3062" x="442.5365" y="211.3565">1</text></g><!--link ObjectivesDesigner to RewardDesigner--><g class="link" data-entity-1="ObjectivesDesigner" data-entity-2="RewardDesigner" data-source-line="83" data-uid="lnk16" id="link_ObjectivesDesigner_RewardDesigner"><path codeLine="83" d="M410.2,145.7745 C464,166.9645 544.1375,198.5155 598.0075,219.7355" fill="none" id="ObjectivesDesigner-to-RewardDesigner" style="stroke:#0055A9;stroke-width:1;"/><polygon fill="#0055A9" points="603.59,221.9345,596.6823,214.9143,598.9379,220.102,593.7502,222.3577,603.59,221.9345" style="stroke:#0055A9;stroke-width:1;"/><text fill="#0055A9" font-family="sans-serif" font-size="13" lengthAdjust="spacing" textLength="40.0156" x="525.48" y="188.4551">orients</text><text fill="#0055A9" font-family="sans-serif" font-size="13" lengthAdjust="spacing" textLength="7.3062" x="415.5241" y="165.3593">1</text><text fill="#0055A9" font-family="sans-serif" font-size="13" lengthAdjust="spacing" textLength="7.3062" x="581.751" y="211.1643">1</text></g><!--link FundingSource to Treasury--><g class="link" data-entity-1="FundingSource" data-entity-2="Treasury" data-source-line="251" data-uid="lnk18" id="link_FundingSource_Treasury"><path codeLine="251" d="M912.9,145.6445 C887.43,166.8745 851.2901,196.9943 825.7801,218.2443" fill="none" id="FundingSource-to-Treasury" style="stroke:#0055A9;stroke-width:1;"/><polygon fill="#0055A9" points="821.17,222.0845,830.6452,219.3976,825.0117,218.8843,825.525,213.2508,821.17,222.0845" style="stroke:#0055A9;stroke-width:1;"/><text fill="#0055A9" font-family="sans-serif" font-size="13" lengthAdjust="spacing" textLength="32.9063" x="876.26" y="188.4551">funds</text><text fill="#0055A9" font-family="sans-serif" font-size="13" lengthAdjust="spacing" textLength="5.5986" x="900.7855" y="165.5427">*</text><text fill="#0055A9" font-family="sans-serif" font-size="13" lengthAdjust="spacing" textLength="7.3062" x="819.7441" y="211.3565">1</text></g><!--SRC=[vHhzRziszdV_5OolNP8jlYuxz71dP0MonEryIvSWoLOSsgAW9Thc8ea2IILrX_plznv9IQJ4ECe6t2_BWCr-v7jytr_UBjaf9Ltbb6Hq8ofDLCuqBUXejFFiulByFxEJwqy_7x-TaU_9-EtiSgwP7CFHwVpupUNnsq_N_xqmHxD2SxqXbooZcej2hNb9JZbTIPgJlTdbwJuYlVxbxEpJzVpw3552wj-GCVpp3Ga8ZqQxv4GKIxwgf25BRgdaT94n1TIkVZn_z-drV7PsUWNadYzffjZUVdqmExwA7V9baR8b-NL-DV_XRFRfulZaf-CtiwlH3a1vmNe7PFn6t39Pq29X1_Eyf8a-UCkegYGxcDtIhAAQ7LooEofJa90LALyYrp-oh6IIBAiYCNnhGP8rIsu8NnAWSKDNZ715RhdY8CrefxduZAiBU_whFTjxvkx_J7EsFo9aHp9ToO8yLrgMGkrrEJuW0GRP-PvC3WrhzIEZ4TWgOyIpnmWrG_QU5qBl-OhTtn-jUSe8oqkmxfApB5MDc4TARpBsQfIAfCfPeSdlm1uXbhZzZ7-lHQ6l-1T6_l5T24DiiX1PQi3te_jHhPf721t-os7Wly_0R2SY4vByxP_c3-Wa6LMgTZzBm80yOZ_0KoifgY9ro2_Dt-6XHvfAAUuy7E-fRxzz-VButm5h_PFxzkK3mao4711GiI_KhaVrRiqryqwwFFREXKoPZ9-r7BKdg69LYjfG-77ckCBFfrJJauwQ_j_i7RrmJZNQLJUyA2bQC0CMzAPaH4Yz5ivN-v7YXUeO7BVn9WzEzZ2xxOy9LSI3MdcjXSZvuZS6SNBBr2bJV5L07Bz___lrciLE88Wb0-KLXWMo185C9k75YgpvQZt9s2tBo4f00YAqI8beQ12zfXf4uXWw6iZZ-nBoWiaoXDdiWab1RPHc-T_lFtxq-RnAHDddiGFTnX-o0qcaIY2Vu7Vti38KB7SflyNmBwL0hXNX1MIotEG_JCEaAhXMNSPSViIKqEKkTXHb4S-Gfxn5WCzW_HISPiMPLMRYYeFHDeIgTriHjHPLbf858vhUiABBvQpHRvV9oCbM7ZrB9HAS6KgKuIxa5t4WjfXI7Rbw-hFbfCjL1xgL8sdkab9aFAbrbNAmDLzKXi-S9MjQS9LRlfpbGPtsYf0zfgwbuNXJizDy1qOel2Go8fPOy5BuVajvHcksB3EUWpNFOADWU4Cql02EPmkzVTwytv5x8jz3HKfPyN7ogc72NEnuVd0nudS69-QF0MBV5mnUn4K2j91fAqWaUumFnsG2r_6_7VQdBZEe8RWnCPv482BFa_0xHcfnxvjkuQ6aRPigJDXrlhQGC2c3omcvEL-UWDl2bTe9GwXnnILK37Odv8tBO4n1K2uW2311eBFThJScL2I3168G0GtoBljSWeW0X1ItfcN92aXtwDjKQfvK6PN6SzbdtJgduyvoV2vN45DVR2Pm74PEaCkYnZGyBcd2CwwXbNGr0WgJOl351KoJVl4GAWMNlL3rIhPLjD_4DKV2u-DqVjgYM1krFKiWruLzFXIf1XgTAz0SN_845COrf-WdXF8ST0dI9H2akirv9Yz0uyhDBIVX7TThKBPjmbDNWlwON0E5UeSU4aXa85oPKWnVAveHuqQGao2DeJ2BJQ1tQxmLAp1fjTPoij3QR4qcJQ6_icseVT14VCY31TcKoXbq9f1Jwn8D3225jduliFM2WSXvZGQ56-UtETrgsqkxCRw6gTSX_E9v32j5iWQzcrVd41KICaYCLZk7jVGca-PZnTFciu8HAQVDLycM_elu4Da3VLX_4aLB3oANsxfn3PSy0hSYYO4JNc9sQY1KW_cqI-qj9avc4MUA-bRNjj17ypoqhGNPU6bDsfZPs5Q17arhXhTksPedheWw4gttMMz6sqEwmYwy1D_CSsZ8G6GWM6duQazTTP1giC5D_0MQxvaOqg2aXkc_gDNxASMtJcXvxy3OVrtbK08WQ5zWsyPNaFkpe2AudADi1ZAjBdfFDyVKXM5uA2EzKr250lrSO7kusI9TfxnEKgZsOVOFcuH8iJDD0kADlnxtSBswv-7Nvn5KcnwdRYnH7mgSHpnKUnv1jB4tDUcRyi9_pZSE8aogEARH_pQy0CqKaobvrHOCzW3oTDgtYHKXYrDSTVHbETp2WcGbZ0eTA_N5BaFqm8n8Pi4oKQmmempewbpEyTiw1t9-sYPChtcDZ8cF5CE4bcvwzNgG57CW5cWtXKcUuBIKKTVTrNE8CUdmsE6jkkTj_cgUUoHVckZ-2rV8S3dGtGWCI8pTSHUc-kuaZHuI6DUsqwuMjcrxysWpmtmT357WxxWp63A-r4jWtzDhMC_Lsp7hagagq_sDWuC_rW6QcGQbnsOLv2ihZHT1TuuKpjrLuTOytePYkBUZDobDy_9HaxPFXkA8Fs3KcjEkOT6EUw944MYMRVQ90Ccb9vWwg6qDkj2TjOmqMlKSeEKmA1OzEqp9EA4P3d_OuCFVk3F-ktj1uMY96tILq9Ib7w1IZGVua_ijmVCc2md7OGixSQo9pfB8WqVMHBL0tg88LEhoW28Bgi3FH17Hdz5mPxSKEDI3xcIHWePZImjjfJXkc0gby-3RmyHMX4qT9ZI7UKax6Lo2GpJBMtmHLg-YXeMCVM5B6erNa8VYoYrLwhrTryh-GSJCx3DBAbqB7sp_FA6zQjXT_ddRDy-XWdZf6MHAsd3nyBqR9b9ak3Ro19aIMkarD9LVWkoxIroS4FER0aeriMME8UCAAA0rCxRK4oqcag_MslsWEM3nDA29SJkfs59nvBTXiGko5cD83OazL9y_HgVD7J4gzhIXCRo16y9stTpzIRwZP9x6UCiL-UehilMrfax7dklb-DY2j_NSH_aAVvno8VxQBhwlH2MJPXKK0jswyBD6xCwKA8MPWzpQ7M8PGrtNc_dOyjr4TlY0YSZKHMIprfzQeaFsjhqnqTDJkDNkNOrksBsfCd9_-wuxc0D1i2EOekBhTVjhYNhCDxquYBqSfCEchHnCtG-XY29YpObu0ldMrJiB-lxktalnBVd66oAx_Y1fMryP6A6rvpmGdxsisnzmFKMFLRN8kNQJtOiFyBHACDJilXO0YcNB2Sp0Gce36uTa3sid2KU0wJGerl2IwqTh7-iEq74YBbodMAnIhf_W48zhnnzO0b-FjB6kcGFkkrYJMDVAyLSHZLqhwklFyjpBk5xZlDqHWGS6S_oheOx-00Djhdh8TjLayg1p7zNTqcZWyiRQudqX92rkFWQK0-cE22-MMSMW9gWd30RrsELAmZiXixGPlG9Wk_bf2uZ2oNOjifIv1OdzlmlShnbe7sR02rQm9TTaAKLkwagzUWI1JHK9dpA6h1xk2mtXHih_0G00]--></g></svg>