<svg xmlns="http://www.w3.org/2000/svg" xmlns:xlink="http://www.w3.org/1999/xlink" contentStyleType="text/css" data-diagram-type="CLASS" height="659px" preserveAspectRatio="none" style="width:640px;height:659px;background:#FFFFFF;" version="1.1" viewBox="0 0 640 659" width="640px" zoomAndPan="magnify"><title>MERIter Entity Relationship Diagram (ERD)</title><defs/><g><g class="title" data-source-line="19"><text fill="#000000" font-family="sans-serif" font-size="32" font-weight="bold" lengthAdjust="spacing" textLength="612.1719" x="10" y="39.6875">MERIter Entity Relationship Diagram (ERD)</text></g><!--cluster Impact--><g class="cluster" data-entity="Impact" data-source-line="88" data-uid="ent0002" id="cluster_Impact"><path d="M117.0859,65.3945 L174.1865,65.3945 A3.75,3.75 0 0 1 176.6865,67.8945 L183.6865,92.4883 L528.0859,92.4883 A2.5,2.5 0 0 1 530.5859,94.9883 L530.5859,649.8945 A2.5,2.5 0 0 1 528.0859,652.3945 L117.0859,652.3945 A2.5,2.5 0 0 1 114.5859,649.8945 L114.5859,67.8945 A2.5,2.5 0 0 1 117.0859,65.3945" fill="none" style="stroke:#666666;stroke-width:1.5;"/><line style="stroke:#666666;stroke-width:1.5;" x1="114.5859" x2="183.6865" y1="92.4883" y2="92.4883"/><text fill="#000000" font-family="sans-serif" font-size="18" font-weight="bold" lengthAdjust="spacing" textLength="56.1006" x="118.5859" y="84.0938">Impact</text></g><!--class TheoryOfChange--><g class="entity" data-entity="TheoryOfChange" data-source-line="89" data-uid="ent0003" id="entity_TheoryOfChange"><a href="" target="_top" title="The TheoryOfChange is a framework that describes how and why desired changes are expected to happen in a particular context." xlink:actuate="onRequest" xlink:href="" xlink:show="new" xlink:title="The TheoryOfChange is a framework that describes how and why desired changes are expected to happen in a particular context." xlink:type="simple"><rect fill="#555555" fill-opacity="0.06667" height="40" rx="2.5" ry="2.5" style="stroke:#181818;stroke-width:0.5;" width="136.7949" x="324.1859" y="105.3945"/><ellipse cx="339.1859" cy="121.3945" fill="#ADD1B2" rx="11" ry="11" style="stroke:#181818;stroke-width:1;"/><path d="M335.2484,127.3945 L342.7641,127.3945 L342.7641,125.2852 L337.7641,125.2852 L337.7641,122.7383 L341.8578,122.7383 L341.8578,120.6445 L337.7641,120.6445 L337.7641,118.4258 L342.5922,118.4258 L342.5922,116.3164 L335.2484,116.3164 L335.2484,127.3945 Z " fill="#000000"/><text fill="#000000" font-family="sans-serif" font-size="14" lengthAdjust="spacing" textLength="104.7949" x="353.1859" y="126.1797">TheoryOfChange</text><line style="stroke:#181818;stroke-width:0.5;" x1="325.1859" x2="459.9809" y1="137.3945" y2="137.3945"/></a></g><!--class ImpactOrganization--><g class="entity" data-entity="ImpactOrganization" data-source-line="91" data-uid="ent0004" id="entity_ImpactOrganization"><a href="" target="_top" title="The ImpactOrganization is an entity that facilitates and oversees impact projects and their contributors." xlink:actuate="onRequest" xlink:href="" xlink:show="new" xlink:title="The ImpactOrganization is an entity that facilitates and oversees impact projects and their contributors." xlink:type="simple"><rect fill="#555555" fill-opacity="0.06667" height="40" rx="2.5" ry="2.5" style="stroke:#181818;stroke-width:0.5;" width="154.7188" x="134.2259" y="105.3945"/><ellipse cx="149.2259" cy="121.3945" fill="#ADD1B2" rx="11" ry="11" style="stroke:#181818;stroke-width:1;"/><path d="M145.2884,127.3945 L152.8041,127.3945 L152.8041,125.2852 L147.8041,125.2852 L147.8041,122.7383 L151.8978,122.7383 L151.8978,120.6445 L147.8041,120.6445 L147.8041,118.4258 L152.6322,118.4258 L152.6322,116.3164 L145.2884,116.3164 L145.2884,127.3945 Z " fill="#000000"/><text fill="#000000" font-family="sans-serif" font-size="14" lengthAdjust="spacing" textLength="122.7188" x="163.2259" y="126.1797">ImpactOrganization</text><line style="stroke:#181818;stroke-width:0.5;" x1="135.2259" x2="287.9447" y1="137.3945" y2="137.3945"/></a></g><!--class ImpactProject--><g class="entity" data-entity="ImpactProject" data-source-line="96" data-uid="ent0005" id="entity_ImpactProject"><a href="" target="_top" title="The ImpactProject is a specific initiative aimed at creating measurable positive impact within defined scopes." xlink:actuate="onRequest" xlink:href="" xlink:show="new" xlink:title="The ImpactProject is a specific initiative aimed at creating measurable positive impact within defined scopes." xlink:type="simple"><rect fill="#555555" fill-opacity="0.06667" height="40" rx="2.5" ry="2.5" style="stroke:#181818;stroke-width:0.5;" width="119.7119" x="321.7259" y="222.3945"/><ellipse cx="336.7259" cy="238.3945" fill="#ADD1B2" rx="11" ry="11" style="stroke:#181818;stroke-width:1;"/><path d="M332.7884,244.3945 L340.3041,244.3945 L340.3041,242.2852 L335.3041,242.2852 L335.3041,239.7383 L339.3978,239.7383 L339.3978,237.6445 L335.3041,237.6445 L335.3041,235.4258 L340.1322,235.4258 L340.1322,233.3164 L332.7884,233.3164 L332.7884,244.3945 Z " fill="#000000"/><text fill="#000000" font-family="sans-serif" font-size="14" lengthAdjust="spacing" textLength="87.7119" x="350.7259" y="243.1797">ImpactProject</text><line style="stroke:#181818;stroke-width:0.5;" x1="322.7259" x2="440.4379" y1="254.3945" y2="254.3945"/></a></g><!--class ImpactWork--><g class="entity" data-entity="ImpactWork" data-source-line="101" data-uid="ent0006" id="entity_ImpactWork"><a href="" target="_top" title="The ImpactWork is the actual work performed by contributors that generates impact within a project." xlink:actuate="onRequest" xlink:href="" xlink:show="new" xlink:title="The ImpactWork is the actual work performed by contributors that generates impact within a project." xlink:type="simple"><rect fill="#555555" fill-opacity="0.06667" height="40" rx="2.5" ry="2.5" style="stroke:#181818;stroke-width:0.5;" width="107.7148" x="406.7259" y="592.3945"/><ellipse cx="421.7259" cy="608.3945" fill="#ADD1B2" rx="11" ry="11" style="stroke:#181818;stroke-width:1;"/><path d="M417.7884,614.3945 L425.3041,614.3945 L425.3041,612.2852 L420.3041,612.2852 L420.3041,609.7383 L424.3978,609.7383 L424.3978,607.6445 L420.3041,607.6445 L420.3041,605.4258 L425.1322,605.4258 L425.1322,603.3164 L417.7884,603.3164 L417.7884,614.3945 Z " fill="#000000"/><text fill="#000000" font-family="sans-serif" font-size="14" lengthAdjust="spacing" textLength="75.7148" x="435.7259" y="613.1797">ImpactWork</text><line style="stroke:#181818;stroke-width:0.5;" x1="407.7259" x2="513.4408" y1="624.3945" y2="624.3945"/></a></g><!--class ImpactScope--><g class="entity" data-entity="ImpactScope" data-source-line="102" data-uid="ent0007" id="entity_ImpactScope"><a href="" target="_top" title="The ImpactScope is a piece of structured data defining boundaries and timeframes for measuring impact within a project." xlink:actuate="onRequest" xlink:href="" xlink:show="new" xlink:title="The ImpactScope is a piece of structured data defining boundaries and timeframes for measuring impact within a project." xlink:type="simple"><rect fill="#555555" fill-opacity="0.06667" height="40" rx="2.5" ry="2.5" style="stroke:#181818;stroke-width:0.5;" width="114.3799" x="324.3959" y="354.3945"/><ellipse cx="339.3959" cy="370.3945" fill="#7E57C2" rx="11" ry="11" style="stroke:#181818;stroke-width:1;"/><path d="M336.5834,376.3945 L339.8022,376.3945 C342.8803,376.3945 344.9897,374.6133 344.9897,370.8008 C344.9897,366.9883 342.8803,365.3164 339.6459,365.3164 L336.5834,365.3164 L336.5834,376.3945 Z M339.0991,374.3789 L339.0991,367.332 L339.5053,367.332 C341.2397,367.332 342.4116,368.1445 342.4116,370.8008 C342.4116,373.457 341.2397,374.3789 339.5053,374.3789 L339.0991,374.3789 Z " fill="#000000"/><text fill="#000000" font-family="sans-serif" font-size="14" lengthAdjust="spacing" textLength="82.3799" x="353.3959" y="375.1797">ImpactScope</text><line style="stroke:#181818;stroke-width:0.5;" x1="325.3959" x2="437.7758" y1="386.3945" y2="386.3945"/></a></g><!--class ImpactClaim--><g class="entity" data-entity="ImpactClaim" data-source-line="120" data-uid="ent0008" id="entity_ImpactClaim"><a href="" target="_top" title="The ImpactClaim is a structured piece of data serving as a vehicle for ImpactContributor entities to group communicate outcomes to Measurers" xlink:actuate="onRequest" xlink:href="" xlink:show="new" xlink:title="The ImpactClaim is a structured piece of data serving as a vehicle for ImpactContributor entities to group communicate outcomes to Measurers" xlink:type="simple"><rect fill="#555555" fill-opacity="0.06667" height="40" rx="2.5" ry="2.5" style="stroke:#181818;stroke-width:0.5;" width="111.2832" x="325.9459" y="471.3945"/><ellipse cx="340.9459" cy="487.3945" fill="#7E57C2" rx="11" ry="11" style="stroke:#181818;stroke-width:1;"/><path d="M338.1334,493.3945 L341.3522,493.3945 C344.4303,493.3945 346.5397,491.6133 346.5397,487.8008 C346.5397,483.9883 344.4303,482.3164 341.1959,482.3164 L338.1334,482.3164 L338.1334,493.3945 Z M340.6491,491.3789 L340.6491,484.332 L341.0553,484.332 C342.7897,484.332 343.9616,485.1445 343.9616,487.8008 C343.9616,490.457 342.7897,491.3789 341.0553,491.3789 L340.6491,491.3789 Z " fill="#000000"/><text fill="#000000" font-family="sans-serif" font-size="14" lengthAdjust="spacing" textLength="79.2832" x="354.9459" y="492.1797">ImpactClaim</text><line style="stroke:#181818;stroke-width:0.5;" x1="326.9459" x2="436.2291" y1="503.3945" y2="503.3945"/></a></g><!--class ImpactContributor--><g class="entity" data-entity="ImpactContributor" data-source-line="140" data-uid="ent0009" id="entity_ImpactContributor"><a href="" target="_top" title="The ImpactContributor is a human and/or digital entity that performs work and claims impact within projects." xlink:actuate="onRequest" xlink:href="" xlink:show="new" xlink:title="The ImpactContributor is a human and/or digital entity that performs work and claims impact within projects." xlink:type="simple"><rect fill="#555555" fill-opacity="0.06667" height="40" rx="2.5" ry="2.5" style="stroke:#181818;stroke-width:0.5;" width="145.9141" x="139.0859" y="592.3945"/><ellipse cx="154.0859" cy="608.3945" fill="#ADD1B2" rx="11" ry="11" style="stroke:#181818;stroke-width:1;"/><path d="M150.1484,614.3945 L157.6641,614.3945 L157.6641,612.2852 L152.6641,612.2852 L152.6641,609.7383 L156.7578,609.7383 L156.7578,607.6445 L152.6641,607.6445 L152.6641,605.4258 L157.4922,605.4258 L157.4922,603.3164 L150.1484,603.3164 L150.1484,614.3945 Z " fill="#000000"/><text fill="#000000" font-family="sans-serif" font-size="14" lengthAdjust="spacing" textLength="113.9141" x="168.0859" y="613.1797">ImpactContributor</text><line style="stroke:#181818;stroke-width:0.5;" x1="140.0859" x2="284" y1="624.3945" y2="624.3945"/></a></g><!--link TheoryOfChange to ImpactProject--><g class="link" data-entity-1="TheoryOfChange" data-entity-2="ImpactProject" data-source-line="146" data-uid="lnk10" id="link_TheoryOfChange_ImpactProject"><path codeLine="146" d="M390.7459,145.6445 C388.7159,166.8745 386.0365,194.8617 384.0065,216.1117" fill="none" id="TheoryOfChange-to-ImpactProject" style="stroke:#0055A9;stroke-width:1;"/><polygon fill="#0055A9" points="383.4359,222.0845,388.2737,213.5057,383.9114,217.1072,380.3099,212.7449,383.4359,222.0845" style="stroke:#0055A9;stroke-width:1;"/><text fill="#0055A9" font-family="sans-serif" font-size="13" lengthAdjust="spacing" textLength="40.0156" x="388.7459" y="188.4551">orients</text></g><!--link ImpactOrganization to ImpactProject--><g class="link" data-entity-1="ImpactOrganization" data-entity-2="ImpactProject" data-source-line="147" data-uid="lnk11" id="link_ImpactOrganization_ImpactProject"><path codeLine="147" d="M240.0359,145.6445 C271.4259,166.8745 316.6459,197.4732 348.0659,218.7232" fill="none" id="ImpactOrganization-to-ImpactProject" style="stroke:#0055A9;stroke-width:1;"/><polygon fill="#0055A9" points="353.0359,222.0845,347.8218,213.7291,348.8942,219.2834,343.34,220.3559,353.0359,222.0845" style="stroke:#0055A9;stroke-width:1;"/><text fill="#0055A9" font-family="sans-serif" font-size="13" lengthAdjust="spacing" textLength="57.0591" x="307.7659" y="188.4551">facilitates</text><text fill="#0055A9" font-family="sans-serif" font-size="13" lengthAdjust="spacing" textLength="7.3062" x="240.0964" y="165.5427">1</text><text fill="#0055A9" font-family="sans-serif" font-size="13" lengthAdjust="spacing" textLength="5.5986" x="339.3884" y="211.3565">*</text></g><!--link ImpactProject to ImpactScope--><g class="link" data-entity-1="ImpactProject" data-entity-2="ImpactScope" data-source-line="148" data-uid="lnk12" id="link_ImpactProject_ImpactScope"><path codeLine="148" d="M381.5859,262.8545 C381.5859,287.5045 381.5859,323.7145 381.5859,348.2245" fill="none" id="ImpactProject-to-ImpactScope" style="stroke:#0055A9;stroke-width:1;"/><polygon fill="#0055A9" points="381.5859,354.2245,385.5859,345.2245,381.5859,349.2245,377.5859,345.2245,381.5859,354.2245" style="stroke:#0055A9;stroke-width:1;"/><text fill="#0055A9" font-family="sans-serif" font-size="13" lengthAdjust="spacing" textLength="40.8853" x="382.5859" y="305.4551">divides</text><text fill="#0055A9" font-family="sans-serif" font-size="13" lengthAdjust="spacing" textLength="22.0073" x="392.0249" y="320.6895">into</text><text fill="#0055A9" font-family="sans-serif" font-size="13" lengthAdjust="spacing" textLength="7.3062" x="373.6875" y="282.4608">1</text><text fill="#0055A9" font-family="sans-serif" font-size="13" lengthAdjust="spacing" textLength="5.5986" x="375.9395" y="343.1914">*</text></g><!--link ImpactScope to ImpactClaim--><g class="link" data-entity-1="ImpactScope" data-entity-2="ImpactClaim" data-source-line="149" data-uid="lnk13" id="link_ImpactScope_ImpactClaim"><path codeLine="149" d="M381.5859,394.6445 C381.5859,415.8745 381.5859,443.8345 381.5859,465.0845" fill="none" id="ImpactScope-to-ImpactClaim" style="stroke:#0055A9;stroke-width:1;"/><polygon fill="#0055A9" points="381.5859,471.0845,385.5859,462.0845,381.5859,466.0845,377.5859,462.0845,381.5859,471.0845" style="stroke:#0055A9;stroke-width:1;"/><text fill="#0055A9" font-family="sans-serif" font-size="13" lengthAdjust="spacing" textLength="49.772" x="382.5859" y="437.4551">contains</text><text fill="#0055A9" font-family="sans-serif" font-size="13" lengthAdjust="spacing" textLength="7.3062" x="373.6446" y="414.5427">1</text><text fill="#0055A9" font-family="sans-serif" font-size="13" lengthAdjust="spacing" textLength="5.5986" x="375.9665" y="460.3565">*</text></g><!--reverse link ImpactClaim to ImpactContributor--><g class="link" data-entity-1="ImpactClaim" data-entity-2="ImpactContributor" data-source-line="150" data-uid="lnk15" id="link_ImpactClaim_ImpactContributor"><path codeLine="150" d="M348.9808,515.2156 C318.9708,536.2256 276.0259,566.2845 244.2059,588.5545" fill="none" id="ImpactClaim-backto-ImpactContributor" style="stroke:#0055A9;stroke-width:1;"/><polygon fill="#0055A9" points="353.8959,511.7745,344.2291,513.6594,349.8,514.6421,348.8173,520.213,353.8959,511.7745" style="stroke:#0055A9;stroke-width:1;"/><text fill="#0055A9" font-family="sans-serif" font-size="13" lengthAdjust="spacing" textLength="38.3081" x="307.7659" y="554.4551">claims</text><text fill="#0055A9" font-family="sans-serif" font-size="13" lengthAdjust="spacing" textLength="5.5986" x="340.8624" y="531.3593">*</text><text fill="#0055A9" font-family="sans-serif" font-size="13" lengthAdjust="spacing" textLength="5.5986" x="243.4194" y="581.2244">*</text></g><!--link ImpactContributor to ImpactWork--><g class="link" data-entity-1="ImpactContributor" data-entity-2="ImpactWork" data-source-line="151" data-uid="lnk16" id="link_ImpactContributor_ImpactWork"><path codeLine="151" d="M292.0859,612.3945 C329.4559,612.3945 366.8959,612.3945 400.3059,612.3945" fill="none" id="ImpactContributor-to-ImpactWork" style="stroke:#0055A9;stroke-width:1;"/><polygon fill="#0055A9" points="406.3059,612.3945,397.3059,608.3945,401.3059,612.3945,397.3059,616.3945,406.3059,612.3945" style="stroke:#0055A9;stroke-width:1;"/><polygon fill="#0055A9" points="319.4059,601.0117,310.3609,598.0728,310.3609,603.9506,319.4059,601.0117" style="stroke:#0055A9;stroke-width:1;"/><text fill="#0055A9" font-family="sans-serif" font-size="13" lengthAdjust="spacing" textLength="65.5396" x="323.4059" y="605.4551">contributes</text><text fill="#0055A9" font-family="sans-serif" font-size="13" lengthAdjust="spacing" textLength="5.5986" x="292.992" y="609.3743">*</text><text fill="#0055A9" font-family="sans-serif" font-size="13" lengthAdjust="spacing" textLength="5.5986" x="393.0107" y="608.3707">*</text></g><!--reverse link ImpactWork to ImpactContributor--><g class="link" data-entity-1="ImpactWork" data-entity-2="ImpactContributor" data-source-line="152" data-uid="lnk18" id="link_ImpactWork_ImpactContributor"><path codeLine="152" d="M400.7897,627.9446 C389.7097,630.3246 383.9259,631.1545 372.9059,632.3945 C346.5459,635.3645 317.7959,633.4545 291.9559,629.8545" fill="none" id="ImpactWork-backto-ImpactContributor" style="stroke:#0055A9;stroke-width:1;"/><polygon fill="#0055A9" points="406.6559,626.6845,397.0166,624.6638,401.7674,627.7346,398.6967,632.4854,406.6559,626.6845" style="stroke:#0055A9;stroke-width:1;"/><polygon fill="#0055A9" points="335.9052,623.924,326.8099,621.1442,326.913,627.0212,335.9052,623.924" style="stroke:#0055A9;stroke-width:1;"/><text fill="#0055A9" font-family="sans-serif" font-size="13" lengthAdjust="spacing" textLength="32.2271" x="339.9059" y="628.4551">gates</text><text fill="#0055A9" font-family="sans-serif" font-size="13" lengthAdjust="spacing" textLength="5.5986" x="393.0613" y="642.0996">*</text><text fill="#0055A9" font-family="sans-serif" font-size="13" lengthAdjust="spacing" textLength="7.3062" x="292.8699" y="627.0253">1</text></g><!--link ImpactClaim to ImpactWork--><g class="link" data-entity-1="ImpactClaim" data-entity-2="ImpactWork" data-source-line="153" data-uid="lnk19" id="link_ImpactClaim_ImpactWork"><path codeLine="153" d="M394.4559,511.7745 C409.1459,533.9045 429.7166,564.8963 444.4066,587.0163" fill="none" id="ImpactClaim-to-ImpactWork" style="stroke:#0055A9;stroke-width:1;"/><polygon fill="#0055A9" points="447.7259,592.0145,446.0791,582.3043,444.9598,587.8494,439.4148,586.7301,447.7259,592.0145" style="stroke:#0055A9;stroke-width:1;"/><polygon fill="#0055A9" points="431.2214,554.1773,428.6672,545.0162,423.7702,548.2671,431.2214,554.1773" style="stroke:#0055A9;stroke-width:1;"/><text fill="#0055A9" font-family="sans-serif" font-size="13" lengthAdjust="spacing" textLength="61.6421" x="437.4559" y="554.4551">represents</text><text fill="#0055A9" font-family="sans-serif" font-size="13" lengthAdjust="spacing" textLength="5.5986" x="392.3229" y="531.3593">*</text><text fill="#0055A9" font-family="sans-serif" font-size="13" lengthAdjust="spacing" textLength="5.5986" x="438.4908" y="581.2668">*</text></g><!--reverse link ImpactOrganization to ImpactContributor--><g class="link" data-entity-1="ImpactOrganization" data-entity-2="ImpactContributor" data-source-line="154" data-uid="lnk21" id="link_ImpactOrganization_ImpactContributor"><path codeLine="154" d="M211.5859,151.5245 C211.5859,174.3445 211.5859,207.6545 211.5859,241.3945 C211.5859,241.3945 211.5859,241.3945 211.5859,492.3945 C211.5859,525.8645 211.5859,564.6245 211.5859,588.5845" fill="none" id="ImpactOrganization-backto-ImpactContributor" style="stroke:#0055A9;stroke-width:1;"/><polygon fill="#0055A9" points="211.5859,145.5245,207.5859,154.5245,211.5859,150.5245,215.5859,154.5245,211.5859,145.5245" style="stroke:#0055A9;stroke-width:1;"/><polygon fill="#0055A9" points="216.5859,369.5117,213.647,378.5568,219.5249,378.5568,216.5859,369.5117" style="stroke:#0055A9;stroke-width:1;"/><text fill="#0055A9" font-family="sans-serif" font-size="13" lengthAdjust="spacing" textLength="60.8486" x="225.5859" y="378.9551">belongs to</text><text fill="#0055A9" font-family="sans-serif" font-size="13" lengthAdjust="spacing" textLength="5.5986" x="205.9672" y="165.389">*</text><text fill="#0055A9" font-family="sans-serif" font-size="13" lengthAdjust="spacing" textLength="5.5986" x="206.2122" y="581.2586">*</text></g><!--SRC=[vHhzRziszdV_5OolNP8jlYuxz71dP0MonEryIvSWoLOSsgAW9Thc8ea2IILrX_plznv9IQJ4ECe6t2_BWCr-v7jytr_UBjaf9Ltbb6Hq8ofDLCuqBUXejFFiulByFxEJwqy_7x-TaU_9-EtiSgwP7CFHwVpupUNnsq_N_xqmHxD2SxqXbooZcej2hNb9JZbTIPgJlTdbwJuYlVxbxEpJzVpw3552wj-GCVpp3Ga8ZqQxv4GKIxwgf25BRgdaT94n1TIkVZn_z-drV7PsUWNadYzffjZUVdqmExwA7V9baR8b-NL-DV_XRFRfulZaf-CtiwlH3a1vmNe7PFn6t39Pq29X1_Eyf8a-UCkegYGxcDtIhAAQ7LooEofJa90LALyYrp-oh6IIBAiYCNnhGP8rIsu8NnAWSKDNZ715RhdY8CrefxduZAiBU_whFTjxvkx_J7EsFo9aHp9ToO8yLrgMGkrrEJuW0GRP-PvC3WrhzIEZ4TWgOyIpnmWrG_QU5qBl-OhTtn-jUSe8oqkmxfApB5MDc4TARpBsQfIAfCfPeSdlm1uXbhZzZ7-lHQ6l-1T6_l5T24DiiX1PQi3te_jHhPf721t-os7Wly_0R2SY4vByxP_c3-Wa6LMgTZzBm80yOZ_0KoifgY9ro2_Dt-6XHvfAAUuy7E-fRxzz-VButm5h_PFxzkK3mao4711GiI_KhaVrRiqryqwwFFREXKoPZ9-r7BKdg69LYjfG-77ckCBFfrJJauwQ_j_i7RrmJZNQLJUyA2bQC0CMzAPaH4Yz5ivN-v7YXUeO7BVn9WzEzZ2xxOy9LSI3MdcjXSZvuZS6SNBBr2bJV5L07Bz___lrciLE88Wb0-KLXWMo185C9k75YgpvQZt9s2tBo4f00YAqI8beQ12zfXf4uXWw6iZZ-nBoWiaoXDdiWab1RPHc-T_lFtxq-RnAHDddiGFTnX-o0qcaIY2Vu7Vti38KB7SflyNmBwL0hXNX1MIotEG_JCEaAhXMNSPSViIKqEKkTXHb4S-Gfxn5WCzW_HISPiMPLMRYYeFHDeIgTriHjHPLbf858vhUiABBvQpHRvV9oCbM7ZrB9HAS6KgKuIxa5t4WjfXI7Rbw-hFbfCjL1xgL8sdkab9aFAbrbNAmDLzKXi-S9MjQS9LRlfpbGPtsYf0zfgwbuNXJizDy1qOel2Go8fPOy5BuVajvHcksB3EUWpNFOADWU4Cql02EPmkzVTwytv5x8jz3HKfPyN7ogc72NEnuVd0nudS69-QF0MBV5mnUn4K2j91fAqWaUumFnsG2r_6_7VQdBZEe8RWnCPv482BFa_0xHcfnxvjkuQ6aRPigJDXrlhQGC2c3omcvEL-UWDl2bTe9GwXnnILK37Odv8tBO4n1K2uW2311eBFThJScL2I3168G0GtoBljSWeW0X1ItfcN92aXtwDjKQfvK6PN6SzbdtJgduyvoV2vN45DVR2Pm74PEaCkYnZGyBcd2CwwXbNGr0WgJOl351KoJVl4GAWMNlL3rIhPLjD_4DKV2u-DqVjgYM1krFKiWruLzFXIf1XgTAz0SN_845COrf-WdXF8ST0dI9H2akirv9Yz0uyhDBIVX7TThKBPjmbDNWlwON0E5UeSU4aXa85oPKWnVAveHuqQGao2DeJ2BJQ1tQxmLAp1fjTPoij3QR4qcJQ6_icseVT14VCY31TcKoXbq9f1Jwn8D3225jduliFM2WSXvZGQ56-UtETrgsqkxCRw6gTSX_E9v32j5iWQzcrVd41KICaYCLZk7jVGca-PZnTFciu8HAQVDLycM_elu4Da3VLX_4aLB3oANsxfn3PSy0hSYYO4JNc9sQY1KW_cqI-qj9avc4MUA-bRNjj17ypoqhGNPU6bDsfZPs5Q17arhXhTksPedheWw4gttMMz6sqEwmYwy1D_CSsZ8G6GWM6duQazTTP1giC5D_0MQxvaOqg2aXkc_gDNxASMtJcXvxy3OVrtbK08WQ5zWsyPNaFkpe2AudADi1ZAjBdfFDyVKXM5uA2EzKr250lrSO7kusI9TfxnEKgZsOVOFcuH8iJDD0kADlnxtSBswv-7Nvn5KcnwdRYnH7mgSHpnKUnv1jB4tDUcRyi9_pZSE8aogEARH_pQy0CqKaobvrHOCzW3oTDgtYHKXYrDSTVHbETp2WcGbZ0eTA_N5BaFqm8n8Pi4oKQmmempewbpEyTiw1t9-sYPChtcDZ8cF5CE4bcvwzNgG57CW5cWtXKcUuBIKKTVTrNE8CUdmsE6jkkTj_cgUUoHVckZ-2rV8S3dGtGWCI8pTSHUc-kuaZHuI6DUsqwuMjcrxysWpmtmT357WxxWp63A-r4jWtzDhMC_Lsp7hagagq_sDWuC_rW6QcGQbnsOLv2ihZHT1TuuKpjrLuTOytePYkBUZDobDy_9HaxPFXkA8Fs3KcjEkOT6EUw944MYMRVQ90Ccb9vWwg6qDkj2TjOmqMlKSeEKmA1OzEqp9EA4P3d_OuCFVk3F-ktj1uMY96tILq9Ib7w1IZGVua_ijmVCc2md7OGixSQo9pfB8WqVMHBL0tg88LEhoW28Bgi3FH17Hdz5mPxSKEDI3xcIHWePZImjjfJXkc0gby-3RmyHMX4qT9ZI7UKax6Lo2GpJBMtmHLg-YXeMCVM5B6erNa8VYoYrLwhrTryh-GSJCx3DBAbqB7sp_FA6zQjXT_ddRDy-XWdZf6MHAsd3nyBqR9b9ak3Ro19aIMkarD9LVWkoxIroS4FER0aeriMME8UCAAA0rCxRK4oqcag_MslsWEM3nDA29SJkfs59nvBTXiGko5cD83OazL9y_HgVD7J4gzhIXCRo16y9stTpzIRwZP9x6UCiL-UehilMrfax7dklb-DY2j_NSH_aAVvno8VxQBhwlH2MJPXKK0jswyBD6xCwKA8MPWzpQ7M8PGrtNc_dOyjr4TlY0YSZKHMIprfzQeaFsjhqnqTDJkDNkNOrksBsfCd9_-wuxc0D1i2EOekBhTVjhYNhCDxquYBqSfCEchHnCtG-XY29YpObu0ldMrJiB-lxktalnBVd66oAx_Y1fMryP6A6rvpmGdxsisnzmFKMFLRN8kNQJtOiFyBHACDJilXO0YcNB2Sp0Gce36uTa3sid2KU0wJGerl2IwqTh7-iEq74YBbodMAnIhf_W48zhnnzO0b-FjB6kcGFkkrYJMDVAyLSHZLqhwklFyjpBk5xZlDqHWGS6S_oheOx-00Djhdh8TjLayg1p7zNTqcZWyiRQudqX92rkFWQK0-cE22-MMSMW9gWd30RrsELAmZiXixGPlG9Wk_bf2uZ2oNOjifIv1OdzlmlShnbe7sR02rQm9TTaAKLkwagzUWI1JHK9dpA6h1xk2mtXHih_0G00]--></g></svg>