<svg xmlns="http://www.w3.org/2000/svg" xmlns:xlink="http://www.w3.org/1999/xlink" contentStyleType="text/css" data-diagram-type="CLASS" height="830px" preserveAspectRatio="none" style="width:756px;height:830px;background:#FFFFFF;" version="1.1" viewBox="0 0 756 830" width="756px" zoomAndPan="magnify"><title>MERIter: Impact Entity Relationship Diagram (ERD)</title><defs/><g><g class="title" data-source-line="27"><text fill="#000000" font-family="sans-serif" font-size="32" font-weight="bold" lengthAdjust="spacing" textLength="728.9063" x="10" y="39.6875">MERIter: Impact Entity Relationship Diagram (ERD)</text></g><!--cluster Impact--><g class="cluster" data-entity="Impact" data-source-line="96" data-uid="ent0002" id="cluster_Impact"><path d="M175.4531,65.3945 L232.5537,65.3945 A3.75,3.75 0 0 1 235.0537,67.8945 L242.0537,92.4883 L586.4531,92.4883 A2.5,2.5 0 0 1 588.9531,94.9883 L588.9531,820.7345 A2.5,2.5 0 0 1 586.4531,823.2345 L175.4531,823.2345 A2.5,2.5 0 0 1 172.9531,820.7345 L172.9531,67.8945 A2.5,2.5 0 0 1 175.4531,65.3945" fill="none" style="stroke:#666666;stroke-width:1.5;"/><line style="stroke:#666666;stroke-width:1.5;" x1="172.9531" x2="242.0537" y1="92.4883" y2="92.4883"/><text fill="#000000" font-family="sans-serif" font-size="18" font-weight="bold" lengthAdjust="spacing" textLength="56.1006" x="176.9531" y="84.0938">Impact</text></g><!--class TheoryOfChange--><g class="entity" data-entity="TheoryOfChange" data-source-line="97" data-uid="ent0003" id="entity_TheoryOfChange"><a href="" target="_top" title="The TheoryOfChange is a framework that describes how and why desired changes are expected to happen in a particular context." xlink:actuate="onRequest" xlink:href="" xlink:show="new" xlink:title="The TheoryOfChange is a framework that describes how and why desired changes are expected to happen in a particular context." xlink:type="simple"><rect fill="#555555" fill-opacity="0.06667" height="48" rx="2.5" ry="2.5" style="stroke:#181818;stroke-width:0.5;" width="136.7949" x="382.5531" y="113.5945"/><ellipse cx="397.5531" cy="129.5945" fill="#ADD1B2" rx="11" ry="11" style="stroke:#181818;stroke-width:1;"/><path d="M393.6156,135.5945 L401.1313,135.5945 L401.1313,133.4852 L396.1313,133.4852 L396.1313,130.9383 L400.225,130.9383 L400.225,128.8445 L396.1313,128.8445 L396.1313,126.6258 L400.9594,126.6258 L400.9594,124.5164 L393.6156,124.5164 L393.6156,135.5945 Z " fill="#000000"/><text fill="#000000" font-family="sans-serif" font-size="14" lengthAdjust="spacing" textLength="104.7949" x="411.5531" y="134.3797">TheoryOfChange</text><line style="stroke:#181818;stroke-width:0.5;" x1="383.5531" x2="518.348" y1="145.5945" y2="145.5945"/><line style="stroke:#181818;stroke-width:0.5;" x1="383.5531" x2="518.348" y1="153.5945" y2="153.5945"/></a></g><!--class ImpactOrganization--><g class="entity" data-entity="ImpactOrganization" data-source-line="99" data-uid="ent0004" id="entity_ImpactOrganization"><a href="" target="_top" title="The ImpactOrganization is an entity that facilitates and oversees impact projects and their contributors." xlink:actuate="onRequest" xlink:href="" xlink:show="new" xlink:title="The ImpactOrganization is an entity that facilitates and oversees impact projects and their contributors." xlink:type="simple"><rect fill="#555555" fill-opacity="0.06667" height="64.4063" rx="2.5" ry="2.5" style="stroke:#181818;stroke-width:0.5;" width="154.7188" x="192.5931" y="105.3945"/><ellipse cx="207.5931" cy="121.3945" fill="#ADD1B2" rx="11" ry="11" style="stroke:#181818;stroke-width:1;"/><path d="M203.6556,127.3945 L211.1713,127.3945 L211.1713,125.2852 L206.1713,125.2852 L206.1713,122.7383 L210.265,122.7383 L210.265,120.6445 L206.1713,120.6445 L206.1713,118.4258 L210.9994,118.4258 L210.9994,116.3164 L203.6556,116.3164 L203.6556,127.3945 Z " fill="#000000"/><text fill="#000000" font-family="sans-serif" font-size="14" lengthAdjust="spacing" textLength="122.7188" x="221.5931" y="126.1797">ImpactOrganization</text><line style="stroke:#181818;stroke-width:0.5;" x1="193.5931" x2="346.3119" y1="137.3945" y2="137.3945"/><text fill="#000000" font-family="sans-serif" font-size="14" lengthAdjust="spacing" textLength="99.7842" x="198.5931" y="154.3828">organizationDID</text><line style="stroke:#181818;stroke-width:0.5;" x1="193.5931" x2="346.3119" y1="161.8008" y2="161.8008"/></a></g><!--class ImpactProject--><g class="entity" data-entity="ImpactProject" data-source-line="104" data-uid="ent0005" id="entity_ImpactProject"><a href="" target="_top" title="The ImpactProject is a specific initiative aimed at creating measurable positive impact within defined scopes." xlink:actuate="onRequest" xlink:href="" xlink:show="new" xlink:title="The ImpactProject is a specific initiative aimed at creating measurable positive impact within defined scopes." xlink:type="simple"><rect fill="#555555" fill-opacity="0.06667" height="64.4063" rx="2.5" ry="2.5" style="stroke:#181818;stroke-width:0.5;" width="119.7119" x="391.0931" y="246.7945"/><ellipse cx="406.0931" cy="262.7945" fill="#ADD1B2" rx="11" ry="11" style="stroke:#181818;stroke-width:1;"/><path d="M402.1556,268.7945 L409.6713,268.7945 L409.6713,266.6852 L404.6713,266.6852 L404.6713,264.1383 L408.765,264.1383 L408.765,262.0445 L404.6713,262.0445 L404.6713,259.8258 L409.4994,259.8258 L409.4994,257.7164 L402.1556,257.7164 L402.1556,268.7945 Z " fill="#000000"/><text fill="#000000" font-family="sans-serif" font-size="14" lengthAdjust="spacing" textLength="87.7119" x="420.0931" y="267.5797">ImpactProject</text><line style="stroke:#181818;stroke-width:0.5;" x1="392.0931" x2="509.805" y1="278.7945" y2="278.7945"/><text fill="#000000" font-family="sans-serif" font-size="14" lengthAdjust="spacing" textLength="77.6016" x="397.0931" y="295.7828">organization</text><line style="stroke:#181818;stroke-width:0.5;" x1="392.0931" x2="509.805" y1="303.2008" y2="303.2008"/></a></g><!--class ImpactWork--><g class="entity" data-entity="ImpactWork" data-source-line="109" data-uid="ent0006" id="entity_ImpactWork"><a href="" target="_top" title="The ImpactWork is the actual work performed by contributors that generates impact within a project." xlink:actuate="onRequest" xlink:href="" xlink:show="new" xlink:title="The ImpactWork is the actual work performed by contributors that generates impact within a project." xlink:type="simple"><rect fill="#555555" fill-opacity="0.06667" height="48" rx="2.5" ry="2.5" style="stroke:#181818;stroke-width:0.5;" width="107.7148" x="465.0931" y="747.2345"/><ellipse cx="480.0931" cy="763.2345" fill="#ADD1B2" rx="11" ry="11" style="stroke:#181818;stroke-width:1;"/><path d="M476.1556,769.2345 L483.6713,769.2345 L483.6713,767.1252 L478.6713,767.1252 L478.6713,764.5783 L482.765,764.5783 L482.765,762.4845 L478.6713,762.4845 L478.6713,760.2658 L483.4994,760.2658 L483.4994,758.1564 L476.1556,758.1564 L476.1556,769.2345 Z " fill="#000000"/><text fill="#000000" font-family="sans-serif" font-size="14" lengthAdjust="spacing" textLength="75.7148" x="494.0931" y="768.0197">ImpactWork</text><line style="stroke:#181818;stroke-width:0.5;" x1="466.0931" x2="571.808" y1="779.2345" y2="779.2345"/><line style="stroke:#181818;stroke-width:0.5;" x1="466.0931" x2="571.808" y1="787.2345" y2="787.2345"/></a></g><!--class ImpactScope--><g class="entity" data-entity="ImpactScope" data-source-line="110" data-uid="ent0007" id="entity_ImpactScope"><a href="" target="_top" title="The ImpactScope is a piece of structured data defining boundaries and timeframes for measuring impact within a project." xlink:actuate="onRequest" xlink:href="" xlink:show="new" xlink:title="The ImpactScope is a piece of structured data defining boundaries and timeframes for measuring impact within a project." xlink:type="simple"><rect fill="#555555" fill-opacity="0.06667" height="80.8125" rx="2.5" ry="2.5" style="stroke:#181818;stroke-width:0.5;" width="143.7559" x="380.0731" y="403.2045"/><ellipse cx="408.2923" cy="419.2045" fill="#7E57C2" rx="11" ry="11" style="stroke:#181818;stroke-width:1;"/><path d="M405.4798,425.2045 L408.6986,425.2045 C411.7767,425.2045 413.8861,423.4233 413.8861,419.6108 C413.8861,415.7983 411.7767,414.1264 408.5423,414.1264 L405.4798,414.1264 L405.4798,425.2045 Z M407.9954,423.1889 L407.9954,416.142 L408.4017,416.142 C410.1361,416.142 411.3079,416.9545 411.3079,419.6108 C411.3079,422.267 410.1361,423.1889 408.4017,423.1889 L407.9954,423.1889 Z " fill="#000000"/><text fill="#000000" font-family="sans-serif" font-size="14" lengthAdjust="spacing" textLength="82.3799" x="425.2299" y="423.9897">ImpactScope</text><line style="stroke:#181818;stroke-width:0.5;" x1="381.0731" x2="522.829" y1="435.2045" y2="435.2045"/><text fill="#000000" font-family="sans-serif" font-size="14" lengthAdjust="spacing" textLength="65.3447" x="386.0731" y="452.1928">projectUID</text><text fill="#000000" font-family="sans-serif" font-size="14" lengthAdjust="spacing" textLength="131.7559" x="386.0731" y="468.5991">epoch or timeInterval</text><line style="stroke:#181818;stroke-width:0.5;" x1="381.0731" x2="522.829" y1="476.017" y2="476.017"/></a></g><!--class ImpactClaim--><g class="entity" data-entity="ImpactClaim" data-source-line="128" data-uid="ent0008" id="entity_ImpactClaim"><a href="" target="_top" title="The ImpactClaim is a structured piece of data serving as a vehicle for ImpactContributor entities to group communicate outcomes to Measurers" xlink:actuate="onRequest" xlink:href="" xlink:show="new" xlink:title="The ImpactClaim is a structured piece of data serving as a vehicle for ImpactContributor entities to group communicate outcomes to Measurers" xlink:type="simple"><rect fill="#555555" fill-opacity="0.06667" height="97.2188" rx="2.5" ry="2.5" style="stroke:#181818;stroke-width:0.5;" width="111.2832" x="396.3131" y="561.0145"/><ellipse cx="411.3131" cy="577.0145" fill="#7E57C2" rx="11" ry="11" style="stroke:#181818;stroke-width:1;"/><path d="M408.5006,583.0145 L411.7194,583.0145 C414.7975,583.0145 416.9069,581.2333 416.9069,577.4208 C416.9069,573.6083 414.7975,571.9364 411.5631,571.9364 L408.5006,571.9364 L408.5006,583.0145 Z M411.0163,580.9989 L411.0163,573.952 L411.4225,573.952 C413.1569,573.952 414.3288,574.7645 414.3288,577.4208 C414.3288,580.077 413.1569,580.9989 411.4225,580.9989 L411.0163,580.9989 Z " fill="#000000"/><text fill="#000000" font-family="sans-serif" font-size="14" lengthAdjust="spacing" textLength="79.2832" x="425.3131" y="581.7997">ImpactClaim</text><line style="stroke:#181818;stroke-width:0.5;" x1="397.3131" x2="506.5963" y1="593.0145" y2="593.0145"/><text fill="#000000" font-family="sans-serif" font-size="14" lengthAdjust="spacing" textLength="37.8232" x="402.3131" y="610.0028">scope</text><text fill="#000000" font-family="sans-serif" font-size="14" lengthAdjust="spacing" textLength="73.7734" x="402.3131" y="626.4091">timeInterval</text><text fill="#000000" font-family="sans-serif" font-size="14" lengthAdjust="spacing" textLength="62.4873" x="402.3131" y="642.8153">extra data</text><line style="stroke:#181818;stroke-width:0.5;" x1="397.3131" x2="506.5963" y1="650.2333" y2="650.2333"/></a></g><!--class ImpactContributor--><g class="entity" data-entity="ImpactContributor" data-source-line="148" data-uid="ent0009" id="entity_ImpactContributor"><a href="" target="_top" title="The ImpactContributor is a human and/or digital entity that performs work and claims impact within projects." xlink:actuate="onRequest" xlink:href="" xlink:show="new" xlink:title="The ImpactContributor is a human and/or digital entity that performs work and claims impact within projects." xlink:type="simple"><rect fill="#555555" fill-opacity="0.06667" height="64.4063" rx="2.5" ry="2.5" style="stroke:#181818;stroke-width:0.5;" width="145.9141" x="197.4531" y="739.2345"/><ellipse cx="212.4531" cy="755.2345" fill="#ADD1B2" rx="11" ry="11" style="stroke:#181818;stroke-width:1;"/><path d="M208.5156,761.2345 L216.0313,761.2345 L216.0313,759.1252 L211.0313,759.1252 L211.0313,756.5783 L215.125,756.5783 L215.125,754.4845 L211.0313,754.4845 L211.0313,752.2658 L215.8594,752.2658 L215.8594,750.1564 L208.5156,750.1564 L208.5156,761.2345 Z " fill="#000000"/><text fill="#000000" font-family="sans-serif" font-size="14" lengthAdjust="spacing" textLength="113.9141" x="226.4531" y="760.0197">ImpactContributor</text><line style="stroke:#181818;stroke-width:0.5;" x1="198.4531" x2="342.3672" y1="771.2345" y2="771.2345"/><text fill="#000000" font-family="sans-serif" font-size="14" lengthAdjust="spacing" textLength="121.6113" x="203.4531" y="788.2228">workDecisionPolicy</text><line style="stroke:#181818;stroke-width:0.5;" x1="198.4531" x2="342.3672" y1="795.6408" y2="795.6408"/></a></g><!--link TheoryOfChange to ImpactProject--><g class="link" data-entity-1="TheoryOfChange" data-entity-2="ImpactProject" data-source-line="154" data-uid="lnk10" id="link_TheoryOfChange_ImpactProject"><path codeLine="154" d="M450.9531,161.9245 C450.9531,185.1045 450.9531,214.7945 450.9531,240.4845" fill="none" id="TheoryOfChange-to-ImpactProject" style="stroke:#0055A9;stroke-width:1;"/><polygon fill="#0055A9" points="450.9531,246.4845,454.9531,237.4845,450.9531,241.4845,446.9531,237.4845,450.9531,246.4845" style="stroke:#0055A9;stroke-width:1;"/><text fill="#0055A9" font-family="sans-serif" font-size="13" lengthAdjust="spacing" textLength="40.0156" x="451.9531" y="212.8551">orients</text></g><!--link ImpactOrganization to ImpactProject--><g class="link" data-entity-1="ImpactOrganization" data-entity-2="ImpactProject" data-source-line="155" data-uid="lnk11" id="link_ImpactOrganization_ImpactProject"><path codeLine="155" d="M311.0231,170.2245 C340.6431,193.0445 375.7102,220.0426 405.2902,242.8326" fill="none" id="ImpactOrganization-to-ImpactProject" style="stroke:#0055A9;stroke-width:1;"/><polygon fill="#0055A9" points="410.0431,246.4945,405.355,237.833,406.0823,243.4429,400.4724,244.1703,410.0431,246.4945" style="stroke:#0055A9;stroke-width:1;"/><text fill="#0055A9" font-family="sans-serif" font-size="13" lengthAdjust="spacing" textLength="57.0591" x="372.2931" y="212.8551">facilitates</text><text fill="#0055A9" font-family="sans-serif" font-size="13" lengthAdjust="spacing" textLength="7.3062" x="311.2142" y="189.9566">1</text><text fill="#0055A9" font-family="sans-serif" font-size="13" lengthAdjust="spacing" textLength="5.5986" x="396.5565" y="235.7025">*</text></g><!--link ImpactProject to ImpactScope--><g class="link" data-entity-1="ImpactProject" data-entity-2="ImpactScope" data-source-line="156" data-uid="lnk12" id="link_ImpactProject_ImpactScope"><path codeLine="156" d="M451.1431,311.3545 C451.3031,337.4745 451.4948,368.8147 451.6748,397.0047" fill="none" id="ImpactProject-to-ImpactScope" style="stroke:#0055A9;stroke-width:1;"/><polygon fill="#0055A9" points="451.7131,403.0045,455.6556,393.9792,451.6812,398.0046,447.6557,394.0303,451.7131,403.0045" style="stroke:#0055A9;stroke-width:1;"/><text fill="#0055A9" font-family="sans-serif" font-size="13" lengthAdjust="spacing" textLength="40.8853" x="452.5131" y="354.2651">divides</text><text fill="#0055A9" font-family="sans-serif" font-size="13" lengthAdjust="spacing" textLength="22.0073" x="461.9521" y="369.4995">into</text><text fill="#0055A9" font-family="sans-serif" font-size="13" lengthAdjust="spacing" textLength="7.3062" x="443.5224" y="331.285">1</text><text fill="#0055A9" font-family="sans-serif" font-size="13" lengthAdjust="spacing" textLength="5.5986" x="446.3092" y="392.1169">*</text></g><!--link ImpactScope to ImpactClaim--><g class="link" data-entity-1="ImpactScope" data-entity-2="ImpactClaim" data-source-line="157" data-uid="lnk13" id="link_ImpactScope_ImpactClaim"><path codeLine="157" d="M451.9531,484.3145 C451.9531,507.2545 451.9531,530.2845 451.9531,554.5145" fill="none" id="ImpactScope-to-ImpactClaim" style="stroke:#0055A9;stroke-width:1;"/><polygon fill="#0055A9" points="451.9531,560.5145,455.9531,551.5145,451.9531,555.5145,447.9531,551.5145,451.9531,560.5145" style="stroke:#0055A9;stroke-width:1;"/><text fill="#0055A9" font-family="sans-serif" font-size="13" lengthAdjust="spacing" textLength="49.772" x="452.9531" y="527.0751">contains</text><text fill="#0055A9" font-family="sans-serif" font-size="13" lengthAdjust="spacing" textLength="7.3062" x="444.42" y="504.0762">1</text><text fill="#0055A9" font-family="sans-serif" font-size="13" lengthAdjust="spacing" textLength="5.5986" x="446.6572" y="549.9839">*</text></g><!--reverse link ImpactClaim to ImpactContributor--><g class="link" data-entity-1="ImpactClaim" data-entity-2="ImpactContributor" data-source-line="158" data-uid="lnk15" id="link_ImpactClaim_ImpactContributor"><path codeLine="158" d="M392.8324,662.471 C364.6724,687.171 335.4431,712.7945 309.7731,735.3145" fill="none" id="ImpactClaim-backto-ImpactContributor" style="stroke:#0055A9;stroke-width:1;"/><polygon fill="#0055A9" points="397.3431,658.5145,387.9394,661.4421,393.5842,661.8116,393.2147,667.4564,397.3431,658.5145" style="stroke:#0055A9;stroke-width:1;"/><text fill="#0055A9" font-family="sans-serif" font-size="13" lengthAdjust="spacing" textLength="38.3081" x="361.9531" y="701.2951">claims</text><text fill="#0055A9" font-family="sans-serif" font-size="13" lengthAdjust="spacing" textLength="5.5986" x="384.709" y="678.1683">*</text><text fill="#0055A9" font-family="sans-serif" font-size="13" lengthAdjust="spacing" textLength="5.5986" x="308.4313" y="728.0925">*</text></g><!--link ImpactContributor to ImpactWork--><g class="link" data-entity-1="ImpactContributor" data-entity-2="ImpactWork" data-source-line="159" data-uid="lnk16" id="link_ImpactContributor_ImpactWork"><path codeLine="159" d="M350.1231,771.2345 C387.6631,771.2345 425.4931,771.2345 458.9431,771.2345" fill="none" id="ImpactContributor-to-ImpactWork" style="stroke:#0055A9;stroke-width:1;"/><polygon fill="#0055A9" points="464.9431,771.2345,455.9431,767.2345,459.9431,771.2345,455.9431,775.2345,464.9431,771.2345" style="stroke:#0055A9;stroke-width:1;"/><polygon fill="#0055A9" points="377.7731,762.8517,368.728,759.9128,368.728,765.7906,377.7731,762.8517" style="stroke:#0055A9;stroke-width:1;"/><text fill="#0055A9" font-family="sans-serif" font-size="13" lengthAdjust="spacing" textLength="65.5396" x="381.7731" y="767.2951">contributes</text><text fill="#0055A9" font-family="sans-serif" font-size="13" lengthAdjust="spacing" textLength="5.5986" x="351.2835" y="768.1884">*</text><text fill="#0055A9" font-family="sans-serif" font-size="13" lengthAdjust="spacing" textLength="5.5986" x="451.3363" y="767.1646">*</text></g><!--reverse link ImpactWork to ImpactContributor--><g class="link" data-entity-1="ImpactWork" data-entity-2="ImpactContributor" data-source-line="160" data-uid="lnk18" id="link_ImpactWork_ImpactContributor"><path codeLine="160" d="M459.0525,793.9175 C453.3625,795.5375 453.3831,795.2645 447.7731,796.2345 C412.7331,802.2845 402.2631,804.8745 367.7731,796.2345 C355.8831,793.2545 355.7131,783.2345 343.4531,783.2345" fill="none" id="ImpactWork-backto-ImpactContributor" style="stroke:#0055A9;stroke-width:1;"/><polygon fill="#0055A9" points="464.8231,792.2745,455.0718,790.8919,460.0142,793.6437,457.2624,798.5861,464.8231,792.2745" style="stroke:#0055A9;stroke-width:1;"/><polygon fill="#0055A9" points="394.2519,788.3118,385.5156,784.553,384.9748,790.4059,394.2519,788.3118" style="stroke:#0055A9;stroke-width:1;"/><text fill="#0055A9" font-family="sans-serif" font-size="13" lengthAdjust="spacing" textLength="32.2271" x="398.2731" y="792.2951">gates</text><text fill="#0055A9" font-family="sans-serif" font-size="13" lengthAdjust="spacing" textLength="5.5986" x="451.5499" y="791.341">*</text><text fill="#0055A9" font-family="sans-serif" font-size="13" lengthAdjust="spacing" textLength="7.3062" x="351.6991" y="781.2607">1</text></g><!--link ImpactClaim to ImpactWork--><g class="link" data-entity-1="ImpactClaim" data-entity-2="ImpactWork" data-source-line="161" data-uid="lnk19" id="link_ImpactClaim_ImpactWork"><path codeLine="161" d="M472.0531,658.5145 C484.3131,687.7145 497.111,718.2021 506.811,741.3121" fill="none" id="ImpactClaim-to-ImpactWork" style="stroke:#0055A9;stroke-width:1;"/><polygon fill="#0055A9" points="509.1331,746.8445,509.3382,736.9978,507.198,742.2342,501.9616,740.094,509.1331,746.8445" style="stroke:#0055A9;stroke-width:1;"/><polygon fill="#0055A9" points="498.3885,701.462,497.5972,691.9844,492.1776,694.2595,498.3885,701.462" style="stroke:#0055A9;stroke-width:1;"/><text fill="#0055A9" font-family="sans-serif" font-size="13" lengthAdjust="spacing" textLength="61.6421" x="505.4531" y="701.2951">represents</text><text fill="#0055A9" font-family="sans-serif" font-size="13" lengthAdjust="spacing" textLength="5.5986" x="469.4581" y="678.1683">*</text><text fill="#0055A9" font-family="sans-serif" font-size="13" lengthAdjust="spacing" textLength="5.5986" x="501.2037" y="736.1605">*</text></g><!--reverse link ImpactOrganization to ImpactContributor--><g class="link" data-entity-1="ImpactOrganization" data-entity-2="ImpactContributor" data-source-line="162" data-uid="lnk21" id="link_ImpactOrganization_ImpactContributor"><path codeLine="162" d="M269.9531,176.1545 C269.9531,204.4045 269.9531,240.9745 269.9531,278.0045 C269.9531,278.0045 269.9531,278.0045 269.9531,610.6245 C269.9531,653.5745 269.9531,703.0245 269.9531,735.3645" fill="none" id="ImpactOrganization-backto-ImpactContributor" style="stroke:#0055A9;stroke-width:1;"/><polygon fill="#0055A9" points="269.9531,170.1545,265.9531,179.1545,269.9531,175.1545,273.9531,179.1545,269.9531,170.1545" style="stroke:#0055A9;stroke-width:1;"/><polygon fill="#0055A9" points="274.9531,438.7317,272.0142,447.7768,277.8921,447.7768,274.9531,438.7317" style="stroke:#0055A9;stroke-width:1;"/><text fill="#0055A9" font-family="sans-serif" font-size="13" lengthAdjust="spacing" textLength="60.8486" x="283.9531" y="448.1751">belongs to</text><text fill="#0055A9" font-family="sans-serif" font-size="13" lengthAdjust="spacing" textLength="5.5986" x="264.5337" y="189.8733">*</text><text fill="#0055A9" font-family="sans-serif" font-size="13" lengthAdjust="spacing" textLength="5.5986" x="264.679" y="727.9437">*</text></g><!--SRC=[xLh_Rzku5V_TVmNZTPVaBbul6pfiHbeWbxYzREabI79N36rHq19jSP54WQIIkeVyxtkFf2HIOcod1VRBvWAjJUezlg-VznxLNR9JIReiACdfIjIQg89fMjBHQ8SlofGjoENLnJzc9pUVVZb-Enljm0elMR18tiwkpZIJenrMfdmnsdbsUdRyvkhuxQURVrtEo4iodfMQwnMvOZdLN9GgunKvvNGfQK7sPbUd- -FsjDU_dfz_kZcxEOUpddK_W4jmv0za37z-8C5HZG2ZNN8YoWLVrjASH-wev7IUCzKUS_tpnRjFhyzcvwVNhKxU6XalQAxOk5N99viTNqT9k_N7o7yxkpxxwNpswVBuv9_7RsOTVN-3ZD-8EoPBMYRiuAoeQA8FtZAgQiaEPdSqhwbc1rVidifqx6dzCyih9icYBXEZjnOaoLXoI_Y208zRkcI4AtB75GThZ7RQ1vznTMdtVxDxUy_Syx_GWksF2DcHJDUo97zKMbP2xVKbFY011TbvIIQ7HhJcaD48WY1dnFEg2JAovnl-vSl6UFkZZAUCiAA2q5bmbgUgLVL8wLNENerIaTG5ApNv7KGan1vWl-FdjIZrDV_2o5_-7AuXDPcBF3NB3wE7KMEU3OmE_-OeyEzpSDs9o8KaV_Yh-G2V9ATADR5j6PWbZzbFSDHIYhfC7V4Bypayz5XJASMzH-CTzUEFBruS_pqGRRZpq9ryG9X9lmDI2kqhjUjnlS-uPjvENyR1lf0fa_6zJg9k1qsiAj4u2h_Ed5Ju_PHgUj8pqtzRlAFdBgX6k-gMbnL53-OWWbvLZ0YfC-7YTPWjNhgEz_T7RJHvwsGFWNL_JAWYtghLrtg8NCp_pI1NxfWwPOelIyZbz-z_lybOR0SIMJ8mNcb480jGoA09BvSauyjiahCxbfEbW6mYj4o9Q7aGdL4DAd5C7GtiyNm9s62GXZ2BC0WCQgKqA_xqyF6ZB-Tr8ggXZBtLTVAXE00aTGAOWh_TmSfmiDAb_0xJlv82fLQ4bu1cXS50X79Ibrohlc0E8n4I-jB5jg8YuXxAL7G4y1sydqBGB3cpnanSWJ7MXbJrdbP4PQBEKp9dHDDRLlQbdBNsxGiPsLahe-UfH48mGvapqeNo8Wta5bEgfzV0VhQazANghQwLI9fdIILodZIsIZducizh8sV1aeoMN1LMBkTvCATzHCY1K3VIIBngn6b_Wo0KJX8v4GiiUYdylgCyfurOLXWlmDfZi0iniY4PFW21Pvi5UxmvlwVtHBw7YfIoykFaLIk4UR0N-S63aRWpDB5u30Y7iM3e8Y4Ia8L2MqKYw34-79C9F8x_ziIVEcHGsz36r7WIWuW-JwBlEQcZVMYxXST0spPM2DWDNjkL49GXv8HSNInE86pXaIO8mrKJYWke6EnUo5k7O4n1KiuX2H0WCDZkivL95Sa0G0mXa07kiiyLg0YB074PhIfM0jnXR5EfULBdL9h8PPzr5vnEEYlnXLn2JdsnIE0aZEoWb6L3QMHSq8JdN4CxwMe452R5u8TBc1P-SHCg1PU3LFLAThIR0vZ7PgvvHdW2dPwTThJMMLtp4YXuQUK8TMiMZV4Lc90lU0AMuvfJ31X2UG561JKJo5RTWPy12EXYkNdAgNhFTGPMjnrvwchHDogufNRlC6O2rSmALwOumy-QviG45g0K01jgDLy5dh3kNB8IOQppdrEADeviiJM5ZiisflP0Wm6X37R9WYndqAi0oZP56mH03br5dsCp1cEMYoCDbZVfO57Ucjq3ufXSJxIpe_pLYo5MYIG31vZZpo1X981BXAatgKKOJoRjrvgdxNS5erH1sv-IBVoZyKIo1nQoeIRAZXzaDxUrvGOUyXZSYIIsdF0A4QnTeHeSgXtyTvGumKN2AnfjVMz3hysBqDjsoQPIv-JMySRR2WngsZTywevbF765rh7euj76DqO3G1fswXL4Qr50qmOg0yDQmq-xwog8L4yF0PEZWGi6JWVCbDH8_xyU1qFOyVqLneAtOI8Ygmie793Opx7Puqke67bGHnmkAOjIfa76UEhZK5DElYBTaV4fs4I1eIwnkrojKRDNdISfD0jXpGXxZ4YjD3q6qes_7mzelRBfqJVx4LABfLCtrQWF9Oup7gdTZn3Qj9mQhAUyz8_plOG4apfEQHonZYuWCvLdIbvrrOKzGZoT3drYLSZZ79SzUra9ruWWMGMJHizBGxMha3nm8xAPiroKImIRBPf21qT-L-YMNC1sMEhrlf4fSqFbJ6ZbXb-lSqaH7h6Qko5EyWI7hPowvh0POunBloA9U6VtimxHsdCtGAd9z_-Nq_vjG_-AOGlCxC_FcjxsHtECcS3TjZztXRER0zf3sw7e-s0gWmp0IuXjvg7cPjcF_MPj4FpTt7R5L9thuHM6Mz_KG9eX2RN7NXVqgsgD3uBj72iSvElItHjvLnvV4VyOLahJejhes-xiK2_n5TvjHEvx61sw9ohKXURvQfy8C87qD5G7ZTF1ABftuIEDURr8w2GCwiZ08LCoJcYEOoKE2l0PzouMt7D1JUcO6tALq9Ib7w28ZRS8BFUcmWihkn8EsdRjn8acUjTFtdha0gfHoBk20fCwG51aJXK4d2WZzZCMxjrQ1P6rEQuiTT2KhEd0hJh7hNIXcjxw-iInLMFL90ujO03JJXa7UKXcPOlVjJMtNKzC8dlK6eIDLvd7CirTu3HtX7s_-niHnxFFBAbrOuNWfj7JtYkT_Oj6xwRF2x4WWmQUcP8kWJnwxmcJEpAyel8KcH9Qwmmwq2y1CEyIbpd4lBz0hIQs0Z8KN047T6lE5dgYnKJoPQRTUzijBhcsw7ZS_LVi0dFazson1wJtjdDZUOaTrEnlujEXIOoBtMrvRD_jRIDsqmb-eznHDayJl9EAVFSTMNjQMy9ZnmrGFtQPt4NkHhd25s4knL_RI_PhKSkalMGA5ztLv6UDrBtPKWepDBahViXbJ7NTl0M8NVIRp0uFC1cPkeniNo5CBTDjxeW7CwLdf_067VBuvkAa6J0jC9ajqsa3NkeSLPEYNcPcD-ppzW35abfXnSAncQGf5VkZtVxvqLS4tbmR8rX_Mn-Cec2k8nZauYy8h3fgKyHxsHKxEG3Pje_TchkVc15Bn9eWyGJsNGBrNZ4CtpvuXQDZtyPOv6r5K0fi16wPzqqyFfBr0omVpjYUeSUgdXTSk-7o-OSI8myJsDmlZqCMXqr0XFF5T1gKU-3gUjmcdlhpUfo9I_WfbhkKwoSuVxCb_6aeYEj8Q-mQH92-JpM9TS8St-5ex8JHNjygym2plMPyVT2134mgychRe7v4W0xj7lDTFPay6iX7JRyrslAkoFhYVIaaBMy_1fm3xOu0E1TvpQ2gg2SC6yqevuhAEo7pj1tdWiNkegahGGh7vapaANFtCVR_GhWtBUWVPfRdh6GBhib2Yi97SrJOrA7mAEF8-l7EqZ1kjVmF]--></g></svg>