<svg xmlns="http://www.w3.org/2000/svg" xmlns:xlink="http://www.w3.org/1999/xlink" contentStyleType="text/css" data-diagram-type="CLASS" height="388px" preserveAspectRatio="none" style="width:640px;height:388px;background:#FFFFFF;" version="1.1" viewBox="0 0 640 388" width="640px" zoomAndPan="magnify"><title>MERIter Entity Relationship Diagram (ERD)</title><defs/><g><g class="title" data-source-line="19"><text fill="#000000" font-family="sans-serif" font-size="32" font-weight="bold" lengthAdjust="spacing" textLength="612.1719" x="10" y="39.6875">MERIter Entity Relationship Diagram (ERD)</text></g><!--cluster Reward--><g class="cluster" data-entity="Reward" data-source-line="197" data-uid="ent0002" id="cluster_Reward"><path d="M118.0859,65.3945 L179.9063,65.3945 A3.75,3.75 0 0 1 182.4063,67.8945 L189.4063,92.4883 L527.0859,92.4883 A2.5,2.5 0 0 1 529.5859,94.9883 L529.5859,275.8945 A2.5,2.5 0 0 1 527.0859,278.3945 L118.0859,278.3945 A2.5,2.5 0 0 1 115.5859,275.8945 L115.5859,67.8945 A2.5,2.5 0 0 1 118.0859,65.3945" fill="none" style="stroke:#000000;stroke-width:1.5;"/><line style="stroke:#000000;stroke-width:1.5;" x1="115.5859" x2="189.4063" y1="92.4883" y2="92.4883"/><text fill="#000000" font-family="sans-serif" font-size="18" font-weight="bold" lengthAdjust="spacing" textLength="60.8203" x="119.5859" y="84.0938">Reward</text></g><!--class RewardCalculator--><g class="entity" data-entity="RewardCalculator" data-source-line="198" data-uid="ent0003" id="entity_RewardCalculator"><rect fill="#555555" fill-opacity="0.06667" height="40" rx="2.5" ry="2.5" style="stroke:#181818;stroke-width:0.5;" width="142.332" x="131.4159" y="105.3945"/><ellipse cx="146.4159" cy="121.3945" fill="#ADD1B2" rx="11" ry="11" style="stroke:#181818;stroke-width:1;"/><path d="M142.4784,127.3945 L149.9941,127.3945 L149.9941,125.2852 L144.9941,125.2852 L144.9941,122.7383 L149.0878,122.7383 L149.0878,120.6445 L144.9941,120.6445 L144.9941,118.4258 L149.8222,118.4258 L149.8222,116.3164 L142.4784,116.3164 L142.4784,127.3945 Z " fill="#000000"/><text fill="#000000" font-family="sans-serif" font-size="14" lengthAdjust="spacing" textLength="110.332" x="160.4159" y="126.1797">RewardCalculator</text><line style="stroke:#181818;stroke-width:0.5;" x1="132.4159" x2="272.748" y1="137.3945" y2="137.3945"/></g><!--class RewardAllocation--><g class="entity" data-entity="RewardAllocation" data-source-line="203" data-uid="ent0004" id="entity_RewardAllocation"><rect fill="#555555" fill-opacity="0.06667" height="40" rx="2.5" ry="2.5" style="stroke:#181818;stroke-width:0.5;" width="141.3955" x="131.8859" y="222.3945"/><ellipse cx="146.8859" cy="238.3945" fill="#7E57C2" rx="11" ry="11" style="stroke:#181818;stroke-width:1;"/><path d="M144.0734,244.3945 L147.2922,244.3945 C150.3703,244.3945 152.4797,242.6133 152.4797,238.8008 C152.4797,234.9883 150.3703,233.3164 147.1359,233.3164 L144.0734,233.3164 L144.0734,244.3945 Z M146.5891,242.3789 L146.5891,235.332 L146.9953,235.332 C148.7297,235.332 149.9016,236.1445 149.9016,238.8008 C149.9016,241.457 148.7297,242.3789 146.9953,242.3789 L146.5891,242.3789 Z " fill="#000000"/><text fill="#000000" font-family="sans-serif" font-size="14" lengthAdjust="spacing" textLength="109.3955" x="160.8859" y="243.1797">RewardAllocation</text><line style="stroke:#181818;stroke-width:0.5;" x1="132.8859" x2="272.2814" y1="254.3945" y2="254.3945"/></g><!--class RewardDistributor--><g class="entity" data-entity="RewardDistributor" data-source-line="210" data-uid="ent0005" id="entity_RewardDistributor"><rect fill="#555555" fill-opacity="0.06667" height="40" rx="2.5" ry="2.5" style="stroke:#181818;stroke-width:0.5;" width="144.2598" x="369.4559" y="222.3945"/><ellipse cx="384.4559" cy="238.3945" fill="#ADD1B2" rx="11" ry="11" style="stroke:#181818;stroke-width:1;"/><path d="M380.5184,244.3945 L388.0341,244.3945 L388.0341,242.2852 L383.0341,242.2852 L383.0341,239.7383 L387.1278,239.7383 L387.1278,237.6445 L383.0341,237.6445 L383.0341,235.4258 L387.8622,235.4258 L387.8622,233.3164 L380.5184,233.3164 L380.5184,244.3945 Z " fill="#000000"/><text fill="#000000" font-family="sans-serif" font-size="14" lengthAdjust="spacing" textLength="112.2598" x="398.4559" y="243.1797">RewardDistributor</text><line style="stroke:#181818;stroke-width:0.5;" x1="370.4559" x2="512.7157" y1="254.3945" y2="254.3945"/></g><!--class ExternalWorld--><g class="entity" data-entity="ExternalWorld" data-source-line="282" data-uid="ent0008" id="entity_ExternalWorld"><rect fill="#555555" fill-opacity="0.06667" height="40" rx="2.5" ry="2.5" style="stroke:#181818;stroke-width:0.5;" width="118.8506" x="143.1559" y="341.3945"/><ellipse cx="158.1559" cy="357.3945" fill="#ADD1B2" rx="11" ry="11" style="stroke:#181818;stroke-width:1;"/><path d="M154.2184,363.3945 L161.7341,363.3945 L161.7341,361.2852 L156.7341,361.2852 L156.7341,358.7383 L160.8278,358.7383 L160.8278,356.6445 L156.7341,356.6445 L156.7341,354.4258 L161.5622,354.4258 L161.5622,352.3164 L154.2184,352.3164 L154.2184,363.3945 Z " fill="#000000"/><text fill="#000000" font-family="sans-serif" font-size="14" lengthAdjust="spacing" textLength="86.8506" x="172.1559" y="362.1797">ExternalWorld</text><line style="stroke:#181818;stroke-width:0.5;" x1="144.1559" x2="261.0065" y1="373.3945" y2="373.3945"/></g><!--link RewardCalculator to RewardAllocation--><g class="link" data-entity-1="RewardCalculator" data-entity-2="RewardAllocation" data-source-line="212" data-uid="lnk6" id="link_RewardCalculator_RewardAllocation"><path codeLine="212" d="M202.5859,145.6445 C202.5859,166.8745 202.5859,194.8345 202.5859,216.0845" fill="none" id="RewardCalculator-to-RewardAllocation" style="stroke:#181818;stroke-width:1;"/><polygon fill="#181818" points="202.5859,222.0845,206.5859,213.0845,202.5859,217.0845,198.5859,213.0845,202.5859,222.0845" style="stroke:#181818;stroke-width:1;"/><text fill="#000000" font-family="sans-serif" font-size="13" lengthAdjust="spacing" textLength="59.0967" x="203.5859" y="188.4551">calculates</text><text fill="#000000" font-family="sans-serif" font-size="13" lengthAdjust="spacing" textLength="7.3062" x="194.6457" y="165.5427">1</text><text fill="#000000" font-family="sans-serif" font-size="13" lengthAdjust="spacing" textLength="5.5986" x="196.9676" y="211.3565">*</text></g><!--link RewardAllocation to RewardDistributor--><g class="link" data-entity-1="RewardAllocation" data-entity-2="RewardDistributor" data-source-line="213" data-uid="lnk7" id="link_RewardAllocation_RewardDistributor"><path codeLine="213" d="M273.6459,242.3945 C303.7759,242.3945 332.8659,242.3945 363.1459,242.3945" fill="none" id="RewardAllocation-to-RewardDistributor" style="stroke:#181818;stroke-width:1;"/><polygon fill="#181818" points="369.1459,242.3945,360.1459,238.3945,364.1459,242.3945,360.1459,246.3945,369.1459,242.3945" style="stroke:#181818;stroke-width:1;"/><text fill="#000000" font-family="sans-serif" font-size="13" lengthAdjust="spacing" textLength="60.6836" x="291.3659" y="235.4551">authorizes</text><text fill="#000000" font-family="sans-serif" font-size="13" lengthAdjust="spacing" textLength="5.5986" x="281.2629" y="238.6937">*</text><text fill="#000000" font-family="sans-serif" font-size="13" lengthAdjust="spacing" textLength="7.3062" x="354.3304" y="238.6937">1</text></g><!--reverse link RewardAllocation to ExternalWorld--><g class="link" data-entity-1="RewardAllocation" data-entity-2="ExternalWorld" data-source-line="283" data-uid="lnk10" id="link_RewardAllocation_ExternalWorld"><path codeLine="283" d="M202.5859,268.7145 C202.5859,290.3945 202.5859,319.3545 202.5859,341.0445" fill="none" id="RewardAllocation-backto-ExternalWorld" style="stroke:#181818;stroke-width:1;"/><polygon fill="#181818" points="202.5859,262.7145,198.5859,271.7145,202.5859,267.7145,206.5859,271.7145,202.5859,262.7145" style="stroke:#181818;stroke-width:1;"/><text fill="#000000" font-family="sans-serif" font-size="13" lengthAdjust="spacing" textLength="37.2988" x="203.5859" y="307.4551">values</text><text fill="#000000" font-family="sans-serif" font-size="13" lengthAdjust="spacing" textLength="5.5986" x="196.9951" y="282.2832">*</text><text fill="#000000" font-family="sans-serif" font-size="13" lengthAdjust="spacing" textLength="7.3062" x="194.6459" y="330.3052">1</text></g><!--SRC=[vHXjJziu-7j-XUbje-nQJTpff5F5a1Zjjjx1G9HjEZ64JEAqFX8xiXrOD_7Vxt6S5xjnsw19zsNb0ydp-7b_TNRHJYRmFCKemKkUAoHJeZ33GR3pxFpYxA_9yUNDXwFJ2NgDUgUJYwaYeWUeyVJetSNHwStbF-S5Qi8KLKjqGHAiA6ToGJCqfdWkS8hwaulndYPw-_7avEPoUdcYILpklw8U_FsA7CP1i8kEEOlfF1S5MtIF1SMt2P70RVR-xFFDs-daP3m3TizZd4ZItwiGawEP3qbZ5f4OVPhEfczE9ZVdHyT_7xsRp88TW596MWZKUyVlYM2OXMGmJJCSgi4fmJ8NP32vnqcE5HbSa0Si8h2Gi8Z6Mklt9Cc8G77Ema9lnL6u8E4TeZ427dTuJX2Lw9vA2jO4E_N1PrIU6_mdW-i_Ayz_m2dP2n3Q4KJbWg7dKecCo_wgnWFaKA2TrsYuNwXM2Ga2Y5L2a1MFG7i6zPyphlgsO_VsWWMD229f1j6DAKaYMPjv8DKo8OT1nCCy9KoXxw0UGeQvUTQ_jvof6Vr6qE-_kJ1DZMvv4XNWn-0ng5opXT7-dpL5c60fgqGpHmkGHVO6cCu5prbqp1Ckq2z_5B_z_P99JJD0M0Z-C42aIEO10c_OydVH2QI8OVAme8fOc5KXBJmN4H5-dBPh5QDjanclVAeV9wLM-dcC5JvUiVF_Lk_WLHd_O5VUKPPX7O84L53BZ20kr8ANQTLEQgkgUf1ZTU0jEEhhHhJNGrWY2shiDH52bml2nV8iFbvWDYSsvkpsNmB9Va_ac4WwPqJOs5d8Cp-ch6sTpZvqMV9GH3wiwGC-pAKe-2w30kYUGqDn1KKM4NOzF6nEweEkdkx1TPfwu2xX6XlQO9VCOvphVZIChECU5wyUz-g2Hf0w59INwsXy1ZP41LKx-gYttokezVyLjxeIjz1kbjw1mLQJjz2l94z3-rWtvdL5P-QNBhYgtWp4BIe3EnDppEWtCtQR9cDOsnEYHd6BOZmTDoH6gwRPEdBE1TVcFbr4H_wVkRWhe16qJ3CQ3A98WcvYCwFZHyieal5m0Vh0a4h9bC5M167ryMhsa8RVS5W_vZIgdoMi22ckNmM9RObQ4Ehp68NG8RG36dxaQqRDWdG9Xom6zppqWKEQwPIf8LWf8bLPfGsbtamyJlRwVDMxC9neYgwkldyY2nh268_1LoKAvecWjxa2I14gIcIn8F4qpHa5ZM5wv0fU3RoiE24Vhw-xnKlgq3gEQqM8V5K25rh_f45hLueTbqvkVe3I6eDU4fGzvmaDbnj4URfAqTKYtTPUzbQwmGZ5EAG9LP0CqgAly1vIKyyZ5D5xs5Zb5qQPuXQfmNi8JQgE8F-OmfJPucoNQ89XxgVK_pVIEMIw9G7LOI6nE4RM48z6RHyR4n8_n_cAluo66rGG91D4rhDddTcPI-w4KREv9GbdSrsk7SPGMT3s72f1PTurpSIQjjroaZPcJviYfQ0G51KNMvf2KGu_SHTtbs0Hs0kbjOMyTDOWI025xqYN1QIwCTkXhs2js3UBqWMHUT8n0RI3fS9fjjNAaZylpQnVtHxHqcA4UY5EmZpHfQO9UolhStdEwHSDyu9SXZWYqHTeKBqENYi_BrW-Cn1tRJEmur8rguUlTPOeA9pElM6k6_v7IL9cOxTmu1GkdMf3rleBTbtCokMNoge_sHSgotOdX2tDeMFN4RJehHD5y8IxSJT2WG7EuNehw3SdxNTH6JfKNASfcwEXANIYUxq43hfU4XAheU93GUSBLNvswx2pTsYdvJhlkoS6za3m7H2L6LsAroUemc_ZqwIpZul1rZowZv8kQbTZvWVrzh9vckADLkZ52xHHMjqWVU9QRSTtPxVAPPjUxdUPikhUva34vZEUYv04pfkfbAYibEhZXTxVu9JiSXLrjZDWTW2xZV-M7XMFSbkSh9pmNTQTrb3FjixSxNJoNELziuC_WNqJzfLxVliJWDNk6lPr13oV39m6PkBJCLkhQAt9rLO7Qg-TbgDxChzDAImhaRxTlVe2ek721ca7WDkb1aYIn4FOJBbG1QpdijslaiJTGqOZPvQ0fDGWPU1VQ_rCofmVwSOTKVM4XDZk7NjhSdBTisMGagziKGrzImLKfDx-OAdG_lfHdLlTnzfhDYSYw01NTNJODT7NAB3Q7zgnouV3jSbzKEusdiZxhrGc5bUC2ypkhXtEZdK7S9M8avn0VvHFsDkgZVEhqiqrWTjN0gtRVZDkpTTlB3eCZSp_0000]--></g></svg>