<svg xmlns="http://www.w3.org/2000/svg" xmlns:xlink="http://www.w3.org/1999/xlink" contentStyleType="text/css" data-diagram-type="CLASS" height="721px" preserveAspectRatio="none" style="width:992px;height:721px;background:#FFFFFF;" version="1.1" viewBox="0 0 992 721" width="992px" zoomAndPan="magnify"><defs/><g><!--cluster Impact--><g class="cluster" data-entity="Impact" data-source-line="100" data-uid="ent0002" id="cluster_Impact"><path d="M8.5,6.8945 L65.6006,6.8945 A3.75,3.75 0 0 1 68.1006,9.3945 L75.1006,33.9883 L443.5,33.9883 A2.5,2.5 0 0 1 446,36.4883 L446,712.3945 A2.5,2.5 0 0 1 443.5,714.8945 L8.5,714.8945 A2.5,2.5 0 0 1 6,712.3945 L6,9.3945 A2.5,2.5 0 0 1 8.5,6.8945" fill="none" style="stroke:#666666;stroke-width:1.5;"/><line style="stroke:#666666;stroke-width:1.5;" x1="6" x2="75.1006" y1="33.9883" y2="33.9883"/><text fill="#000000" font-family="sans-serif" font-size="18" font-weight="bold" lengthAdjust="spacing" textLength="56.1006" x="10" y="25.5938">Impact</text></g><!--cluster Measure--><g class="cluster" data-entity="Measure" data-source-line="171" data-uid="ent0022" id="cluster_Measure"><path d="M488.5,438.8945 L560.2959,438.8945 A3.75,3.75 0 0 1 562.7959,441.3945 L569.7959,465.9883 L673.5,465.9883 A2.5,2.5 0 0 1 676,468.4883 L676,712.3945 A2.5,2.5 0 0 1 673.5,714.8945 L488.5,714.8945 A2.5,2.5 0 0 1 486,712.3945 L486,441.3945 A2.5,2.5 0 0 1 488.5,438.8945" fill="none" style="stroke:#666666;stroke-width:1.5;"/><line style="stroke:#666666;stroke-width:1.5;" x1="486" x2="569.7959" y1="465.9883" y2="465.9883"/><text fill="#000000" font-family="sans-serif" font-size="18" font-weight="bold" lengthAdjust="spacing" textLength="70.7959" x="490" y="457.5938">Measure</text></g><!--cluster Evaluate--><g class="cluster" data-entity="Evaluate" data-source-line="199" data-uid="ent0026" id="cluster_Evaluate"><path d="M718.5,438.8945 L788.6963,438.8945 A3.75,3.75 0 0 1 791.1963,441.3945 L798.1963,465.9883 L975.5,465.9883 A2.5,2.5 0 0 1 978,468.4883 L978,708.3945 A2.5,2.5 0 0 1 975.5,710.8945 L718.5,710.8945 A2.5,2.5 0 0 1 716,708.3945 L716,441.3945 A2.5,2.5 0 0 1 718.5,438.8945" fill="none" style="stroke:#666666;stroke-width:1.5;"/><line style="stroke:#666666;stroke-width:1.5;" x1="716" x2="798.1963" y1="465.9883" y2="465.9883"/><text fill="#000000" font-family="sans-serif" font-size="18" font-weight="bold" lengthAdjust="spacing" textLength="69.1963" x="720" y="457.5938">Evaluate</text></g><!--class TheoryOfChange--><g class="entity" data-entity="TheoryOfChange" data-source-line="101" data-uid="ent0003" id="entity_TheoryOfChange"><a href="" target="_top" title="The TheoryOfChange is a framework that describes how and why desired changes are expected to happen in a particular context." xlink:actuate="onRequest" xlink:href="" xlink:show="new" xlink:title="The TheoryOfChange is a framework that describes how and why desired changes are expected to happen in a particular context." xlink:type="simple"><rect fill="#555555" fill-opacity="0.06667" height="40" rx="2.5" ry="2.5" style="stroke:#181818;stroke-width:0.5;" width="136.7949" x="244.6" y="78.8945"/><ellipse cx="259.6" cy="94.8945" fill="#ADD1B2" rx="11" ry="11" style="stroke:#181818;stroke-width:1;"/><path d="M255.6625,100.8945 L263.1781,100.8945 L263.1781,98.7852 L258.1781,98.7852 L258.1781,96.2383 L262.2719,96.2383 L262.2719,94.1445 L258.1781,94.1445 L258.1781,91.9258 L263.0063,91.9258 L263.0063,89.8164 L255.6625,89.8164 L255.6625,100.8945 Z " fill="#000000"/><text fill="#000000" font-family="sans-serif" font-size="14" lengthAdjust="spacing" textLength="104.7949" x="273.6" y="99.6797">TheoryOfChange</text><line style="stroke:#181818;stroke-width:0.5;" x1="245.6" x2="380.3949" y1="110.8945" y2="110.8945"/></a></g><!--class ImpactOrganization--><g class="entity" data-entity="ImpactOrganization" data-source-line="103" data-uid="ent0004" id="entity_ImpactOrganization"><a href="" target="_top" title="The ImpactOrganization is an entity that facilitates and oversees impact projects and their contributors." xlink:actuate="onRequest" xlink:href="" xlink:show="new" xlink:title="The ImpactOrganization is an entity that facilitates and oversees impact projects and their contributors." xlink:type="simple"><rect fill="#555555" fill-opacity="0.06667" height="40" rx="2.5" ry="2.5" style="stroke:#181818;stroke-width:0.5;" width="154.7188" x="43.64" y="78.8945"/><ellipse cx="58.64" cy="94.8945" fill="#ADD1B2" rx="11" ry="11" style="stroke:#181818;stroke-width:1;"/><path d="M54.7025,100.8945 L62.2181,100.8945 L62.2181,98.7852 L57.2181,98.7852 L57.2181,96.2383 L61.3119,96.2383 L61.3119,94.1445 L57.2181,94.1445 L57.2181,91.9258 L62.0463,91.9258 L62.0463,89.8164 L54.7025,89.8164 L54.7025,100.8945 Z " fill="#000000"/><text fill="#000000" font-family="sans-serif" font-size="14" lengthAdjust="spacing" textLength="122.7188" x="72.64" y="99.6797">ImpactOrganization</text><line style="stroke:#181818;stroke-width:0.5;" x1="44.64" x2="197.3588" y1="110.8945" y2="110.8945"/></a></g><!--class ImpactProject--><g class="entity" data-entity="ImpactProject" data-source-line="108" data-uid="ent0005" id="entity_ImpactProject"><a href="" target="_top" title="The ImpactProject is a specific initiative aimed at creating measurable positive impact within defined scopes." xlink:actuate="onRequest" xlink:href="" xlink:show="new" xlink:title="The ImpactProject is a specific initiative aimed at creating measurable positive impact within defined scopes." xlink:type="simple"><rect fill="#555555" fill-opacity="0.06667" height="40" rx="2.5" ry="2.5" style="stroke:#181818;stroke-width:0.5;" width="119.7119" x="253.14" y="195.8945"/><ellipse cx="268.14" cy="211.8945" fill="#ADD1B2" rx="11" ry="11" style="stroke:#181818;stroke-width:1;"/><path d="M264.2025,217.8945 L271.7181,217.8945 L271.7181,215.7852 L266.7181,215.7852 L266.7181,213.2383 L270.8119,213.2383 L270.8119,211.1445 L266.7181,211.1445 L266.7181,208.9258 L271.5463,208.9258 L271.5463,206.8164 L264.2025,206.8164 L264.2025,217.8945 Z " fill="#000000"/><text fill="#000000" font-family="sans-serif" font-size="14" lengthAdjust="spacing" textLength="87.7119" x="282.14" y="216.6797">ImpactProject</text><line style="stroke:#181818;stroke-width:0.5;" x1="254.14" x2="371.8519" y1="227.8945" y2="227.8945"/></a></g><!--class ImpactWork--><g class="entity" data-entity="ImpactWork" data-source-line="113" data-uid="ent0006" id="entity_ImpactWork"><a href="" target="_top" title="The ImpactWork is the actual work performed by contributors that generates impact within a project." xlink:actuate="onRequest" xlink:href="" xlink:show="new" xlink:title="The ImpactWork is the actual work performed by contributors that generates impact within a project." xlink:type="simple"><rect fill="#555555" fill-opacity="0.06667" height="40" rx="2.5" ry="2.5" style="stroke:#181818;stroke-width:0.5;" width="107.7148" x="306.14" y="646.8945"/><ellipse cx="321.14" cy="662.8945" fill="#ADD1B2" rx="11" ry="11" style="stroke:#181818;stroke-width:1;"/><path d="M317.2025,668.8945 L324.7181,668.8945 L324.7181,666.7852 L319.7181,666.7852 L319.7181,664.2383 L323.8119,664.2383 L323.8119,662.1445 L319.7181,662.1445 L319.7181,659.9258 L324.5463,659.9258 L324.5463,657.8164 L317.2025,657.8164 L317.2025,668.8945 Z " fill="#000000"/><text fill="#000000" font-family="sans-serif" font-size="14" lengthAdjust="spacing" textLength="75.7148" x="335.14" y="667.6797">ImpactWork</text><line style="stroke:#181818;stroke-width:0.5;" x1="307.14" x2="412.8548" y1="678.8945" y2="678.8945"/></a></g><!--class ImpactScope--><g class="entity" data-entity="ImpactScope" data-source-line="114" data-uid="ent0007" id="entity_ImpactScope"><a href="" target="_top" title="The ImpactScope is a piece of structured data defining boundaries and timeframes for measuring impact within a project." xlink:actuate="onRequest" xlink:href="" xlink:show="new" xlink:title="The ImpactScope is a piece of structured data defining boundaries and timeframes for measuring impact within a project." xlink:type="simple"><rect fill="#555555" fill-opacity="0.06667" height="40" rx="2.5" ry="2.5" style="stroke:#181818;stroke-width:0.5;" width="114.3799" x="264.81" y="327.8945"/><ellipse cx="279.81" cy="343.8945" fill="#7E57C2" rx="11" ry="11" style="stroke:#181818;stroke-width:1;"/><path d="M276.9975,349.8945 L280.2163,349.8945 C283.2944,349.8945 285.4038,348.1133 285.4038,344.3008 C285.4038,340.4883 283.2944,338.8164 280.06,338.8164 L276.9975,338.8164 L276.9975,349.8945 Z M279.5131,347.8789 L279.5131,340.832 L279.9194,340.832 C281.6538,340.832 282.8256,341.6445 282.8256,344.3008 C282.8256,346.957 281.6538,347.8789 279.9194,347.8789 L279.5131,347.8789 Z " fill="#000000"/><text fill="#000000" font-family="sans-serif" font-size="14" lengthAdjust="spacing" textLength="82.3799" x="293.81" y="348.6797">ImpactScope</text><line style="stroke:#181818;stroke-width:0.5;" x1="265.81" x2="378.1899" y1="359.8945" y2="359.8945"/></a></g><!--class ImpactClaim--><g class="entity" data-entity="ImpactClaim" data-source-line="132" data-uid="ent0008" id="entity_ImpactClaim"><a href="" target="_top" title="The ImpactClaim is a structured piece of data serving as a vehicle for ImpactContributor entities to group communicate outcomes to Measurers" xlink:actuate="onRequest" xlink:href="" xlink:show="new" xlink:title="The ImpactClaim is a structured piece of data serving as a vehicle for ImpactContributor entities to group communicate outcomes to Measurers" xlink:type="simple"><rect fill="#555555" fill-opacity="0.06667" height="40" rx="2.5" ry="2.5" style="stroke:#181818;stroke-width:0.5;" width="111.2832" x="274.36" y="510.8945"/><ellipse cx="289.36" cy="526.8945" fill="#7E57C2" rx="11" ry="11" style="stroke:#181818;stroke-width:1;"/><path d="M286.5475,532.8945 L289.7663,532.8945 C292.8444,532.8945 294.9538,531.1133 294.9538,527.3008 C294.9538,523.4883 292.8444,521.8164 289.61,521.8164 L286.5475,521.8164 L286.5475,532.8945 Z M289.0631,530.8789 L289.0631,523.832 L289.4694,523.832 C291.2038,523.832 292.3756,524.6445 292.3756,527.3008 C292.3756,529.957 291.2038,530.8789 289.4694,530.8789 L289.0631,530.8789 Z " fill="#000000"/><text fill="#000000" font-family="sans-serif" font-size="14" lengthAdjust="spacing" textLength="79.2832" x="303.36" y="531.6797">ImpactClaim</text><line style="stroke:#181818;stroke-width:0.5;" x1="275.36" x2="384.6432" y1="542.8945" y2="542.8945"/></a></g><!--class ImpactContributor--><g class="entity" data-entity="ImpactContributor" data-source-line="152" data-uid="ent0009" id="entity_ImpactContributor"><a href="" target="_top" title="The ImpactContributor is a human and/or digital entity that performs work and claims impact within projects." xlink:actuate="onRequest" xlink:href="" xlink:show="new" xlink:title="The ImpactContributor is a human and/or digital entity that performs work and claims impact within projects." xlink:type="simple"><rect fill="#555555" fill-opacity="0.06667" height="40" rx="2.5" ry="2.5" style="stroke:#181818;stroke-width:0.5;" width="145.9141" x="38.5" y="646.8945"/><ellipse cx="53.5" cy="662.8945" fill="#ADD1B2" rx="11" ry="11" style="stroke:#181818;stroke-width:1;"/><path d="M49.5625,668.8945 L57.0781,668.8945 L57.0781,666.7852 L52.0781,666.7852 L52.0781,664.2383 L56.1719,664.2383 L56.1719,662.1445 L52.0781,662.1445 L52.0781,659.9258 L56.9063,659.9258 L56.9063,657.8164 L49.5625,657.8164 L49.5625,668.8945 Z " fill="#000000"/><text fill="#000000" font-family="sans-serif" font-size="14" lengthAdjust="spacing" textLength="113.9141" x="67.5" y="667.6797">ImpactContributor</text><line style="stroke:#181818;stroke-width:0.5;" x1="39.5" x2="183.4141" y1="678.8945" y2="678.8945"/></a></g><!--class Measurement--><g class="entity" data-entity="Measurement" data-source-line="172" data-uid="ent0023" id="entity_Measurement"><a href="" target="_top" title="The Measurement is a piece of structured data capturing specific indicators and metrics related to impact claims." xlink:actuate="onRequest" xlink:href="" xlink:show="new" xlink:title="The Measurement is a piece of structured data capturing specific indicators and metrics related to impact claims." xlink:type="simple"><rect fill="#555555" fill-opacity="0.06667" height="40" rx="2.5" ry="2.5" style="stroke:#181818;stroke-width:0.5;" width="118.3857" x="518" y="646.8945"/><ellipse cx="533" cy="662.8945" fill="#7E57C2" rx="11" ry="11" style="stroke:#181818;stroke-width:1;"/><path d="M530.1875,668.8945 L533.4063,668.8945 C536.4844,668.8945 538.5938,667.1133 538.5938,663.3008 C538.5938,659.4883 536.4844,657.8164 533.25,657.8164 L530.1875,657.8164 L530.1875,668.8945 Z M532.7031,666.8789 L532.7031,659.832 L533.1094,659.832 C534.8438,659.832 536.0156,660.6445 536.0156,663.3008 C536.0156,665.957 534.8438,666.8789 533.1094,666.8789 L532.7031,666.8789 Z " fill="#000000"/><text fill="#000000" font-family="sans-serif" font-size="14" lengthAdjust="spacing" textLength="86.3857" x="547" y="667.6797">Measurement</text><line style="stroke:#181818;stroke-width:0.5;" x1="519" x2="635.3857" y1="678.8945" y2="678.8945"/></a></g><!--class Measurer--><g class="entity" data-entity="Measurer" data-source-line="192" data-uid="ent0024" id="entity_Measurer"><a href="" target="_top" title="The Measurer is a human and/or digital entity responsible for taking measurements of impact claims and outcomes." xlink:actuate="onRequest" xlink:href="" xlink:show="new" xlink:title="The Measurer is a human and/or digital entity responsible for taking measurements of impact claims and outcomes." xlink:type="simple"><rect fill="#555555" fill-opacity="0.06667" height="40" rx="2.5" ry="2.5" style="stroke:#181818;stroke-width:0.5;" width="91.1172" x="510.44" y="510.8945"/><ellipse cx="525.44" cy="526.8945" fill="#ADD1B2" rx="11" ry="11" style="stroke:#181818;stroke-width:1;"/><path d="M521.5025,532.8945 L529.0181,532.8945 L529.0181,530.7852 L524.0181,530.7852 L524.0181,528.2383 L528.1119,528.2383 L528.1119,526.1445 L524.0181,526.1445 L524.0181,523.9258 L528.8463,523.9258 L528.8463,521.8164 L521.5025,521.8164 L521.5025,532.8945 Z " fill="#000000"/><text fill="#000000" font-family="sans-serif" font-size="14" lengthAdjust="spacing" textLength="59.1172" x="539.44" y="531.6797">Measurer</text><line style="stroke:#181818;stroke-width:0.5;" x1="511.44" x2="600.5572" y1="542.8945" y2="542.8945"/></a></g><!--class EvaluationResult--><g class="entity" data-entity="EvaluationResult" data-source-line="200" data-uid="ent0027" id="entity_EvaluationResult"><a href="" target="_top" title="The EvaluationResult is a piece of structured data describing the output of an Evaluator running an evaluation." xlink:actuate="onRequest" xlink:href="" xlink:show="new" xlink:title="The EvaluationResult is a piece of structured data describing the output of an Evaluator running an evaluation." xlink:type="simple"><rect fill="#555555" fill-opacity="0.06667" height="40" rx="2.5" ry="2.5" style="stroke:#181818;stroke-width:0.5;" width="135.7695" x="740.12" y="646.8945"/><ellipse cx="755.12" cy="662.8945" fill="#7E57C2" rx="11" ry="11" style="stroke:#181818;stroke-width:1;"/><path d="M752.3075,668.8945 L755.5263,668.8945 C758.6044,668.8945 760.7138,667.1133 760.7138,663.3008 C760.7138,659.4883 758.6044,657.8164 755.37,657.8164 L752.3075,657.8164 L752.3075,668.8945 Z M754.8231,666.8789 L754.8231,659.832 L755.2294,659.832 C756.9638,659.832 758.1356,660.6445 758.1356,663.3008 C758.1356,665.957 756.9638,666.8789 755.2294,666.8789 L754.8231,666.8789 Z " fill="#000000"/><text fill="#000000" font-family="sans-serif" font-size="14" lengthAdjust="spacing" textLength="103.7695" x="769.12" y="667.6797">EvaluationResult</text><line style="stroke:#181818;stroke-width:0.5;" x1="741.12" x2="874.8895" y1="678.8945" y2="678.8945"/></a></g><!--class Evaluator--><g class="entity" data-entity="Evaluator" data-source-line="205" data-uid="ent0028" id="entity_Evaluator"><a href="" target="_top" title="The Evaluator is a human and/or digital entity responsible for evaluating measurements and (optionally) other evaluations, and outputting evaluation results." xlink:actuate="onRequest" xlink:href="" xlink:show="new" xlink:title="The Evaluator is a human and/or digital entity responsible for evaluating measurements and (optionally) other evaluations, and outputting evaluation results." xlink:type="simple"><rect fill="#555555" fill-opacity="0.06667" height="40" rx="2.5" ry="2.5" style="stroke:#181818;stroke-width:0.5;" width="90.3994" x="739.8" y="510.8945"/><ellipse cx="754.8" cy="526.8945" fill="#ADD1B2" rx="11" ry="11" style="stroke:#181818;stroke-width:1;"/><path d="M750.8625,532.8945 L758.3781,532.8945 L758.3781,530.7852 L753.3781,530.7852 L753.3781,528.2383 L757.4719,528.2383 L757.4719,526.1445 L753.3781,526.1445 L753.3781,523.9258 L758.2063,523.9258 L758.2063,521.8164 L750.8625,521.8164 L750.8625,532.8945 Z " fill="#000000"/><text fill="#000000" font-family="sans-serif" font-size="14" lengthAdjust="spacing" textLength="58.3994" x="768.8" y="531.6797">Evaluator</text><line style="stroke:#181818;stroke-width:0.5;" x1="740.8" x2="829.1994" y1="542.8945" y2="542.8945"/></a></g><!--link TheoryOfChange to ImpactProject--><g class="link" data-entity-1="TheoryOfChange" data-entity-2="ImpactProject" data-source-line="158" data-uid="lnk10" id="link_TheoryOfChange_ImpactProject"><path codeLine="158" d="M313,119.1445 C313,140.3745 313,168.3345 313,189.5845" fill="none" id="TheoryOfChange-to-ImpactProject" style="stroke:#0055A9;stroke-width:1;"/><polygon fill="#0055A9" points="313,195.5845,317,186.5845,313,190.5845,309,186.5845,313,195.5845" style="stroke:#0055A9;stroke-width:1;"/><text fill="#0055A9" font-family="sans-serif" font-size="13" lengthAdjust="spacing" textLength="40.0156" x="314" y="161.9551">orients</text></g><!--link ImpactOrganization to ImpactProject--><g class="link" data-entity-1="ImpactOrganization" data-entity-2="ImpactProject" data-source-line="159" data-uid="lnk11" id="link_ImpactOrganization_ImpactProject"><path codeLine="159" d="M153.14,119.1445 C188.58,140.3745 240.1222,171.2523 275.6122,192.5023" fill="none" id="ImpactOrganization-to-ImpactProject" style="stroke:#0055A9;stroke-width:1;"/><polygon fill="#0055A9" points="280.76,195.5845,275.0932,187.5293,276.4702,193.016,270.9835,194.393,280.76,195.5845" style="stroke:#0055A9;stroke-width:1;"/><text fill="#0055A9" font-family="sans-serif" font-size="13" lengthAdjust="spacing" textLength="57.0591" x="229.5" y="161.9551">facilitates</text><text fill="#0055A9" font-family="sans-serif" font-size="13" lengthAdjust="spacing" textLength="7.3062" x="154.2382" y="139.0427">1</text><text fill="#0055A9" font-family="sans-serif" font-size="13" lengthAdjust="spacing" textLength="5.5986" x="266.0747" y="184.8565">*</text></g><!--link ImpactProject to ImpactScope--><g class="link" data-entity-1="ImpactProject" data-entity-2="ImpactScope" data-source-line="160" data-uid="lnk12" id="link_ImpactProject_ImpactScope"><path codeLine="160" d="M314.35,236.3545 C316.05,261.0045 318.5673,297.2287 320.2573,321.7387" fill="none" id="ImpactProject-to-ImpactScope" style="stroke:#0055A9;stroke-width:1;"/><polygon fill="#0055A9" points="320.67,327.7245,324.0414,318.4707,320.3261,322.7364,316.0604,319.021,320.67,327.7245" style="stroke:#0055A9;stroke-width:1;"/><text fill="#0055A9" font-family="sans-serif" font-size="13" lengthAdjust="spacing" textLength="40.8853" x="319.57" y="278.9551">divides</text><text fill="#0055A9" font-family="sans-serif" font-size="13" lengthAdjust="spacing" textLength="22.0073" x="329.009" y="294.1895">into</text><text fill="#0055A9" font-family="sans-serif" font-size="13" lengthAdjust="spacing" textLength="7.3062" x="306.8144" y="255.9608">1</text><text fill="#0055A9" font-family="sans-serif" font-size="13" lengthAdjust="spacing" textLength="5.5986" x="314.6329" y="316.6914">*</text></g><!--link ImpactScope to ImpactClaim--><g class="link" data-entity-1="ImpactScope" data-entity-2="ImpactClaim" data-source-line="161" data-uid="lnk13" id="link_ImpactScope_ImpactClaim"><path codeLine="161" d="M322.86,368.2645 C324.4,403.1045 327.3443,469.9304 328.8843,504.6704" fill="none" id="ImpactScope-to-ImpactClaim" style="stroke:#0055A9;stroke-width:1;"/><polygon fill="#0055A9" points="329.15,510.6645,332.7475,501.4962,328.9286,505.6694,324.7554,501.8505,329.15,510.6645" style="stroke:#0055A9;stroke-width:1;"/><text fill="#0055A9" font-family="sans-serif" font-size="13" lengthAdjust="spacing" textLength="49.772" x="325.82" y="410.9551">contains</text><text fill="#0055A9" font-family="sans-serif" font-size="13" lengthAdjust="spacing" textLength="7.3062" x="315.1917" y="387.8466">1</text><text fill="#0055A9" font-family="sans-serif" font-size="13" lengthAdjust="spacing" textLength="5.5986" x="323.2534" y="499.6138">*</text></g><!--reverse link ImpactClaim to ImpactContributor--><g class="link" data-entity-1="ImpactClaim" data-entity-2="ImpactContributor" data-source-line="162" data-uid="lnk15" id="link_ImpactClaim_ImpactContributor"><path codeLine="162" d="M293.0419,554.5059 C253.2919,578.8259 190.56,617.2145 148.39,643.0145" fill="none" id="ImpactClaim-backto-ImpactContributor" style="stroke:#0055A9;stroke-width:1;"/><polygon fill="#0055A9" points="298.16,551.3745,288.3953,552.6595,293.8949,553.984,292.5705,559.4836,298.16,551.3745" style="stroke:#0055A9;stroke-width:1;"/><text fill="#0055A9" font-family="sans-serif" font-size="13" lengthAdjust="spacing" textLength="38.3081" x="247.56" y="601.4551">claims</text><text fill="#0055A9" font-family="sans-serif" font-size="13" lengthAdjust="spacing" textLength="5.5986" x="284.0111" y="570.9862">*</text><text fill="#0055A9" font-family="sans-serif" font-size="13" lengthAdjust="spacing" textLength="5.5986" x="148.2742" y="635.6787">*</text></g><!--link ImpactContributor to ImpactWork--><g class="link" data-entity-1="ImpactContributor" data-entity-2="ImpactWork" data-source-line="163" data-uid="lnk16" id="link_ImpactContributor_ImpactWork"><path codeLine="163" d="M191.5,666.8945 C228.87,666.8945 266.31,666.8945 299.72,666.8945" fill="none" id="ImpactContributor-to-ImpactWork" style="stroke:#0055A9;stroke-width:1;"/><polygon fill="#0055A9" points="305.72,666.8945,296.72,662.8945,300.72,666.8945,296.72,670.8945,305.72,666.8945" style="stroke:#0055A9;stroke-width:1;"/><polygon fill="#0055A9" points="218.82,655.5117,209.7749,652.5728,209.7749,658.4506,218.82,655.5117" style="stroke:#0055A9;stroke-width:1;"/><text fill="#0055A9" font-family="sans-serif" font-size="13" lengthAdjust="spacing" textLength="65.5396" x="222.82" y="659.9551">contributes</text><text fill="#0055A9" font-family="sans-serif" font-size="13" lengthAdjust="spacing" textLength="5.5986" x="192.4061" y="663.8743">*</text><text fill="#0055A9" font-family="sans-serif" font-size="13" lengthAdjust="spacing" textLength="5.5986" x="292.4248" y="662.8707">*</text></g><!--reverse link ImpactWork to ImpactContributor--><g class="link" data-entity-1="ImpactWork" data-entity-2="ImpactContributor" data-source-line="164" data-uid="lnk18" id="link_ImpactWork_ImpactContributor"><path codeLine="164" d="M300.2038,682.4446 C289.1238,684.8246 283.34,685.6545 272.32,686.8945 C245.96,689.8645 217.21,687.9545 191.37,684.3545" fill="none" id="ImpactWork-backto-ImpactContributor" style="stroke:#0055A9;stroke-width:1;"/><polygon fill="#0055A9" points="306.07,681.1845,296.4307,679.1638,301.1815,682.2346,298.1108,686.9854,306.07,681.1845" style="stroke:#0055A9;stroke-width:1;"/><polygon fill="#0055A9" points="235.3192,678.424,226.224,675.6442,226.3271,681.5212,235.3192,678.424" style="stroke:#0055A9;stroke-width:1;"/><text fill="#0055A9" font-family="sans-serif" font-size="13" lengthAdjust="spacing" textLength="32.2271" x="239.32" y="682.9551">gates</text><text fill="#0055A9" font-family="sans-serif" font-size="13" lengthAdjust="spacing" textLength="5.5986" x="292.4754" y="696.5996">*</text><text fill="#0055A9" font-family="sans-serif" font-size="13" lengthAdjust="spacing" textLength="7.3062" x="192.284" y="681.5253">1</text></g><!--link ImpactClaim to ImpactWork--><g class="link" data-entity-1="ImpactClaim" data-entity-2="ImpactWork" data-source-line="165" data-uid="lnk19" id="link_ImpactClaim_ImpactWork"><path codeLine="165" d="M323.34,551.3545 C318.66,568.0645 314.34,592.5945 321,612.8945 C325.06,625.2645 329.3907,632.5321 337.2107,641.8821" fill="none" id="ImpactClaim-to-ImpactWork" style="stroke:#0055A9;stroke-width:1;"/><polygon fill="#0055A9" points="341.06,646.4845,338.3543,637.0146,337.8522,642.6491,332.2177,642.1471,341.06,646.4845" style="stroke:#0055A9;stroke-width:1;"/><polygon fill="#0055A9" points="326.7573,601.954,328.2924,592.5682,322.4823,593.4584,326.7573,601.954" style="stroke:#0055A9;stroke-width:1;"/><text fill="#0055A9" font-family="sans-serif" font-size="13" lengthAdjust="spacing" textLength="61.6421" x="335" y="601.4551">represents</text><text fill="#0055A9" font-family="sans-serif" font-size="13" lengthAdjust="spacing" textLength="5.5986" x="315.9583" y="570.9608">*</text><text fill="#0055A9" font-family="sans-serif" font-size="13" lengthAdjust="spacing" textLength="5.5986" x="330.1149" y="635.7283">*</text></g><!--reverse link ImpactOrganization to ImpactContributor--><g class="link" data-entity-1="ImpactOrganization" data-entity-2="ImpactContributor" data-source-line="166" data-uid="lnk21" id="link_ImpactOrganization_ImpactContributor"><path codeLine="166" d="M118.5775,124.98 C116.5075,147.78 114,181.0945 114,214.8945 C114,214.8945 114,214.8945 114,531.8945 C114,570.9845 112.71,616.4845 111.82,643.1345" fill="none" id="ImpactOrganization-backto-ImpactContributor" style="stroke:#0055A9;stroke-width:1;"/><polygon fill="#0055A9" points="119.12,119.0045,114.3226,127.606,118.6679,123.9841,122.2899,128.3293,119.12,119.0045" style="stroke:#0055A9;stroke-width:1;"/><polygon fill="#0055A9" points="119.0652,343.0121,116.0086,352.0181,121.8859,352.0948,119.0652,343.0121" style="stroke:#0055A9;stroke-width:1;"/><text fill="#0055A9" font-family="sans-serif" font-size="13" lengthAdjust="spacing" textLength="60.8486" x="128" y="352.4551">belongs to</text><text fill="#0055A9" font-family="sans-serif" font-size="13" lengthAdjust="spacing" textLength="5.5986" x="112.9725" y="138.8633">*</text><text fill="#0055A9" font-family="sans-serif" font-size="13" lengthAdjust="spacing" textLength="5.5986" x="106.5616" y="635.8156">*</text></g><!--link Measurer to Measurement--><g class="link" data-entity-1="Measurer" data-entity-2="Measurement" data-source-line="194" data-uid="lnk25" id="link_Measurer_Measurement"><path codeLine="194" d="M559.05,551.3745 C562.88,575.7645 568.4811,611.5369 572.5211,637.3169" fill="none" id="Measurer-to-Measurement" style="stroke:#0055A9;stroke-width:1;"/><polygon fill="#0055A9" points="573.45,643.2445,576.0084,633.7338,572.6759,638.3048,568.1048,634.9723,573.45,643.2445" style="stroke:#0055A9;stroke-width:1;"/><text fill="#0055A9" font-family="sans-serif" font-size="13" lengthAdjust="spacing" textLength="31.5161" x="569.38" y="601.4551">takes</text><text fill="#0055A9" font-family="sans-serif" font-size="13" lengthAdjust="spacing" textLength="7.3062" x="551.9706" y="570.9862">1</text><text fill="#0055A9" font-family="sans-serif" font-size="13" lengthAdjust="spacing" textLength="5.5986" x="567.577" y="635.7471">*</text></g><!--link Evaluator to EvaluationResult--><g class="link" data-entity-1="Evaluator" data-entity-2="EvaluationResult" data-source-line="207" data-uid="lnk29" id="link_Evaluator_EvaluationResult"><path codeLine="207" d="M777.04,551.2245 C771.34,567.8545 765.68,592.3345 772,612.8945 C775.79,625.2245 779.8668,632.5203 787.2068,642.0003" fill="none" id="Evaluator-to-EvaluationResult" style="stroke:#0055A9;stroke-width:1;"/><polygon fill="#0055A9" points="790.88,646.7445,788.5329,637.1794,787.819,642.791,782.2073,642.0771,790.88,646.7445" style="stroke:#0055A9;stroke-width:1;"/><text fill="#0055A9" font-family="sans-serif" font-size="13" lengthAdjust="spacing" textLength="59.0967" x="773" y="601.4551">calculates</text><text fill="#0055A9" font-family="sans-serif" font-size="13" lengthAdjust="spacing" textLength="7.3062" x="767.0013" y="570.7959">1</text><text fill="#0055A9" font-family="sans-serif" font-size="13" lengthAdjust="spacing" textLength="5.5986" x="780.2031" y="635.7173">*</text></g><!--reverse link Evaluator to EvaluationResult--><g class="link" data-entity-1="Evaluator" data-entity-2="EvaluationResult" data-source-line="208" data-uid="lnk31" id="link_Evaluator_EvaluationResult"><path codeLine="208" d="M826.6688,554.7529 C837.4488,562.4229 843.05,568.8445 849,580.8945 C860.1,603.3745 843.29,629.3445 827.96,646.6045" fill="none" id="Evaluator-backto-EvaluationResult" style="stroke:#0055A9;stroke-width:1;"/><polygon fill="#0055A9" points="821.78,551.2745,826.7943,559.7514,825.854,554.1732,831.4322,553.2329,821.78,551.2745" style="stroke:#0055A9;stroke-width:1;"/><text fill="#0055A9" font-family="sans-serif" font-size="13" lengthAdjust="spacing" textLength="56.0181" x="853.58" y="593.9551">cascaded</text><text fill="#0055A9" font-family="sans-serif" font-size="13" lengthAdjust="spacing" textLength="11.667" x="875.7555" y="609.1895">to</text><text fill="#0055A9" font-family="sans-serif" font-size="13" lengthAdjust="spacing" textLength="5.5986" x="826.0733" y="570.8593">*</text><text fill="#0055A9" font-family="sans-serif" font-size="13" lengthAdjust="spacing" textLength="5.5986" x="827.9535" y="635.8821">*</text></g><!--link Impact to Measure--><!--link ImpactClaim to Measurer--><!--link ImpactClaim to Measurer--><g class="link" data-entity-1="ImpactClaim" data-entity-2="Measurer" data-source-line="285" data-uid="lnk36" id="link_ImpactClaim_Measurer"><path codeLine="285" d="M385.87,530.8945 C424.16,530.8945 468.35,530.8945 504.27,530.8945" fill="none" id="ImpactClaim-to-Measurer-1" style="stroke:#0055A9;stroke-width:1;"/><polygon fill="#0055A9" points="510.27,530.8945,501.27,526.8945,505.27,530.8945,501.27,534.8945,510.27,530.8945" style="stroke:#0055A9;stroke-width:1;"/><text fill="#0055A9" font-family="sans-serif" font-size="13" lengthAdjust="spacing" textLength="81.9482" x="407.54" y="546.9551">submitted to /</text><text fill="#0055A9" font-family="sans-serif" font-size="13" lengthAdjust="spacing" textLength="79.917" x="408.5556" y="562.1895">discovered by</text><text fill="#0055A9" font-family="sans-serif" font-size="13" lengthAdjust="spacing" textLength="5.5986" x="393.7535" y="526.963">*</text><text fill="#0055A9" font-family="sans-serif" font-size="13" lengthAdjust="spacing" textLength="5.5986" x="510.8366" y="570.8847">*</text></g><!--link Impact to Evaluate--><!--link Measure to Evaluate--><!--link Measurement to ImpactClaim--><g class="link" data-entity-1="Measurement" data-entity-2="ImpactClaim" data-source-line="286" data-uid="lnk38" id="link_Measurement_ImpactClaim"><path codeLine="286" d="M542.26,642.9545 C505.46,618.6945 451.96,583.5245 447,580.8945 C426.38,569.9545 408.3445,561.9187 387.7645,553.6187" fill="none" id="Measurement-to-ImpactClaim" style="stroke:#0055A9;stroke-width:1;"/><polygon fill="#0055A9" points="382.2,551.3745,389.0506,558.4505,386.8371,553.2447,392.0429,551.0311,382.2,551.3745" style="stroke:#0055A9;stroke-width:1;"/><text fill="#0055A9" font-family="sans-serif" font-size="13" lengthAdjust="spacing" textLength="57.2495" x="497.05" y="601.4551">measures</text><text fill="#0055A9" font-family="sans-serif" font-size="13" lengthAdjust="spacing" textLength="5.5986" x="532.2702" y="635.8061">*</text><text fill="#0055A9" font-family="sans-serif" font-size="13" lengthAdjust="spacing" textLength="7.3062" x="388.3288" y="570.9862">1</text></g><!--link Measurement to ImpactContributor--><g class="link" data-entity-1="Measurement" data-entity-2="ImpactContributor" data-source-line="287" data-uid="lnk40" id="link_Measurement_ImpactContributor"><path codeLine="287" d="M545.23,642.9945 C519.77,625.4145 482.33,602.9845 445.5,593.3945 C396.81,580.7145 272.0148,615.1282 189.1548,641.1282" fill="none" id="Measurement-to-ImpactContributor" style="stroke:#0055A9;stroke-width:1;"/><polygon fill="#0055A9" points="183.43,642.9245,193.2147,644.0466,188.2007,641.4276,190.8196,636.4135,183.43,642.9245" style="stroke:#0055A9;stroke-width:1;"/><text fill="#0055A9" font-family="sans-serif" font-size="13" lengthAdjust="spacing" textLength="39.5586" x="405.5" y="601.4551">credits</text><text fill="#0055A9" font-family="sans-serif" font-size="13" lengthAdjust="spacing" textLength="5.5986" x="535.4258" y="635.6559">*</text><text fill="#0055A9" font-family="sans-serif" font-size="13" lengthAdjust="spacing" textLength="5.5986" x="187.8057" y="635.772">*</text></g><!--link EvaluationResult to Measurement--><g class="link" data-entity-1="EvaluationResult" data-entity-2="Measurement" data-source-line="290" data-uid="lnk42" id="link_EvaluationResult_Measurement"><path codeLine="290" d="M739.73,666.8945 C709.45,666.8945 679.93,666.8945 649.81,666.8945" fill="none" id="EvaluationResult-to-Measurement" style="stroke:#0055A9;stroke-width:1;"/><polygon fill="#0055A9" points="643.81,666.8945,652.81,670.8945,648.81,666.8945,652.81,662.8945,643.81,666.8945" style="stroke:#0055A9;stroke-width:1;"/><text fill="#0055A9" font-family="sans-serif" font-size="13" lengthAdjust="spacing" textLength="55.5166" x="664.56" y="659.9551">evaluates</text><text fill="#0055A9" font-family="sans-serif" font-size="13" lengthAdjust="spacing" textLength="7.3062" x="724.8964" y="663.1476">1</text><text fill="#0055A9" font-family="sans-serif" font-size="13" lengthAdjust="spacing" textLength="5.5986" x="644.3523" y="663.8974">*</text></g><!--link Measurement to Evaluator--><g class="link" data-entity-1="Measurement" data-entity-2="Evaluator" data-source-line="291" data-uid="lnk43" id="link_Measurement_Evaluator"><path codeLine="291" d="M612.51,643.0145 C652.56,617.2145 711.9661,578.944 749.7161,554.624" fill="none" id="Measurement-to-Evaluator" style="stroke:#0055A9;stroke-width:1;"/><polygon fill="#0055A9" points="754.76,551.3745,745.0278,552.8861,750.5568,554.0824,749.3605,559.6113,754.76,551.3745" style="stroke:#0055A9;stroke-width:1;"/><text fill="#0055A9" font-family="sans-serif" font-size="13" lengthAdjust="spacing" textLength="49.7212" x="706.75" y="593.9551">ingested</text><text fill="#0055A9" font-family="sans-serif" font-size="13" lengthAdjust="spacing" textLength="13.4507" x="724.8853" y="609.1895">by</text><text fill="#0055A9" font-family="sans-serif" font-size="13" lengthAdjust="spacing" textLength="5.5986" x="612.167" y="635.6787">*</text><text fill="#0055A9" font-family="sans-serif" font-size="13" lengthAdjust="spacing" textLength="5.5986" x="741.0416" y="570.9862">*</text></g><!--SRC=[xHhzRzoszVVxA-YRLzkjRwatPDWEIG3NlgJUdDgmtGP34WGyYNVYB8a2ITcv5FxVznv9IQH4tvqJOBziBj2UIBx7z_t5xf6TIj9bGKbELwBMH1LCqvAEHZjyKQPiGIwlBlunExdvzClnszbe1rPuoO95ydPsTQQP7EsmCkMBqSxkwTdncwlZjvzk_dKv8o_9U5PghbVaYkLKSr6gZ5VabDEbf0NPdrsT7epRsrx_Udx-wURivXpkskq-04jmvGza3F_yG8Ah6W96U-H4b0k-hAMvZznHoUayPwgzvlhdYtUVNf_Dpa-lMvwyDJ9Uq5onSSkI3pOxlew2TkkFWVzsTdtsq_diq-NnoJ-Ftymw-Fu66RyHTqoMj4pOuLbHqKGVlcLKrP8TpkveNbFD3g_OFPNfsEFwPvPNJ995NIQ6Ror8ah7abl050HotTCa8L-IEAmxI6Esq1tUvkhJxlzcz_Lrt_XTQi8CH8JkIwLgMv8zAoqge_Jx5XoI083iloUJ8aDPSOYmAfR3hwvW7tmWs7e_0Md8MddE2TAmYsBwlhvSl6vaVZ3AUCiAA2YnkmLcUgXRiXTAhdBqQfIAf2rPgyZjmHeYzplx6lzUYrDVy2oD_-NEuXj1aBlBKB3-C7aQDL3SWElgRWy1_duF6JqGk9Fd3NyqVu4bogbJZ4XQ1MVAG_GHNBQMeozG1FpT_HqSUQYgbkFTWlAj-_F7vy-E_1wGDTnwwcmy9CrvxI4gXVQRsFApt6TVCs-dJEDWNCcKoljTHrEsWY5Kb6aNXpvcZ2d-VKarFUcBwRvFtufapgj6UkkLbHL63EP2WLnKZGkfCE7iTEfddvUE3Wr5hJTuwsSTuV30cL15lrV9hDKGkvlzcu69tJ9qonPSbX83txt-_oLXi1_nVCX1UQKWW2s38125UBad6bzaaPtSi9qi1taHecHBHuY0wenfOukWw6j3Z_H92YWbGXDd0XF54hPHcnPyUFdxqwRnEH3MaiRUwZZua1-9FdK0emcztiJ8OB7KflqFthwH0gXNX9GJ1meHEp02aBhbMVS9SQCMGqASkjXKb4VUGfg83WD-W_HICPicP5MRYyfAHDhYgTreHbOawJycS4KrlMTcdSjRAjqzaP6SjZPwc4Wd63DdHK1VIYp3WMqof7by3-TbCrAUgjxgM8cdEaahaF6babNBGDP_NXiw29HajkIeiNKxp84vxHCW1KJVIKBngo6c_WH0ADucSY0NcoXI-xoZFQKEM9SOpiFOQB5uCRGY61y3mR8rXhpVtz_YUoFUGaL9MVfoyQeam1tkM7noCs9s1YTbZ03Yq1GCNCP40B2JQCXA97kEZCPd0SVnlZ_mfk2PZKcq36kFYAV0HRfu2tjDG2_eG5XYHW6rhCGpMJQosAs501dCJSdMnE06JXIED0OQhnWmNa2tOlP2tBden1Guv1mV0u826Tf-jZ9j81i73008On5pskG8EOH72MqQhYfKGwj2kgTGygNCgZTMopxepJ4UTfVX2Bi6VljWeu2YCx22LPGDfQ5pGXETSGmNgyWCa9SNWmpbB6tfn4x84bmCtzT9rj9A348-5N7D6U0ITdfrsi5PPNU4IC7XfwGXvQnQDy1M8a2zu0fBZcbEq5q9v0K85DXFmLDq5FXCSeF3bvfHZzPxh3AHkY_ZKvQ5lP71BxjwXpGIicHMkJ6A6pvhcn1WMH2W8QiZLV1LemgfpoKeCOPt-75EqKMGRLrEejcnHQYyq_X_IO9TiWEKCwXI8i4t21W8GGvVDvrY8GMVcx4Y3v8qxs0XlnUu5uHXTJvIpW_pLio5MYIG31PZhpy1X98IM25AlkOiWdapQdpLFszyAkg-2jf-IBVohyKQo3nAofYRA3XzuDxTvvGOEUGZkH19RJdY5HLcxGZKeLBlGtq5YqnSnhwYrzRKDTJOlGctR9UjAdP9RnHjjAn2eATtmr1tBUEAIh4FHsQErRxG626bOfLTWhKK11Hkm30Xh3PzsrwKFgPvk0iP70nKCb0unKr93_V-w7Gp3Zg-lq1Qy3MCHMLr0uW37VeQ57bz2niY3FEBYah9HoXJ7Q4_zEDIaawzmTqHy2Z9H8AXBh2nNQzZiPUT92hL2c3EchlMn9KOaLveI0-76tuy7i5xQzE2R_GYeZQLJrz6e3oMsCXwetOy0MhUScbXFUUbVvsi90IPr7D8eOXrS06OopvIywh8BUmHuEXtgnBAGnp4kU_Ao5AuXGR8AkeoUbePiLo5ue4P4CsUvA9SORBOe2bquygj2j-GCjekbNk4RwJ0tPCw4LgxnzIgN5CCZPdFNm4cUOAELKrSSDYsCKUbNE17lv7xMHRJstWsXrFZx_zDfVzBG7ozi4JFxlREcj_ss76qcKBUjprtYxFg0zjAs9_e-QCd00t00iKq_r0oZVTjlrWR6ttLjLqpLkHwEBzpwfWBID4d8FTQwm5zLQpm8idEei8clIpSpyiOTNs7_Q5PAqwBQgDlkxf0lyHNQRKZkQnWLkYygv8Nc-Ug02121z3XKXutIGIYwD-oHHhoU9NGK1dbae90f6ISqnxOI6mNu6_U62kvSa5Cwv0PS9JHbwGT8OkCj3CizRdXcPLV2HjkkdJZIH6_qvAr7XayDGzxu2KJg0e8YSwh0u4GPaP-HS6zY5LZMPhkoq45HigO2j-mSjzI5R7hhwnt7PerLupYqW0PCEsPSo4CmIrjypjPCkfxeHFQgDH4sdcKUypGtlsdcWtsz-niHnRFFBAbr8uLWokXnxwNE_f3Hc_9v9XPuq40pKz8va0VldJ2-8yC9bSV8bD1QPr21VWa2ynvndaFCsmLoDR4Pa27X2Z2WMdEsq1Cj9f8lC-sUUhSOScrHyRZvLsnuEV9hjjW1wJsGRamliOkQ_KrukcWIms9tes-CwtdVXkoc4ln6kgDedaPuHnNvxZkozhOsXSUk6qJzs22vizoDT8MFOCx5Nzi1-xMePT8EcS95Dvhyh16wrrjAOPecDzu7NqPNryqBG6p8RpmxlC1uPEeyidq-c5gasyo81psb9wTmUWv-V7DnqZIODZ2PBLDfGxpKER8cHRtCp6vOv-r354jgXHaBssQIfbGSZFRwzqUV1xo-DWOG7zKt444h2k9w0OrS_770igCsMRpdNR6RWo3Rrh5RO_STCoA9M14ade2-Sw3U2yFmyS5B71twriOYZnL1Ah0MkANVD_RuYDSFOlcmn_O4FLRrlE3QDPVFFfHeUUZ0Phuy3b4SDGOHzXVJQP3k0QkhSHjxwlVhSIJEuQUOxbAkdw3ypPBmkw70hYEbiIiGWVe-r2HM2NDymz5O2QEylfNcGSpsYl7rHcVVlCYhROtw4GAwQFUOxkh9v553Vj7KMwCjPqLM5-zB8Mbv-p70773t0WBd8gyPP1NrX6QZQULSKdadP9wsxLoms0sQkXIai6tEH9uoDu-n_n-4Usb1_J2pF6SbMt1D5b8KVZH7XaqU2gyoYgmVhomDufRB_m00]--></g></svg>