<svg xmlns="http://www.w3.org/2000/svg" xmlns:xlink="http://www.w3.org/1999/xlink" contentStyleType="text/css" data-diagram-type="CLASS" height="301px" preserveAspectRatio="none" style="width:1005px;height:301px;background:#FFFFFF;" version="1.1" viewBox="0 0 1005 301" width="1005px" zoomAndPan="magnify"><title>MERIter: Governance Entity Relationship Diagram (ERD)</title><defs/><g><g class="title" data-source-line="27"><text fill="#000000" font-family="sans-serif" font-size="32" font-weight="bold" lengthAdjust="spacing" textLength="801.2344" x="95.2782" y="39.6875">MERIter: Governance Entity Relationship Diagram (ERD)</text></g><!--cluster Governance--><g class="cluster" data-entity="Governance" data-source-line="75" data-uid="ent0002" id="cluster_Governance"><path d="M8.5,65.3945 L164.4775,65.3945 A3.75,3.75 0 0 1 166.9775,67.8945 L173.9775,92.4883 L854.5,92.4883 A2.5,2.5 0 0 1 857,94.9883 L857,291.8945 A2.5,2.5 0 0 1 854.5,294.3945 L8.5,294.3945 A2.5,2.5 0 0 1 6,291.8945 L6,67.8945 A2.5,2.5 0 0 1 8.5,65.3945" fill="none" style="stroke:#666666;stroke-width:1.5;"/><line style="stroke:#666666;stroke-width:1.5;" x1="6" x2="173.9775" y1="92.4883" y2="92.4883"/><text fill="#000000" font-family="sans-serif" font-size="18" font-weight="bold" lengthAdjust="spacing" textLength="154.9775" x="10" y="84.0938">Governance (meta)</text></g><!--class ObjectivesDesigner--><g class="entity" data-entity="ObjectivesDesigner" data-source-line="76" data-uid="ent0003" id="entity_ObjectivesDesigner"><a href="" target="_top" title="The ObjectivesDesigner is responsible for defining high-level goals and objectives that orient the entire impact evaluation system." xlink:actuate="onRequest" xlink:href="" xlink:show="new" xlink:title="The ObjectivesDesigner is responsible for defining high-level goals and objectives that orient the entire impact evaluation system." xlink:type="simple"><rect fill="#555555" fill-opacity="0.06667" height="48" rx="2.5" ry="2.5" style="stroke:#181818;stroke-width:0.5;" width="152.0117" x="284.99" y="105.3945"/><ellipse cx="299.99" cy="121.3945" fill="#ADD1B2" rx="11" ry="11" style="stroke:#181818;stroke-width:1;"/><path d="M296.0525,127.3945 L303.5681,127.3945 L303.5681,125.2852 L298.5681,125.2852 L298.5681,122.7383 L302.6619,122.7383 L302.6619,120.6445 L298.5681,120.6445 L298.5681,118.4258 L303.3963,118.4258 L303.3963,116.3164 L296.0525,116.3164 L296.0525,127.3945 Z " fill="#000000"/><text fill="#000000" font-family="sans-serif" font-size="14" lengthAdjust="spacing" textLength="120.0117" x="313.99" y="126.1797">ObjectivesDesigner</text><line style="stroke:#181818;stroke-width:0.5;" x1="285.99" x2="436.0017" y1="137.3945" y2="137.3945"/><line style="stroke:#181818;stroke-width:0.5;" x1="285.99" x2="436.0017" y1="145.3945" y2="145.3945"/></a></g><!--class ScopesDesigner--><g class="entity" data-entity="ScopesDesigner" data-source-line="77" data-uid="ent0004" id="entity_ScopesDesigner"><a href="" target="_top" title="The ScopesDesigner is responsible for defining and structuring impact scopes that divide projects into measurable units." xlink:actuate="onRequest" xlink:href="" xlink:show="new" xlink:title="The ScopesDesigner is responsible for defining and structuring impact scopes that divide projects into measurable units." xlink:type="simple"><rect fill="#555555" fill-opacity="0.06667" height="48" rx="2.5" ry="2.5" style="stroke:#181818;stroke-width:0.5;" width="133.1377" x="22.43" y="230.3945"/><ellipse cx="37.43" cy="246.3945" fill="#ADD1B2" rx="11" ry="11" style="stroke:#181818;stroke-width:1;"/><path d="M33.4925,252.3945 L41.0081,252.3945 L41.0081,250.2852 L36.0081,250.2852 L36.0081,247.7383 L40.1019,247.7383 L40.1019,245.6445 L36.0081,245.6445 L36.0081,243.4258 L40.8363,243.4258 L40.8363,241.3164 L33.4925,241.3164 L33.4925,252.3945 Z " fill="#000000"/><text fill="#000000" font-family="sans-serif" font-size="14" lengthAdjust="spacing" textLength="101.1377" x="51.43" y="251.1797">ScopesDesigner</text><line style="stroke:#181818;stroke-width:0.5;" x1="23.43" x2="154.5677" y1="262.3945" y2="262.3945"/><line style="stroke:#181818;stroke-width:0.5;" x1="23.43" x2="154.5677" y1="270.3945" y2="270.3945"/></a></g><!--class MeasurementDesigner--><g class="entity" data-entity="MeasurementDesigner" data-source-line="78" data-uid="ent0005" id="entity_MeasurementDesigner"><a href="" target="_top" title="The MeasurementDesigner is responsible for designing measurement methodologies and configuring how measurements should be taken." xlink:actuate="onRequest" xlink:href="" xlink:show="new" xlink:title="The MeasurementDesigner is responsible for designing measurement methodologies and configuring how measurements should be taken." xlink:type="simple"><rect fill="#555555" fill-opacity="0.06667" height="48" rx="2.5" ry="2.5" style="stroke:#181818;stroke-width:0.5;" width="173.3877" x="190.31" y="230.3945"/><ellipse cx="205.31" cy="246.3945" fill="#ADD1B2" rx="11" ry="11" style="stroke:#181818;stroke-width:1;"/><path d="M201.3725,252.3945 L208.8881,252.3945 L208.8881,250.2852 L203.8881,250.2852 L203.8881,247.7383 L207.9819,247.7383 L207.9819,245.6445 L203.8881,245.6445 L203.8881,243.4258 L208.7163,243.4258 L208.7163,241.3164 L201.3725,241.3164 L201.3725,252.3945 Z " fill="#000000"/><text fill="#000000" font-family="sans-serif" font-size="14" lengthAdjust="spacing" textLength="141.3877" x="219.31" y="251.1797">MeasurementDesigner</text><line style="stroke:#181818;stroke-width:0.5;" x1="191.31" x2="362.6977" y1="262.3945" y2="262.3945"/><line style="stroke:#181818;stroke-width:0.5;" x1="191.31" x2="362.6977" y1="270.3945" y2="270.3945"/></a></g><!--class EvaluationDesigner--><g class="entity" data-entity="EvaluationDesigner" data-source-line="79" data-uid="ent0006" id="entity_EvaluationDesigner"><a href="" target="_top" title="The EvaluationDesigner is responsible for designing evaluation criteria and methodologies for assessing measurements." xlink:actuate="onRequest" xlink:href="" xlink:show="new" xlink:title="The EvaluationDesigner is responsible for designing evaluation criteria and methodologies for assessing measurements." xlink:type="simple"><rect fill="#555555" fill-opacity="0.06667" height="48" rx="2.5" ry="2.5" style="stroke:#181818;stroke-width:0.5;" width="151.793" x="399.1" y="230.3945"/><ellipse cx="414.1" cy="246.3945" fill="#ADD1B2" rx="11" ry="11" style="stroke:#181818;stroke-width:1;"/><path d="M410.1625,252.3945 L417.6781,252.3945 L417.6781,250.2852 L412.6781,250.2852 L412.6781,247.7383 L416.7719,247.7383 L416.7719,245.6445 L412.6781,245.6445 L412.6781,243.4258 L417.5063,243.4258 L417.5063,241.3164 L410.1625,241.3164 L410.1625,252.3945 Z " fill="#000000"/><text fill="#000000" font-family="sans-serif" font-size="14" lengthAdjust="spacing" textLength="119.793" x="428.1" y="251.1797">EvaluationDesigner</text><line style="stroke:#181818;stroke-width:0.5;" x1="400.1" x2="549.893" y1="262.3945" y2="262.3945"/><line style="stroke:#181818;stroke-width:0.5;" x1="400.1" x2="549.893" y1="270.3945" y2="270.3945"/></a></g><!--class RewardDesigner--><g class="entity" data-entity="RewardDesigner" data-source-line="80" data-uid="ent0007" id="entity_RewardDesigner"><a href="" target="_top" title="The RewardDesigner is responsible for designing reward policies and distribution mechanisms for impact contributors." xlink:actuate="onRequest" xlink:href="" xlink:show="new" xlink:title="The RewardDesigner is responsible for designing reward policies and distribution mechanisms for impact contributors." xlink:type="simple"><rect fill="#555555" fill-opacity="0.06667" height="48" rx="2.5" ry="2.5" style="stroke:#181818;stroke-width:0.5;" width="133.8281" x="586.09" y="230.3945"/><ellipse cx="601.09" cy="246.3945" fill="#ADD1B2" rx="11" ry="11" style="stroke:#181818;stroke-width:1;"/><path d="M597.1525,252.3945 L604.6681,252.3945 L604.6681,250.2852 L599.6681,250.2852 L599.6681,247.7383 L603.7619,247.7383 L603.7619,245.6445 L599.6681,245.6445 L599.6681,243.4258 L604.4963,243.4258 L604.4963,241.3164 L597.1525,241.3164 L597.1525,252.3945 Z " fill="#000000"/><text fill="#000000" font-family="sans-serif" font-size="14" lengthAdjust="spacing" textLength="101.8281" x="615.09" y="251.1797">RewardDesigner</text><line style="stroke:#181818;stroke-width:0.5;" x1="587.09" x2="718.9181" y1="262.3945" y2="262.3945"/><line style="stroke:#181818;stroke-width:0.5;" x1="587.09" x2="718.9181" y1="270.3945" y2="270.3945"/></a></g><!--class Treasury--><g class="entity" data-entity="Treasury" data-source-line="81" data-uid="ent0008" id="entity_Treasury"><a href="" target="_top" title="The Treasury is a pool of funds available for rewarding impact contributions and funding operations." xlink:actuate="onRequest" xlink:href="" xlink:show="new" xlink:title="The Treasury is a pool of funds available for rewarding impact contributions and funding operations." xlink:type="simple"><rect fill="#555555" fill-opacity="0.06667" height="48" rx="2.5" ry="2.5" style="stroke:#181818;stroke-width:0.5;" width="86.4482" x="754.78" y="230.3945"/><ellipse cx="769.78" cy="246.3945" fill="#ADD1B2" rx="11" ry="11" style="stroke:#181818;stroke-width:1;"/><path d="M765.8425,252.3945 L773.3581,252.3945 L773.3581,250.2852 L768.3581,250.2852 L768.3581,247.7383 L772.4519,247.7383 L772.4519,245.6445 L768.3581,245.6445 L768.3581,243.4258 L773.1863,243.4258 L773.1863,241.3164 L765.8425,241.3164 L765.8425,252.3945 Z " fill="#000000"/><text fill="#000000" font-family="sans-serif" font-size="14" lengthAdjust="spacing" textLength="54.4482" x="783.78" y="251.1797">Treasury</text><line style="stroke:#181818;stroke-width:0.5;" x1="755.78" x2="840.2282" y1="262.3945" y2="262.3945"/><line style="stroke:#181818;stroke-width:0.5;" x1="755.78" x2="840.2282" y1="270.3945" y2="270.3945"/></a></g><!--class FundingSource--><g class="entity" data-entity="FundingSource" data-source-line="258" data-uid="ent0017" id="entity_FundingSource"><a href="" target="_top" title="The FundingSource is an external entity that provides funds to the treasury for rewarding impact." xlink:actuate="onRequest" xlink:href="" xlink:show="new" xlink:title="The FundingSource is an external entity that provides funds to the treasury for rewarding impact." xlink:type="simple"><rect fill="#555555" fill-opacity="0.06667" height="48" rx="2.5" ry="2.5" style="stroke:#181818;stroke-width:0.5;" width="125.5908" x="873.2" y="105.3945"/><ellipse cx="888.2" cy="121.3945" fill="#ADD1B2" rx="11" ry="11" style="stroke:#181818;stroke-width:1;"/><path d="M884.2625,127.3945 L891.7781,127.3945 L891.7781,125.2852 L886.7781,125.2852 L886.7781,122.7383 L890.8719,122.7383 L890.8719,120.6445 L886.7781,120.6445 L886.7781,118.4258 L891.6063,118.4258 L891.6063,116.3164 L884.2625,116.3164 L884.2625,127.3945 Z " fill="#000000"/><text fill="#000000" font-family="sans-serif" font-size="14" lengthAdjust="spacing" textLength="93.5908" x="902.2" y="126.1797">FundingSource</text><line style="stroke:#181818;stroke-width:0.5;" x1="874.2" x2="997.7908" y1="137.3945" y2="137.3945"/><line style="stroke:#181818;stroke-width:0.5;" x1="874.2" x2="997.7908" y1="145.3945" y2="145.3945"/></a></g><!--link RewardDesigner to Treasury--><!--link ScopesDesigner to MeasurementDesigner--><!--link MeasurementDesigner to EvaluationDesigner--><!--link EvaluationDesigner to RewardDesigner--><!--link ObjectivesDesigner to ScopesDesigner--><g class="link" data-entity-1="ObjectivesDesigner" data-entity-2="ScopesDesigner" data-source-line="88" data-uid="lnk13" id="link_ObjectivesDesigner_ScopesDesigner"><path codeLine="88" d="M309.2,153.8145 C260.8,175.7045 194.417,205.7223 146.077,227.5823" fill="none" id="ObjectivesDesigner-to-ScopesDesigner" style="stroke:#0055A9;stroke-width:1;"/><polygon fill="#0055A9" points="140.61,230.0545,150.4587,229.9908,145.1658,227.9943,147.1623,222.7015,140.61,230.0545" style="stroke:#0055A9;stroke-width:1;"/><text fill="#0055A9" font-family="sans-serif" font-size="13" lengthAdjust="spacing" textLength="40.0156" x="242.29" y="196.4551">orients</text><text fill="#0055A9" font-family="sans-serif" font-size="13" lengthAdjust="spacing" textLength="7.3062" x="289.4482" y="173.2837">1</text><text fill="#0055A9" font-family="sans-serif" font-size="13" lengthAdjust="spacing" textLength="7.3062" x="145.3744" y="219.3826">1</text></g><!--link ObjectivesDesigner to MeasurementDesigner--><g class="link" data-entity-1="ObjectivesDesigner" data-entity-2="MeasurementDesigner" data-source-line="89" data-uid="lnk14" id="link_ObjectivesDesigner_MeasurementDesigner"><path codeLine="89" d="M345,153.8145 C330.06,175.7045 311.254,203.2399 296.324,225.0999" fill="none" id="ObjectivesDesigner-to-MeasurementDesigner" style="stroke:#0055A9;stroke-width:1;"/><polygon fill="#0055A9" points="292.94,230.0545,301.3191,224.8785,295.76,225.9256,294.7128,220.3665,292.94,230.0545" style="stroke:#0055A9;stroke-width:1;"/><text fill="#0055A9" font-family="sans-serif" font-size="13" lengthAdjust="spacing" textLength="40.0156" x="325.03" y="196.4551">orients</text><text fill="#0055A9" font-family="sans-serif" font-size="13" lengthAdjust="spacing" textLength="7.3062" x="333.527" y="173.2837">1</text><text fill="#0055A9" font-family="sans-serif" font-size="13" lengthAdjust="spacing" textLength="7.3062" x="289.0086" y="219.3826">1</text></g><!--link ObjectivesDesigner to EvaluationDesigner--><g class="link" data-entity-1="ObjectivesDesigner" data-entity-2="EvaluationDesigner" data-source-line="90" data-uid="lnk15" id="link_ObjectivesDesigner_EvaluationDesigner"><path codeLine="90" d="M382.71,153.8145 C403,175.7045 429.0315,203.7939 449.2915,225.6539" fill="none" id="ObjectivesDesigner-to-EvaluationDesigner" style="stroke:#0055A9;stroke-width:1;"/><polygon fill="#0055A9" points="453.37,230.0545,450.186,220.7346,449.9712,226.3873,444.3184,226.1726,453.37,230.0545" style="stroke:#0055A9;stroke-width:1;"/><text fill="#0055A9" font-family="sans-serif" font-size="13" lengthAdjust="spacing" textLength="40.0156" x="425.83" y="196.4551">orients</text><text fill="#0055A9" font-family="sans-serif" font-size="13" lengthAdjust="spacing" textLength="7.3062" x="379.9574" y="173.2837">1</text><text fill="#0055A9" font-family="sans-serif" font-size="13" lengthAdjust="spacing" textLength="7.3062" x="440.2827" y="219.3826">1</text></g><!--link ObjectivesDesigner to RewardDesigner--><g class="link" data-entity-1="ObjectivesDesigner" data-entity-2="RewardDesigner" data-source-line="91" data-uid="lnk16" id="link_ObjectivesDesigner_RewardDesigner"><path codeLine="91" d="M416.61,153.8145 C468.57,175.7045 540.1806,205.8651 592.0706,227.7251" fill="none" id="ObjectivesDesigner-to-RewardDesigner" style="stroke:#0055A9;stroke-width:1;"/><polygon fill="#0055A9" points="597.6,230.0545,590.8589,222.8742,592.9922,228.1134,587.753,230.2467,597.6,230.0545" style="stroke:#0055A9;stroke-width:1;"/><text fill="#0055A9" font-family="sans-serif" font-size="13" lengthAdjust="spacing" textLength="40.0156" x="525.48" y="196.4551">orients</text><text fill="#0055A9" font-family="sans-serif" font-size="13" lengthAdjust="spacing" textLength="7.3062" x="421.6968" y="173.2837">1</text><text fill="#0055A9" font-family="sans-serif" font-size="13" lengthAdjust="spacing" textLength="7.3062" x="576.2794" y="219.3826">1</text></g><!--link FundingSource to Treasury--><g class="link" data-entity-1="FundingSource" data-entity-2="Treasury" data-source-line="259" data-uid="lnk18" id="link_FundingSource_Treasury"><path codeLine="259" d="M909.72,153.8145 C885.16,175.7045 853.1894,204.2027 828.6594,226.0627" fill="none" id="FundingSource-to-Treasury" style="stroke:#0055A9;stroke-width:1;"/><polygon fill="#0055A9" points="824.18,230.0545,833.5604,227.053,827.9128,226.728,828.2379,221.0805,824.18,230.0545" style="stroke:#0055A9;stroke-width:1;"/><text fill="#0055A9" font-family="sans-serif" font-size="13" lengthAdjust="spacing" textLength="32.9063" x="876.26" y="196.4551">funds</text><text fill="#0055A9" font-family="sans-serif" font-size="13" lengthAdjust="spacing" textLength="5.5986" x="898.1349" y="173.2837">*</text><text fill="#0055A9" font-family="sans-serif" font-size="13" lengthAdjust="spacing" textLength="7.3062" x="822.7446" y="219.3826">1</text></g><!--SRC=[xLh_Rzku5V_TVmNZTPVaBbul6pfiHbeWbxYzREabI79N36rHq19jSP54WQIIkeVyxtkFf2HIOcod1VRBvWAjJUezlg-VznxLNR9JIReiACdfIjIQg89fMjBHQ8SlofGjoENLnJzc9pUVVZb-Enljm0elMR18tiwkpZIJenrMfdmnsdbsUdRyvkhuxQURVrtEo4iodfMQwnMvOZdLN9GgunKvvNGfQK7sPbUd- -FsjDU_dfz_kZcxEOUpddK_W4jmv0za37z-8C5HZG2ZNN8YoWLVrjASH-wev7IUCzKUS_tpnRjFhyzcvwVNhKxU6XalQAxOk5N99viTNqT9k_N7o7yxkpxxwNpswVBuv9_7RsOTVN-3ZD-8EoPBMYRiuAoeQA8FtZAgQiaEPdSqhwbc1rVidifqx6dzCyih9icYBXEZjnOaoLXoI_Y208zRkcI4AtB75GThZ7RQ1vznTMdtVxDxUy_Syx_GWksF2DcHJDUo97zKMbP2xVKbFY011TbvIIQ7HhJcaD48WY1dnFEg2JAovnl-vSl6UFkZZAUCiAA2q5bmbgUgLVL8wLNENerIaTG5ApNv7KGan1vWl-FdjIZrDV_2o5_-7AuXDPcBF3NB3wE7KMEU3OmE_-OeyEzpSDs9o8KaV_Yh-G2V9ATADR5j6PWbZzbFSDHIYhfC7V4Bypayz5XJASMzH-CTzUEFBruS_pqGRRZpq9ryG9X9lmDI2kqhjUjnlS-uPjvENyR1lf0fa_6zJg9k1qsiAj4u2h_Ed5Ju_PHgUj8pqtzRlAFdBgX6k-gMbnL53-OWWbvLZ0YfC-7YTPWjNhgEz_T7RJHvwsGFWNL_JAWYtghLrtg8NCp_pI1NxfWwPOelIyZbz-z_lybOR0SIMJ8mNcb480jGoA09BvSauyjiahCxbfEbW6mYj4o9Q7aGdL4DAd5C7GtiyNm9s62GXZ2BC0WCQgKqA_xqyF6ZB-Tr8ggXZBtLTVAXE00aTGAOWh_TmSfmiDAb_0xJlv82fLQ4bu1cXS50X79Ibrohlc0E8n4I-jB5jg8YuXxAL7G4y1sydqBGB3cpnanSWJ7MXbJrdbP4PQBEKp9dHDDRLlQbdBNsxGiPsLahe-UfH48mGvapqeNo8Wta5bEgfzV0VhQazANghQwLI9fdIILodZIsIZducizh8sV1aeoMN1LMBkTvCATzHCY1K3VIIBngn6b_Wo0KJX8v4GiiUYdylgCyfurOLXWlmDfZi0iniY4PFW21Pvi5UxmvlwVtHBw7YfIoykFaLIk4UR0N-S63aRWpDB5u30Y7iM3e8Y4Ia8L2MqKYw34-79C9F8x_ziIVEcHGsz36r7WIWuW-JwBlEQcZVMYxXST0spPM2DWDNjkL49GXv8HSNInE86pXaIO8mrKJYWke6EnUo5k7O4n1KiuX2H0WCDZkivL95Sa0G0mXa07kiiyLg0YB074PhIfM0jnXR5EfULBdL9h8PPzr5vnEEYlnXLn2JdsnIE0aZEoWb6L3QMHSq8JdN4CxwMe452R5u8TBc1P-SHCg1PU3LFLAThIR0vZ7PgvvHdW2dPwTThJMMLtp4YXuQUK8TMiMZV4Lc90lU0AMuvfJ31X2UG561JKJo5RTWPy12EXYkNdAgNhFTGPMjnrvwchHDogufNRlC6O2rSmALwOumy-QviG45g0K01jgDLy5dh3kNB8IOQppdrEADeviiJM5ZiisflP0Wm6X37R9WYndqAi0oZP56mH03br5dsCp1cEMYoCDbZVfO57Ucjq3ufXSJxIpe_pLYo5MYIG31vZZpo1X981BXAatgKKOJoRjrvgdxNS5erH1sv-IBVoZyKIo1nQoeIRAZXzaDxUrvGOUyXZSYIIsdF0A4QnTeHeSgXtyTvGumKN2AnfjVMz3hysBqDjsoQPIv-JMySRR2WngsZTywevbF765rh7euj76DqO3G1fswXL4Qr50qmOg0yDQmq-xwog8L4yF0PEZWGi6JWVCbDH8_xyU1qFOyVqLneAtOI8Ygmie793Opx7Puqke67bGHnmkAOjIfa76UEhZK5DElYBTaV4fs4I1eIwnkrojKRDNdISfD0jXpGXxZ4YjD3q6qes_7mzelRBfqJVx4LABfLCtrQWF9Oup7gdTZn3Qj9mQhAUyz8_plOG4apfEQHonZYuWCvLdIbvrrOKzGZoT3drYLSZZ79SzUra9ruWWMGMJHizBGxMha3nm8xAPiroKImIRBPf21qT-L-YMNC1sMEhrlf4fSqFbJ6ZbXb-lSqaH7h6Qko5EyWI7hPowvh0POunBloA9U6VtimxHsdCtGAd9z_-Nq_vjG_-AOGlCxC_FcjxsHtECcS3TjZztXRER0zf3sw7e-s0gWmp0IuXjvg7cPjcF_MPj4FpTt7R5L9thuHM6Mz_KG9eX2RN7NXVqgsgD3uBj72iSvElItHjvLnvV4VyOLahJejhes-xiK2_n5TvjHEvx61sw9ohKXURvQfy8C87qD5G7ZTF1ABftuIEDURr8w2GCwiZ08LCoJcYEOoKE2l0PzouMt7D1JUcO6tALq9Ib7w28ZRS8BFUcmWihkn8EsdRjn8acUjTFtdha0gfHoBk20fCwG51aJXK4d2WZzZCMxjrQ1P6rEQuiTT2KhEd0hJh7hNIXcjxw-iInLMFL90ujO03JJXa7UKXcPOlVjJMtNKzC8dlK6eIDLvd7CirTu3HtX7s_-niHnxFFBAbrOuNWfj7JtYkT_Oj6xwRF2x4WWmQUcP8kWJnwxmcJEpAyel8KcH9Qwmmwq2y1CEyIbpd4lBz0hIQs0Z8KN047T6lE5dgYnKJoPQRTUzijBhcsw7ZS_LVi0dFazson1wJtjdDZUOaTrEnlujEXIOoBtMrvRD_jRIDsqmb-eznHDayJl9EAVFSTMNjQMy9ZnmrGFtQPt4NkHhd25s4knL_RI_PhKSkalMGA5ztLv6UDrBtPKWepDBahViXbJ7NTl0M8NVIRp0uFC1cPkeniNo5CBTDjxeW7CwLdf_067VBuvkAa6J0jC9ajqsa3NkeSLPEYNcPcD-ppzW35abfXnSAncQGf5VkZtVxvqLS4tbmR8rX_Mn-Cec2k8nZauYy8h3fgKyHxsHKxEG3Pje_TchkVc15Bn9eWyGJsNGBrNZ4CtpvuXQDZtyPOv6r5K0fi16wPzqqyFfBr0omVpjYUeSUgdXTSk-7o-OSI8myJsDmlZqCMXqr0XFF5T1gKU-3gUjmcdlhpUfo9I_WfbhkKwoSuVxCb_6aeYEj8Q-mQH92-JpM9TS8St-5ex8JHNjygym2plMPyVT2134mgychRe7v4W0xj7lDTFPay6iX7JRyrslAkoFhYVIaaBMy_1fm3xOu0E1TvpQ2gg2SC6yqevuhAEo7pj1tdWiNkegahGGh7vapaANFtCVR_GhWtBUWVPfRdh6GBhib2Yi97SrJOrA7mAEF8-l7EqZ1kjVmF]--></g></svg>