<svg xmlns="http://www.w3.org/2000/svg" xmlns:xlink="http://www.w3.org/1999/xlink" contentStyleType="text/css" data-diagram-type="CLASS" height="301px" preserveAspectRatio="none" style="width:1005px;height:301px;background:#FFFFFF;" version="1.1" viewBox="0 0 1005 301" width="1005px" zoomAndPan="magnify"><title>MERIter Entity Relationship Diagram (ERD)</title><defs/><g><g class="title" data-source-line="25"><text fill="#000000" font-family="sans-serif" font-size="32" font-weight="bold" lengthAdjust="spacing" textLength="612.1719" x="189.8095" y="39.6875">MERIter Entity Relationship Diagram (ERD)</text></g><!--cluster Governance--><g class="cluster" data-entity="Governance" data-source-line="73" data-uid="ent0002" id="cluster_Governance"><path d="M8.5,65.3945 L164.4775,65.3945 A3.75,3.75 0 0 1 166.9775,67.8945 L173.9775,92.4883 L854.5,92.4883 A2.5,2.5 0 0 1 857,94.9883 L857,291.8945 A2.5,2.5 0 0 1 854.5,294.3945 L8.5,294.3945 A2.5,2.5 0 0 1 6,291.8945 L6,67.8945 A2.5,2.5 0 0 1 8.5,65.3945" fill="none" style="stroke:#666666;stroke-width:1.5;"/><line style="stroke:#666666;stroke-width:1.5;" x1="6" x2="173.9775" y1="92.4883" y2="92.4883"/><text fill="#000000" font-family="sans-serif" font-size="18" font-weight="bold" lengthAdjust="spacing" textLength="154.9775" x="10" y="84.0938">Governance (meta)</text></g><!--class ObjectivesDesigner--><g class="entity" data-entity="ObjectivesDesigner" data-source-line="74" data-uid="ent0003" id="entity_ObjectivesDesigner"><a href="" target="_top" title="The ObjectivesDesigner is responsible for defining high-level goals and objectives that orient the entire impact evaluation system." xlink:actuate="onRequest" xlink:href="" xlink:show="new" xlink:title="The ObjectivesDesigner is responsible for defining high-level goals and objectives that orient the entire impact evaluation system." xlink:type="simple"><rect fill="#555555" fill-opacity="0.06667" height="48" rx="2.5" ry="2.5" style="stroke:#181818;stroke-width:0.5;" width="152.0117" x="284.99" y="105.3945"/><ellipse cx="299.99" cy="121.3945" fill="#ADD1B2" rx="11" ry="11" style="stroke:#181818;stroke-width:1;"/><path d="M296.0525,127.3945 L303.5681,127.3945 L303.5681,125.2852 L298.5681,125.2852 L298.5681,122.7383 L302.6619,122.7383 L302.6619,120.6445 L298.5681,120.6445 L298.5681,118.4258 L303.3963,118.4258 L303.3963,116.3164 L296.0525,116.3164 L296.0525,127.3945 Z " fill="#000000"/><text fill="#000000" font-family="sans-serif" font-size="14" lengthAdjust="spacing" textLength="120.0117" x="313.99" y="126.1797">ObjectivesDesigner</text><line style="stroke:#181818;stroke-width:0.5;" x1="285.99" x2="436.0017" y1="137.3945" y2="137.3945"/><line style="stroke:#181818;stroke-width:0.5;" x1="285.99" x2="436.0017" y1="145.3945" y2="145.3945"/></a></g><!--class ScopesDesigner--><g class="entity" data-entity="ScopesDesigner" data-source-line="75" data-uid="ent0004" id="entity_ScopesDesigner"><a href="" target="_top" title="The ScopesDesigner is responsible for defining and structuring impact scopes that divide projects into measurable units." xlink:actuate="onRequest" xlink:href="" xlink:show="new" xlink:title="The ScopesDesigner is responsible for defining and structuring impact scopes that divide projects into measurable units." xlink:type="simple"><rect fill="#555555" fill-opacity="0.06667" height="48" rx="2.5" ry="2.5" style="stroke:#181818;stroke-width:0.5;" width="133.1377" x="22.43" y="230.3945"/><ellipse cx="37.43" cy="246.3945" fill="#ADD1B2" rx="11" ry="11" style="stroke:#181818;stroke-width:1;"/><path d="M33.4925,252.3945 L41.0081,252.3945 L41.0081,250.2852 L36.0081,250.2852 L36.0081,247.7383 L40.1019,247.7383 L40.1019,245.6445 L36.0081,245.6445 L36.0081,243.4258 L40.8363,243.4258 L40.8363,241.3164 L33.4925,241.3164 L33.4925,252.3945 Z " fill="#000000"/><text fill="#000000" font-family="sans-serif" font-size="14" lengthAdjust="spacing" textLength="101.1377" x="51.43" y="251.1797">ScopesDesigner</text><line style="stroke:#181818;stroke-width:0.5;" x1="23.43" x2="154.5677" y1="262.3945" y2="262.3945"/><line style="stroke:#181818;stroke-width:0.5;" x1="23.43" x2="154.5677" y1="270.3945" y2="270.3945"/></a></g><!--class MeasurementDesigner--><g class="entity" data-entity="MeasurementDesigner" data-source-line="76" data-uid="ent0005" id="entity_MeasurementDesigner"><a href="" target="_top" title="The MeasurementDesigner is responsible for designing measurement methodologies and configuring how measurements should be taken." xlink:actuate="onRequest" xlink:href="" xlink:show="new" xlink:title="The MeasurementDesigner is responsible for designing measurement methodologies and configuring how measurements should be taken." xlink:type="simple"><rect fill="#555555" fill-opacity="0.06667" height="48" rx="2.5" ry="2.5" style="stroke:#181818;stroke-width:0.5;" width="173.3877" x="190.31" y="230.3945"/><ellipse cx="205.31" cy="246.3945" fill="#ADD1B2" rx="11" ry="11" style="stroke:#181818;stroke-width:1;"/><path d="M201.3725,252.3945 L208.8881,252.3945 L208.8881,250.2852 L203.8881,250.2852 L203.8881,247.7383 L207.9819,247.7383 L207.9819,245.6445 L203.8881,245.6445 L203.8881,243.4258 L208.7163,243.4258 L208.7163,241.3164 L201.3725,241.3164 L201.3725,252.3945 Z " fill="#000000"/><text fill="#000000" font-family="sans-serif" font-size="14" lengthAdjust="spacing" textLength="141.3877" x="219.31" y="251.1797">MeasurementDesigner</text><line style="stroke:#181818;stroke-width:0.5;" x1="191.31" x2="362.6977" y1="262.3945" y2="262.3945"/><line style="stroke:#181818;stroke-width:0.5;" x1="191.31" x2="362.6977" y1="270.3945" y2="270.3945"/></a></g><!--class EvaluationDesigner--><g class="entity" data-entity="EvaluationDesigner" data-source-line="77" data-uid="ent0006" id="entity_EvaluationDesigner"><a href="" target="_top" title="The EvaluationDesigner is responsible for designing evaluation criteria and methodologies for assessing measurements." xlink:actuate="onRequest" xlink:href="" xlink:show="new" xlink:title="The EvaluationDesigner is responsible for designing evaluation criteria and methodologies for assessing measurements." xlink:type="simple"><rect fill="#555555" fill-opacity="0.06667" height="48" rx="2.5" ry="2.5" style="stroke:#181818;stroke-width:0.5;" width="151.793" x="399.1" y="230.3945"/><ellipse cx="414.1" cy="246.3945" fill="#ADD1B2" rx="11" ry="11" style="stroke:#181818;stroke-width:1;"/><path d="M410.1625,252.3945 L417.6781,252.3945 L417.6781,250.2852 L412.6781,250.2852 L412.6781,247.7383 L416.7719,247.7383 L416.7719,245.6445 L412.6781,245.6445 L412.6781,243.4258 L417.5063,243.4258 L417.5063,241.3164 L410.1625,241.3164 L410.1625,252.3945 Z " fill="#000000"/><text fill="#000000" font-family="sans-serif" font-size="14" lengthAdjust="spacing" textLength="119.793" x="428.1" y="251.1797">EvaluationDesigner</text><line style="stroke:#181818;stroke-width:0.5;" x1="400.1" x2="549.893" y1="262.3945" y2="262.3945"/><line style="stroke:#181818;stroke-width:0.5;" x1="400.1" x2="549.893" y1="270.3945" y2="270.3945"/></a></g><!--class RewardDesigner--><g class="entity" data-entity="RewardDesigner" data-source-line="78" data-uid="ent0007" id="entity_RewardDesigner"><a href="" target="_top" title="The RewardDesigner is responsible for designing reward policies and distribution mechanisms for impact contributors." xlink:actuate="onRequest" xlink:href="" xlink:show="new" xlink:title="The RewardDesigner is responsible for designing reward policies and distribution mechanisms for impact contributors." xlink:type="simple"><rect fill="#555555" fill-opacity="0.06667" height="48" rx="2.5" ry="2.5" style="stroke:#181818;stroke-width:0.5;" width="133.8281" x="586.09" y="230.3945"/><ellipse cx="601.09" cy="246.3945" fill="#ADD1B2" rx="11" ry="11" style="stroke:#181818;stroke-width:1;"/><path d="M597.1525,252.3945 L604.6681,252.3945 L604.6681,250.2852 L599.6681,250.2852 L599.6681,247.7383 L603.7619,247.7383 L603.7619,245.6445 L599.6681,245.6445 L599.6681,243.4258 L604.4963,243.4258 L604.4963,241.3164 L597.1525,241.3164 L597.1525,252.3945 Z " fill="#000000"/><text fill="#000000" font-family="sans-serif" font-size="14" lengthAdjust="spacing" textLength="101.8281" x="615.09" y="251.1797">RewardDesigner</text><line style="stroke:#181818;stroke-width:0.5;" x1="587.09" x2="718.9181" y1="262.3945" y2="262.3945"/><line style="stroke:#181818;stroke-width:0.5;" x1="587.09" x2="718.9181" y1="270.3945" y2="270.3945"/></a></g><!--class Treasury--><g class="entity" data-entity="Treasury" data-source-line="79" data-uid="ent0008" id="entity_Treasury"><a href="" target="_top" title="The Treasury is a pool of funds available for rewarding impact contributions and funding operations." xlink:actuate="onRequest" xlink:href="" xlink:show="new" xlink:title="The Treasury is a pool of funds available for rewarding impact contributions and funding operations." xlink:type="simple"><rect fill="#555555" fill-opacity="0.06667" height="48" rx="2.5" ry="2.5" style="stroke:#181818;stroke-width:0.5;" width="86.4482" x="754.78" y="230.3945"/><ellipse cx="769.78" cy="246.3945" fill="#ADD1B2" rx="11" ry="11" style="stroke:#181818;stroke-width:1;"/><path d="M765.8425,252.3945 L773.3581,252.3945 L773.3581,250.2852 L768.3581,250.2852 L768.3581,247.7383 L772.4519,247.7383 L772.4519,245.6445 L768.3581,245.6445 L768.3581,243.4258 L773.1863,243.4258 L773.1863,241.3164 L765.8425,241.3164 L765.8425,252.3945 Z " fill="#000000"/><text fill="#000000" font-family="sans-serif" font-size="14" lengthAdjust="spacing" textLength="54.4482" x="783.78" y="251.1797">Treasury</text><line style="stroke:#181818;stroke-width:0.5;" x1="755.78" x2="840.2282" y1="262.3945" y2="262.3945"/><line style="stroke:#181818;stroke-width:0.5;" x1="755.78" x2="840.2282" y1="270.3945" y2="270.3945"/></a></g><!--class FundingSource--><g class="entity" data-entity="FundingSource" data-source-line="256" data-uid="ent0017" id="entity_FundingSource"><a href="" target="_top" title="The FundingSource is an external entity that provides funds to the treasury for rewarding impact." xlink:actuate="onRequest" xlink:href="" xlink:show="new" xlink:title="The FundingSource is an external entity that provides funds to the treasury for rewarding impact." xlink:type="simple"><rect fill="#555555" fill-opacity="0.06667" height="48" rx="2.5" ry="2.5" style="stroke:#181818;stroke-width:0.5;" width="125.5908" x="873.2" y="105.3945"/><ellipse cx="888.2" cy="121.3945" fill="#ADD1B2" rx="11" ry="11" style="stroke:#181818;stroke-width:1;"/><path d="M884.2625,127.3945 L891.7781,127.3945 L891.7781,125.2852 L886.7781,125.2852 L886.7781,122.7383 L890.8719,122.7383 L890.8719,120.6445 L886.7781,120.6445 L886.7781,118.4258 L891.6063,118.4258 L891.6063,116.3164 L884.2625,116.3164 L884.2625,127.3945 Z " fill="#000000"/><text fill="#000000" font-family="sans-serif" font-size="14" lengthAdjust="spacing" textLength="93.5908" x="902.2" y="126.1797">FundingSource</text><line style="stroke:#181818;stroke-width:0.5;" x1="874.2" x2="997.7908" y1="137.3945" y2="137.3945"/><line style="stroke:#181818;stroke-width:0.5;" x1="874.2" x2="997.7908" y1="145.3945" y2="145.3945"/></a></g><!--link RewardDesigner to Treasury--><!--link ScopesDesigner to MeasurementDesigner--><!--link MeasurementDesigner to EvaluationDesigner--><!--link EvaluationDesigner to RewardDesigner--><!--link ObjectivesDesigner to ScopesDesigner--><g class="link" data-entity-1="ObjectivesDesigner" data-entity-2="ScopesDesigner" data-source-line="86" data-uid="lnk13" id="link_ObjectivesDesigner_ScopesDesigner"><path codeLine="86" d="M309.2,153.8145 C260.8,175.7045 194.417,205.7223 146.077,227.5823" fill="none" id="ObjectivesDesigner-to-ScopesDesigner" style="stroke:#0055A9;stroke-width:1;"/><polygon fill="#0055A9" points="140.61,230.0545,150.4587,229.9908,145.1658,227.9943,147.1623,222.7015,140.61,230.0545" style="stroke:#0055A9;stroke-width:1;"/><text fill="#0055A9" font-family="sans-serif" font-size="13" lengthAdjust="spacing" textLength="40.0156" x="242.29" y="196.4551">orients</text><text fill="#0055A9" font-family="sans-serif" font-size="13" lengthAdjust="spacing" textLength="7.3062" x="289.4482" y="173.2837">1</text><text fill="#0055A9" font-family="sans-serif" font-size="13" lengthAdjust="spacing" textLength="7.3062" x="145.3744" y="219.3826">1</text></g><!--link ObjectivesDesigner to MeasurementDesigner--><g class="link" data-entity-1="ObjectivesDesigner" data-entity-2="MeasurementDesigner" data-source-line="87" data-uid="lnk14" id="link_ObjectivesDesigner_MeasurementDesigner"><path codeLine="87" d="M345,153.8145 C330.06,175.7045 311.254,203.2399 296.324,225.0999" fill="none" id="ObjectivesDesigner-to-MeasurementDesigner" style="stroke:#0055A9;stroke-width:1;"/><polygon fill="#0055A9" points="292.94,230.0545,301.3191,224.8785,295.76,225.9256,294.7128,220.3665,292.94,230.0545" style="stroke:#0055A9;stroke-width:1;"/><text fill="#0055A9" font-family="sans-serif" font-size="13" lengthAdjust="spacing" textLength="40.0156" x="325.03" y="196.4551">orients</text><text fill="#0055A9" font-family="sans-serif" font-size="13" lengthAdjust="spacing" textLength="7.3062" x="333.527" y="173.2837">1</text><text fill="#0055A9" font-family="sans-serif" font-size="13" lengthAdjust="spacing" textLength="7.3062" x="289.0086" y="219.3826">1</text></g><!--link ObjectivesDesigner to EvaluationDesigner--><g class="link" data-entity-1="ObjectivesDesigner" data-entity-2="EvaluationDesigner" data-source-line="88" data-uid="lnk15" id="link_ObjectivesDesigner_EvaluationDesigner"><path codeLine="88" d="M382.71,153.8145 C403,175.7045 429.0315,203.7939 449.2915,225.6539" fill="none" id="ObjectivesDesigner-to-EvaluationDesigner" style="stroke:#0055A9;stroke-width:1;"/><polygon fill="#0055A9" points="453.37,230.0545,450.186,220.7346,449.9712,226.3873,444.3184,226.1726,453.37,230.0545" style="stroke:#0055A9;stroke-width:1;"/><text fill="#0055A9" font-family="sans-serif" font-size="13" lengthAdjust="spacing" textLength="40.0156" x="425.83" y="196.4551">orients</text><text fill="#0055A9" font-family="sans-serif" font-size="13" lengthAdjust="spacing" textLength="7.3062" x="379.9574" y="173.2837">1</text><text fill="#0055A9" font-family="sans-serif" font-size="13" lengthAdjust="spacing" textLength="7.3062" x="440.2827" y="219.3826">1</text></g><!--link ObjectivesDesigner to RewardDesigner--><g class="link" data-entity-1="ObjectivesDesigner" data-entity-2="RewardDesigner" data-source-line="89" data-uid="lnk16" id="link_ObjectivesDesigner_RewardDesigner"><path codeLine="89" d="M416.61,153.8145 C468.57,175.7045 540.1806,205.8651 592.0706,227.7251" fill="none" id="ObjectivesDesigner-to-RewardDesigner" style="stroke:#0055A9;stroke-width:1;"/><polygon fill="#0055A9" points="597.6,230.0545,590.8589,222.8742,592.9922,228.1134,587.753,230.2467,597.6,230.0545" style="stroke:#0055A9;stroke-width:1;"/><text fill="#0055A9" font-family="sans-serif" font-size="13" lengthAdjust="spacing" textLength="40.0156" x="525.48" y="196.4551">orients</text><text fill="#0055A9" font-family="sans-serif" font-size="13" lengthAdjust="spacing" textLength="7.3062" x="421.6968" y="173.2837">1</text><text fill="#0055A9" font-family="sans-serif" font-size="13" lengthAdjust="spacing" textLength="7.3062" x="576.2794" y="219.3826">1</text></g><!--link FundingSource to Treasury--><g class="link" data-entity-1="FundingSource" data-entity-2="Treasury" data-source-line="257" data-uid="lnk18" id="link_FundingSource_Treasury"><path codeLine="257" d="M909.72,153.8145 C885.16,175.7045 853.1894,204.2027 828.6594,226.0627" fill="none" id="FundingSource-to-Treasury" style="stroke:#0055A9;stroke-width:1;"/><polygon fill="#0055A9" points="824.18,230.0545,833.5604,227.053,827.9128,226.728,828.2379,221.0805,824.18,230.0545" style="stroke:#0055A9;stroke-width:1;"/><text fill="#0055A9" font-family="sans-serif" font-size="13" lengthAdjust="spacing" textLength="32.9063" x="876.26" y="196.4551">funds</text><text fill="#0055A9" font-family="sans-serif" font-size="13" lengthAdjust="spacing" textLength="5.5986" x="898.1349" y="173.2837">*</text><text fill="#0055A9" font-family="sans-serif" font-size="13" lengthAdjust="spacing" textLength="7.3062" x="822.7446" y="219.3826">1</text></g><!--SRC=[xHhzRzkuzNV_5OpNNPAxUBriwB0PQO5SulQyfPSWoLqnj4L1IxJDHH85adBg7lA_xpsIaaY9iPqMs2-R2xGIoVVulh_KVR9NIhh8ASdeMbIQg9nfMj31OE_PrVNbFoPdjvz-ENqx8I_9yEtaUggP7CBM-VJqpVNfsq-t_xeoMvD2SxqcrooZcej2BNb9pZbTI9gJWydr-I40yNcHiZbv_Ul5nQVRwUt51F2qBu0blF07CeG_Fv3Whi4UAr8-7mpsoPaevdnHINCXML79wInZghddvkVBTvzUJoSNvpU3FLZW1VFNo71ECyM6DSO0R79w4mLjrny3_srwC_tfOlBfwlJidwTl9YryTuCCtuWLamKj4dOqpKkQwAEtZAfAigF9YcOLrUpecjrJcGuzhdzcMSaacLT5OlZMWYHBbjmHFYU0uuuk6E6AhBZY88t1NdFm6LTNTlytktVmp9t_XURiS438dcIwaWNvezAo5EgWI_4H2I38taioEZQarPSC1c056IEUMWSe6NBW2_xborfuXuCbJnbXUGcsC-SiIrN3wedIwuoz6gGYgN9MQF8xa4Y8lS0-u- -rAFGD_yB8N_uShY4qcOaiDSiFWuT1BPujY8x_vY3mxmjGtPd8X2H_-Alv0PuaeqhLncqHc2KFsKzmrKAAgaWTy0lpEpxsK5CfnRq7urtruuylNfp-FI2jl_FGtdn4cF6_8r88xJErxs6zNtBDl9qkZRrz8LCcutijHUqEYbYLebOKFauSLVXyJZKzwuZflqtUoNDdL8DzTSUBag86Co11hqj6XDHBuUorxosUkmuF3mUDDNdhv01Zv-6GK4MyLSklrH2vdFsRWQ-ic3fdYYyAyENtxt-_NRBO3ZYoP22ymf10vi2GYIQyM90bNon76LknZ2m4U1EXHKf4WuFe9TN04aVNqO0UxvSG6qoa8Sn660mCQgqqo__qyF6ZJ-TD8ie-ZPtLJVGXEH18gWHY2hwxYvN1OAbB-GhTlvG2gLQ45n3DSXC3CPIJgk1QTGbpCH93GfUws5QKHDn3cl8M09v1-oaOpO8pAyp49HWZRN1LxxGYQYcgB2KpHZIzOqMNoaaZtowHaPsDD7gQIYGOCwGvGrr8ByA0Rp6bEdprv6TJIfUgpkf6YgGvIqgHyQIMLSf1rtnM6JfpbYnfmLLkwNAQ1t7Q8qBsYBgLXk9rJKxp3eHGk4baHCmnwQNmlg8yepLPbXZFm9fhi0mnj24O7W33iyM2lTxSt-5x9Dz3HafPyN7qgY727EnOVd0mOdS69cQF0M3V5WnSn4G2i91eoqWaUWoFXsG4n_7V3lbZ5ndKBh0nDfw48CBFa-0xIcfX7vfguR6WRGih3DXrlBOhOL06anDoVJa_0xE58xKHXgl65EUGCTYza7SkWZ45JZa39y00WSPslrmRLv4C0eW11328k-np2Ip28eIu9IrBLa2uGzkcKlEaogWqbii-wzOu7NMMuakv09_wOYE1ep2oWrGMDQIXSKuJdd4DvQJB4P2O58CNvp1D-CLDo1HSzbpLIzdHQWx2F1PpzHdX4NG-FMzXhRBQuYLWyChI4V9MBnhXAn0Xd_C49CSrfsWmXF8SX0fi9k2jkWr-9a105SlDASVgFTTBaBgjo5ENYxwHmHsvUuSs4x1cLhWooHbUAveHOrWGfI2m8LUpTQ09gyu5Ap2CjVfpJD5QaKriJQ7YieMflT34W906ksI3B6TGgq2KhPCs480Osem-ms8CsYndHneaRzp1HdahTYyGn-XwefmTvA-U3R5I94jGWBb-2WuZ8RX4a7gTMWJnQDGyLZnjdXMqKZbjNYMR-rVZZUG096HDJHGjFl1kRdFBBHpo4An44bjEU8aHh5cX6XIgNVXl8R63YvXNrDgwsePQc-UXjksITQLMoOtYZROL2DIKRtXgnPOySOdMeMZjqTetMWE4DApKIx3MF8UY3LW6X9M6LxlhCeXKJpS1uwE12dfAXvWfgQ7-VzqE-c77rrTe2zw6iOXbbKFY0CT-ZiKUNq36o88yukAIib7A5CXeJzquLAUJht1tH7mECb4Wg2kiBjSRsEnavr4AnKAOCy8Q8v8hJOs1SCFlXprOBsrwyFL-1DJ6qh7hQjI70jiP3zJkHm2jMuvDhAUyyA_pjOG0eoeEQHIn2Iu0CvbdJ5wrsOKz0ZmUztLYMSZY61STULaADv0WMGcTHaTBVRRB43nG8wAPiKmK2mmsEnI5BXpvLQ5RSWRRnbAlzerqcLioPq9Br_nwbKkAuH6pkMlY94-msSgeAmxhDiQez2kSYBTodxOHhRbtIoWr_lx_TDgTDdH733l4p6x_hEbTjpL7cmdKRUjpbpZRFg2vj6cAlW-wCl0074BiqW_LasNVzkkrdl6tVTirKrMc-oCCjxwjW3HD4dAFjIxmLrOQ3uBi72fivAl2pOsyaSTNs3-QbT8qBxVgjhqxv4jyXNPhahiQHeKUY19veLcsFYG2H20z3jLHhNGGYkuCVAGHhsS9BOL17kafP4o62SsmhSH60Nx3pc31dGjoIelSWAk4fYpz04bik8DXkIyLdbdPbR3HjcjdZZJH6Jzvwv41LCsGDu82aRg0eCYCAZ0uKKJaPoJScLe5bhNThYnqK9HigC0jEwSDTI6Rtlfcnx5POrqx3isX0TEE6HVo4CpI5f-rrTEk9pgHlMf3X8rdcSSypGrmwXbXL-_-HaJnx3DBAbrB8PWqUjnxgRCxQFGcVPw91HxKqyoOj0xamNidZE_8S4JbCJ8cjD9Bg42_185vdpZF8URx1N8riXcG8U4ACA1QCpRN8or6aY-MsdsQtM78jKF5u-PViG7cmA_POWUazxLpQtg9NLJlRyFJHfCO5hlRuDYzsjk5xBeI_4QwesYUHdXB5VdkExBnjYQ5nwxhHVtOCBcrtArqXH_2d8k_jaFs6r79f1aoXOjkDFbP8tIdjvJ2D4rkn0- -ZAwkwwy0iK6_yUpm0kEHgVF8vXF2s2BTPKRSwoazEOKJzDxHw3JVQq4ZvpVFrOEc4HWxWPOhFigtNsRKDjlq_21sSn0EcufpP-o-2qK44IjNn1FGjwRU-HZG_qxWXVWMVMCDaUyAGT2sjhAZXzQMyuX_zg9klnls13rKrIpdshM1pp_0rIf1LxEJO5XGB9kFe64MKfkrOOZsk3QIi3iOZuDa3JUv2hMsiMwt7KVYt7MCoIhb-Wa6iLqwVYyJs7gai7Nb7L3VXHh5wbYENs0qrh4ehs-bkHTnlL9wio423GoQ_bUx6leZ1BInwZ7TLQFHeyPzKbTBWnqdFLONxmiXQN7tCS0SS7T2U37FAWOvGJsXLQWRCPSItWcPfKqp5YosOw8sWIXiUfSYIvcRfjZ_oU2-aw1-c5cUiOBDkIPpANAJL-g19J1iiaXubL5azNXTQ10tNFu7]--></g></svg>