<svg xmlns="http://www.w3.org/2000/svg" xmlns:xlink="http://www.w3.org/1999/xlink" contentStyleType="text/css" data-diagram-type="CLASS" height="388px" preserveAspectRatio="none" style="width:640px;height:388px;background:#FFFFFF;" version="1.1" viewBox="0 0 640 388" width="640px" zoomAndPan="magnify"><title>MERIter Entity Relationship Diagram (ERD)</title><defs/><g><g class="title" data-source-line="19"><text fill="#000000" font-family="sans-serif" font-size="32" font-weight="bold" lengthAdjust="spacing" textLength="612.1719" x="10" y="39.6875">MERIter Entity Relationship Diagram (ERD)</text></g><!--cluster Reward--><g class="cluster" data-entity="Reward" data-source-line="196" data-uid="ent0002" id="cluster_Reward"><path d="M118.0859,65.3945 L179.9063,65.3945 A3.75,3.75 0 0 1 182.4063,67.8945 L189.4063,92.4883 L527.0859,92.4883 A2.5,2.5 0 0 1 529.5859,94.9883 L529.5859,275.8945 A2.5,2.5 0 0 1 527.0859,278.3945 L118.0859,278.3945 A2.5,2.5 0 0 1 115.5859,275.8945 L115.5859,67.8945 A2.5,2.5 0 0 1 118.0859,65.3945" fill="none" style="stroke:#000000;stroke-width:1.5;"/><line style="stroke:#000000;stroke-width:1.5;" x1="115.5859" x2="189.4063" y1="92.4883" y2="92.4883"/><text fill="#000000" font-family="sans-serif" font-size="18" font-weight="bold" lengthAdjust="spacing" textLength="60.8203" x="119.5859" y="84.0938">Reward</text></g><!--class RewardCalculator--><g class="entity" data-entity="RewardCalculator" data-source-line="197" data-uid="ent0003" id="entity_RewardCalculator"><rect fill="#555555" fill-opacity="0.06667" height="40" rx="2.5" ry="2.5" style="stroke:#181818;stroke-width:0.5;" width="142.332" x="131.4159" y="105.3945"/><ellipse cx="146.4159" cy="121.3945" fill="#ADD1B2" rx="11" ry="11" style="stroke:#181818;stroke-width:1;"/><path d="M142.4784,127.3945 L149.9941,127.3945 L149.9941,125.2852 L144.9941,125.2852 L144.9941,122.7383 L149.0878,122.7383 L149.0878,120.6445 L144.9941,120.6445 L144.9941,118.4258 L149.8222,118.4258 L149.8222,116.3164 L142.4784,116.3164 L142.4784,127.3945 Z " fill="#000000"/><text fill="#000000" font-family="sans-serif" font-size="14" lengthAdjust="spacing" textLength="110.332" x="160.4159" y="126.1797">RewardCalculator</text><line style="stroke:#181818;stroke-width:0.5;" x1="132.4159" x2="272.748" y1="137.3945" y2="137.3945"/></g><!--class RewardAllocation--><g class="entity" data-entity="RewardAllocation" data-source-line="202" data-uid="ent0004" id="entity_RewardAllocation"><rect fill="#555555" fill-opacity="0.06667" height="40" rx="2.5" ry="2.5" style="stroke:#181818;stroke-width:0.5;" width="141.3955" x="131.8859" y="222.3945"/><ellipse cx="146.8859" cy="238.3945" fill="#7E57C2" rx="11" ry="11" style="stroke:#181818;stroke-width:1;"/><path d="M144.0734,244.3945 L147.2922,244.3945 C150.3703,244.3945 152.4797,242.6133 152.4797,238.8008 C152.4797,234.9883 150.3703,233.3164 147.1359,233.3164 L144.0734,233.3164 L144.0734,244.3945 Z M146.5891,242.3789 L146.5891,235.332 L146.9953,235.332 C148.7297,235.332 149.9016,236.1445 149.9016,238.8008 C149.9016,241.457 148.7297,242.3789 146.9953,242.3789 L146.5891,242.3789 Z " fill="#000000"/><text fill="#000000" font-family="sans-serif" font-size="14" lengthAdjust="spacing" textLength="109.3955" x="160.8859" y="243.1797">RewardAllocation</text><line style="stroke:#181818;stroke-width:0.5;" x1="132.8859" x2="272.2814" y1="254.3945" y2="254.3945"/></g><!--class RewardDistributor--><g class="entity" data-entity="RewardDistributor" data-source-line="209" data-uid="ent0005" id="entity_RewardDistributor"><rect fill="#555555" fill-opacity="0.06667" height="40" rx="2.5" ry="2.5" style="stroke:#181818;stroke-width:0.5;" width="144.2598" x="369.4559" y="222.3945"/><ellipse cx="384.4559" cy="238.3945" fill="#ADD1B2" rx="11" ry="11" style="stroke:#181818;stroke-width:1;"/><path d="M380.5184,244.3945 L388.0341,244.3945 L388.0341,242.2852 L383.0341,242.2852 L383.0341,239.7383 L387.1278,239.7383 L387.1278,237.6445 L383.0341,237.6445 L383.0341,235.4258 L387.8622,235.4258 L387.8622,233.3164 L380.5184,233.3164 L380.5184,244.3945 Z " fill="#000000"/><text fill="#000000" font-family="sans-serif" font-size="14" lengthAdjust="spacing" textLength="112.2598" x="398.4559" y="243.1797">RewardDistributor</text><line style="stroke:#181818;stroke-width:0.5;" x1="370.4559" x2="512.7157" y1="254.3945" y2="254.3945"/></g><!--class ExternalWorld--><g class="entity" data-entity="ExternalWorld" data-source-line="284" data-uid="ent0008" id="entity_ExternalWorld"><rect fill="#555555" fill-opacity="0.06667" height="40" rx="2.5" ry="2.5" style="stroke:#181818;stroke-width:0.5;" width="118.8506" x="143.1559" y="341.3945"/><ellipse cx="158.1559" cy="357.3945" fill="#ADD1B2" rx="11" ry="11" style="stroke:#181818;stroke-width:1;"/><path d="M154.2184,363.3945 L161.7341,363.3945 L161.7341,361.2852 L156.7341,361.2852 L156.7341,358.7383 L160.8278,358.7383 L160.8278,356.6445 L156.7341,356.6445 L156.7341,354.4258 L161.5622,354.4258 L161.5622,352.3164 L154.2184,352.3164 L154.2184,363.3945 Z " fill="#000000"/><text fill="#000000" font-family="sans-serif" font-size="14" lengthAdjust="spacing" textLength="86.8506" x="172.1559" y="362.1797">ExternalWorld</text><line style="stroke:#181818;stroke-width:0.5;" x1="144.1559" x2="261.0065" y1="373.3945" y2="373.3945"/></g><!--link RewardCalculator to RewardAllocation--><g class="link" data-entity-1="RewardCalculator" data-entity-2="RewardAllocation" data-source-line="211" data-uid="lnk6" id="link_RewardCalculator_RewardAllocation"><path codeLine="211" d="M202.5859,145.6445 C202.5859,166.8745 202.5859,194.8345 202.5859,216.0845" fill="none" id="RewardCalculator-to-RewardAllocation" style="stroke:#181818;stroke-width:1;"/><polygon fill="#181818" points="202.5859,222.0845,206.5859,213.0845,202.5859,217.0845,198.5859,213.0845,202.5859,222.0845" style="stroke:#181818;stroke-width:1;"/><text fill="#000000" font-family="sans-serif" font-size="13" lengthAdjust="spacing" textLength="59.0967" x="203.5859" y="188.4551">calculates</text><text fill="#000000" font-family="sans-serif" font-size="13" lengthAdjust="spacing" textLength="7.3062" x="194.6457" y="165.5427">1</text><text fill="#000000" font-family="sans-serif" font-size="13" lengthAdjust="spacing" textLength="5.5986" x="196.9676" y="211.3565">*</text></g><!--link RewardAllocation to RewardDistributor--><g class="link" data-entity-1="RewardAllocation" data-entity-2="RewardDistributor" data-source-line="212" data-uid="lnk7" id="link_RewardAllocation_RewardDistributor"><path codeLine="212" d="M273.6459,242.3945 C303.7759,242.3945 332.8659,242.3945 363.1459,242.3945" fill="none" id="RewardAllocation-to-RewardDistributor" style="stroke:#181818;stroke-width:1;"/><polygon fill="#181818" points="369.1459,242.3945,360.1459,238.3945,364.1459,242.3945,360.1459,246.3945,369.1459,242.3945" style="stroke:#181818;stroke-width:1;"/><text fill="#000000" font-family="sans-serif" font-size="13" lengthAdjust="spacing" textLength="60.6836" x="291.3659" y="235.4551">authorizes</text><text fill="#000000" font-family="sans-serif" font-size="13" lengthAdjust="spacing" textLength="5.5986" x="281.2629" y="238.6937">*</text><text fill="#000000" font-family="sans-serif" font-size="13" lengthAdjust="spacing" textLength="7.3062" x="354.3304" y="238.6937">1</text></g><!--reverse link RewardAllocation to ExternalWorld--><g class="link" data-entity-1="RewardAllocation" data-entity-2="ExternalWorld" data-source-line="285" data-uid="lnk10" id="link_RewardAllocation_ExternalWorld"><path codeLine="285" d="M202.5859,268.7145 C202.5859,290.3945 202.5859,319.3545 202.5859,341.0445" fill="none" id="RewardAllocation-backto-ExternalWorld" style="stroke:#181818;stroke-width:1;"/><polygon fill="#181818" points="202.5859,262.7145,198.5859,271.7145,202.5859,267.7145,206.5859,271.7145,202.5859,262.7145" style="stroke:#181818;stroke-width:1;"/><text fill="#000000" font-family="sans-serif" font-size="13" lengthAdjust="spacing" textLength="37.2988" x="203.5859" y="307.4551">values</text><text fill="#000000" font-family="sans-serif" font-size="13" lengthAdjust="spacing" textLength="5.5986" x="196.9951" y="282.2832">*</text><text fill="#000000" font-family="sans-serif" font-size="13" lengthAdjust="spacing" textLength="7.3062" x="194.6459" y="330.3052">1</text></g><!--SRC=[vLXjJniv4Fw-lyBasXBQH1LtEkaKKIHAGfiU54HegnD5oEnw4n-xzihsGjEA_txZzRxOMISigdHV6ZwmE-CPpyipu_5kewrCu7cAKOANF5T8faHXXeDWwzdP-Uc7oU75zSU3ambwWteda_Ef8g87hF7quDtvmSdrnJzd1Ml255LBT4uIh2XdSa4pDAPuBd2A-fFpyOuMElfqV7nzCRqurYAkzbUe1t-laACu2BRH8MSndUUYK8lkiA3u9Y4IjCtUdtwvFffEZiSpKFSyneaa_PsACJcO-PWqPX69qUVfRFhsU79zTd3uzy6xoIpO0YfbfCL0lNVyZWY6MKW6qpJ3eHgS42npGGQJEvpaM971ERd78W8F2OjehAr-JvAC21JdB2piLXo52nBU8XeZq76BvmHHYUwefE1Di5KlV4RbcU5_Dhp-itBzHvoIdG2XBK5KBXXwBfN8kEolMZn0ZWJQUeE6kuLfrIP10BbA2BBo4UZ8eFvpnbNV3kpEJh2W4K4apI2xCIL996itzwHQ9cG_Y7YOfuGfz0FCGyWeDy_wTyIPcj7l1FtnkqlJqkY69r51VWWUWYeqZoZQ_QkM21CiPGKqixGWMM9lGUbSy9n5XppX0ltsP_7RtIsLr383X8NWzmD42Z0F44J3tdyR7GD4Z9Bx1LN4ugnkqk9p4H7Xvsc_LZdQDvdnAgRwSL9QfP_7ME735J__R_FsNfVv3xRbBMKPrYb8m0Irp0ZYGYru2QisgAsgwW76wiHRTDJNZMYdXx145jNuQpA4Jc_-9G3fEoB7HD8v8yBcpaAU-Jbb1MlG-jXbOKEf-BYcsdsS2r7eNGO5qLs7Xk8IIYaYx6gutwpK2rqxtONhBFNGNS4rFhJ9hjYASuLCEygejzj3GrYk_w-OFuBKKp1BTf7rkV4a1Hv_dYI_agH6zg5kS-iWR4u33TyAlORYGlHYGRXOdiQ72ypc9B1PPlcfc6D6lvlphQbciwlTYciMjoJ6qt4ZOWnkkfgppvdWEX9FtwAZ_YzSt1RK27gJwS66KU2ZsxQPiV6JvHJ9UBW0U-0qICcKmVW16VVfQWxyHjzmM3_cDAgV9Pp5AQvV1Odj7VL6gCzZ54AHwW0q-iYtZ9f9v08MMGhkUEWZXpJJQAefM2aYLLcAZQGU0Jn1ziPyDRfm2j0KNLx- -4mMD8JpCePObInet8BUv0eeHQeeaSKamjCqPnGiXZQTAtWrzB8OXNoukkgMBwbJwmIkbI7oJGbSMFsB9grTANPUEeNv7afh37P9CFQC9pHSRjZARJXe646dSpk0so0zNQXea5gkzxBNaernI1Eg03osVCNtY9hw7w68ti4eARyooXItH0tV8sYWFGAyCeKfixUpGwW5XhbVKl_VAEU8wHO6Kll5ZiKoiaPuD6hdnBYG-3NEL-9bBDnWWY2P878bIsstCrVSIQDMSqCIpkQwl3kSQ6K3i8-qabJYj6a-ri7T3SEqSNlQ53K5Ww08kNYaYHJbymjtVNTkBUUowgqPQ5uw4nK0GE5RqcMMgQwoTkehMYltpSnrJcIUT0I03h1KECqUzRBKpqitwrUtHxIi6A5UY9CmJtIfQS7UoiHRhdFwHQEy49SXZaZq5HfKhqFKodk_5JD3SIT0GpiiJRDw_jfWYKB2wVGRvW2Z_o19IZHsImTEuJQeDg3MNx3hSbREqLHM_Sc-0rc-EobiMGuTkywW9M-jA98dtE6zsHGKu1pkdO9-Ts2_ZShKeUAUIzaS3KsX4zth9MZGzPAGM0qL7mewNwZoUrY7yRz3Eorl1hwhNM0V2Bu5edAZI_7wDghuZ-bfuEpJOhYrZkv7IHUpgsFc9-tsgdcQuOrLwCKBj76tka7wjckr7TyrsogNn-noFvYKLNUKWn2RptWkGX8uRwPIeh9IgkyDUdw3LRBBhROrI5hshtnQMLtg_VvWpPsUzPk_13YJ8ZYs1tEM_-D3L3pAnp1ZuTEtizEcwdEsitORsfv0-Cun_WJr3GHNFb-qlsnOhRTHNwF1yoN4QQO6AnqhfqBEchffTSFs26m5kYVpcvJ2u1Jfc-dhhx0rN3QX181mizG4IP9u25Co5wgWzLorknL8t9beD7BEDTWfDSmAOwiZjbz9MNyZVOX4L3q148z7nvxW7Anx9XvIwfKjgQ5lm87ke2TH671ql7xMvbOdj6QipK046uYGQByhqDSOqFIgTRdBXyEruDuhvonFvltNEvEBIyO5PhTNZcR7kpsuriH9Jg1NooVCaDNq-qtfHf_0JJ21OyH-Cs7DrqzFEWtDdly1]--></g></svg>