<svg xmlns="http://www.w3.org/2000/svg" xmlns:xlink="http://www.w3.org/1999/xlink" contentStyleType="text/css" data-diagram-type="CLASS" height="780px" preserveAspectRatio="none" style="width:992px;height:780px;background:#FFFFFF;" version="1.1" viewBox="0 0 992 780" width="992px" zoomAndPan="magnify"><title>MERIter Entity Relationship Diagram (ERD)</title><defs/><g><g class="title" data-source-line="19"><text fill="#000000" font-family="sans-serif" font-size="32" font-weight="bold" lengthAdjust="spacing" textLength="612.1719" x="183.2903" y="39.6875">MERIter Entity Relationship Diagram (ERD)</text></g><!--cluster Impact--><g class="cluster" data-entity="Impact" data-source-line="87" data-uid="ent0002" id="cluster_Impact"><path d="M8.5,65.3945 L65.6006,65.3945 A3.75,3.75 0 0 1 68.1006,67.8945 L75.1006,92.4883 L443.5,92.4883 A2.5,2.5 0 0 1 446,94.9883 L446,770.8945 A2.5,2.5 0 0 1 443.5,773.3945 L8.5,773.3945 A2.5,2.5 0 0 1 6,770.8945 L6,67.8945 A2.5,2.5 0 0 1 8.5,65.3945" fill="none" style="stroke:#666666;stroke-width:1.5;"/><line style="stroke:#666666;stroke-width:1.5;" x1="6" x2="75.1006" y1="92.4883" y2="92.4883"/><text fill="#000000" font-family="sans-serif" font-size="18" font-weight="bold" lengthAdjust="spacing" textLength="56.1006" x="10" y="84.0938">Impact</text></g><!--cluster Measure--><g class="cluster" data-entity="Measure" data-source-line="158" data-uid="ent0022" id="cluster_Measure"><path d="M488.5,497.3945 L560.2959,497.3945 A3.75,3.75 0 0 1 562.7959,499.8945 L569.7959,524.4883 L673.5,524.4883 A2.5,2.5 0 0 1 676,526.9883 L676,770.8945 A2.5,2.5 0 0 1 673.5,773.3945 L488.5,773.3945 A2.5,2.5 0 0 1 486,770.8945 L486,499.8945 A2.5,2.5 0 0 1 488.5,497.3945" fill="none" style="stroke:#666666;stroke-width:1.5;"/><line style="stroke:#666666;stroke-width:1.5;" x1="486" x2="569.7959" y1="524.4883" y2="524.4883"/><text fill="#000000" font-family="sans-serif" font-size="18" font-weight="bold" lengthAdjust="spacing" textLength="70.7959" x="490" y="516.0938">Measure</text></g><!--cluster Evaluate--><g class="cluster" data-entity="Evaluate" data-source-line="186" data-uid="ent0026" id="cluster_Evaluate"><path d="M718.5,497.3945 L788.6963,497.3945 A3.75,3.75 0 0 1 791.1963,499.8945 L798.1963,524.4883 L975.5,524.4883 A2.5,2.5 0 0 1 978,526.9883 L978,766.8945 A2.5,2.5 0 0 1 975.5,769.3945 L718.5,769.3945 A2.5,2.5 0 0 1 716,766.8945 L716,499.8945 A2.5,2.5 0 0 1 718.5,497.3945" fill="none" style="stroke:#666666;stroke-width:1.5;"/><line style="stroke:#666666;stroke-width:1.5;" x1="716" x2="798.1963" y1="524.4883" y2="524.4883"/><text fill="#000000" font-family="sans-serif" font-size="18" font-weight="bold" lengthAdjust="spacing" textLength="69.1963" x="720" y="516.0938">Evaluate</text></g><!--class TheoryOfChange--><g class="entity" data-entity="TheoryOfChange" data-source-line="88" data-uid="ent0003" id="entity_TheoryOfChange"><a href="" target="_top" title="The TheoryOfChange is a framework that describes how and why desired changes are expected to happen in a particular context." xlink:actuate="onRequest" xlink:href="" xlink:show="new" xlink:title="The TheoryOfChange is a framework that describes how and why desired changes are expected to happen in a particular context." xlink:type="simple"><rect fill="#555555" fill-opacity="0.06667" height="40" rx="2.5" ry="2.5" style="stroke:#181818;stroke-width:0.5;" width="136.7949" x="243.6" y="137.3945"/><ellipse cx="258.6" cy="153.3945" fill="#ADD1B2" rx="11" ry="11" style="stroke:#181818;stroke-width:1;"/><path d="M254.6625,159.3945 L262.1781,159.3945 L262.1781,157.2852 L257.1781,157.2852 L257.1781,154.7383 L261.2719,154.7383 L261.2719,152.6445 L257.1781,152.6445 L257.1781,150.4258 L262.0063,150.4258 L262.0063,148.3164 L254.6625,148.3164 L254.6625,159.3945 Z " fill="#000000"/><text fill="#000000" font-family="sans-serif" font-size="14" lengthAdjust="spacing" textLength="104.7949" x="272.6" y="158.1797">TheoryOfChange</text><line style="stroke:#181818;stroke-width:0.5;" x1="244.6" x2="379.3949" y1="169.3945" y2="169.3945"/></a></g><!--class ImpactOrganization--><g class="entity" data-entity="ImpactOrganization" data-source-line="90" data-uid="ent0004" id="entity_ImpactOrganization"><a href="" target="_top" title="The ImpactOrganization is an entity that facilitates and oversees impact projects and their contributors." xlink:actuate="onRequest" xlink:href="" xlink:show="new" xlink:title="The ImpactOrganization is an entity that facilitates and oversees impact projects and their contributors." xlink:type="simple"><rect fill="#555555" fill-opacity="0.06667" height="40" rx="2.5" ry="2.5" style="stroke:#181818;stroke-width:0.5;" width="154.7188" x="42.64" y="137.3945"/><ellipse cx="57.64" cy="153.3945" fill="#ADD1B2" rx="11" ry="11" style="stroke:#181818;stroke-width:1;"/><path d="M53.7025,159.3945 L61.2181,159.3945 L61.2181,157.2852 L56.2181,157.2852 L56.2181,154.7383 L60.3119,154.7383 L60.3119,152.6445 L56.2181,152.6445 L56.2181,150.4258 L61.0463,150.4258 L61.0463,148.3164 L53.7025,148.3164 L53.7025,159.3945 Z " fill="#000000"/><text fill="#000000" font-family="sans-serif" font-size="14" lengthAdjust="spacing" textLength="122.7188" x="71.64" y="158.1797">ImpactOrganization</text><line style="stroke:#181818;stroke-width:0.5;" x1="43.64" x2="196.3588" y1="169.3945" y2="169.3945"/></a></g><!--class ImpactProject--><g class="entity" data-entity="ImpactProject" data-source-line="95" data-uid="ent0005" id="entity_ImpactProject"><a href="" target="_top" title="The ImpactProject is a specific initiative aimed at creating measurable positive impact within defined scopes." xlink:actuate="onRequest" xlink:href="" xlink:show="new" xlink:title="The ImpactProject is a specific initiative aimed at creating measurable positive impact within defined scopes." xlink:type="simple"><rect fill="#555555" fill-opacity="0.06667" height="40" rx="2.5" ry="2.5" style="stroke:#181818;stroke-width:0.5;" width="119.7119" x="252.14" y="254.3945"/><ellipse cx="267.14" cy="270.3945" fill="#ADD1B2" rx="11" ry="11" style="stroke:#181818;stroke-width:1;"/><path d="M263.2025,276.3945 L270.7181,276.3945 L270.7181,274.2852 L265.7181,274.2852 L265.7181,271.7383 L269.8119,271.7383 L269.8119,269.6445 L265.7181,269.6445 L265.7181,267.4258 L270.5463,267.4258 L270.5463,265.3164 L263.2025,265.3164 L263.2025,276.3945 Z " fill="#000000"/><text fill="#000000" font-family="sans-serif" font-size="14" lengthAdjust="spacing" textLength="87.7119" x="281.14" y="275.1797">ImpactProject</text><line style="stroke:#181818;stroke-width:0.5;" x1="253.14" x2="370.8519" y1="286.3945" y2="286.3945"/></a></g><!--class ImpactWork--><g class="entity" data-entity="ImpactWork" data-source-line="100" data-uid="ent0006" id="entity_ImpactWork"><a href="" target="_top" title="The ImpactWork is the actual work performed by contributors that generates impact within a project." xlink:actuate="onRequest" xlink:href="" xlink:show="new" xlink:title="The ImpactWork is the actual work performed by contributors that generates impact within a project." xlink:type="simple"><rect fill="#555555" fill-opacity="0.06667" height="40" rx="2.5" ry="2.5" style="stroke:#181818;stroke-width:0.5;" width="107.7148" x="306.14" y="705.3945"/><ellipse cx="321.14" cy="721.3945" fill="#ADD1B2" rx="11" ry="11" style="stroke:#181818;stroke-width:1;"/><path d="M317.2025,727.3945 L324.7181,727.3945 L324.7181,725.2852 L319.7181,725.2852 L319.7181,722.7383 L323.8119,722.7383 L323.8119,720.6445 L319.7181,720.6445 L319.7181,718.4258 L324.5463,718.4258 L324.5463,716.3164 L317.2025,716.3164 L317.2025,727.3945 Z " fill="#000000"/><text fill="#000000" font-family="sans-serif" font-size="14" lengthAdjust="spacing" textLength="75.7148" x="335.14" y="726.1797">ImpactWork</text><line style="stroke:#181818;stroke-width:0.5;" x1="307.14" x2="412.8548" y1="737.3945" y2="737.3945"/></a></g><!--class ImpactScope--><g class="entity" data-entity="ImpactScope" data-source-line="101" data-uid="ent0007" id="entity_ImpactScope"><a href="" target="_top" title="The ImpactScope is a piece of structured data defining boundaries and timeframes for measuring impact within a project." xlink:actuate="onRequest" xlink:href="" xlink:show="new" xlink:title="The ImpactScope is a piece of structured data defining boundaries and timeframes for measuring impact within a project." xlink:type="simple"><rect fill="#555555" fill-opacity="0.06667" height="40" rx="2.5" ry="2.5" style="stroke:#181818;stroke-width:0.5;" width="114.3799" x="259.81" y="386.3945"/><ellipse cx="274.81" cy="402.3945" fill="#7E57C2" rx="11" ry="11" style="stroke:#181818;stroke-width:1;"/><path d="M271.9975,408.3945 L275.2163,408.3945 C278.2944,408.3945 280.4038,406.6133 280.4038,402.8008 C280.4038,398.9883 278.2944,397.3164 275.06,397.3164 L271.9975,397.3164 L271.9975,408.3945 Z M274.5131,406.3789 L274.5131,399.332 L274.9194,399.332 C276.6538,399.332 277.8256,400.1445 277.8256,402.8008 C277.8256,405.457 276.6538,406.3789 274.9194,406.3789 L274.5131,406.3789 Z " fill="#000000"/><text fill="#000000" font-family="sans-serif" font-size="14" lengthAdjust="spacing" textLength="82.3799" x="288.81" y="407.1797">ImpactScope</text><line style="stroke:#181818;stroke-width:0.5;" x1="260.81" x2="373.1899" y1="418.3945" y2="418.3945"/></a></g><!--class ImpactClaim--><g class="entity" data-entity="ImpactClaim" data-source-line="119" data-uid="ent0008" id="entity_ImpactClaim"><a href="" target="_top" title="The ImpactClaim is a structured piece of data serving as a vehicle for ImpactContributor entities to group communicate outcomes to Measurers" xlink:actuate="onRequest" xlink:href="" xlink:show="new" xlink:title="The ImpactClaim is a structured piece of data serving as a vehicle for ImpactContributor entities to group communicate outcomes to Measurers" xlink:type="simple"><rect fill="#555555" fill-opacity="0.06667" height="40" rx="2.5" ry="2.5" style="stroke:#181818;stroke-width:0.5;" width="111.2832" x="268.36" y="569.3945"/><ellipse cx="283.36" cy="585.3945" fill="#7E57C2" rx="11" ry="11" style="stroke:#181818;stroke-width:1;"/><path d="M280.5475,591.3945 L283.7663,591.3945 C286.8444,591.3945 288.9538,589.6133 288.9538,585.8008 C288.9538,581.9883 286.8444,580.3164 283.61,580.3164 L280.5475,580.3164 L280.5475,591.3945 Z M283.0631,589.3789 L283.0631,582.332 L283.4694,582.332 C285.2038,582.332 286.3756,583.1445 286.3756,585.8008 C286.3756,588.457 285.2038,589.3789 283.4694,589.3789 L283.0631,589.3789 Z " fill="#000000"/><text fill="#000000" font-family="sans-serif" font-size="14" lengthAdjust="spacing" textLength="79.2832" x="297.36" y="590.1797">ImpactClaim</text><line style="stroke:#181818;stroke-width:0.5;" x1="269.36" x2="378.6432" y1="601.3945" y2="601.3945"/></a></g><!--class ImpactContributor--><g class="entity" data-entity="ImpactContributor" data-source-line="139" data-uid="ent0009" id="entity_ImpactContributor"><a href="" target="_top" title="The ImpactContributor is a human and/or digital entity that performs work and claims impact within projects." xlink:actuate="onRequest" xlink:href="" xlink:show="new" xlink:title="The ImpactContributor is a human and/or digital entity that performs work and claims impact within projects." xlink:type="simple"><rect fill="#555555" fill-opacity="0.06667" height="40" rx="2.5" ry="2.5" style="stroke:#181818;stroke-width:0.5;" width="145.9141" x="38.5" y="705.3945"/><ellipse cx="53.5" cy="721.3945" fill="#ADD1B2" rx="11" ry="11" style="stroke:#181818;stroke-width:1;"/><path d="M49.5625,727.3945 L57.0781,727.3945 L57.0781,725.2852 L52.0781,725.2852 L52.0781,722.7383 L56.1719,722.7383 L56.1719,720.6445 L52.0781,720.6445 L52.0781,718.4258 L56.9063,718.4258 L56.9063,716.3164 L49.5625,716.3164 L49.5625,727.3945 Z " fill="#000000"/><text fill="#000000" font-family="sans-serif" font-size="14" lengthAdjust="spacing" textLength="113.9141" x="67.5" y="726.1797">ImpactContributor</text><line style="stroke:#181818;stroke-width:0.5;" x1="39.5" x2="183.4141" y1="737.3945" y2="737.3945"/></a></g><!--class Measurement--><g class="entity" data-entity="Measurement" data-source-line="159" data-uid="ent0023" id="entity_Measurement"><a href="" target="_top" title="The Measurement is a piece of structured data capturing specific indicators and metrics related to impact claims." xlink:actuate="onRequest" xlink:href="" xlink:show="new" xlink:title="The Measurement is a piece of structured data capturing specific indicators and metrics related to impact claims." xlink:type="simple"><rect fill="#555555" fill-opacity="0.06667" height="40" rx="2.5" ry="2.5" style="stroke:#181818;stroke-width:0.5;" width="118.3857" x="518" y="705.3945"/><ellipse cx="533" cy="721.3945" fill="#7E57C2" rx="11" ry="11" style="stroke:#181818;stroke-width:1;"/><path d="M530.1875,727.3945 L533.4063,727.3945 C536.4844,727.3945 538.5938,725.6133 538.5938,721.8008 C538.5938,717.9883 536.4844,716.3164 533.25,716.3164 L530.1875,716.3164 L530.1875,727.3945 Z M532.7031,725.3789 L532.7031,718.332 L533.1094,718.332 C534.8438,718.332 536.0156,719.1445 536.0156,721.8008 C536.0156,724.457 534.8438,725.3789 533.1094,725.3789 L532.7031,725.3789 Z " fill="#000000"/><text fill="#000000" font-family="sans-serif" font-size="14" lengthAdjust="spacing" textLength="86.3857" x="547" y="726.1797">Measurement</text><line style="stroke:#181818;stroke-width:0.5;" x1="519" x2="635.3857" y1="737.3945" y2="737.3945"/></a></g><!--class Measurer--><g class="entity" data-entity="Measurer" data-source-line="179" data-uid="ent0024" id="entity_Measurer"><a href="" target="_top" title="The Measurer is a human and/or digital entity responsible for taking measurements of impact claims and outcomes." xlink:actuate="onRequest" xlink:href="" xlink:show="new" xlink:title="The Measurer is a human and/or digital entity responsible for taking measurements of impact claims and outcomes." xlink:type="simple"><rect fill="#555555" fill-opacity="0.06667" height="40" rx="2.5" ry="2.5" style="stroke:#181818;stroke-width:0.5;" width="91.1172" x="510.44" y="569.3945"/><ellipse cx="525.44" cy="585.3945" fill="#ADD1B2" rx="11" ry="11" style="stroke:#181818;stroke-width:1;"/><path d="M521.5025,591.3945 L529.0181,591.3945 L529.0181,589.2852 L524.0181,589.2852 L524.0181,586.7383 L528.1119,586.7383 L528.1119,584.6445 L524.0181,584.6445 L524.0181,582.4258 L528.8463,582.4258 L528.8463,580.3164 L521.5025,580.3164 L521.5025,591.3945 Z " fill="#000000"/><text fill="#000000" font-family="sans-serif" font-size="14" lengthAdjust="spacing" textLength="59.1172" x="539.44" y="590.1797">Measurer</text><line style="stroke:#181818;stroke-width:0.5;" x1="511.44" x2="600.5572" y1="601.3945" y2="601.3945"/></a></g><!--class EvaluationResult--><g class="entity" data-entity="EvaluationResult" data-source-line="187" data-uid="ent0027" id="entity_EvaluationResult"><a href="" target="_top" title="The EvaluationResult is a piece of structured data describing the output of an Evaluator running an evaluation." xlink:actuate="onRequest" xlink:href="" xlink:show="new" xlink:title="The EvaluationResult is a piece of structured data describing the output of an Evaluator running an evaluation." xlink:type="simple"><rect fill="#555555" fill-opacity="0.06667" height="40" rx="2.5" ry="2.5" style="stroke:#181818;stroke-width:0.5;" width="135.7695" x="740.12" y="705.3945"/><ellipse cx="755.12" cy="721.3945" fill="#7E57C2" rx="11" ry="11" style="stroke:#181818;stroke-width:1;"/><path d="M752.3075,727.3945 L755.5263,727.3945 C758.6044,727.3945 760.7138,725.6133 760.7138,721.8008 C760.7138,717.9883 758.6044,716.3164 755.37,716.3164 L752.3075,716.3164 L752.3075,727.3945 Z M754.8231,725.3789 L754.8231,718.332 L755.2294,718.332 C756.9638,718.332 758.1356,719.1445 758.1356,721.8008 C758.1356,724.457 756.9638,725.3789 755.2294,725.3789 L754.8231,725.3789 Z " fill="#000000"/><text fill="#000000" font-family="sans-serif" font-size="14" lengthAdjust="spacing" textLength="103.7695" x="769.12" y="726.1797">EvaluationResult</text><line style="stroke:#181818;stroke-width:0.5;" x1="741.12" x2="874.8895" y1="737.3945" y2="737.3945"/></a></g><!--class Evaluator--><g class="entity" data-entity="Evaluator" data-source-line="192" data-uid="ent0028" id="entity_Evaluator"><a href="" target="_top" title="The Evaluator is a human and/or digital entity responsible for evaluating measurements and (optionally) other evaluations, and outputting evaluation results." xlink:actuate="onRequest" xlink:href="" xlink:show="new" xlink:title="The Evaluator is a human and/or digital entity responsible for evaluating measurements and (optionally) other evaluations, and outputting evaluation results." xlink:type="simple"><rect fill="#555555" fill-opacity="0.06667" height="40" rx="2.5" ry="2.5" style="stroke:#181818;stroke-width:0.5;" width="90.3994" x="739.8" y="569.3945"/><ellipse cx="754.8" cy="585.3945" fill="#ADD1B2" rx="11" ry="11" style="stroke:#181818;stroke-width:1;"/><path d="M750.8625,591.3945 L758.3781,591.3945 L758.3781,589.2852 L753.3781,589.2852 L753.3781,586.7383 L757.4719,586.7383 L757.4719,584.6445 L753.3781,584.6445 L753.3781,582.4258 L758.2063,582.4258 L758.2063,580.3164 L750.8625,580.3164 L750.8625,591.3945 Z " fill="#000000"/><text fill="#000000" font-family="sans-serif" font-size="14" lengthAdjust="spacing" textLength="58.3994" x="768.8" y="590.1797">Evaluator</text><line style="stroke:#181818;stroke-width:0.5;" x1="740.8" x2="829.1994" y1="601.3945" y2="601.3945"/></a></g><!--link TheoryOfChange to ImpactProject--><g class="link" data-entity-1="TheoryOfChange" data-entity-2="ImpactProject" data-source-line="145" data-uid="lnk10" id="link_TheoryOfChange_ImpactProject"><path codeLine="145" d="M312,177.6445 C312,198.8745 312,226.8345 312,248.0845" fill="none" id="TheoryOfChange-to-ImpactProject" style="stroke:#003366;stroke-width:1;"/><polygon fill="#003366" points="312,254.0845,316,245.0845,312,249.0845,308,245.0845,312,254.0845" style="stroke:#003366;stroke-width:1;"/><text fill="#000000" font-family="sans-serif" font-size="13" lengthAdjust="spacing" textLength="40.0156" x="313" y="220.4551">orients</text></g><!--link ImpactOrganization to ImpactProject--><g class="link" data-entity-1="ImpactOrganization" data-entity-2="ImpactProject" data-source-line="146" data-uid="lnk11" id="link_ImpactOrganization_ImpactProject"><path codeLine="146" d="M152.14,177.6445 C187.58,198.8745 239.1222,229.7523 274.6122,251.0023" fill="none" id="ImpactOrganization-to-ImpactProject" style="stroke:#003366;stroke-width:1;"/><polygon fill="#003366" points="279.76,254.0845,274.0932,246.0293,275.4702,251.516,269.9835,252.893,279.76,254.0845" style="stroke:#003366;stroke-width:1;"/><text fill="#000000" font-family="sans-serif" font-size="13" lengthAdjust="spacing" textLength="57.0591" x="228.5" y="220.4551">facilitates</text><text fill="#000000" font-family="sans-serif" font-size="13" lengthAdjust="spacing" textLength="7.3062" x="153.2382" y="197.5427">1</text><text fill="#000000" font-family="sans-serif" font-size="13" lengthAdjust="spacing" textLength="5.5986" x="265.0747" y="243.3565">*</text></g><!--link ImpactProject to ImpactScope--><g class="link" data-entity-1="ImpactProject" data-entity-2="ImpactScope" data-source-line="147" data-uid="lnk12" id="link_ImpactProject_ImpactScope"><path codeLine="147" d="M312.75,294.8545 C313.7,319.5045 315.0901,355.7189 316.0301,380.2289" fill="none" id="ImpactProject-to-ImpactScope" style="stroke:#003366;stroke-width:1;"/><polygon fill="#003366" points="316.26,386.2245,319.9121,377.0778,316.0684,381.2282,311.918,377.3844,316.26,386.2245" style="stroke:#003366;stroke-width:1;"/><text fill="#000000" font-family="sans-serif" font-size="13" lengthAdjust="spacing" textLength="40.8853" x="316.09" y="337.4551">divides</text><text fill="#000000" font-family="sans-serif" font-size="13" lengthAdjust="spacing" textLength="22.0073" x="325.529" y="352.6895">into</text><text fill="#000000" font-family="sans-serif" font-size="13" lengthAdjust="spacing" textLength="7.3062" x="305.0532" y="314.4608">1</text><text fill="#000000" font-family="sans-serif" font-size="13" lengthAdjust="spacing" textLength="5.5986" x="310.3962" y="375.1914">*</text></g><!--link ImpactScope to ImpactClaim--><g class="link" data-entity-1="ImpactScope" data-entity-2="ImpactClaim" data-source-line="148" data-uid="lnk13" id="link_ImpactScope_ImpactClaim"><path codeLine="148" d="M317.75,426.7645 C319.1,461.6045 321.677,528.4291 323.027,563.1691" fill="none" id="ImpactScope-to-ImpactClaim" style="stroke:#003366;stroke-width:1;"/><polygon fill="#003366" points="323.26,569.1645,326.9075,560.016,323.0658,564.1683,318.9135,560.3266,323.26,569.1645" style="stroke:#003366;stroke-width:1;"/><text fill="#000000" font-family="sans-serif" font-size="13" lengthAdjust="spacing" textLength="49.772" x="320.46" y="469.4551">contains</text><text fill="#000000" font-family="sans-serif" font-size="13" lengthAdjust="spacing" textLength="7.3062" x="310.0521" y="446.3466">1</text><text fill="#000000" font-family="sans-serif" font-size="13" lengthAdjust="spacing" textLength="5.5986" x="317.3957" y="558.1138">*</text></g><!--reverse link ImpactClaim to ImpactContributor--><g class="link" data-entity-1="ImpactClaim" data-entity-2="ImpactContributor" data-source-line="149" data-uid="lnk15" id="link_ImpactClaim_ImpactContributor"><path codeLine="149" d="M287.9517,613.07 C249.3017,637.39 188.38,675.7145 147.36,701.5145" fill="none" id="ImpactClaim-backto-ImpactContributor" style="stroke:#003366;stroke-width:1;"/><polygon fill="#003366" points="293.03,609.8745,283.2823,611.2822,288.7981,612.5374,287.5429,618.0532,293.03,609.8745" style="stroke:#003366;stroke-width:1;"/><text fill="#000000" font-family="sans-serif" font-size="13" lengthAdjust="spacing" textLength="38.3081" x="243.84" y="659.9551">claims</text><text fill="#000000" font-family="sans-serif" font-size="13" lengthAdjust="spacing" textLength="5.5986" x="279.1149" y="629.4862">*</text><text fill="#000000" font-family="sans-serif" font-size="13" lengthAdjust="spacing" textLength="5.5986" x="147.0994" y="694.1787">*</text></g><!--link ImpactContributor to ImpactWork--><g class="link" data-entity-1="ImpactContributor" data-entity-2="ImpactWork" data-source-line="150" data-uid="lnk16" id="link_ImpactContributor_ImpactWork"><path codeLine="150" d="M191.5,725.3945 C228.87,725.3945 266.31,725.3945 299.72,725.3945" fill="none" id="ImpactContributor-to-ImpactWork" style="stroke:#003366;stroke-width:1;"/><polygon fill="#003366" points="305.72,725.3945,296.72,721.3945,300.72,725.3945,296.72,729.3945,305.72,725.3945" style="stroke:#003366;stroke-width:1;"/><polygon fill="#000000" points="218.82,714.0117,209.7749,711.0728,209.7749,716.9506,218.82,714.0117" style="stroke:#000000;stroke-width:1;"/><text fill="#000000" font-family="sans-serif" font-size="13" lengthAdjust="spacing" textLength="65.5396" x="222.82" y="718.4551">contributes</text><text fill="#000000" font-family="sans-serif" font-size="13" lengthAdjust="spacing" textLength="5.5986" x="192.4061" y="722.3743">*</text><text fill="#000000" font-family="sans-serif" font-size="13" lengthAdjust="spacing" textLength="5.5986" x="292.4248" y="721.3707">*</text></g><!--reverse link ImpactWork to ImpactContributor--><g class="link" data-entity-1="ImpactWork" data-entity-2="ImpactContributor" data-source-line="151" data-uid="lnk18" id="link_ImpactWork_ImpactContributor"><path codeLine="151" d="M300.2038,740.9446 C289.1238,743.3246 283.34,744.1545 272.32,745.3945 C245.96,748.3645 217.21,746.4545 191.37,742.8545" fill="none" id="ImpactWork-backto-ImpactContributor" style="stroke:#003366;stroke-width:1;"/><polygon fill="#003366" points="306.07,739.6845,296.4307,737.6638,301.1815,740.7346,298.1108,745.4854,306.07,739.6845" style="stroke:#003366;stroke-width:1;"/><polygon fill="#000000" points="235.3192,736.924,226.224,734.1442,226.3271,740.0212,235.3192,736.924" style="stroke:#000000;stroke-width:1;"/><text fill="#000000" font-family="sans-serif" font-size="13" lengthAdjust="spacing" textLength="32.2271" x="239.32" y="741.4551">gates</text><text fill="#000000" font-family="sans-serif" font-size="13" lengthAdjust="spacing" textLength="5.5986" x="292.4754" y="755.0996">*</text><text fill="#000000" font-family="sans-serif" font-size="13" lengthAdjust="spacing" textLength="7.3062" x="192.284" y="740.0253">1</text></g><!--link ImpactClaim to ImpactWork--><g class="link" data-entity-1="ImpactClaim" data-entity-2="ImpactWork" data-source-line="152" data-uid="lnk19" id="link_ImpactClaim_ImpactWork"><path codeLine="152" d="M318.77,609.6045 C315.14,626.3745 312.08,651.1245 319,671.3945 C323.29,683.9445 327.9212,691.3247 336.1412,700.6447" fill="none" id="ImpactClaim-to-ImpactWork" style="stroke:#003366;stroke-width:1;"/><polygon fill="#003366" points="340.11,705.1445,337.1568,695.7489,336.8027,701.3946,331.1569,701.0406,340.11,705.1445" style="stroke:#003366;stroke-width:1;"/><polygon fill="#000000" points="324.9371,660.4231,326.1287,650.9875,320.355,652.0892,324.9371,660.4231" style="stroke:#000000;stroke-width:1;"/><text fill="#000000" font-family="sans-serif" font-size="13" lengthAdjust="spacing" textLength="61.6421" x="333" y="659.9551">represents</text><text fill="#000000" font-family="sans-serif" font-size="13" lengthAdjust="spacing" textLength="5.5986" x="311.6797" y="629.4915">*</text><text fill="#000000" font-family="sans-serif" font-size="13" lengthAdjust="spacing" textLength="5.5986" x="328.6216" y="694.0879">*</text></g><!--reverse link ImpactOrganization to ImpactContributor--><g class="link" data-entity-1="ImpactOrganization" data-entity-2="ImpactContributor" data-source-line="153" data-uid="lnk21" id="link_ImpactOrganization_ImpactContributor"><path codeLine="153" d="M117.9232,183.4863 C116.1432,206.2963 114,239.6045 114,273.3945 C114,273.3945 114,273.3945 114,590.3945 C114,629.4845 112.71,674.9845 111.82,701.6345" fill="none" id="ImpactOrganization-backto-ImpactContributor" style="stroke:#003366;stroke-width:1;"/><polygon fill="#003366" points="118.39,177.5045,113.7019,186.1661,118.001,182.4894,121.6777,186.7885,118.39,177.5045" style="stroke:#003366;stroke-width:1;"/><polygon fill="#000000" points="119.0589,401.5121,116.0136,410.5219,121.8911,410.5911,119.0589,401.5121" style="stroke:#000000;stroke-width:1;"/><text fill="#000000" font-family="sans-serif" font-size="13" lengthAdjust="spacing" textLength="60.8486" x="128" y="410.9551">belongs to</text><text fill="#000000" font-family="sans-serif" font-size="13" lengthAdjust="spacing" textLength="5.5986" x="112.3184" y="197.3633">*</text><text fill="#000000" font-family="sans-serif" font-size="13" lengthAdjust="spacing" textLength="5.5986" x="106.5616" y="694.3156">*</text></g><!--link Measurer to Measurement--><g class="link" data-entity-1="Measurer" data-entity-2="Measurement" data-source-line="181" data-uid="lnk25" id="link_Measurer_Measurement"><path codeLine="181" d="M559.05,609.8745 C562.88,634.2645 568.4811,670.0369 572.5211,695.8169" fill="none" id="Measurer-to-Measurement" style="stroke:#003366;stroke-width:1;"/><polygon fill="#003366" points="573.45,701.7445,576.0084,692.2338,572.6759,696.8048,568.1048,693.4723,573.45,701.7445" style="stroke:#003366;stroke-width:1;"/><text fill="#000000" font-family="sans-serif" font-size="13" lengthAdjust="spacing" textLength="31.5161" x="569.38" y="659.9551">takes</text><text fill="#000000" font-family="sans-serif" font-size="13" lengthAdjust="spacing" textLength="7.3062" x="551.9706" y="629.4862">1</text><text fill="#000000" font-family="sans-serif" font-size="13" lengthAdjust="spacing" textLength="5.5986" x="567.577" y="694.2471">*</text></g><!--link Evaluator to EvaluationResult--><g class="link" data-entity-1="Evaluator" data-entity-2="EvaluationResult" data-source-line="194" data-uid="lnk29" id="link_Evaluator_EvaluationResult"><path codeLine="194" d="M777.04,609.7245 C771.34,626.3545 765.68,650.8345 772,671.3945 C775.79,683.7245 779.8668,691.0203 787.2068,700.5003" fill="none" id="Evaluator-to-EvaluationResult" style="stroke:#003366;stroke-width:1;"/><polygon fill="#003366" points="790.88,705.2445,788.5329,695.6794,787.819,701.291,782.2073,700.5771,790.88,705.2445" style="stroke:#003366;stroke-width:1;"/><text fill="#000000" font-family="sans-serif" font-size="13" lengthAdjust="spacing" textLength="59.0967" x="773" y="659.9551">calculates</text><text fill="#000000" font-family="sans-serif" font-size="13" lengthAdjust="spacing" textLength="7.3062" x="767.0013" y="629.2959">1</text><text fill="#000000" font-family="sans-serif" font-size="13" lengthAdjust="spacing" textLength="5.5986" x="780.2031" y="694.2173">*</text></g><!--reverse link Evaluator to EvaluationResult--><g class="link" data-entity-1="Evaluator" data-entity-2="EvaluationResult" data-source-line="195" data-uid="lnk31" id="link_Evaluator_EvaluationResult"><path codeLine="195" d="M826.6688,613.2529 C837.4488,620.9229 843.05,627.3445 849,639.3945 C860.1,661.8745 843.29,687.8445 827.96,705.1045" fill="none" id="Evaluator-backto-EvaluationResult" style="stroke:#003366;stroke-width:1;"/><polygon fill="#003366" points="821.78,609.7745,826.7943,618.2514,825.854,612.6732,831.4322,611.7329,821.78,609.7745" style="stroke:#003366;stroke-width:1;"/><text fill="#000000" font-family="sans-serif" font-size="13" lengthAdjust="spacing" textLength="56.0181" x="853.58" y="652.4551">cascaded</text><text fill="#000000" font-family="sans-serif" font-size="13" lengthAdjust="spacing" textLength="11.667" x="875.7555" y="667.6895">to</text><text fill="#000000" font-family="sans-serif" font-size="13" lengthAdjust="spacing" textLength="5.5986" x="826.0733" y="629.3593">*</text><text fill="#000000" font-family="sans-serif" font-size="13" lengthAdjust="spacing" textLength="5.5986" x="827.9535" y="694.3821">*</text></g><!--link Impact to Measure--><!--link ImpactClaim to Measurer--><!--link ImpactClaim to Measurer--><g class="link" data-entity-1="ImpactClaim" data-entity-2="Measurer" data-source-line="271" data-uid="lnk36" id="link_ImpactClaim_Measurer"><path codeLine="271" d="M379.87,589.3945 C419.69,589.3945 466.58,589.3945 503.97,589.3945" fill="none" id="ImpactClaim-to-Measurer-1" style="stroke:#003366;stroke-width:1;"/><polygon fill="#003366" points="509.97,589.3945,500.97,585.3945,504.97,589.3945,500.97,593.3945,509.97,589.3945" style="stroke:#003366;stroke-width:1;"/><text fill="#000000" font-family="sans-serif" font-size="13" lengthAdjust="spacing" textLength="81.9482" x="404.2898" y="605.4551">submitted to /</text><text fill="#000000" font-family="sans-serif" font-size="13" lengthAdjust="spacing" textLength="88.5054" x="401.0112" y="620.6895">discovered by /</text><text fill="#000000" font-family="sans-serif" font-size="13" lengthAdjust="spacing" textLength="90.4478" x="400.04" y="635.9238">self-reported by</text><text fill="#000000" font-family="sans-serif" font-size="13" lengthAdjust="spacing" textLength="5.5986" x="387.7535" y="585.463">*</text><text fill="#000000" font-family="sans-serif" font-size="13" lengthAdjust="spacing" textLength="5.5986" x="525.9601" y="629.3086">*</text></g><!--link Impact to Evaluate--><!--link Measure to Evaluate--><!--link Measurement to ImpactClaim--><g class="link" data-entity-1="Measurement" data-entity-2="ImpactClaim" data-source-line="272" data-uid="lnk38" id="link_Measurement_ImpactClaim"><path codeLine="272" d="M542.28,701.5545 C506.62,678.1845 454.95,644.5545 445,639.3945 C423.77,628.3845 405.0819,620.2996 383.8719,612.0496" fill="none" id="Measurement-to-ImpactClaim" style="stroke:#003366;stroke-width:1;"/><polygon fill="#003366" points="378.28,609.8745,385.2178,616.865,382.9399,611.6871,388.1179,609.4092,378.28,609.8745" style="stroke:#003366;stroke-width:1;"/><text fill="#000000" font-family="sans-serif" font-size="13" lengthAdjust="spacing" textLength="57.2495" x="495.48" y="659.9551">measures</text><text fill="#000000" font-family="sans-serif" font-size="13" lengthAdjust="spacing" textLength="5.5986" x="537.764" y="694.2244">*</text><text fill="#000000" font-family="sans-serif" font-size="13" lengthAdjust="spacing" textLength="7.3062" x="384.9678" y="629.4862">1</text></g><!--link Measurement to ImpactContributor--><g class="link" data-entity-1="Measurement" data-entity-2="ImpactContributor" data-source-line="273" data-uid="lnk40" id="link_Measurement_ImpactContributor"><path codeLine="273" d="M544.69,701.4945 C518.81,683.9145 480.78,661.4845 443.5,651.8945 C395.05,639.4345 271.053,673.7725 188.703,699.7025" fill="none" id="Measurement-to-ImpactContributor" style="stroke:#003366;stroke-width:1;"/><polygon fill="#003366" points="182.98,701.5045,192.7658,702.6168,187.7492,700.0028,190.3631,694.9862,182.98,701.5045" style="stroke:#003366;stroke-width:1;"/><text fill="#000000" font-family="sans-serif" font-size="13" lengthAdjust="spacing" textLength="39.5586" x="403.5" y="659.9551">credits</text><text fill="#000000" font-family="sans-serif" font-size="13" lengthAdjust="spacing" textLength="5.5986" x="534.8098" y="694.1559">*</text><text fill="#000000" font-family="sans-serif" font-size="13" lengthAdjust="spacing" textLength="5.5986" x="187.7284" y="694.1673">*</text></g><!--link EvaluationResult to Measurement--><g class="link" data-entity-1="EvaluationResult" data-entity-2="Measurement" data-source-line="276" data-uid="lnk42" id="link_EvaluationResult_Measurement"><path codeLine="276" d="M739.73,725.3945 C709.45,725.3945 679.93,725.3945 649.81,725.3945" fill="none" id="EvaluationResult-to-Measurement" style="stroke:#003366;stroke-width:1;"/><polygon fill="#003366" points="643.81,725.3945,652.81,729.3945,648.81,725.3945,652.81,721.3945,643.81,725.3945" style="stroke:#003366;stroke-width:1;"/><text fill="#000000" font-family="sans-serif" font-size="13" lengthAdjust="spacing" textLength="55.5166" x="664.56" y="718.4551">evaluates</text><text fill="#000000" font-family="sans-serif" font-size="13" lengthAdjust="spacing" textLength="7.3062" x="724.8964" y="721.6476">1</text><text fill="#000000" font-family="sans-serif" font-size="13" lengthAdjust="spacing" textLength="5.5986" x="644.3523" y="722.3974">*</text></g><!--link Measurement to Evaluator--><g class="link" data-entity-1="Measurement" data-entity-2="Evaluator" data-source-line="277" data-uid="lnk43" id="link_Measurement_Evaluator"><path codeLine="277" d="M612.51,701.5145 C652.56,675.7145 711.9661,637.444 749.7161,613.124" fill="none" id="Measurement-to-Evaluator" style="stroke:#003366;stroke-width:1;"/><polygon fill="#003366" points="754.76,609.8745,745.0278,611.3861,750.5568,612.5824,749.3605,618.1113,754.76,609.8745" style="stroke:#003366;stroke-width:1;"/><text fill="#000000" font-family="sans-serif" font-size="13" lengthAdjust="spacing" textLength="49.7212" x="706.75" y="652.4551">ingested</text><text fill="#000000" font-family="sans-serif" font-size="13" lengthAdjust="spacing" textLength="13.4507" x="724.8853" y="667.6895">by</text><text fill="#000000" font-family="sans-serif" font-size="13" lengthAdjust="spacing" textLength="5.5986" x="612.167" y="694.1787">*</text><text fill="#000000" font-family="sans-serif" font-size="13" lengthAdjust="spacing" textLength="5.5986" x="741.0416" y="629.4862">*</text></g><!--SRC=[vHhzRziszdV_5OolNP8jlYvNtE5WP0MonErybov1agquj4L1IxJDYoGA9ENK7Vg_ttia9P4IuoWRSByi0pRxaU_nVNzv-sIlb7ILKvBHhQWqKJdJjA2ZqTwpg-lBVytERZ_zVFfsHduWuxUpwxbcSWn7v_FJDzUdRp_T_kVA7CqApVMMNBECQYuAjUObEUTq9MbE3cRNvuU8zFgNYujFj_FR2qG9gNz7nl3FToGWF1hjapDHBFcgaeOisL39wI9Z2gZT_7JvxjFh-UpY_0R8FL_IJB63m_fWTdeJE-JB8cLByklyPlxZnUpJrUdPlq_Vp6v6Um3b1UiTaF4RiM6oe4N2ZkPvIHDzz9PHLKbsDDlGhAAQ7LspUofJa90LALyYrp-nh6IIBAiYCNnhGP8rI-u8NnAWSKTNZ715Dbnna6QqrrnynjMLFV_LdXqyS_T_fZax716o9vckP46UAorBeGww71-H08Fi_K0cnuQr-f7H26oLCUBPOuIQ8GVF2w4FVCKU7exMF6M4vILOTybPbgf6p1EbjnbxDKf5KkMiqEGtO8yGIzn-nh_Nej0t_0iZB_yMmX2RB4IM6l3NqTTHhPf721t_qs7Wlo_0R6SY4vByvH_c3-Wa6LMgTZzBm80yOZ_2KoifgY9ro7ytVyV77cagfRZtSBodll_-vKjughrhw1yHPkBWY80YVTRtFTpxDTVCE-boqZiNCcKoVeOgwPwW8bKfQdFWnvdZ2Z-VKqtFEihuVxDtyiAvpcXVtV6Yf6Yd35ZGsv8H8VLQE8_inuCNa6DmpyPdF3Wvm1nsE2PK4GzgvRKM8fUB_pA8XWrJvqpnLG7H-lxzRxTh5Zk1K9KCb5SO5iWI13BvWXShikQhzIHZ6vQHbO0qGsYH4j7G87fDDOZ4CK0qaCVt9KI_oIM4sHo2eQ-sIhFyhry_VlJvl4b4sUUn0zt57x83gQ9A86lWT_UmCXGiTodVO92NKY3NYl02ybLkiXmcMr8LNAikOouBOk1tkOiTHLd4C-GfRn7WCrW_1QTPSMQLcRWIOBGD0UdTLaIjHPMbPC68fdUiw78vQ_JRPJ9oifD7prA916U6GcIu2_b578WjfbH7hfx-RD7eSjM1xkH8chka51bFQbsb76pD5vNXCsV9cXPSvPOlPtbGfxqYP8-fMsautjRiDD-14GelYOo89PQr5BvlACzepPPbndEmvXbi1mnlY8ONmF5iERVFc_SxSa_aUwWxAIi-JburJ9YB7SyFBaRypk34_350xFk2mOkuI80MCcq5YMIFyV6OJE0w_hV3_jHb1ZK4DoR6amX4v7aIViT8BUxNfYTuA6dRrWaJTfslBIHCok1oGculbsVWjd2bTi8GQbnn2HM3tGjvvp8OKn2K2mW2J13eRFVhhGaLoI2164H0WxpBFfSW8W0XnQrfMR82qXtwDfMQ9rL6fV5SzbctpkcuinnVoXN4r1UR2Ho7aHFaigWn3OzBcl2CQsWONOs0mgGOV741qwHVF8HAmMKlLBsIRHNjjshDaV3uE9-VjoZMHctF4iXrPPyFHQg1HkSADCUNF065SSqf-WcXF0TTWdG91AbkSvx92z2USdFBINZFzHgKRLljr9MWtoVNGA7UeOS44Xa8LwOKmzUAPiIu4UGaI6Cep68RwDqQRyKAJ5gjjPmij3PRaqbJwAziisaVD14Vyc11DgLo1fq9vDIwH0C3IA6jtmjilM3iSLwZGU76-MrEjzhsqcwChs7gTGY_U1x3If6iGU_crJb4XOGC4gFLJbijlSca-LZnjFciO13AQVDLigN_8Zv43a0Vrfz4qTA3oEMsRjp29O_0HYGnSC9Bp4uDX6emdtQflSN4-IlYJ57VwjeM-cYUXxQr81ilhKaRCnlRAj2ZQStmreQjUUAAg2FHUf_rPhGzf2limalmpJo7XWn41eALXg_sr5K7gGORtCHVeFcUYI4DIcgO_fDQlPzIVEk4blSEZFtNLGub08Bs1RPjV0MvFmigWiivocOWq-gYztHpJ5qOXeSoqZi7LIZGpnMsXziTqdNAwoI5QXzc_x19Y1GxqoGWtlZRSG_NgtiUVdqUGRNfSUh64lMXm7d4GxNd4KGRUrEJlYal_ETyuo32f8fZ6ltlmWlGJ36PabTjmM0F84-dVPjO4R8unLL7NvR37In8LiAeqB5IN-moH0_CY6GMB1F52ZFAWAxEvHo_hNCWvwTjmlIQryYO-4WnJ6ZffbUl1qan1sA1TbEOv0bEInbrtLqzXnYJ3eyTtgfxtkQlvhb7ygM9xZznXGoN0zsDm834s1rtOQhlJjBe8O5nRJljQc7RjZUFDZFCjy4G1VwEEuCXuqkzwlKzlORrNBqTiwwPgZBTtpWu-6CTe9bfK7fiLa6-ij9u4NJdIE7SNHLkpUDjA8PxEtgJqZGl7pLf-sGeZlWTHgqvxHeMxNWWIXI1Pjdsa0YGN7g2gQFQrg0BtLdBIADLpm5Q3eDYqRF3b8mJck7mXmq-_8qxux-x5nIEbhX1LmbDMVe1AjLuW3-vNmmyRxAGS1osi3F7ckWiYJnuP4rK2-GjYa2bBWyeig0A_4mK4VqP3NTsIu53FUXE5YbeE7Qqq5QAquQfK3eFlZjCR4NOrc52SvYNj9F19JX4ixp55s7rAcfOoDWNTgJHU0LvAAxSKgNUstMjx1z4pCm-iwJIjV31ziyJsgk6tUMVjttp72g8bvv1fgGD5m_Vks4YHOPh8q-GAQ6LNaDJ-IN8lll4nGanlocWL1DRvXWohe02MZDZIptHOYBvQgtTpvO35ay3cXYtauej5KT-6nQx86inXjIGs4Fr-MDqsjmHes9F6nh36xWXRDVDtH_aEqhcQOotN95llY4xNslgTEovNewFBNXRptsKh_37AHVYh-tY-qPKCcbMGI7GhGi_QyJkJ8bIc3d8hTqXbZ7KTRsPZotVJMI73vY8J5r4DclzgIKwP6_R6nCzFOLRxTxLw8RTcoeZztVlkeCv40GxWIaglbwtlvQentpJYuFOoq4wRDhAmTJz48ee8jQSY2UGRrsziw3lx-wz5D-IRxmXikiFahRrbO4HMdlE0_7Poxhz0TTJz5XLYvnhDzcz-01FgmH3pUvh0Q1Ojfp032oaDh1nIFQuTf9m19XEWs8DBxb-jFQnxW0T9-B2TOh5AkNw2Gxnk7RyWINmzKWRwvevuBwBDObrhHn_5T7OjQA-_YZFlOphDSwx7H5uO337lnhgw0ymqEQgXsnNJIOFElT9tIsD1Yvlh2tU5qBIukvZG3cGxeJmOfbL36g2Ui9WK8zThYIy4p9Bcz4h0BQRdxQ0A9niro9BcLkGsF-xmFsQWVPX1hnW1LjoJPPIvAQkrAj74DXKaV0fOyZguRxG46wa_1y0]--></g></svg>