<svg xmlns="http://www.w3.org/2000/svg" xmlns:xlink="http://www.w3.org/1999/xlink" contentStyleType="text/css" data-diagram-type="CLASS" height="830px" preserveAspectRatio="none" style="width:640px;height:830px;background:#FFFFFF;" version="1.1" viewBox="0 0 640 830" width="640px" zoomAndPan="magnify"><title>MERIter Entity Relationship Diagram (ERD)</title><defs/><g><g class="title" data-source-line="25"><text fill="#000000" font-family="sans-serif" font-size="32" font-weight="bold" lengthAdjust="spacing" textLength="612.1719" x="10" y="39.6875">MERIter Entity Relationship Diagram (ERD)</text></g><!--cluster Impact--><g class="cluster" data-entity="Impact" data-source-line="94" data-uid="ent0002" id="cluster_Impact"><path d="M117.0859,65.3945 L174.1865,65.3945 A3.75,3.75 0 0 1 176.6865,67.8945 L183.6865,92.4883 L528.0859,92.4883 A2.5,2.5 0 0 1 530.5859,94.9883 L530.5859,820.7345 A2.5,2.5 0 0 1 528.0859,823.2345 L117.0859,823.2345 A2.5,2.5 0 0 1 114.5859,820.7345 L114.5859,67.8945 A2.5,2.5 0 0 1 117.0859,65.3945" fill="none" style="stroke:#666666;stroke-width:1.5;"/><line style="stroke:#666666;stroke-width:1.5;" x1="114.5859" x2="183.6865" y1="92.4883" y2="92.4883"/><text fill="#000000" font-family="sans-serif" font-size="18" font-weight="bold" lengthAdjust="spacing" textLength="56.1006" x="118.5859" y="84.0938">Impact</text></g><!--class TheoryOfChange--><g class="entity" data-entity="TheoryOfChange" data-source-line="95" data-uid="ent0003" id="entity_TheoryOfChange"><a href="" target="_top" title="The TheoryOfChange is a framework that describes how and why desired changes are expected to happen in a particular context." xlink:actuate="onRequest" xlink:href="" xlink:show="new" xlink:title="The TheoryOfChange is a framework that describes how and why desired changes are expected to happen in a particular context." xlink:type="simple"><rect fill="#555555" fill-opacity="0.06667" height="48" rx="2.5" ry="2.5" style="stroke:#181818;stroke-width:0.5;" width="136.7949" x="324.1859" y="113.5945"/><ellipse cx="339.1859" cy="129.5945" fill="#ADD1B2" rx="11" ry="11" style="stroke:#181818;stroke-width:1;"/><path d="M335.2484,135.5945 L342.7641,135.5945 L342.7641,133.4852 L337.7641,133.4852 L337.7641,130.9383 L341.8578,130.9383 L341.8578,128.8445 L337.7641,128.8445 L337.7641,126.6258 L342.5922,126.6258 L342.5922,124.5164 L335.2484,124.5164 L335.2484,135.5945 Z " fill="#000000"/><text fill="#000000" font-family="sans-serif" font-size="14" lengthAdjust="spacing" textLength="104.7949" x="353.1859" y="134.3797">TheoryOfChange</text><line style="stroke:#181818;stroke-width:0.5;" x1="325.1859" x2="459.9809" y1="145.5945" y2="145.5945"/><line style="stroke:#181818;stroke-width:0.5;" x1="325.1859" x2="459.9809" y1="153.5945" y2="153.5945"/></a></g><!--class ImpactOrganization--><g class="entity" data-entity="ImpactOrganization" data-source-line="97" data-uid="ent0004" id="entity_ImpactOrganization"><a href="" target="_top" title="The ImpactOrganization is an entity that facilitates and oversees impact projects and their contributors." xlink:actuate="onRequest" xlink:href="" xlink:show="new" xlink:title="The ImpactOrganization is an entity that facilitates and oversees impact projects and their contributors." xlink:type="simple"><rect fill="#555555" fill-opacity="0.06667" height="64.4063" rx="2.5" ry="2.5" style="stroke:#181818;stroke-width:0.5;" width="154.7188" x="134.2259" y="105.3945"/><ellipse cx="149.2259" cy="121.3945" fill="#ADD1B2" rx="11" ry="11" style="stroke:#181818;stroke-width:1;"/><path d="M145.2884,127.3945 L152.8041,127.3945 L152.8041,125.2852 L147.8041,125.2852 L147.8041,122.7383 L151.8978,122.7383 L151.8978,120.6445 L147.8041,120.6445 L147.8041,118.4258 L152.6322,118.4258 L152.6322,116.3164 L145.2884,116.3164 L145.2884,127.3945 Z " fill="#000000"/><text fill="#000000" font-family="sans-serif" font-size="14" lengthAdjust="spacing" textLength="122.7188" x="163.2259" y="126.1797">ImpactOrganization</text><line style="stroke:#181818;stroke-width:0.5;" x1="135.2259" x2="287.9447" y1="137.3945" y2="137.3945"/><text fill="#000000" font-family="sans-serif" font-size="14" lengthAdjust="spacing" textLength="99.7842" x="140.2259" y="154.3828">organizationDID</text><line style="stroke:#181818;stroke-width:0.5;" x1="135.2259" x2="287.9447" y1="161.8008" y2="161.8008"/></a></g><!--class ImpactProject--><g class="entity" data-entity="ImpactProject" data-source-line="102" data-uid="ent0005" id="entity_ImpactProject"><a href="" target="_top" title="The ImpactProject is a specific initiative aimed at creating measurable positive impact within defined scopes." xlink:actuate="onRequest" xlink:href="" xlink:show="new" xlink:title="The ImpactProject is a specific initiative aimed at creating measurable positive impact within defined scopes." xlink:type="simple"><rect fill="#555555" fill-opacity="0.06667" height="64.4063" rx="2.5" ry="2.5" style="stroke:#181818;stroke-width:0.5;" width="119.7119" x="332.7259" y="246.7945"/><ellipse cx="347.7259" cy="262.7945" fill="#ADD1B2" rx="11" ry="11" style="stroke:#181818;stroke-width:1;"/><path d="M343.7884,268.7945 L351.3041,268.7945 L351.3041,266.6852 L346.3041,266.6852 L346.3041,264.1383 L350.3978,264.1383 L350.3978,262.0445 L346.3041,262.0445 L346.3041,259.8258 L351.1322,259.8258 L351.1322,257.7164 L343.7884,257.7164 L343.7884,268.7945 Z " fill="#000000"/><text fill="#000000" font-family="sans-serif" font-size="14" lengthAdjust="spacing" textLength="87.7119" x="361.7259" y="267.5797">ImpactProject</text><line style="stroke:#181818;stroke-width:0.5;" x1="333.7259" x2="451.4379" y1="278.7945" y2="278.7945"/><text fill="#000000" font-family="sans-serif" font-size="14" lengthAdjust="spacing" textLength="77.6016" x="338.7259" y="295.7828">organization</text><line style="stroke:#181818;stroke-width:0.5;" x1="333.7259" x2="451.4379" y1="303.2008" y2="303.2008"/></a></g><!--class ImpactWork--><g class="entity" data-entity="ImpactWork" data-source-line="107" data-uid="ent0006" id="entity_ImpactWork"><a href="" target="_top" title="The ImpactWork is the actual work performed by contributors that generates impact within a project." xlink:actuate="onRequest" xlink:href="" xlink:show="new" xlink:title="The ImpactWork is the actual work performed by contributors that generates impact within a project." xlink:type="simple"><rect fill="#555555" fill-opacity="0.06667" height="48" rx="2.5" ry="2.5" style="stroke:#181818;stroke-width:0.5;" width="107.7148" x="406.7259" y="747.2345"/><ellipse cx="421.7259" cy="763.2345" fill="#ADD1B2" rx="11" ry="11" style="stroke:#181818;stroke-width:1;"/><path d="M417.7884,769.2345 L425.3041,769.2345 L425.3041,767.1252 L420.3041,767.1252 L420.3041,764.5783 L424.3978,764.5783 L424.3978,762.4845 L420.3041,762.4845 L420.3041,760.2658 L425.1322,760.2658 L425.1322,758.1564 L417.7884,758.1564 L417.7884,769.2345 Z " fill="#000000"/><text fill="#000000" font-family="sans-serif" font-size="14" lengthAdjust="spacing" textLength="75.7148" x="435.7259" y="768.0197">ImpactWork</text><line style="stroke:#181818;stroke-width:0.5;" x1="407.7259" x2="513.4408" y1="779.2345" y2="779.2345"/><line style="stroke:#181818;stroke-width:0.5;" x1="407.7259" x2="513.4408" y1="787.2345" y2="787.2345"/></a></g><!--class ImpactScope--><g class="entity" data-entity="ImpactScope" data-source-line="108" data-uid="ent0007" id="entity_ImpactScope"><a href="" target="_top" title="The ImpactScope is a piece of structured data defining boundaries and timeframes for measuring impact within a project." xlink:actuate="onRequest" xlink:href="" xlink:show="new" xlink:title="The ImpactScope is a piece of structured data defining boundaries and timeframes for measuring impact within a project." xlink:type="simple"><rect fill="#555555" fill-opacity="0.06667" height="80.8125" rx="2.5" ry="2.5" style="stroke:#181818;stroke-width:0.5;" width="143.7559" x="321.7059" y="403.2045"/><ellipse cx="349.9251" cy="419.2045" fill="#7E57C2" rx="11" ry="11" style="stroke:#181818;stroke-width:1;"/><path d="M347.1126,425.2045 L350.3314,425.2045 C353.4095,425.2045 355.5189,423.4233 355.5189,419.6108 C355.5189,415.7983 353.4095,414.1264 350.1751,414.1264 L347.1126,414.1264 L347.1126,425.2045 Z M349.6283,423.1889 L349.6283,416.142 L350.0345,416.142 C351.7689,416.142 352.9408,416.9545 352.9408,419.6108 C352.9408,422.267 351.7689,423.1889 350.0345,423.1889 L349.6283,423.1889 Z " fill="#000000"/><text fill="#000000" font-family="sans-serif" font-size="14" lengthAdjust="spacing" textLength="82.3799" x="366.8627" y="423.9897">ImpactScope</text><line style="stroke:#181818;stroke-width:0.5;" x1="322.7059" x2="464.4618" y1="435.2045" y2="435.2045"/><text fill="#000000" font-family="sans-serif" font-size="14" lengthAdjust="spacing" textLength="65.3447" x="327.7059" y="452.1928">projectUID</text><text fill="#000000" font-family="sans-serif" font-size="14" lengthAdjust="spacing" textLength="131.7559" x="327.7059" y="468.5991">epoch or timeInterval</text><line style="stroke:#181818;stroke-width:0.5;" x1="322.7059" x2="464.4618" y1="476.017" y2="476.017"/></a></g><!--class ImpactClaim--><g class="entity" data-entity="ImpactClaim" data-source-line="126" data-uid="ent0008" id="entity_ImpactClaim"><a href="" target="_top" title="The ImpactClaim is a structured piece of data serving as a vehicle for ImpactContributor entities to group communicate outcomes to Measurers" xlink:actuate="onRequest" xlink:href="" xlink:show="new" xlink:title="The ImpactClaim is a structured piece of data serving as a vehicle for ImpactContributor entities to group communicate outcomes to Measurers" xlink:type="simple"><rect fill="#555555" fill-opacity="0.06667" height="97.2188" rx="2.5" ry="2.5" style="stroke:#181818;stroke-width:0.5;" width="111.2832" x="337.9459" y="561.0145"/><ellipse cx="352.9459" cy="577.0145" fill="#7E57C2" rx="11" ry="11" style="stroke:#181818;stroke-width:1;"/><path d="M350.1334,583.0145 L353.3522,583.0145 C356.4303,583.0145 358.5397,581.2333 358.5397,577.4208 C358.5397,573.6083 356.4303,571.9364 353.1959,571.9364 L350.1334,571.9364 L350.1334,583.0145 Z M352.6491,580.9989 L352.6491,573.952 L353.0553,573.952 C354.7897,573.952 355.9616,574.7645 355.9616,577.4208 C355.9616,580.077 354.7897,580.9989 353.0553,580.9989 L352.6491,580.9989 Z " fill="#000000"/><text fill="#000000" font-family="sans-serif" font-size="14" lengthAdjust="spacing" textLength="79.2832" x="366.9459" y="581.7997">ImpactClaim</text><line style="stroke:#181818;stroke-width:0.5;" x1="338.9459" x2="448.2291" y1="593.0145" y2="593.0145"/><text fill="#000000" font-family="sans-serif" font-size="14" lengthAdjust="spacing" textLength="37.8232" x="343.9459" y="610.0028">scope</text><text fill="#000000" font-family="sans-serif" font-size="14" lengthAdjust="spacing" textLength="73.7734" x="343.9459" y="626.4091">timeInterval</text><text fill="#000000" font-family="sans-serif" font-size="14" lengthAdjust="spacing" textLength="62.4873" x="343.9459" y="642.8153">extra data</text><line style="stroke:#181818;stroke-width:0.5;" x1="338.9459" x2="448.2291" y1="650.2333" y2="650.2333"/></a></g><!--class ImpactContributor--><g class="entity" data-entity="ImpactContributor" data-source-line="146" data-uid="ent0009" id="entity_ImpactContributor"><a href="" target="_top" title="The ImpactContributor is a human and/or digital entity that performs work and claims impact within projects." xlink:actuate="onRequest" xlink:href="" xlink:show="new" xlink:title="The ImpactContributor is a human and/or digital entity that performs work and claims impact within projects." xlink:type="simple"><rect fill="#555555" fill-opacity="0.06667" height="64.4063" rx="2.5" ry="2.5" style="stroke:#181818;stroke-width:0.5;" width="145.9141" x="139.0859" y="739.2345"/><ellipse cx="154.0859" cy="755.2345" fill="#ADD1B2" rx="11" ry="11" style="stroke:#181818;stroke-width:1;"/><path d="M150.1484,761.2345 L157.6641,761.2345 L157.6641,759.1252 L152.6641,759.1252 L152.6641,756.5783 L156.7578,756.5783 L156.7578,754.4845 L152.6641,754.4845 L152.6641,752.2658 L157.4922,752.2658 L157.4922,750.1564 L150.1484,750.1564 L150.1484,761.2345 Z " fill="#000000"/><text fill="#000000" font-family="sans-serif" font-size="14" lengthAdjust="spacing" textLength="113.9141" x="168.0859" y="760.0197">ImpactContributor</text><line style="stroke:#181818;stroke-width:0.5;" x1="140.0859" x2="284" y1="771.2345" y2="771.2345"/><text fill="#000000" font-family="sans-serif" font-size="14" lengthAdjust="spacing" textLength="121.6113" x="145.0859" y="788.2228">workDecisionPolicy</text><line style="stroke:#181818;stroke-width:0.5;" x1="140.0859" x2="284" y1="795.6408" y2="795.6408"/></a></g><!--link TheoryOfChange to ImpactProject--><g class="link" data-entity-1="TheoryOfChange" data-entity-2="ImpactProject" data-source-line="152" data-uid="lnk10" id="link_TheoryOfChange_ImpactProject"><path codeLine="152" d="M392.5859,161.9245 C392.5859,185.1045 392.5859,214.7945 392.5859,240.4845" fill="none" id="TheoryOfChange-to-ImpactProject" style="stroke:#0055A9;stroke-width:1;"/><polygon fill="#0055A9" points="392.5859,246.4845,396.5859,237.4845,392.5859,241.4845,388.5859,237.4845,392.5859,246.4845" style="stroke:#0055A9;stroke-width:1;"/><text fill="#0055A9" font-family="sans-serif" font-size="13" lengthAdjust="spacing" textLength="40.0156" x="393.5859" y="212.8551">orients</text></g><!--link ImpactOrganization to ImpactProject--><g class="link" data-entity-1="ImpactOrganization" data-entity-2="ImpactProject" data-source-line="153" data-uid="lnk11" id="link_ImpactOrganization_ImpactProject"><path codeLine="153" d="M252.6559,170.2245 C282.2759,193.0445 317.343,220.0426 346.923,242.8326" fill="none" id="ImpactOrganization-to-ImpactProject" style="stroke:#0055A9;stroke-width:1;"/><polygon fill="#0055A9" points="351.6759,246.4945,346.9878,237.833,347.7152,243.4429,342.1053,244.1703,351.6759,246.4945" style="stroke:#0055A9;stroke-width:1;"/><text fill="#0055A9" font-family="sans-serif" font-size="13" lengthAdjust="spacing" textLength="57.0591" x="313.9259" y="212.8551">facilitates</text><text fill="#0055A9" font-family="sans-serif" font-size="13" lengthAdjust="spacing" textLength="7.3062" x="252.847" y="189.9566">1</text><text fill="#0055A9" font-family="sans-serif" font-size="13" lengthAdjust="spacing" textLength="5.5986" x="338.1893" y="235.7025">*</text></g><!--link ImpactProject to ImpactScope--><g class="link" data-entity-1="ImpactProject" data-entity-2="ImpactScope" data-source-line="154" data-uid="lnk12" id="link_ImpactProject_ImpactScope"><path codeLine="154" d="M392.7759,311.3545 C392.9359,337.4745 393.1276,368.8147 393.3076,397.0047" fill="none" id="ImpactProject-to-ImpactScope" style="stroke:#0055A9;stroke-width:1;"/><polygon fill="#0055A9" points="393.3459,403.0045,397.2884,393.9792,393.314,398.0046,389.2886,394.0303,393.3459,403.0045" style="stroke:#0055A9;stroke-width:1;"/><text fill="#0055A9" font-family="sans-serif" font-size="13" lengthAdjust="spacing" textLength="40.8853" x="394.1459" y="354.2651">divides</text><text fill="#0055A9" font-family="sans-serif" font-size="13" lengthAdjust="spacing" textLength="22.0073" x="403.5849" y="369.4995">into</text><text fill="#0055A9" font-family="sans-serif" font-size="13" lengthAdjust="spacing" textLength="7.3062" x="385.1552" y="331.285">1</text><text fill="#0055A9" font-family="sans-serif" font-size="13" lengthAdjust="spacing" textLength="5.5986" x="387.942" y="392.1169">*</text></g><!--link ImpactScope to ImpactClaim--><g class="link" data-entity-1="ImpactScope" data-entity-2="ImpactClaim" data-source-line="155" data-uid="lnk13" id="link_ImpactScope_ImpactClaim"><path codeLine="155" d="M393.5859,484.3145 C393.5859,507.2545 393.5859,530.2845 393.5859,554.5145" fill="none" id="ImpactScope-to-ImpactClaim" style="stroke:#0055A9;stroke-width:1;"/><polygon fill="#0055A9" points="393.5859,560.5145,397.5859,551.5145,393.5859,555.5145,389.5859,551.5145,393.5859,560.5145" style="stroke:#0055A9;stroke-width:1;"/><text fill="#0055A9" font-family="sans-serif" font-size="13" lengthAdjust="spacing" textLength="49.772" x="394.5859" y="527.0751">contains</text><text fill="#0055A9" font-family="sans-serif" font-size="13" lengthAdjust="spacing" textLength="7.3062" x="386.0529" y="504.0762">1</text><text fill="#0055A9" font-family="sans-serif" font-size="13" lengthAdjust="spacing" textLength="5.5986" x="388.29" y="549.9839">*</text></g><!--reverse link ImpactClaim to ImpactContributor--><g class="link" data-entity-1="ImpactClaim" data-entity-2="ImpactContributor" data-source-line="156" data-uid="lnk15" id="link_ImpactClaim_ImpactContributor"><path codeLine="156" d="M334.4652,662.471 C306.3052,687.171 277.0759,712.7945 251.4059,735.3145" fill="none" id="ImpactClaim-backto-ImpactContributor" style="stroke:#0055A9;stroke-width:1;"/><polygon fill="#0055A9" points="338.9759,658.5145,329.5723,661.4421,335.217,661.8116,334.8475,667.4564,338.9759,658.5145" style="stroke:#0055A9;stroke-width:1;"/><text fill="#0055A9" font-family="sans-serif" font-size="13" lengthAdjust="spacing" textLength="38.3081" x="303.5859" y="701.2951">claims</text><text fill="#0055A9" font-family="sans-serif" font-size="13" lengthAdjust="spacing" textLength="5.5986" x="326.3418" y="678.1683">*</text><text fill="#0055A9" font-family="sans-serif" font-size="13" lengthAdjust="spacing" textLength="5.5986" x="250.0641" y="728.0925">*</text></g><!--link ImpactContributor to ImpactWork--><g class="link" data-entity-1="ImpactContributor" data-entity-2="ImpactWork" data-source-line="157" data-uid="lnk16" id="link_ImpactContributor_ImpactWork"><path codeLine="157" d="M291.7559,771.2345 C329.2959,771.2345 367.1259,771.2345 400.5759,771.2345" fill="none" id="ImpactContributor-to-ImpactWork" style="stroke:#0055A9;stroke-width:1;"/><polygon fill="#0055A9" points="406.5759,771.2345,397.5759,767.2345,401.5759,771.2345,397.5759,775.2345,406.5759,771.2345" style="stroke:#0055A9;stroke-width:1;"/><polygon fill="#0055A9" points="319.4059,762.8517,310.3609,759.9128,310.3609,765.7906,319.4059,762.8517" style="stroke:#0055A9;stroke-width:1;"/><text fill="#0055A9" font-family="sans-serif" font-size="13" lengthAdjust="spacing" textLength="65.5396" x="323.4059" y="767.2951">contributes</text><text fill="#0055A9" font-family="sans-serif" font-size="13" lengthAdjust="spacing" textLength="5.5986" x="292.9163" y="768.1884">*</text><text fill="#0055A9" font-family="sans-serif" font-size="13" lengthAdjust="spacing" textLength="5.5986" x="392.9691" y="767.1646">*</text></g><!--reverse link ImpactWork to ImpactContributor--><g class="link" data-entity-1="ImpactWork" data-entity-2="ImpactContributor" data-source-line="158" data-uid="lnk18" id="link_ImpactWork_ImpactContributor"><path codeLine="158" d="M400.6853,793.9175 C394.9953,795.5375 395.0159,795.2645 389.4059,796.2345 C354.3659,802.2845 343.8959,804.8745 309.4059,796.2345 C297.5159,793.2545 297.3459,783.2345 285.0859,783.2345" fill="none" id="ImpactWork-backto-ImpactContributor" style="stroke:#0055A9;stroke-width:1;"/><polygon fill="#0055A9" points="406.4559,792.2745,396.7046,790.8919,401.647,793.6437,398.8952,798.5861,406.4559,792.2745" style="stroke:#0055A9;stroke-width:1;"/><polygon fill="#0055A9" points="335.8847,788.3118,327.1485,784.553,326.6076,790.4059,335.8847,788.3118" style="stroke:#0055A9;stroke-width:1;"/><text fill="#0055A9" font-family="sans-serif" font-size="13" lengthAdjust="spacing" textLength="32.2271" x="339.9059" y="792.2951">gates</text><text fill="#0055A9" font-family="sans-serif" font-size="13" lengthAdjust="spacing" textLength="5.5986" x="393.1827" y="791.341">*</text><text fill="#0055A9" font-family="sans-serif" font-size="13" lengthAdjust="spacing" textLength="7.3062" x="293.3319" y="781.2607">1</text></g><!--link ImpactClaim to ImpactWork--><g class="link" data-entity-1="ImpactClaim" data-entity-2="ImpactWork" data-source-line="159" data-uid="lnk19" id="link_ImpactClaim_ImpactWork"><path codeLine="159" d="M413.6859,658.5145 C425.9459,687.7145 438.7438,718.2021 448.4438,741.3121" fill="none" id="ImpactClaim-to-ImpactWork" style="stroke:#0055A9;stroke-width:1;"/><polygon fill="#0055A9" points="450.7659,746.8445,450.971,736.9978,448.8308,742.2342,443.5945,740.094,450.7659,746.8445" style="stroke:#0055A9;stroke-width:1;"/><polygon fill="#0055A9" points="440.0213,701.462,439.23,691.9844,433.8104,694.2595,440.0213,701.462" style="stroke:#0055A9;stroke-width:1;"/><text fill="#0055A9" font-family="sans-serif" font-size="13" lengthAdjust="spacing" textLength="61.6421" x="447.0859" y="701.2951">represents</text><text fill="#0055A9" font-family="sans-serif" font-size="13" lengthAdjust="spacing" textLength="5.5986" x="411.0909" y="678.1683">*</text><text fill="#0055A9" font-family="sans-serif" font-size="13" lengthAdjust="spacing" textLength="5.5986" x="442.8365" y="736.1605">*</text></g><!--reverse link ImpactOrganization to ImpactContributor--><g class="link" data-entity-1="ImpactOrganization" data-entity-2="ImpactContributor" data-source-line="160" data-uid="lnk21" id="link_ImpactOrganization_ImpactContributor"><path codeLine="160" d="M211.5859,176.1545 C211.5859,204.4045 211.5859,240.9745 211.5859,278.0045 C211.5859,278.0045 211.5859,278.0045 211.5859,610.6245 C211.5859,653.5745 211.5859,703.0245 211.5859,735.3645" fill="none" id="ImpactOrganization-backto-ImpactContributor" style="stroke:#0055A9;stroke-width:1;"/><polygon fill="#0055A9" points="211.5859,170.1545,207.5859,179.1545,211.5859,175.1545,215.5859,179.1545,211.5859,170.1545" style="stroke:#0055A9;stroke-width:1;"/><polygon fill="#0055A9" points="216.5859,438.7317,213.647,447.7768,219.5249,447.7768,216.5859,438.7317" style="stroke:#0055A9;stroke-width:1;"/><text fill="#0055A9" font-family="sans-serif" font-size="13" lengthAdjust="spacing" textLength="60.8486" x="225.5859" y="448.1751">belongs to</text><text fill="#0055A9" font-family="sans-serif" font-size="13" lengthAdjust="spacing" textLength="5.5986" x="206.1666" y="189.8733">*</text><text fill="#0055A9" font-family="sans-serif" font-size="13" lengthAdjust="spacing" textLength="5.5986" x="206.3119" y="727.9437">*</text></g><!--SRC=[xHhzRzkuzNV_5OpNNPAxUBriwB0PQO5SulQyfPSWoLqnj4L1IxJDHH85adBg7lA_xpsIaaY9iPqMs2-R2xGIoVVulh_KVR9NIhh8ASdeMbIQg9nfMj31OE_PrVNbFoPdjvz-ENqx8I_9yEtaUggP7CBM-VJqpVNfsq-t_xeoMvD2SxqcrooZcej2BNb9pZbTI9gJWydr-I40yNcHiZbv_Ul5nQVRwUt51F2qBu0blF07CeG_Fv3Whi4UAr8-7mpsoPaevdnHINCXML79wInZghddvkVBTvzUJoSNvpU3FLZW1VFNo71ECyM6DSO0R79w4mLjrny3_srwC_tfOlBfwlJidwTl9YryTuCCtuWLamKj4dOqpKkQwAEtZAfAigF9YcOLrUpecjrJcGuzhdzcMSaacLT5OlZMWYHBbjmHFYU0uuuk6E6AhBZY88t1NdFm6LTNTlytktVmp9t_XURiS438dcIwaWNvezAo5EgWI_4H2I38taioEZQarPSC1c056IEUMWSe6NBW2_xborfuXuCbJnbXUGcsC-SiIrN3wedIwuoz6gGYgN9MQF8xa4Y8lS0-u- -rAFGD_yB8N_uShY4qcOaiDSiFWuT1BPujY8x_vY3mxmjGtPd8X2H_-Alv0PuaeqhLncqHc2KFsKzmrKAAgaWTy0lpEpxsK5CfnRq7urtruuylNfp-FI2jl_FGtdn4cF6_8r88xJErxs6zNtBDl9qkZRrz8LCcutijHUqEYbYLebOKFauSLVXyJZKzwuZflqtUoNDdL8DzTSUBag86Co11hqj6XDHBuUorxosUkmuF3mUDDNdhv01Zv-6GK4MyLSklrH2vdFsRWQ-ic3fdYYyAyENtxt-_NRBO3ZYoP22ymf10vi2GYIQyM90bNon76LknZ2m4U1EXHKf4WuFe9TN04aVNqO0UxvSG6qoa8Sn660mCQgqqo__qyF6ZJ-TD8ie-ZPtLJVGXEH18gWHY2hwxYvN1OAbB-GhTlvG2gLQ45n3DSXC3CPIJgk1QTGbpCH93GfUws5QKHDn3cl8M09v1-oaOpO8pAyp49HWZRN1LxxGYQYcgB2KpHZIzOqMNoaaZtowHaPsDD7gQIYGOCwGvGrr8ByA0Rp6bEdprv6TJIfUgpkf6YgGvIqgHyQIMLSf1rtnM6JfpbYnfmLLkwNAQ1t7Q8qBsYBgLXk9rJKxp3eHGk4baHCmnwQNmlg8yepLPbXZFm9fhi0mnj24O7W33iyM2lTxSt-5x9Dz3HafPyN7qgY727EnOVd0mOdS69cQF0M3V5WnSn4G2i91eoqWaUWoFXsG4n_7V3lbZ5ndKBh0nDfw48CBFa-0xIcfX7vfguR6WRGih3DXrlBOhOL06anDoVJa_0xE58xKHXgl65EUGCTYza7SkWZ45JZa39y00WSPslrmRLv4C0eW11328k-np2Ip28eIu9IrBLa2uGzkcKlEaogWqbii-wzOu7NMMuakv09_wOYE1ep2oWrGMDQIXSKuJdd4DvQJB4P2O58CNvp1D-CLDo1HSzbpLIzdHQWx2F1PpzHdX4NG-FMzXhRBQuYLWyChI4V9MBnhXAn0Xd_C49CSrfsWmXF8SX0fi9k2jkWr-9a105SlDASVgFTTBaBgjo5ENYxwHmHsvUuSs4x1cLhWooHbUAveHOrWGfI2m8LUpTQ09gyu5Ap2CjVfpJD5QaKriJQ7YieMflT34W906ksI3B6TGgq2KhPCs480Osem-ms8CsYndHneaRzp1HdahTYyGn-XwefmTvA-U3R5I94jGWBb-2WuZ8RX4a7gTMWJnQDGyLZnjdXMqKZbjNYMR-rVZZUG096HDJHGjFl1kRdFBBHpo4An44bjEU8aHh5cX6XIgNVXl8R63YvXNrDgwsePQc-UXjksITQLMoOtYZROL2DIKRtXgnPOySOdMeMZjqTetMWE4DApKIx3MF8UY3LW6X9M6LxlhCeXKJpS1uwE12dfAXvWfgQ7-VzqE-c77rrTe2zw6iOXbbKFY0CT-ZiKUNq36o88yukAIib7A5CXeJzquLAUJht1tH7mECb4Wg2kiBjSRsEnavr4AnKAOCy8Q8v8hJOs1SCFlXprOBsrwyFL-1DJ6qh7hQjI70jiP3zJkHm2jMuvDhAUyyA_pjOG0eoeEQHIn2Iu0CvbdJ5wrsOKz0ZmUztLYMSZY61STULaADv0WMGcTHaTBVRRB43nG8wAPiKmK2mmsEnI5BXpvLQ5RSWRRnbAlzerqcLioPq9Br_nwbKkAuH6pkMlY94-msSgeAmxhDiQez2kSYBTodxOHhRbtIoWr_lx_TDgTDdH733l4p6x_hEbTjpL7cmdKRUjpbpZRFg2vj6cAlW-wCl0074BiqW_LasNVzkkrdl6tVTirKrMc-oCCjxwjW3HD4dAFjIxmLrOQ3uBi72fivAl2pOsyaSTNs3-QbT8qBxVgjhqxv4jyXNPhahiQHeKUY19veLcsFYG2H20z3jLHhNGGYkuCVAGHhsS9BOL17kafP4o62SsmhSH60Nx3pc31dGjoIelSWAk4fYpz04bik8DXkIyLdbdPbR3HjcjdZZJH6Jzvwv41LCsGDu82aRg0eCYCAZ0uKKJaPoJScLe5bhNThYnqK9HigC0jEwSDTI6Rtlfcnx5POrqx3isX0TEE6HVo4CpI5f-rrTEk9pgHlMf3X8rdcSSypGrmwXbXL-_-HaJnx3DBAbrB8PWqUjnxgRCxQFGcVPw91HxKqyoOj0xamNidZE_8S4JbCJ8cjD9Bg42_185vdpZF8URx1N8riXcG8U4ACA1QCpRN8or6aY-MsdsQtM78jKF5u-PViG7cmA_POWUazxLpQtg9NLJlRyFJHfCO5hlRuDYzsjk5xBeI_4QwesYUHdXB5VdkExBnjYQ5nwxhHVtOCBcrtArqXH_2d8k_jaFs6r79f1aoXOjkDFbP8tIdjvJ2D4rkn0- -ZAwkwwy0iK6_yUpm0kEHgVF8vXF2s2BTPKRSwoazEOKJzDxHw3JVQq4ZvpVFrOEc4HWxWPOhFigtNsRKDjlq_21sSn0EcufpP-o-2qK44IjNn1FGjwRU-HZG_qxWXVWMVMCDaUyAGT2sjhAZXzQMyuX_zg9klnls13rKrIpdshM1pp_0rIf1LxEJO5XGB9kFe64MKfkrOOZsk3QIi3iOZuDa3JUv2hMsiMwt7KVYt7MCoIhb-Wa6iLqwVYyJs7gai7Nb7L3VXHh5wbYENs0qrh4ehs-bkHTnlL9wio423GoQ_bUx6leZ1BInwZ7TLQFHeyPzKbTBWnqdFLONxmiXQN7tCS0SS7T2U37FAWOvGJsXLQWRCPSItWcPfKqp5YosOw8sWIXiUfSYIvcRfjZ_oU2-aw1-c5cUiOBDkIPpANAJL-g19J1iiaXubL5azNXTQ10tNFu7]--></g></svg>