<svg xmlns="http://www.w3.org/2000/svg" xmlns:xlink="http://www.w3.org/1999/xlink" contentStyleType="text/css" data-diagram-type="CLASS" height="771px" preserveAspectRatio="none" style="width:429px;height:771px;background:#FFFFFF;" version="1.1" viewBox="0 0 429 771" width="429px" zoomAndPan="magnify"><defs/><g><!--cluster Impact--><g class="cluster" data-entity="Impact" data-source-line="115" data-uid="ent0002" id="cluster_Impact"><path d="M8.5,6.8945 L65.6006,6.8945 A3.75,3.75 0 0 1 68.1006,9.3945 L75.1006,33.9883 L419.5,33.9883 A2.5,2.5 0 0 1 422,36.4883 L422,762.2345 A2.5,2.5 0 0 1 419.5,764.7345 L8.5,764.7345 A2.5,2.5 0 0 1 6,762.2345 L6,9.3945 A2.5,2.5 0 0 1 8.5,6.8945" fill="none" style="stroke:#666666;stroke-width:1.5;"/><line style="stroke:#666666;stroke-width:1.5;" x1="6" x2="75.1006" y1="33.9883" y2="33.9883"/><text fill="#000000" font-family="sans-serif" font-size="18" font-weight="bold" lengthAdjust="spacing" textLength="56.1006" x="10" y="25.5938">Impact</text></g><!--class TheoryOfChange--><g class="entity" data-entity="TheoryOfChange" data-source-line="116" data-uid="ent0003" id="entity_TheoryOfChange"><a href="" target="_top" title="The TheoryOfChange is a framework that describes how and why desired changes are expected to happen in a particular context." xlink:actuate="onRequest" xlink:href="" xlink:show="new" xlink:title="The TheoryOfChange is a framework that describes how and why desired changes are expected to happen in a particular context." xlink:type="simple"><rect fill="#555555" fill-opacity="0.06667" height="48" rx="2.5" ry="2.5" style="stroke:#181818;stroke-width:0.5;" width="136.7949" x="215.6" y="55.0945"/><ellipse cx="230.6" cy="71.0945" fill="#ADD1B2" rx="11" ry="11" style="stroke:#181818;stroke-width:1;"/><path d="M226.6625,77.0945 L234.1781,77.0945 L234.1781,74.9852 L229.1781,74.9852 L229.1781,72.4383 L233.2719,72.4383 L233.2719,70.3445 L229.1781,70.3445 L229.1781,68.1258 L234.0063,68.1258 L234.0063,66.0164 L226.6625,66.0164 L226.6625,77.0945 Z " fill="#000000"/><text fill="#000000" font-family="sans-serif" font-size="14" lengthAdjust="spacing" textLength="104.7949" x="244.6" y="75.8797">TheoryOfChange</text><line style="stroke:#181818;stroke-width:0.5;" x1="216.6" x2="351.3949" y1="87.0945" y2="87.0945"/><line style="stroke:#181818;stroke-width:0.5;" x1="216.6" x2="351.3949" y1="95.0945" y2="95.0945"/></a></g><!--class ImpactOrganization--><g class="entity" data-entity="ImpactOrganization" data-source-line="118" data-uid="ent0004" id="entity_ImpactOrganization"><a href="" target="_top" title="The ImpactOrganization is an entity that facilitates and oversees impact projects and their contributors." xlink:actuate="onRequest" xlink:href="" xlink:show="new" xlink:title="The ImpactOrganization is an entity that facilitates and oversees impact projects and their contributors." xlink:type="simple"><rect fill="#555555" fill-opacity="0.06667" height="64.4063" rx="2.5" ry="2.5" style="stroke:#181818;stroke-width:0.5;" width="154.7188" x="25.64" y="46.8945"/><ellipse cx="40.64" cy="62.8945" fill="#ADD1B2" rx="11" ry="11" style="stroke:#181818;stroke-width:1;"/><path d="M36.7025,68.8945 L44.2181,68.8945 L44.2181,66.7852 L39.2181,66.7852 L39.2181,64.2383 L43.3119,64.2383 L43.3119,62.1445 L39.2181,62.1445 L39.2181,59.9258 L44.0463,59.9258 L44.0463,57.8164 L36.7025,57.8164 L36.7025,68.8945 Z " fill="#000000"/><text fill="#000000" font-family="sans-serif" font-size="14" lengthAdjust="spacing" textLength="122.7188" x="54.64" y="67.6797">ImpactOrganization</text><line style="stroke:#181818;stroke-width:0.5;" x1="26.64" x2="179.3588" y1="78.8945" y2="78.8945"/><text fill="#000000" font-family="sans-serif" font-size="14" lengthAdjust="spacing" textLength="99.7842" x="31.64" y="95.8828">organizationDID</text><line style="stroke:#181818;stroke-width:0.5;" x1="26.64" x2="179.3588" y1="103.3008" y2="103.3008"/></a></g><!--class ImpactProject--><g class="entity" data-entity="ImpactProject" data-source-line="123" data-uid="ent0005" id="entity_ImpactProject"><a href="" target="_top" title="The ImpactProject is a specific initiative aimed at creating measurable positive impact within defined scopes." xlink:actuate="onRequest" xlink:href="" xlink:show="new" xlink:title="The ImpactProject is a specific initiative aimed at creating measurable positive impact within defined scopes." xlink:type="simple"><rect fill="#555555" fill-opacity="0.06667" height="64.4063" rx="2.5" ry="2.5" style="stroke:#181818;stroke-width:0.5;" width="119.7119" x="224.14" y="188.2945"/><ellipse cx="239.14" cy="204.2945" fill="#ADD1B2" rx="11" ry="11" style="stroke:#181818;stroke-width:1;"/><path d="M235.2025,210.2945 L242.7181,210.2945 L242.7181,208.1852 L237.7181,208.1852 L237.7181,205.6383 L241.8119,205.6383 L241.8119,203.5445 L237.7181,203.5445 L237.7181,201.3258 L242.5463,201.3258 L242.5463,199.2164 L235.2025,199.2164 L235.2025,210.2945 Z " fill="#000000"/><text fill="#000000" font-family="sans-serif" font-size="14" lengthAdjust="spacing" textLength="87.7119" x="253.14" y="209.0797">ImpactProject</text><line style="stroke:#181818;stroke-width:0.5;" x1="225.14" x2="342.8519" y1="220.2945" y2="220.2945"/><text fill="#000000" font-family="sans-serif" font-size="14" lengthAdjust="spacing" textLength="77.6016" x="230.14" y="237.2828">organization</text><line style="stroke:#181818;stroke-width:0.5;" x1="225.14" x2="342.8519" y1="244.7008" y2="244.7008"/></a></g><!--class ImpactWork--><g class="entity" data-entity="ImpactWork" data-source-line="128" data-uid="ent0006" id="entity_ImpactWork"><a href="" target="_top" title="The ImpactWork is the actual work performed by contributors that generates impact within a project." xlink:actuate="onRequest" xlink:href="" xlink:show="new" xlink:title="The ImpactWork is the actual work performed by contributors that generates impact within a project." xlink:type="simple"><rect fill="#555555" fill-opacity="0.06667" height="48" rx="2.5" ry="2.5" style="stroke:#181818;stroke-width:0.5;" width="107.7148" x="298.14" y="688.7345"/><ellipse cx="313.14" cy="704.7345" fill="#ADD1B2" rx="11" ry="11" style="stroke:#181818;stroke-width:1;"/><path d="M309.2025,710.7345 L316.7181,710.7345 L316.7181,708.6252 L311.7181,708.6252 L311.7181,706.0783 L315.8119,706.0783 L315.8119,703.9845 L311.7181,703.9845 L311.7181,701.7658 L316.5463,701.7658 L316.5463,699.6564 L309.2025,699.6564 L309.2025,710.7345 Z " fill="#000000"/><text fill="#000000" font-family="sans-serif" font-size="14" lengthAdjust="spacing" textLength="75.7148" x="327.14" y="709.5197">ImpactWork</text><line style="stroke:#181818;stroke-width:0.5;" x1="299.14" x2="404.8548" y1="720.7345" y2="720.7345"/><line style="stroke:#181818;stroke-width:0.5;" x1="299.14" x2="404.8548" y1="728.7345" y2="728.7345"/></a></g><!--class ImpactScope--><g class="entity" data-entity="ImpactScope" data-source-line="129" data-uid="ent0007" id="entity_ImpactScope"><a href="" target="_top" title="The ImpactScope is a piece of structured data defining boundaries and timeframes for measuring impact within a project." xlink:actuate="onRequest" xlink:href="" xlink:show="new" xlink:title="The ImpactScope is a piece of structured data defining boundaries and timeframes for measuring impact within a project." xlink:type="simple"><rect fill="#555555" fill-opacity="0.06667" height="80.8125" rx="2.5" ry="2.5" style="stroke:#181818;stroke-width:0.5;" width="143.7559" x="213.12" y="344.7045"/><ellipse cx="241.3392" cy="360.7045" fill="#7E57C2" rx="11" ry="11" style="stroke:#181818;stroke-width:1;"/><path d="M238.5267,366.7045 L241.7454,366.7045 C244.8236,366.7045 246.9329,364.9233 246.9329,361.1108 C246.9329,357.2983 244.8236,355.6264 241.5892,355.6264 L238.5267,355.6264 L238.5267,366.7045 Z M241.0423,364.6889 L241.0423,357.642 L241.4486,357.642 C243.1829,357.642 244.3548,358.4545 244.3548,361.1108 C244.3548,363.767 243.1829,364.6889 241.4486,364.6889 L241.0423,364.6889 Z " fill="#000000"/><text fill="#000000" font-family="sans-serif" font-size="14" lengthAdjust="spacing" textLength="82.3799" x="258.2768" y="365.4897">ImpactScope</text><line style="stroke:#181818;stroke-width:0.5;" x1="214.12" x2="355.8759" y1="376.7045" y2="376.7045"/><text fill="#000000" font-family="sans-serif" font-size="14" lengthAdjust="spacing" textLength="65.3447" x="219.12" y="393.6928">projectUID</text><text fill="#000000" font-family="sans-serif" font-size="14" lengthAdjust="spacing" textLength="131.7559" x="219.12" y="410.0991">epoch or timeInterval</text><line style="stroke:#181818;stroke-width:0.5;" x1="214.12" x2="355.8759" y1="417.517" y2="417.517"/></a></g><!--class ImpactClaim--><g class="entity" data-entity="ImpactClaim" data-source-line="147" data-uid="ent0008" id="entity_ImpactClaim"><a href="" target="_top" title="The ImpactClaim is a structured piece of data serving as a vehicle for ImpactContributor entities to group communicate outcomes to Measurers" xlink:actuate="onRequest" xlink:href="" xlink:show="new" xlink:title="The ImpactClaim is a structured piece of data serving as a vehicle for ImpactContributor entities to group communicate outcomes to Measurers" xlink:type="simple"><rect fill="#555555" fill-opacity="0.06667" height="97.2188" rx="2.5" ry="2.5" style="stroke:#181818;stroke-width:0.5;" width="111.2832" x="229.36" y="502.5145"/><ellipse cx="244.36" cy="518.5145" fill="#7E57C2" rx="11" ry="11" style="stroke:#181818;stroke-width:1;"/><path d="M241.5475,524.5145 L244.7663,524.5145 C247.8444,524.5145 249.9538,522.7333 249.9538,518.9208 C249.9538,515.1083 247.8444,513.4364 244.61,513.4364 L241.5475,513.4364 L241.5475,524.5145 Z M244.0631,522.4989 L244.0631,515.452 L244.4694,515.452 C246.2038,515.452 247.3756,516.2645 247.3756,518.9208 C247.3756,521.577 246.2038,522.4989 244.4694,522.4989 L244.0631,522.4989 Z " fill="#000000"/><text fill="#000000" font-family="sans-serif" font-size="14" lengthAdjust="spacing" textLength="79.2832" x="258.36" y="523.2997">ImpactClaim</text><line style="stroke:#181818;stroke-width:0.5;" x1="230.36" x2="339.6432" y1="534.5145" y2="534.5145"/><text fill="#000000" font-family="sans-serif" font-size="14" lengthAdjust="spacing" textLength="37.8232" x="235.36" y="551.5028">scope</text><text fill="#000000" font-family="sans-serif" font-size="14" lengthAdjust="spacing" textLength="73.7734" x="235.36" y="567.9091">timeInterval</text><text fill="#000000" font-family="sans-serif" font-size="14" lengthAdjust="spacing" textLength="62.4873" x="235.36" y="584.3153">extra data</text><line style="stroke:#181818;stroke-width:0.5;" x1="230.36" x2="339.6432" y1="591.7333" y2="591.7333"/></a></g><!--class ImpactContributor--><g class="entity" data-entity="ImpactContributor" data-source-line="167" data-uid="ent0009" id="entity_ImpactContributor"><a href="" target="_top" title="The ImpactContributor is a human and/or digital entity that performs work and claims impact within projects." xlink:actuate="onRequest" xlink:href="" xlink:show="new" xlink:title="The ImpactContributor is a human and/or digital entity that performs work and claims impact within projects." xlink:type="simple"><rect fill="#555555" fill-opacity="0.06667" height="64.4063" rx="2.5" ry="2.5" style="stroke:#181818;stroke-width:0.5;" width="145.9141" x="30.5" y="680.7345"/><ellipse cx="45.5" cy="696.7345" fill="#ADD1B2" rx="11" ry="11" style="stroke:#181818;stroke-width:1;"/><path d="M41.5625,702.7345 L49.0781,702.7345 L49.0781,700.6252 L44.0781,700.6252 L44.0781,698.0783 L48.1719,698.0783 L48.1719,695.9845 L44.0781,695.9845 L44.0781,693.7658 L48.9063,693.7658 L48.9063,691.6564 L41.5625,691.6564 L41.5625,702.7345 Z " fill="#000000"/><text fill="#000000" font-family="sans-serif" font-size="14" lengthAdjust="spacing" textLength="113.9141" x="59.5" y="701.5197">ImpactContributor</text><line style="stroke:#181818;stroke-width:0.5;" x1="31.5" x2="175.4141" y1="712.7345" y2="712.7345"/><text fill="#000000" font-family="sans-serif" font-size="14" lengthAdjust="spacing" textLength="121.6113" x="36.5" y="729.7228">workDecisionPolicy</text><line style="stroke:#181818;stroke-width:0.5;" x1="31.5" x2="175.4141" y1="737.1408" y2="737.1408"/></a></g><!--link TheoryOfChange to ImpactProject--><g class="link" data-entity-1="TheoryOfChange" data-entity-2="ImpactProject" data-source-line="173" data-uid="lnk10" id="link_TheoryOfChange_ImpactProject"><path codeLine="173" d="M284,103.4245 C284,126.6045 284,156.2945 284,181.9845" fill="none" id="TheoryOfChange-to-ImpactProject" style="stroke:#0055A9;stroke-width:1;"/><polygon fill="#0055A9" points="284,187.9845,288,178.9845,284,182.9845,280,178.9845,284,187.9845" style="stroke:#0055A9;stroke-width:1;"/><text fill="#0055A9" font-family="sans-serif" font-size="13" lengthAdjust="spacing" textLength="40.0156" x="285" y="154.3551">orients</text></g><!--link ImpactOrganization to ImpactProject--><g class="link" data-entity-1="ImpactOrganization" data-entity-2="ImpactProject" data-source-line="174" data-uid="lnk11" id="link_ImpactOrganization_ImpactProject"><path codeLine="174" d="M144.07,111.7245 C173.69,134.5445 208.7571,161.5426 238.3371,184.3326" fill="none" id="ImpactOrganization-to-ImpactProject" style="stroke:#0055A9;stroke-width:1;"/><polygon fill="#0055A9" points="243.09,187.9945,238.4019,179.333,239.1292,184.9429,233.5193,185.6703,243.09,187.9945" style="stroke:#0055A9;stroke-width:1;"/><text fill="#0055A9" font-family="sans-serif" font-size="13" lengthAdjust="spacing" textLength="57.0591" x="205.34" y="154.3551">facilitates</text><text fill="#0055A9" font-family="sans-serif" font-size="13" lengthAdjust="spacing" textLength="7.3062" x="144.2611" y="131.4566">1</text><text fill="#0055A9" font-family="sans-serif" font-size="13" lengthAdjust="spacing" textLength="5.5986" x="229.6034" y="177.2025">*</text></g><!--link ImpactProject to ImpactScope--><g class="link" data-entity-1="ImpactProject" data-entity-2="ImpactScope" data-source-line="175" data-uid="lnk12" id="link_ImpactProject_ImpactScope"><path codeLine="175" d="M284.19,252.8545 C284.35,278.9745 284.5417,310.3147 284.7217,338.5047" fill="none" id="ImpactProject-to-ImpactScope" style="stroke:#0055A9;stroke-width:1;"/><polygon fill="#0055A9" points="284.76,344.5045,288.7025,335.4792,284.7281,339.5046,280.7026,335.5303,284.76,344.5045" style="stroke:#0055A9;stroke-width:1;"/><text fill="#0055A9" font-family="sans-serif" font-size="13" lengthAdjust="spacing" textLength="40.8853" x="285.56" y="295.7651">divides</text><text fill="#0055A9" font-family="sans-serif" font-size="13" lengthAdjust="spacing" textLength="22.0073" x="294.999" y="310.9995">into</text><text fill="#0055A9" font-family="sans-serif" font-size="13" lengthAdjust="spacing" textLength="7.3062" x="276.5693" y="272.785">1</text><text fill="#0055A9" font-family="sans-serif" font-size="13" lengthAdjust="spacing" textLength="5.5986" x="279.3561" y="333.6169">*</text></g><!--link ImpactScope to ImpactClaim--><g class="link" data-entity-1="ImpactScope" data-entity-2="ImpactClaim" data-source-line="176" data-uid="lnk13" id="link_ImpactScope_ImpactClaim"><path codeLine="176" d="M285,425.8145 C285,448.7545 285,471.7845 285,496.0145" fill="none" id="ImpactScope-to-ImpactClaim" style="stroke:#0055A9;stroke-width:1;"/><polygon fill="#0055A9" points="285,502.0145,289,493.0145,285,497.0145,281,493.0145,285,502.0145" style="stroke:#0055A9;stroke-width:1;"/><text fill="#0055A9" font-family="sans-serif" font-size="13" lengthAdjust="spacing" textLength="49.772" x="286" y="468.5751">contains</text><text fill="#0055A9" font-family="sans-serif" font-size="13" lengthAdjust="spacing" textLength="7.3062" x="277.4669" y="445.5762">1</text><text fill="#0055A9" font-family="sans-serif" font-size="13" lengthAdjust="spacing" textLength="5.5986" x="279.7041" y="491.4839">*</text></g><!--reverse link ImpactClaim to ImpactContributor--><g class="link" data-entity-1="ImpactClaim" data-entity-2="ImpactContributor" data-source-line="177" data-uid="lnk15" id="link_ImpactClaim_ImpactContributor"><path codeLine="177" d="M225.8793,603.971 C197.7193,628.671 168.49,654.2945 142.82,676.8145" fill="none" id="ImpactClaim-backto-ImpactContributor" style="stroke:#0055A9;stroke-width:1;"/><polygon fill="#0055A9" points="230.39,600.0145,220.9863,602.9421,226.6311,603.3116,226.2616,608.9564,230.39,600.0145" style="stroke:#0055A9;stroke-width:1;"/><text fill="#0055A9" font-family="sans-serif" font-size="13" lengthAdjust="spacing" textLength="38.3081" x="195" y="642.7951">claims</text><text fill="#0055A9" font-family="sans-serif" font-size="13" lengthAdjust="spacing" textLength="5.5986" x="217.7558" y="619.6683">*</text><text fill="#0055A9" font-family="sans-serif" font-size="13" lengthAdjust="spacing" textLength="5.5986" x="141.4782" y="669.5925">*</text></g><!--link ImpactContributor to ImpactWork--><g class="link" data-entity-1="ImpactContributor" data-entity-2="ImpactWork" data-source-line="178" data-uid="lnk16" id="link_ImpactContributor_ImpactWork"><path codeLine="178" d="M183.17,712.7345 C220.71,712.7345 258.54,712.7345 291.99,712.7345" fill="none" id="ImpactContributor-to-ImpactWork" style="stroke:#0055A9;stroke-width:1;"/><polygon fill="#0055A9" points="297.99,712.7345,288.99,708.7345,292.99,712.7345,288.99,716.7345,297.99,712.7345" style="stroke:#0055A9;stroke-width:1;"/><polygon fill="#0055A9" points="210.82,704.3517,201.7749,701.4128,201.7749,707.2906,210.82,704.3517" style="stroke:#0055A9;stroke-width:1;"/><text fill="#0055A9" font-family="sans-serif" font-size="13" lengthAdjust="spacing" textLength="65.5396" x="214.82" y="708.7951">contributes</text><text fill="#0055A9" font-family="sans-serif" font-size="13" lengthAdjust="spacing" textLength="5.5986" x="184.3303" y="709.6884">*</text><text fill="#0055A9" font-family="sans-serif" font-size="13" lengthAdjust="spacing" textLength="5.5986" x="284.3831" y="708.6646">*</text></g><!--reverse link ImpactWork to ImpactContributor--><g class="link" data-entity-1="ImpactWork" data-entity-2="ImpactContributor" data-source-line="179" data-uid="lnk18" id="link_ImpactWork_ImpactContributor"><path codeLine="179" d="M292.0993,735.4175 C286.4093,737.0375 286.43,736.7645 280.82,737.7345 C245.78,743.7845 235.31,746.3745 200.82,737.7345 C188.93,734.7545 188.76,724.7345 176.5,724.7345" fill="none" id="ImpactWork-backto-ImpactContributor" style="stroke:#0055A9;stroke-width:1;"/><polygon fill="#0055A9" points="297.87,733.7745,288.1187,732.3919,293.0611,735.1437,290.3093,740.0861,297.87,733.7745" style="stroke:#0055A9;stroke-width:1;"/><polygon fill="#0055A9" points="227.2988,729.8118,218.5625,726.053,218.0216,731.9059,227.2988,729.8118" style="stroke:#0055A9;stroke-width:1;"/><text fill="#0055A9" font-family="sans-serif" font-size="13" lengthAdjust="spacing" textLength="32.2271" x="231.32" y="733.7951">gates</text><text fill="#0055A9" font-family="sans-serif" font-size="13" lengthAdjust="spacing" textLength="5.5986" x="284.5968" y="732.841">*</text><text fill="#0055A9" font-family="sans-serif" font-size="13" lengthAdjust="spacing" textLength="7.3062" x="184.746" y="722.7607">1</text></g><!--link ImpactClaim to ImpactWork--><g class="link" data-entity-1="ImpactClaim" data-entity-2="ImpactWork" data-source-line="180" data-uid="lnk19" id="link_ImpactClaim_ImpactWork"><path codeLine="180" d="M305.1,600.0145 C317.36,629.2145 330.1579,659.7021 339.8579,682.8121" fill="none" id="ImpactClaim-to-ImpactWork" style="stroke:#0055A9;stroke-width:1;"/><polygon fill="#0055A9" points="342.18,688.3445,342.3851,678.4978,340.2449,683.7342,335.0085,681.594,342.18,688.3445" style="stroke:#0055A9;stroke-width:1;"/><polygon fill="#0055A9" points="331.4354,642.962,330.6441,633.4844,325.2244,635.7595,331.4354,642.962" style="stroke:#0055A9;stroke-width:1;"/><text fill="#0055A9" font-family="sans-serif" font-size="13" lengthAdjust="spacing" textLength="61.6421" x="338.5" y="642.7951">represents</text><text fill="#0055A9" font-family="sans-serif" font-size="13" lengthAdjust="spacing" textLength="5.5986" x="302.505" y="619.6683">*</text><text fill="#0055A9" font-family="sans-serif" font-size="13" lengthAdjust="spacing" textLength="5.5986" x="334.2506" y="677.6605">*</text></g><!--reverse link ImpactOrganization to ImpactContributor--><g class="link" data-entity-1="ImpactOrganization" data-entity-2="ImpactContributor" data-source-line="181" data-uid="lnk21" id="link_ImpactOrganization_ImpactContributor"><path codeLine="181" d="M103,117.6545 C103,145.9045 103,182.4745 103,219.5045 C103,219.5045 103,219.5045 103,552.1245 C103,595.0745 103,644.5245 103,676.8645" fill="none" id="ImpactOrganization-backto-ImpactContributor" style="stroke:#0055A9;stroke-width:1;"/><polygon fill="#0055A9" points="103,111.6545,99,120.6545,103,116.6545,107,120.6545,103,111.6545" style="stroke:#0055A9;stroke-width:1;"/><polygon fill="#0055A9" points="108,380.2317,105.0611,389.2768,110.9389,389.2768,108,380.2317" style="stroke:#0055A9;stroke-width:1;"/><text fill="#0055A9" font-family="sans-serif" font-size="13" lengthAdjust="spacing" textLength="60.8486" x="117" y="389.6751">belongs to</text><text fill="#0055A9" font-family="sans-serif" font-size="13" lengthAdjust="spacing" textLength="5.5986" x="97.5806" y="131.3733">*</text><text fill="#0055A9" font-family="sans-serif" font-size="13" lengthAdjust="spacing" textLength="5.5986" x="97.7259" y="669.4437">*</text></g><!--SRC=[xLh_Rnkt5VzTVmMjPetTMalT8SCc905SMqcyER5Xkms6932eEqhYV7Sya3mxIf7_lU-Hl3kIeYKvsGy3DXTeTUGzydtzl2_NnsIdbdHUKbBGfMWqKINJjAA3mGwVLJcRaVEBitzCZgwktnw-cGnsO8LNB5WaRoON9vh9mGwhSZuRx3mwFZbyTN7uvlhgN-SJyfmC9vNcUaakM44r5vLQy9eSSpgNj2IxaulZlM5tsyjVJq-lhqwkJk6kH_q3d19S-ICPmZy_ak2gbe71Ot8agXcVDzBSHswfv7HQCDLTS_dwxDtrovF9wV5b9vEtHeOpMYWsx4JooIQ7bqdIVlq-yjzEBaz-EPrSdnyU_VFmrQIdZpV8y9MuPRAYLSRsJygQPdh_3QEgaMn_SakBXcgsVy7kgCnNBdbzSZovdfnEtapUNlKt1AltyMTUkZm_Y-dCKam4MdxDYff9CckgpEXP2v8jM7P3-8m0ppTqpWXNv9Oh3jeVx7GlFkBgtEx_PlTs7xdttzAIxGq8sP5CDx8YVr9QraBjnXhQ9m45sNbEHWU6jVOIuy4erIFVftZmZ6J3uG2yis3XUqunJbGas_Nzu_dpLXrxWmNF6M5b3Hu-uwp8LKVsJEbbmLuCSf4r9Qiq-Hqa8yHUPt_ZtqjHwKl-cP6__1ok8JMPYY8tory6NmQjLZSSTF0tHu7_FWKx7eb2IFBTNyqVd9CLLAas1Eq1Piaxx1UuQYv5K-ME-AdvEpZmZgPIYZkFnkWfT3NKb9ODAgfzgsVeRi4r2zXFhUymK7I2-hkVVdhwzF3l2VfunncaPzm8kq-O0QPzKWdD_cDYn8gBTeNCcNoO-1xpNmQg5gqZuS-94m5_7rDDZo8pzhBOAFxl4UJP4nSUWyVgXbSrHLyiW1Uzh1aHKY-4YxnLkF3mSRYtD-ZYmbidkvZ9zeQ4AkAjMirOmvEpwRyPWCKjKyTCyNa5OFR-_UzN2vRQ0IIJ3DHS6HR83EGp8CchELdm-M9Ki5jMaBa0N22qoedepY1wGJM8n144D1oFzqi0HmFjX5b8HsHKIwLP-USl7p_wV5vcebxbCLfTnn-o0qZQP02g-EmkLkO4ortERn78QYcGQqLu1N1UcgI3kPCq5TSgPimb9GItcBlKLf95t4EUofu0VeFrS_2XEMTMcPdBw4RR03hUsugeXMYAd4mPqVI6LJ6Naqw_CPE9dRKyUfRA9FWsr1M6kv1Vf84eP4f5Sgtep-RmcAjeTIr7qhnBQb7mhDLLpi7MVDeOFakMBMZ5LMdvSfO7TTfNX5nXwaeQZfSjEzqpC4BX9b4GCSEidyFpBUK5RTcop7WErbs3PP_X3Sdm1N0yMvtPwytzaTmZ-HvoQywgZwCN7HFcnSZpWnSJVcTeKluO4AxwWg5Bk4X05Z9j1KcWn_1WI4RmElutOdyCeScOLDkGfgHu27r2ceUGHnRgIB-4fL82i6qLYs3TOhLT2G4Pt4t8vTdi25mMNcaTC5mrRZY3RC7kXBnnwCKK1EGK0W310HtjRh4qOI8PW8SX13B0NFQf1WbX4U1jGUkQLG1rwDTKQfur1PN6QzadtJkcuyvoV2Rd44-VBGeu3XCxo6NLKXeUPpJZ1TTGkxly04b9CNXmmT91Bsv2bk1o9KpZn1xNf55c5nv3noV7zzT3WO3dbezGjdRHA5-12lcCPw0vhZb5Vo6Kbw1K43E3IDKzy1bmW1AUcxUSg7TSBq3hjid8NHxwHW6tbEuT-amWcbdXoYHcU6neGOnZ0K81gA5KqsLW2MlEEQiGmdhxEQ5eQyWELtEeosnvRIyqyH_oO9Sim786TGeWR9kmWG4yeS_cKwp9eATrVgH1yoOSBC9RjNiWdEBhWNfsbBzwFiHgaIt00ERw4mWO2T2IEDHhYnC7ZqRTpuRdtMy5VMH9kqV9PlxLU2FP1GrPLnDLVnv4DxTvvGfUyWwu5LbgEUCr5cNT2jLWKEsWlwV4zZNXNablYwqD5JalGslR9HjAlP4xmnjhAr2eATtmhLksu9bBikw8tX-jVwCt0AHXmLw3jvOb56mWCXpOQ7YqkovzIFLm5p0n6fXWnUY0cP8Qxl_N_M0LTdnxXRxWRHYFM3Gb90u8x2TOwF4vP8mYo2CEbvH5ALCSep_5EDIcawy8Tppu67IYG57dM5akruWPPUTH3hL2c3F6hlMn9KOYLveI0-c6FmnNQBsqwT6t-mbIYwLZrz6e3nMsCXwftKyGsh0S6wodlFAlyws41ACcJMaCiOuk83EPPqnUzDc5tKCy7g_Qn8fGf4-SH_go7AvXGR8Qkep8IgjYro5vO4OyPieAKSqHRBOe2XqS-LMXMt8EssEfL_WcEimDcJEZjMjylSebHtZ4REuQECapRBGAweh3jeKn9lsA8EAztazwHElktG2b9jx_dqxZIKCyNjW2C-FUMTERk2r7dmdCRUjpbpZxFg2xjEk9VWXQCeW0741iqm-rOtpVzzkr5UVlkxOBfff2huultFgc0j8qIIWzrheWNzreV15qvux29hwftCp86tTyXV-ZMobDotgZRVkxGxd4LrYtPJcsC1fqLzGe2osAvHuHe0BfIQZsMwE3KdGqx956lPudz1m6UMJ586Cop6Y1RIKs2l0tZ8OAxhqWf_I76tALqPpb7o293RTmBFTPo7Chkn8ssdRjoB4cej6JjvuOFhK2UUCdKAa314McL873YIgXFwFXQ68LUDPclxBKGL6ofWAtuXnst8LYUklh0yTcZMKREBI41amxOHpa8PdbBJrdQoTT3mmYUzKQX4rdcViYpSrlslbWR7T_8s5uzebbZMwr44mPFUczr1aF6Rqfd-TYGGIjM6PC-W3owBqtJEp8S4Bb2J8cjD4Bg40_1y3ycBZ88UP31aeriXcG8UCAJa2p5cocHrgC99yljFj8liMGQukAnys_KiFBWL-pfLwGtgVRZUabTL6xl-cS7arIfzZTvDVIzR9lmtPR2NuZtybZ7iPupnNv_dkozhOkXQUkMq7zr22vzzoDV8KVmLo8lxG3zalHoAmRCeMBRZJvIIDrr5jAOPecDzw7MCPGr-qNWDIGtqHsU869oDn5PFVvO6mFtMP6lD9JUdeAf-SGnrTdHss3QO79R9bA6_1I5oYQ5CryONR3EcyNK2nh56OiR9j9dbEnDtWStv_yFE3rjIc2zAY-fGXQKL3NCsZaqXy7h3XgayTxqPMwEG3PhexT-dG_C1EQI1L1uW77zm4KVM5O_VZW9Ox- -Cx74XyhWbHWFN3Bk6_zyPweNy7orHxRK_HGDTEIQzTSFlbGeUTX09lvyZ0yug1rYB2_68-3T0-dkXgtzQUuNqyVuW9-ZEakv_e1nj-i2RyR2lmwKHgx0X6uZwb6gKgOupSSZPKmwkjRULx1RAyON-zqzfiNUR6jKz_3G8zszzck6OtkTUHdRRqrs79MP6tnlXAILZSVWvC3wPu1SCwAXa5MKGzeDjfMpYMLTq8MUTVE1OlzeAbFGGhRveKeSkRcCVR_Wt1VMj0-p2nFMSLcN9EP5AMFvYYmoKFXLSQGpVsLfJcua_8F]--></g></svg>